<svg id="Capa_1" data-name="Capa 1" xmlns="http://www.w3.org/2000/svg" viewBox="0 0 200 68.27"><defs><style>.cls-1{fill:#fb9924;}.cls-2{fill:#fff;}</style></defs><title>contra-entrega</title><rect class="cls-1" x="4.78" y="1.63" width="190.43" height="65" rx="18.48" ry="18.48"/><path class="cls-2" d="M21,26.19a5.69,5.69,0,0,1,6,4.68H23a2,2,0,0,0-2-1.43c-1.36,0-2.3,1.07-2.3,3.14s.94,3.15,2.3,3.15a1.94,1.94,0,0,0,2-1.43H27A5.77,5.77,0,0,1,21,39c-3.65,0-6.23-2.45-6.23-6.4S17.38,26.19,21,26.19Z"/><path class="cls-2" d="M34.69,39a6.1,6.1,0,0,1-6.42-6.4,6.15,6.15,0,0,1,6.47-6.39,6.13,6.13,0,0,1,6.46,6.39A6.18,6.18,0,0,1,34.69,39Zm0-3.3c1.36,0,2.63-1,2.63-3.1s-1.25-3.09-2.58-3.09-2.59,1-2.59,3.09S33.31,35.68,34.69,35.68Z"/><path class="cls-2" d="M51.8,32.05c0-1.69-.93-2.63-2.38-2.63A2.32,2.32,0,0,0,47,32.05V38.8H43.22V26.37H47V28a4.56,4.56,0,0,1,3.77-1.78c2.87,0,4.79,2,4.79,5.3V38.8H51.8Z"/><path class="cls-2" d="M58.84,29.53H57.33V26.37h1.51v-3h3.81v3h2.5v3.16h-2.5v5c0,.74.31,1,1.16,1h1.36V38.8H63.23c-2.58,0-4.39-1.09-4.39-4.32Z"/><path class="cls-2" d="M71.09,38.8H67.28V26.37h3.81v2.07a4.64,4.64,0,0,1,3.9-2.2v4H74c-1.81,0-2.86.62-2.86,2.76Z"/><path class="cls-2" d="M81.54,26.19a4.32,4.32,0,0,1,3.83,1.94V26.37h3.81V38.8H85.37V37A4.39,4.39,0,0,1,81.52,39c-3,0-5.46-2.5-5.46-6.42S78.49,26.19,81.54,26.19Zm1.12,3.32a2.77,2.77,0,0,0-2.72,3.05,2.81,2.81,0,0,0,2.72,3.1,2.78,2.78,0,0,0,2.71-3.08A2.77,2.77,0,0,0,82.66,29.51Z"/><path class="cls-2" d="M102.19,39a6,6,0,0,1-6.28-6.4,6,6,0,0,1,6.28-6.39,5.86,5.86,0,0,1,6.2,6.19,8.63,8.63,0,0,1-.07,1.12H99.7a2.3,2.3,0,0,0,2.36,2.38,2,2,0,0,0,2-1.2h4.06A5.81,5.81,0,0,1,102.19,39Zm-2.47-7.6h4.77a2.15,2.15,0,0,0-2.34-2.14A2.36,2.36,0,0,0,99.72,31.38Z"/><path class="cls-2" d="M119,32.05a2.4,2.4,0,1,0-4.77,0V38.8h-3.81V26.37h3.81V28A4.56,4.56,0,0,1,118,26.24c2.87,0,4.79,2,4.79,5.3V38.8H119Z"/><path class="cls-2" d="M126,29.53H124.5V26.37H126v-3h3.81v3h2.49v3.16h-2.49v5c0,.74.31,1,1.16,1h1.36V38.8H130.4c-2.59,0-4.39-1.09-4.39-4.32Z"/><path class="cls-2" d="M138.26,38.8h-3.81V26.37h3.81v2.07a4.64,4.64,0,0,1,3.9-2.2v4h-1c-1.8,0-2.85.62-2.85,2.76Z"/><path class="cls-2" d="M149.51,39a6,6,0,0,1-6.28-6.4,6,6,0,0,1,6.28-6.39,5.86,5.86,0,0,1,6.2,6.19,8.63,8.63,0,0,1-.07,1.12H147a2.3,2.3,0,0,0,2.36,2.38,2,2,0,0,0,2-1.2h4.06A5.81,5.81,0,0,1,149.51,39ZM147,31.38h4.77a2.15,2.15,0,0,0-2.34-2.14A2.36,2.36,0,0,0,147,31.38Z"/><path class="cls-2" d="M162.44,26.19a4.3,4.3,0,0,1,3.83,1.94V26.37h3.81V38.78c0,3.32-1.92,6.15-6.22,6.15-3.7,0-6.1-1.88-6.44-4.84h3.77a2.33,2.33,0,0,0,2.49,1.54c1.45,0,2.59-.76,2.59-2.85V37a4.4,4.4,0,0,1-3.83,2c-3.06,0-5.48-2.5-5.48-6.42S159.38,26.19,162.44,26.19Zm1.11,3.32a2.77,2.77,0,0,0-2.72,3.05,2.81,2.81,0,0,0,2.72,3.1,2.78,2.78,0,0,0,2.72-3.08A2.77,2.77,0,0,0,163.55,29.51Z"/><path class="cls-2" d="M177.56,26.19a4.32,4.32,0,0,1,3.83,1.94V26.37h3.81V38.8h-3.81V37A4.39,4.39,0,0,1,177.54,39c-3,0-5.46-2.5-5.46-6.42S174.51,26.19,177.56,26.19Zm1.12,3.32A2.77,2.77,0,0,0,176,32.56a2.81,2.81,0,0,0,2.72,3.1,2.78,2.78,0,0,0,2.71-3.08A2.77,2.77,0,0,0,178.68,29.51Z"/></svg>