<?xml version="1.0" encoding="utf-8"?>
<!-- Generator: Adobe Illustrator 22.1.0, SVG Export Plug-In . SVG Version: 6.00 Build 0)  -->
<svg version="1.1" id="Capa_1" xmlns="http://www.w3.org/2000/svg" xmlns:xlink="http://www.w3.org/1999/xlink" x="0px" y="0px"
	 viewBox="0 0 50 50" style="enable-background:new 0 0 50 50;" xml:space="preserve">
<style type="text/css">
	.st0{fill:#D7D9DB;}
	.st1{opacity:0.5;}
	.st2{fill:url(#SVGID_1_);}
</style>
<title>logo2</title>
<circle class="st0" cx="25" cy="25" r="21"/>
<g class="st1">
	<g>
		
			<linearGradient id="SVGID_1_" gradientUnits="userSpaceOnUse" x1="24.2544" y1="31.7257" x2="24.2544" y2="18.2743" gradientTransform="matrix(-1 0 0 -1 50 50)">
			<stop  offset="0" style="stop-color:#0000FF"/>
			<stop  offset="1" style="stop-color:#E1002D"/>
		</linearGradient>
		<path class="st2" d="M22.6,18.3c0.2,0,0.4,0.1,0.5,0.2l6.3,6.2c0.1,0.1,0.2,0.3,0.2,0.5c0,0.2-0.1,0.4-0.2,0.5l-6.3,5.8
			c-0.3,0.3-0.8,0.3-1,0c-0.3-0.3-0.3-0.8,0-1l5.7-5.3l-5.7-5.6c-0.3-0.3-0.3-0.8,0-1C22.2,18.3,22.4,18.3,22.6,18.3z"/>
	</g>
</g>
</svg>
