<svg id="Capa_1" data-name="Capa 1" xmlns="http://www.w3.org/2000/svg" viewBox="0 0 500 68.67"><title>aurora</title><path d="M284.42,61.47c-9.82-.22-19.52-1.06-28.54-5.49C243.11,49.7,238,36.71,243.43,24.28c3-6.76,8.58-10.67,15.2-13.25,9.59-3.73,19.64-4.33,29.78-4,8.76.29,17.37,1.42,25.31,5.5C322.39,17,327.17,24,327.24,33.9s-4.66,17.21-13.39,21.8C304.64,60.54,294.56,61.23,284.42,61.47Zm.33-7.39c9.82-.07,17.86-5.4,20.61-13.68,3.56-10.73-2.52-21.71-13.93-25.14-12.24-3.67-25.11,2.55-28.1,13.63a18.8,18.8,0,0,0-.67,4.07C262.12,45,271.73,54.16,284.75,54.08Z"/><path d="M355.07,18.84c0,8.55,0,16.83,0,25.11,0,4.47,0,8.94,0,13.41,0,3.76-.41,4.12-4.28,4.13-7.34,0-14.69.06-22-.06-1.2,0-3.38-.77-3.4-1.25a22.08,22.08,0,0,1,.91-6c.12-.45,1-.82,1.57-1,5.16-1.68,6-5.38,5.78-10.35-.38-10.42-.08-20.86-.14-31.28,0-2.13.39-3.51,2.91-3.48,14.25.18,28.52,0,42.75.63a30.2,30.2,0,0,1,12.69,3.69c10.58,5.7,10.79,19.78.61,26.15-2.65,1.66-5.66,2.74-8.79,4.21L400.7,60.31l-.34.81c-5.13,0-10.26,0-15.39,0-.51,0-1.08-.64-1.51-1.09q-11.38-11.86-22.73-23.76a13.81,13.81,0,0,1-1.14-1.81c3.74,0,7,.12,10.27,0a48.12,48.12,0,0,0,8.82-1c4.45-1,6.58-3.63,6.51-7.1s-2.2-5.66-6.44-6.87a11,11,0,0,0-2.8-.57C369.16,18.82,362.37,18.84,355.07,18.84Z"/><path d="M197.16,34.08c5.18,0,10.38.21,15.54-.1a14.62,14.62,0,0,0,6.53-2.16c4.38-2.7,4.22-8.36-.24-11a12.7,12.7,0,0,0-5.67-1.9c-6.89-.23-13.8-.09-21.07-.09-.07,1.1-.2,2.21-.21,3.33-.06,11.7-.21,23.4-.09,35.1,0,3.15-.81,4.36-4.1,4.27-7.34-.21-14.68,0-22-.14-1.28,0-3.55-.87-3.6-1.49-.17-1.84.49-3.78,1-5.63.11-.4.78-.76,1.26-.91,5.57-1.72,6.47-5.67,6.25-11-.42-10.3-.08-20.63-.16-30.95,0-2.24.62-3.39,3-3.36,14,.18,28.09-.05,42.11.63A32.71,32.71,0,0,1,229.79,13c9.17,5.25,9.61,18.17,1.14,24.46-2.92,2.17-6.45,3.5-10.05,5.39l16.89,17.52-.38.79c-5.06,0-10.12,0-15.18-.06-.6,0-1.27-.72-1.77-1.24Q209.06,48,197.71,36.13a12.14,12.14,0,0,1-.74-1Z"/><path d="M92.64,25.19c0-4.68.06-9.36,0-14,0-2.16.83-3.13,3-3.11q7.82,0,15.63,0c2.33,0,3.15,1.1,3.13,3.37-.07,8.61,0,17.22,0,25.84,0,7.3,3.3,11.42,10.44,13.15a25.75,25.75,0,0,0,14.14-.49c5.61-1.78,8.61-5.93,8.65-12,.06-8.71.11-17.43,0-26.15,0-2.73.78-3.92,3.6-3.77s5.56-.2,8.27.16c1.07.13,2.81,1.59,2.82,2.45,0,10.51.15,21.05-.48,31.54-.48,7.94-5.31,13.58-12.65,16.1-15.45,5.31-30.8,4.49-45.43-3C96,51.39,92.15,44.88,92.61,36,92.8,32.43,92.64,28.81,92.64,25.19Z"/><path d="M96.77,61.24c-4.91,0-9.43.12-13.93-.11-.81,0-1.72-1.45-2.28-2.4Q70.62,41.84,60.77,24.89c-.53-.9-1.1-1.77-1.93-3.11L48.4,39.47c4.3,0,8,.15,11.64,0,2.65-.15,4.11.68,5.49,3.11,4.37,7.68,3.16,7-4.28,6.94-5.43,0-10.86-.12-16.27.09-1.19,0-2.33,1.23-3.49,1.89a.53.53,0,0,0-.18.26c-2.7,8.26-8.36,11-16.77,9.66-3.63-.59-7.44-.17-11.16-.08-3.1.07-2.56-2.09-2.61-3.95s0-4,2.7-3.51c4.52.78,6.7-1.48,8.85-5.16C29.71,36,37.52,23.6,45.06,11c1.18-2,2.5-2.87,4.82-2.77,4,.16,8.09-.08,12.13.13a4.71,4.71,0,0,1,3.31,1.74Q80.53,34.26,95.51,58.53C95.93,59.22,96.2,60,96.77,61.24Z"/><path d="M451.28,39.47,440.82,21.73c-1.45,2.44-2.69,4.48-3.89,6.55-5.9,10.09-11.83,20.15-17.62,30.3-1.15,2-2.44,2.94-4.79,2.84-3.67-.16-7.36-.05-11.75-.05.86-1.64,1.35-2.74,2-3.76,9.63-15.52,19.33-31,28.89-46.58,1.21-2,2.46-2.89,4.79-2.78,3.83.16,7.66.14,11.49,0a4.62,4.62,0,0,1,4.6,2.6c8,13.3,16.15,26.49,24.06,39.83,1.47,2.48,3.06,3.31,5.82,3.16,4.33-.23,5.66,1.61,4.38,5.82a3,3,0,0,1-2.27,1.54c-6.91.12-13.83.13-20.74,0-.94,0-1.89-1-2.79-1.61-.24-.16-.32-.54-.49-.81-1.89-3.05-3.12-7.23-5.86-8.84s-6.82-.44-10.32-.46c-4.05,0-8.09.06-12.13,0-2.78,0-3-.75-1.95-3.36,1.93-5,5-7.7,10.72-6.68C445.41,39.84,448,39.47,451.28,39.47Z"/></svg>