<svg id="Capa_1" data-name="Capa 1" xmlns="http://www.w3.org/2000/svg" viewBox="0 0 260.67 68.67"><defs><style>.cls-1{fill:#009bdb;}</style></defs><title>avenli</title><path class="cls-1" d="M133.68,65.13c-.4-.08-.78-.2-1.18-.25a23.27,23.27,0,0,1-6.42-1.8,24.58,24.58,0,0,1-5.56-3.3,20.48,20.48,0,0,1-4.21-4.26,44.05,44.05,0,0,1-2.76-4.29A24,24,0,0,1,111.34,45a26.27,26.27,0,0,1-.43-7.29,22.9,22.9,0,0,1,1.81-7.58,26.23,26.23,0,0,1,4.89-7.63,25.59,25.59,0,0,1,12.73-7.44,24.13,24.13,0,0,1,7.85-.57,24.64,24.64,0,0,1,11.47,3.79,25.19,25.19,0,0,1,5.1,4.21,25.7,25.7,0,0,1,4.74,7.33,23.74,23.74,0,0,1,1.78,6.36,33.48,33.48,0,0,1,.23,4.8,32.31,32.31,0,0,1-.4,3.62H121.22c.41.92.74,1.75,1.14,2.55A14.08,14.08,0,0,0,125.2,51a15.7,15.7,0,0,0,8.49,4.29,15.74,15.74,0,0,0,14.66-5.63.78.78,0,0,1,.51-.25c3.47,0,6.95,0,10.43,0,.09,0,.17,0,.4.05-.49,1-.91,1.94-1.42,2.84a25,25,0,0,1-4.78,6.09,25.42,25.42,0,0,1-8.26,5.15A31.14,31.14,0,0,1,139.48,65l-.85.15ZM151,34.92a15.58,15.58,0,0,0-29.68,0Z"/><path class="cls-1" d="M7.83,36.2c.09-.41.19-.81.25-1.23A24.17,24.17,0,0,1,22.3,16.4a19,19,0,0,1,6.08-1.7,39.49,39.49,0,0,1,5.54-.22,21.9,21.9,0,0,1,7.29,1.74,24.08,24.08,0,0,1,8.84,6.31,23.09,23.09,0,0,1,5.44,10.64,25.5,25.5,0,0,1,.58,5.07c.06,7.93,0,15.87,0,23.8v.72H46.35V38.16a13.63,13.63,0,0,0-2.75-8.09A14,14,0,0,0,36,24.75a14.31,14.31,0,0,0-3.57-.57,13.49,13.49,0,0,0-7.09,1.58A14,14,0,0,0,18,35.16a14,14,0,0,0,2.72,12.39,14,14,0,0,0,7.53,5,17.74,17.74,0,0,0,4,.53,14.05,14.05,0,0,1,6,1.29,9.11,9.11,0,0,1,5,6.8c.1.53.15,1.07.24,1.68h-.67c-3.13,0-6.26,0-9.39,0a35.09,35.09,0,0,1-3.55-.12A24.66,24.66,0,0,1,22,60.62,24,24,0,0,1,10.77,50.23,25.84,25.84,0,0,1,8.1,42.62c-.1-.52-.18-1-.27-1.58Z"/><path class="cls-1" d="M252.83,10.16c-.22.5-.41,1-.68,1.51a4.84,4.84,0,0,1-4.2,2.72c-2,.07-4,0-6,0,0-.08,0-.23,0-.37,0-1.69,0-3.38,0-5.07a5.5,5.5,0,0,1,4.13-5.25,5.45,5.45,0,0,1,6.65,4c0,.06.09.11.13.16Z"/><path class="cls-1" d="M216.51,63.88a7.43,7.43,0,0,1-6.53-2,8.49,8.49,0,0,1-2-3.06,14.58,14.58,0,0,1-1.09-5.25c0-5.26,0-10.51-.13-15.76a12.66,12.66,0,0,0-1.94-6.5,15.86,15.86,0,0,0-2.44-3.13,14.4,14.4,0,0,0-16.73-2.4,14,14,0,0,0-7.37,9.85,18.7,18.7,0,0,0-.35,3.73c0,7.55,0,15.09,0,22.64v.72h-9.74v-.63c0-7.7,0-15.4,0-23.1a24.64,24.64,0,0,1,2.29-10.67,25.43,25.43,0,0,1,3.85-5.87A23.92,23.92,0,0,1,181,17.24a21.23,21.23,0,0,1,7.81-2.54,35.84,35.84,0,0,1,5.48-.22A22.52,22.52,0,0,1,202,16.39a24,24,0,0,1,8.27,5.92,21.51,21.51,0,0,1,4.51,7.3A47.61,47.61,0,0,1,216.25,35a13.81,13.81,0,0,1,.25,3q0,12.59,0,25.17Z"/><path class="cls-1" d="M110.9,15.6c-.34.79-.64,1.5-1,2.2-1.08,2.35-2.17,4.71-3.24,7.06-1.83,4-3.64,8-5.46,12-1.14,2.52-2.29,5-3.43,7.54q-2.37,5.22-4.75,10.43c-1.14,2.52-2.28,5-3.44,7.53a.8.8,0,0,1-.55.44c-3.72,0-7.45,0-11.24,0L56.91,16.87h1.63c2.82,0,5.65,0,8.47,0a.67.67,0,0,1,.73.46q1.85,4.14,3.73,8.28c.87,1.91,1.75,3.81,2.62,5.72L78.5,41c.78,1.74,1.58,3.48,2.37,5.22l2.39,5.21c.1.22.22.43.38.74l.35-.79q1.38-3,2.75-6c1.46-3.21,2.91-6.44,4.38-9.66.87-1.93,1.77-3.85,2.65-5.77s1.72-3.92,2.64-5.84A19.78,19.78,0,0,1,99.14,20a13.63,13.63,0,0,1,4.24-3.39,9.48,9.48,0,0,1,4.22-1Z"/><path class="cls-1" d="M224.39,4.8h9.71V63.9a7.4,7.4,0,0,1-6.1-1.68,10,10,0,0,1-3.24-6.55,39.87,39.87,0,0,1-.35-5.24q0-22.41,0-44.82Z"/><path class="cls-1" d="M241.91,19.3h9.7V63.9a7.4,7.4,0,0,1-6-1.57,9.94,9.94,0,0,1-3.36-6.64,47,47,0,0,1-.35-5.93c0-9.89,0-19.78,0-29.67Z"/></svg>