<svg id="Capa_1" data-name="Capa 1" xmlns="http://www.w3.org/2000/svg" viewBox="0 0 131.5 68.67"><defs><style>.cls-1{fill:#ec7b19;}.cls-2{fill:#040100;}</style></defs><title>black</title><path class="cls-1" d="M65.75,67.2H13.5A11.57,11.57,0,0,1,1.91,55.55c0-13.93.14-27.86,0-41.78A12.21,12.21,0,0,1,14.19,1.46c20.81.13,41.62.06,62.43.06,13.67,0,27.35.1,41,0a12.18,12.18,0,0,1,12,12c-.11,14.05,0,28.1,0,42.15a11.76,11.76,0,0,1-9.66,11.46,9.19,9.19,0,0,1-1.58.11H65.75Zm0-61.73h0c-17.17,0-34.34.07-51.5,0a8.36,8.36,0,0,0-8.48,8.42c.16,13.89.06,27.79.06,41.69a7.17,7.17,0,0,0,.1,1.39,8.17,8.17,0,0,0,8.12,6.52q51.55,0,103.1,0a8.5,8.5,0,0,0,8.54-8.54c-.13-13.77-.1-27.54,0-41.31a8.2,8.2,0,0,0-8.13-8.18C100.28,5.53,83,5.47,65.76,5.47Z"/><path class="cls-2" d="M65.76,5.47c17.26,0,34.52.06,51.78,0a8.2,8.2,0,0,1,8.13,8.18c-.07,13.77-.1,27.54,0,41.31a8.5,8.5,0,0,1-8.54,8.54q-51.55-.09-103.1,0a8.17,8.17,0,0,1-8.12-6.52,7.17,7.17,0,0,1-.1-1.39c0-13.9.1-27.8-.06-41.69a8.36,8.36,0,0,1,8.48-8.42c17.16.12,34.33,0,51.5,0Zm-51,17.68h0c0,2.71,0,5.42,0,8.12,0,.46,0,.86.65.85,3.26,0,6.53,0,9.8-.11a4.5,4.5,0,0,0,4.38-3.42,4.48,4.48,0,0,0-2-5.34c-.6-.39-.46-.59-.09-1a4.68,4.68,0,0,0,1.38-3.73,4.65,4.65,0,0,0-4.26-4.05c-3-.41-6-.07-9-.2-.8,0-.92.27-.91,1C14.79,17.86,14.77,20.51,14.77,23.15ZM118.6,54.28a2.59,2.59,0,0,0-.65-1.05c-1.2-1.47-2.38-3-3.62-4.4-.47-.55-.41-.77.26-1a5,5,0,0,0,3-2.64,5.7,5.7,0,0,0-4-8.28c-2.83-.64-5.71-.28-8.57-.38-.8,0-1.06.19-1.06,1,0,4.61,0,9.22,0,13.83,0,1-.47,2.28.22,2.84s2,.11,3,.18c.58,0,.75-.2.74-.76,0-1.47,0-2.93,0-4.39,0-1,.36-1.2,1.22-.72a2.54,2.54,0,0,1,.68.63c1.2,1.51,2.38,3,3.57,4.56a1.34,1.34,0,0,0,.89.59A19.71,19.71,0,0,0,118.6,54.28ZM14.78,45.46h0c0,2.71,0,5.41,0,8.12,0,.56.06.85.75.79a21.91,21.91,0,0,1,2.43,0,28.94,28.94,0,0,0,6-.22,8.82,8.82,0,0,0,0-17.27c-2.83-.61-5.7-.25-8.56-.33-.61,0-.51.41-.51.76Zm69.55-8.9c-1.67,0-3,0-4.4,0a1.72,1.72,0,0,0-1.44.65c-1.81,2-3.54,4-5.26,6.07-.22.26-.38.64-.91.72V42.43c0-1.68,0-3.36,0-5,0-.59-.16-.86-.79-.83a11.69,11.69,0,0,1-2.05,0c-.94-.12-1.16.26-1.16,1.13q0,8,0,15.88c0,.63.16.92.83.87a18.27,18.27,0,0,1,2.34,0c.73.06.88-.26.87-.92,0-1.87,0-3.74,0-5.61a1.62,1.62,0,0,1,.18-1c.35.37.65.68.94,1l5.21,5.86c.22.25.39.6.78.63a42.43,42.43,0,0,0,4.92.06,1.92,1.92,0,0,0-.66-1c-2.16-2.41-4.31-4.84-6.53-7.19-.66-.7-.64-1.14,0-1.8,1.14-1.15,2.2-2.38,3.29-3.57ZM33.93,45.5h0c0,2.62,0,5.23,0,7.85,0,.9.29,1.1,1.12,1.06,3.05-.12,6.1-.1,9.15,0,2.81.08,2.79.08,2.73-2.71,0-.6-.18-.81-.8-.8-1.77,0-3.55,0-5.33,0-3,0-3,0-2.86-3,0-.53.2-.7.72-.69,1.52,0,3.05,0,4.58,0,2.71,0,2.69,0,2.61-2.73,0-.62-.22-.82-.82-.81-1.53,0-3.05,0-4.58,0-2.53,0-2.51,0-2.58-2.55,0-.73.18-1,.93-1,1.81,0,3.62,0,5.42,0,.83,0,1.91.36,2.43-.18s.07-1.6.17-2.43-.22-.94-.94-.94c-3.65,0-7.29,0-10.94,0-.81,0-1,.28-1,1C34,40.2,33.93,42.85,33.93,45.5ZM103.35,32c-.45-.52-.78-.91-1.13-1.29-2.13-2.36-4.24-4.73-6.4-7.06-.53-.57-.47-.91,0-1.45,2.15-2.29,4.27-4.62,6.39-6.93a1.81,1.81,0,0,0,.65-1H98.05c-.37,0-.53.29-.73.52-1.1,1.27-2.18,2.56-3.3,3.82a38.56,38.56,0,0,1-2.81,3.1,2,2,0,0,1-.13-1.08c0-1.84,0-3.68,0-5.51,0-.63-.14-.92-.82-.87a12.87,12.87,0,0,1-2.06,0c-.82-.08-1.11.16-1.1,1.05,0,5.32,0,10.65,0,16,0,.62.13.93.81.87a16.52,16.52,0,0,1,2.33,0c.76,0,.86-.3.85-.94,0-1.9,0-3.8,0-5.7a1.15,1.15,0,0,1,.29-1c.19.26.35.52.55.75l5.57,6.3a1.27,1.27,0,0,0,1,.61A32.22,32.22,0,0,0,103.35,32Zm-38.43.13h1.21c1.16,0,1.16,0,.7-1.11q-3-7.05-6-14.08c-.39-.91-.52-2.14-1.3-2.63s-2-.08-3-.16a1,1,0,0,0-1.11.74c-.63,1.56-1.29,3.1-2,4.64q-2.56,5.91-5.15,11.81c-.27.61-.2.84.51.81q1.31-.06,2.61,0a.91.91,0,0,0,1.06-.67c.28-.8.67-1.55.93-2.34a1.22,1.22,0,0,1,1.41-1c1.43.08,2.86,0,4.3,0,2.73,0,2-.35,3,2.06C62.89,32.14,62.86,32.15,64.92,32.14ZM87.14,45.48h0c0,2.71,0,5.42,0,8.13,0,.6.15.82.78.8,3.76-.14,7.53-.07,11.3,0,.62,0,.93-.14.86-.82a11.68,11.68,0,0,1,0-1.87c.06-.73-.27-.87-.93-.86-2.43,0-4.86,0-7.29,0-.56,0-.79-.16-.76-.74a19.1,19.1,0,0,0,0-2.14c0-.64.15-.88.83-.86,1.46.05,2.92,0,4.39,0,.86,0,2,.38,2.51-.18s.09-1.66.18-2.52c.06-.69-.23-.83-.86-.82-2.09,0-4.17,0-6.26,0-.57,0-.78-.18-.76-.74a20,20,0,0,0,0-2c0-.63.21-.81.81-.8,1.8,0,3.61,0,5.42,0,.83,0,1.9.35,2.44-.15s.1-1.65.2-2.51c.08-.7-.2-.89-.9-.89-3.67,0-7.35,0-11,0-.73,0-.88.25-.87.92C87.16,40.12,87.14,42.8,87.14,45.48ZM83.45,19.12c0-1.13,0-2.06,0-3A1,1,0,0,0,82.75,15a12.6,12.6,0,0,0-6.67-.93,9.28,9.28,0,0,0-7.33,12.75c2.38,5.52,10.3,7.54,15.23,3.9.45-.33.44-.59.16-1a17.84,17.84,0,0,1-1.08-1.64c-.31-.54-.62-.64-1.19-.32a8.14,8.14,0,0,1-4.6.91,5.45,5.45,0,0,1-4.68-7.47,6.23,6.23,0,0,1,6.94-3.52A13.45,13.45,0,0,1,83.45,19.12ZM64.64,41.4c0-1.23,0-2.31,0-3.39,0-.5-.35-.6-.71-.73a13.47,13.47,0,0,0-5.85-.94c-3.87.33-6.78,2.22-8.18,5.86A8.72,8.72,0,0,0,52,52.09c3.14,3.14,8.65,3.59,12.83,1.12.74-.43.89-.8.31-1.47a6.09,6.09,0,0,1-.81-1.25c-.32-.6-.64-.75-1.3-.38a7.84,7.84,0,0,1-4.22,1,5.49,5.49,0,0,1-5.28-6.8A6,6,0,0,1,60.18,40,13.53,13.53,0,0,1,64.64,41.4ZM33.91,23.14c0,2.71,0,5.42,0,8.14,0,.61.12.89.82.88,3.77,0,7.54-.06,11.31-.07.54,0,.8-.13.76-.73a17,17,0,0,1,0-2.14c0-.6-.21-.74-.76-.73-2.27,0-4.55,0-6.82,0-1.27,0-1.27,0-1.27-1.24,0-4,0-8,0-12,0-.84-.24-1.1-1.05-1a12.86,12.86,0,0,1-2.15,0c-.65,0-.86.18-.85.84C33.93,17.78,33.91,20.46,33.91,23.14Zm74.55,4.18v.47c0,1.82,0,1.82,1.8,1.82s1.93,0,1.93-2.26,0-2.37,2.35-2.36c2.15,0,2.15,0,2.22-2.1a7.91,7.91,0,0,1,.06-.84c.08-.53-.14-.71-.67-.7-.81,0-1.62,0-2.43,0-1.7,0-1.51.32-1.54-1.52,0-.95.43-2.21-.2-2.78s-1.85-.09-2.81-.17c-.6,0-.73.23-.72.77,0,1,0,2,0,3,0,.59-.2.76-.75.74-.87,0-1.75.05-2.62,0s-1.3.17-1.15,1.11a2.29,2.29,0,0,1,0,.37c0,2.15,0,2.15,2.12,2.15C108.46,25,108.46,25,108.46,27.32Z"/><path class="cls-1" d="M14.77,23.15c0-2.64,0-5.29,0-7.94,0-.68.11-1,.91-1,3,.13,6-.21,9,.2a4.65,4.65,0,0,1,4.26,4.05,4.68,4.68,0,0,1-1.38,3.73c-.37.42-.51.62.09,1a4.48,4.48,0,0,1,2,5.34A4.5,4.5,0,0,1,25.21,32c-3.27.12-6.54.06-9.8.11-.68,0-.65-.39-.65-.85,0-2.7,0-5.41,0-8.12Zm6.8,5.5c.46,0,.93,0,1.4,0a7.93,7.93,0,0,0,1.38-.08A1.8,1.8,0,0,0,26,26.81c.07-1-.6-1.42-1.42-1.67a17.24,17.24,0,0,0-5.45-.41c-.49,0-.54.3-.54.68,0,.84,0,1.68,0,2.52,0,.59.23.75.77.72C20.08,28.62,20.82,28.65,21.57,28.65Zm-.65-7.11a9.44,9.44,0,0,0,2.6-.17,1.65,1.65,0,0,0,1.4-1.62,1.61,1.61,0,0,0-1.3-1.7,10.65,10.65,0,0,0-3.51-.4c-1.54,0-1.54,0-1.53,1.6C18.59,21.55,18.59,21.55,20.92,21.54Z"/><path class="cls-1" d="M118.6,54.28a19.71,19.71,0,0,1-4.34,0,1.34,1.34,0,0,1-.89-.59c-1.19-1.52-2.37-3-3.57-4.56a2.54,2.54,0,0,0-.68-.63c-.86-.48-1.22-.26-1.22.72,0,1.46,0,2.92,0,4.39,0,.56-.16.8-.74.76-1-.07-2.3.4-3-.18s-.22-1.87-.22-2.84c0-4.61,0-9.22,0-13.83,0-.85.26-1.07,1.06-1,2.86.1,5.74-.26,8.57.38a5.7,5.7,0,0,1,4,8.28,5,5,0,0,1-3,2.64c-.67.24-.73.46-.26,1,1.24,1.44,2.42,2.93,3.62,4.4A2.59,2.59,0,0,1,118.6,54.28Zm-8.47-14c-.53,0-1.06,0-1.59,0s-.67.13-.66.63c0,1.15,0,2.31,0,3.46,0,.25,0,.56.32.56,1.61,0,3.26.33,4.8-.37a2,2,0,0,0,1.15-2.07,2,2,0,0,0-1.34-1.94A6.88,6.88,0,0,0,110.13,40.24Z"/><path class="cls-1" d="M14.78,45.46V37.33c0-.35-.1-.78.51-.76,2.86.08,5.73-.28,8.56.33a8.82,8.82,0,0,1,0,17.27,28.94,28.94,0,0,1-6,.22,21.91,21.91,0,0,0-2.43,0c-.69.06-.76-.23-.75-.79,0-2.71,0-5.41,0-8.12Zm3.88.07c0,1.52,0,3,0,4.57,0,.54.15.8.74.77s1.49,0,2.24,0a5.06,5.06,0,0,0,5.11-4.7,5.15,5.15,0,0,0-3.88-5.79,17.11,17.11,0,0,0-3.43-.15c-.64,0-.8.23-.78.82C18.68,42.54,18.66,44,18.66,45.53Z"/><path class="cls-1" d="M84.33,36.56l-3.87,4.25c-1.09,1.19-2.15,2.42-3.29,3.57-.65.66-.67,1.1,0,1.8,2.22,2.35,4.37,4.78,6.53,7.19a1.92,1.92,0,0,1,.66,1,42.43,42.43,0,0,1-4.92-.06c-.39,0-.56-.38-.78-.63l-5.21-5.86c-.29-.32-.59-.63-.94-1a1.62,1.62,0,0,0-.18,1c0,1.87,0,3.74,0,5.61,0,.66-.14,1-.87.92a18.27,18.27,0,0,0-2.34,0c-.67.05-.83-.24-.83-.87q.06-7.93,0-15.88c0-.87.22-1.25,1.16-1.13a11.69,11.69,0,0,0,2.05,0c.63,0,.8.24.79.83,0,1.68,0,3.36,0,5V44c.53-.08.69-.46.91-.72,1.72-2,3.45-4.09,5.26-6.07a1.72,1.72,0,0,1,1.44-.65C81.3,36.59,82.66,36.56,84.33,36.56Z"/><path class="cls-1" d="M33.93,45.5c0-2.65,0-5.3,0-8,0-.74.17-1,1-1,3.65,0,7.29,0,10.94,0,.72,0,1,.18.94.94s.35,1.89-.17,2.43-1.6.16-2.43.18c-1.8,0-3.61,0-5.42,0-.75,0-.94.27-.93,1,.07,2.56.05,2.56,2.58,2.55,1.53,0,3.05,0,4.58,0,.6,0,.8.19.82.81.08,2.73.1,2.72-2.61,2.73-1.53,0-3.06,0-4.58,0-.52,0-.69.16-.72.69-.16,3-.17,3,2.86,3,1.78,0,3.56,0,5.33,0,.62,0,.79.2.8.8.06,2.79.08,2.79-2.73,2.71-3-.08-6.1-.1-9.15,0-.83,0-1.14-.16-1.12-1.06.06-2.62,0-5.23,0-7.85Z"/><path class="cls-1" d="M103.35,32a32.22,32.22,0,0,1-4.88.08,1.27,1.27,0,0,1-1-.61l-5.57-6.3c-.2-.23-.36-.49-.55-.75a1.15,1.15,0,0,0-.29,1c0,1.9,0,3.8,0,5.7,0,.64-.09,1-.85.94a16.52,16.52,0,0,0-2.33,0c-.68.06-.82-.25-.81-.87,0-5.32,0-10.65,0-16,0-.89.28-1.13,1.1-1.05a12.87,12.87,0,0,0,2.06,0c.68,0,.83.24.82.87,0,1.83,0,3.67,0,5.51a2,2,0,0,0,.13,1.08A38.56,38.56,0,0,0,94,18.64c1.12-1.26,2.2-2.55,3.3-3.82.2-.23.36-.52.73-.52h4.85a1.81,1.81,0,0,1-.65,1c-2.12,2.31-4.24,4.64-6.39,6.93-.51.54-.57.88,0,1.45,2.16,2.33,4.27,4.7,6.4,7.06C102.57,31.1,102.9,31.49,103.35,32Z"/><path class="cls-1" d="M64.92,32.14c-2.06,0-2,0-2.8-1.89-1-2.41-.28-2-3-2.06-1.44,0-2.87,0-4.3,0a1.22,1.22,0,0,0-1.41,1c-.26.79-.65,1.54-.93,2.34a.91.91,0,0,1-1.06.67q-1.3-.06-2.61,0c-.71,0-.78-.2-.51-.81q2.6-5.89,5.15-11.81c.67-1.54,1.33-3.08,2-4.64a1,1,0,0,1,1.11-.74c1,.08,2.21-.34,3,.16S60.44,16,60.83,17q3,7,6,14.08c.46,1.08.46,1.08-.7,1.11ZM57.49,19c-.76,1.86-1.46,3.58-2.17,5.3-.14.34-.11.54.31.53h3.74c.38,0,.5-.14.35-.52A49.72,49.72,0,0,0,57.49,19Z"/><path class="cls-1" d="M87.14,45.48c0-2.68,0-5.36,0-8,0-.67.14-.93.87-.92,3.67,0,7.35,0,11,0,.7,0,1,.19.9.89-.1.86.39,2-.2,2.51s-1.61.14-2.44.15c-1.81,0-3.62,0-5.42,0-.6,0-.85.17-.81.8a20,20,0,0,1,0,2c0,.56.19.75.76.74,2.09,0,4.17,0,6.26,0,.63,0,.92.13.86.82-.09.86.35,2-.18,2.52s-1.65.16-2.51.18c-1.47,0-2.93,0-4.39,0-.68,0-.87.22-.83.86a19.1,19.1,0,0,1,0,2.14c0,.58.2.75.76.74,2.43,0,4.86,0,7.29,0,.66,0,1,.13.93.86a11.68,11.68,0,0,0,0,1.87c.07.68-.24.84-.86.82-3.77-.07-7.54-.14-11.3,0-.63,0-.79-.2-.78-.8,0-2.71,0-5.42,0-8.13Z"/><path class="cls-1" d="M83.45,19.12a13.45,13.45,0,0,0-3.92-1.41,6.23,6.23,0,0,0-6.94,3.52,5.45,5.45,0,0,0,4.68,7.47,8.14,8.14,0,0,0,4.6-.91c.57-.32.88-.22,1.19.32a17.84,17.84,0,0,0,1.08,1.64c.28.4.29.66-.16,1-4.93,3.64-12.85,1.62-15.23-3.9a9.28,9.28,0,0,1,7.33-12.75,12.6,12.6,0,0,1,6.67.93,1,1,0,0,1,.71,1.11C83.4,17.06,83.45,18,83.45,19.12Z"/><path class="cls-1" d="M64.64,41.4A13.53,13.53,0,0,0,60.18,40a6,6,0,0,0-6.66,4.32,5.49,5.49,0,0,0,5.28,6.8,7.84,7.84,0,0,0,4.22-1c.66-.37,1-.22,1.3.38a6.09,6.09,0,0,0,.81,1.25c.58.67.43,1-.31,1.47-4.18,2.47-9.69,2-12.83-1.12a8.72,8.72,0,0,1-2.08-9.89c1.4-3.64,4.31-5.53,8.18-5.86a13.47,13.47,0,0,1,5.85.94c.36.13.71.23.71.73C64.64,39.09,64.64,40.17,64.64,41.4Z"/><path class="cls-1" d="M33.91,23.14c0-2.68,0-5.36,0-8,0-.66.2-.89.85-.84a12.86,12.86,0,0,0,2.15,0c.81-.07,1.06.19,1.05,1,0,4,0,8,0,12,0,1.24,0,1.24,1.27,1.24,2.27,0,4.55,0,6.82,0,.55,0,.79.13.76.73a17,17,0,0,0,0,2.14c0,.6-.22.73-.76.73-3.77,0-7.54,0-11.31.07-.7,0-.82-.27-.82-.88C33.93,28.56,33.91,25.85,33.91,23.14Z"/><path class="cls-1" d="M108.46,27.32c0-2.35,0-2.35-2.39-2.35-2.14,0-2.14,0-2.12-2.15a2.29,2.29,0,0,0,0-.37c-.15-.94.28-1.18,1.15-1.11s1.75,0,2.62,0c.55,0,.78-.15.75-.74,0-1,0-2,0-3,0-.54.12-.81.72-.77,1,.08,2.19-.38,2.81.17s.18,1.83.2,2.78c0,1.84-.16,1.49,1.54,1.52.81,0,1.62,0,2.43,0,.53,0,.75.17.67.7a7.91,7.91,0,0,0-.06.84c-.07,2.1-.07,2.1-2.22,2.1-2.35,0-2.35,0-2.35,2.36s0,2.26-1.93,2.26-1.8,0-1.8-1.82Z"/><path class="cls-2" d="M21.57,28.65c-.75,0-1.49,0-2.24,0-.54,0-.8-.13-.77-.72,0-.84,0-1.68,0-2.52,0-.38.05-.67.54-.68a17.24,17.24,0,0,1,5.45.41c.82.25,1.49.65,1.42,1.67a1.8,1.8,0,0,1-1.64,1.75,7.93,7.93,0,0,1-1.38.08C22.5,28.66,22,28.65,21.57,28.65Z"/><path class="cls-2" d="M20.92,21.54c-2.33,0-2.33,0-2.34-2.29,0-1.57,0-1.57,1.53-1.6a10.65,10.65,0,0,1,3.51.4,1.61,1.61,0,0,1,1.3,1.7,1.65,1.65,0,0,1-1.4,1.62A9.44,9.44,0,0,1,20.92,21.54Z"/><path class="cls-2" d="M110.13,40.24a6.88,6.88,0,0,1,2.67.27,2,2,0,0,1,1.34,1.94A2,2,0,0,1,113,44.52c-1.54.7-3.19.38-4.8.37-.35,0-.33-.31-.32-.56,0-1.15,0-2.31,0-3.46,0-.5.19-.66.66-.63S109.6,40.24,110.13,40.24Z"/><path class="cls-2" d="M18.66,45.53c0-1.5,0-3,0-4.48,0-.59.14-.85.78-.82a17.11,17.11,0,0,1,3.43.15,5.15,5.15,0,0,1,3.88,5.79,5.06,5.06,0,0,1-5.11,4.7c-.75,0-1.5,0-2.24,0s-.75-.23-.74-.77C18.67,48.57,18.66,47.05,18.66,45.53Z"/><path class="cls-2" d="M57.49,19a49.72,49.72,0,0,1,2.23,5.3c.15.38,0,.52-.35.52H55.63c-.42,0-.45-.19-.31-.53C56,22.62,56.73,20.9,57.49,19Z"/></svg>