<svg id="Capa_1" data-name="Capa 1" xmlns="http://www.w3.org/2000/svg" viewBox="0 0 131.5 31"><title>blu</title><path d="M34,2.34c.11.28.37.16.56.17a13,13,0,0,1,5.08,1.33,5.31,5.31,0,0,1,3.13,4.78,4.86,4.86,0,0,1-2,4,5.93,5.93,0,0,1-2,1.11c-.09,0-.18,0-.23.18.49.14,1,.24,1.47.41,2.88,1,4.69,3,4.61,6.19a6.14,6.14,0,0,1-3.13,5.22,14,14,0,0,1-5.77,1.88,38.43,38.43,0,0,1-4,.3c-.16-.16-.37-.08-.56-.08q-14.14,0-28.3,0c-.42,0-.53-.1-.53-.52q0-12.07,0-24.14c0-.27,0-.54,0-.82H33.55c0,.06,0,.13.11.1s.05-.06.07-.1ZM14.5,7.93c-.1,0-.11.09-.11.17,0,1.29,0,2.59,0,3.88,0,.29.17.27.37.27h12a4.94,4.94,0,0,1,.67-.12,4.09,4.09,0,0,0,1.86-.54A1.7,1.7,0,0,0,30.21,10a1.86,1.86,0,0,0-1.12-1.56,5.7,5.7,0,0,0-2.66-.54C22.46,7.92,18.48,7.93,14.5,7.93Zm13.27,9.35c-.07-.18-.23-.11-.36-.11H14.8c-.3,0-.43.07-.42.41,0,1.46,0,2.92,0,4.38,0,.13-.11.32.13.37l.37,0c4.36,0,8.73,0,13.09,0a4.9,4.9,0,0,0,2.73-.76,2,2,0,0,0,1-1.92,2.1,2.1,0,0,0-1.23-1.75A5.38,5.38,0,0,0,27.77,17.28Z"/><path d="M82.2,22v5.85H48.51c-.58,0-.58,0-.58-.6V2.34H60V21.85c.09.2.27.11.4.11Z"/><path d="M98.41,2.34v.09c0,1.64,0,3.27,0,4.9,0,.44-.11.56-.55.56q-6,0-12,0c-.35,0-.48-.09-.48-.47,0-1.66,0-3.32,0-5V2.34Z"/><path d="M129.29,2.34v.12c0,.11,0,.21,0,.32,0,1.51,0,3,0,4.53,0,.46-.13.58-.59.58H116.63q-.3,0-.3-.3c0-1.7,0-3.41,0-5.11V2.34Z"/><path d="M2.31,2.34c0,.28,0,.55,0,.82q0,12.08,0,24.14c0,.42.11.52.53.52q14.15,0,28.3,0c.19,0,.4-.08.56.08h-17c-3.86,0-7.72,0-11.58,0h-1q0-12.58,0-25.19C2.13,2.59,1.94,2.31,2.31,2.34Z"/><path d="M33.73,2.34s0,.09-.07.1-.1,0-.11-.1Z"/><path d="M98.5,18a4.19,4.19,0,0,0,2.79,4,13.87,13.87,0,0,0,3.92.84l.9.09h2.37a16.94,16.94,0,0,0,5.26-1,4.24,4.24,0,0,0,2.45-3.14,6.7,6.7,0,0,0,.07-1.41c0-2.26,0-4.52,0-6.78,0-.41.11-.56.54-.56h12c.44,0,.58.13.58.57,0,2.89,0,5.77,0,8.66a6.85,6.85,0,0,1-2.67,5.34A16,16,0,0,1,120,27.54a49.66,49.66,0,0,1-8.42,1c-2.58.13-5.15.12-7.73,0a50.24,50.24,0,0,1-6-.51A33.4,33.4,0,0,1,92.69,27a12.68,12.68,0,0,1-5.22-2.83,6.49,6.49,0,0,1-2.07-4.58c0-3.17,0-6.34,0-9.51h13c0,2.56,0,5.13,0,7.69C98.4,17.83,98.36,18,98.5,18Z"/><path d="M47.93,2.45V27.21c0,.6,0,.6.58.6H82.2c-.1.18-.27.09-.41.09H48.22c-.34,0-.39-.1-.39-.4q0-12.29,0-24.55C47.84,2.79,47.75,2.59,47.93,2.45Z"/><path d="M85.4,2.45c0,1.66,0,3.32,0,5,0,.38.13.47.48.47q6,0,12,0c.44,0,.55-.12.55-.56,0-1.63,0-3.26,0-4.9.18.08.1.24.1.35,0,1.61,0,3.21,0,4.81,0,.22,0,.33-.3.33q-6.28,0-12.57,0c-.18,0-.35.07-.35-.24,0-1.68,0-3.36,0-5C85.31,2.56,85.3,2.47,85.4,2.45Z"/><path d="M116.36,2.47c-.08,1.7,0,3.41,0,5.11q0,.31.3.3h12.12c.46,0,.6-.12.59-.58,0-1.51,0-3,0-4.53,0-.11,0-.21,0-.32a6.05,6.05,0,0,1,0,1.41c0,1.23,0,2.47,0,3.71,0,.25-.06.33-.32.33H116.62c-.16,0-.32,0-.32-.23,0-1.71,0-3.42,0-5.13C116.32,2.52,116.35,2.49,116.36,2.47Z"/><path d="M82.2,22H60.42c-.13,0-.31.09-.4-.11H81.81C81.94,21.85,82.13,21.74,82.2,22Z"/><path d="M85.39,10.05c0,3.17,0,6.34,0,9.51-.16-.07-.09-.21-.09-.32V10.37C85.31,10.26,85.25,10.13,85.39,10.05Z"/><path d="M98.5,18c-.14-.05-.1-.17-.1-.27,0-2.56,0-5.13,0-7.69.14,0,.1.13.1.21Q98.51,14.14,98.5,18Z"/><path d="M108.48,23h-2.37c.26-.2.55-.09.82-.08A4.49,4.49,0,0,1,108.48,23Z"/><path d="M27.77,17.28H14.88c-.19,0-.39-.05-.38.27,0,1.59,0,3.17,0,4.76-.24-.05-.13-.24-.13-.37,0-1.46,0-2.92,0-4.38,0-.34.12-.41.42-.41H27.41C27.54,17.17,27.7,17.1,27.77,17.28Z"/><path d="M14.5,7.93c0,1.22,0,2.44,0,3.66,0,.49.14.56.58.55H26.28c.16,0,.36-.11.49.1h-12c-.2,0-.37,0-.37-.27,0-1.29,0-2.59,0-3.88C14.39,8,14.4,7.94,14.5,7.93Z"/></svg>