<svg id="Capa_1" data-name="Capa 1" xmlns="http://www.w3.org/2000/svg" viewBox="0 0 131.5 31"><defs><style>.cls-1{fill:#011687;}.cls-2{fill:#011688;}</style></defs><title>briket</title><path class="cls-1" d="M126.92,27.38c-1.57-.53-3.13-1.06-4.72-1.5a102.13,102.13,0,0,0-11.85-2.46c-3.42-.53-6.87-.93-10.32-1.24-3-.28-6.1-.48-9.16-.64q-3.33-.16-6.66-.26c-2.63-.08-5.27-.1-7.9-.14-3.43-.05-6.85,0-10.27.06-3.74.05-7.48.17-11.22.32s-7.49.34-11.24.56q-5.2.3-10.41.69c-3.35.24-6.71.52-10.07.82-3.53.31-7,.65-10.58,1-2.67.28-5.34.59-8,.85A453.54,453.54,0,0,1,53.87,19.7c-.51,0-1.16,0-1.8,0-.45,0-.45,0-.34-.43l2.7-10q.7-2.61,1.4-5.23c.07-.26.17-.37.46-.37,1.15,0,2.3,0,3.45,0,.42,0,.43,0,.32.43q-2,7.54-4,15.09a2.33,2.33,0,0,1-.07.25c-.05.15,0,.2.16.2l1.21-.07c.24,0,.23-.21.27-.35q.73-2.73,1.46-5.45Q60.36,8.88,61.64,4a.46.46,0,0,1,.54-.41c1.2,0,2.4,0,3.61,0,.4,0,.41,0,.31.41-.58,2.18-1.16,4.35-1.75,6.53,0,.12-.06.25-.1.38.18,0,.25-.08.33-.15l8.76-7a.91.91,0,0,1,.6-.21H80a.56.56,0,0,1,.35,0c-.06.15-.21.21-.32.3l-9.63,7.66c-.45.36-.41.27-.08.69,1.7,2.14,3.41,4.28,5.1,6.43a.76.76,0,0,0,.71.33c.47,0,1,0,1.42,0,.26,0,.38-.07.45-.34.88-3.34,1.78-6.67,2.67-10C81.14,7.16,81.57,5.57,82,4a.43.43,0,0,1,.5-.38H100.4c.43,0,.43,0,.32.42-.32,1.17-.64,2.34-.94,3.52-.07.29-.2.36-.49.36H85.83c-.35,0-.51.1-.57.44a7.32,7.32,0,0,1-.24.92c0,.16,0,.23.17.23H98.78c.47,0,.47,0,.35.45-.3,1.14-.62,2.28-.91,3.42a.47.47,0,0,1-.55.43q-6.63,0-13.26,0c-.7,0-.58-.06-.76.58-.07.25-.13.51-.2.76s0,.25.18.25H97.38c.24,0,.28.08.22.29-.34,1.25-.67,2.49-1,3.74-.06.22-.18.26-.38.26H93.1a.74.74,0,0,0-.32.05l2.8.26c3.86.35,7.7.84,11.52,1.5a97.61,97.61,0,0,1,12.05,2.84,59.64,59.64,0,0,1,7.48,2.84l.32.17Zm-60.86-8.2V19.1h3.77c.1,0,.25.05.3-.06s-.09-.19-.15-.27c-1-1.28-2-2.54-3-3.83-.21-.28-.35-.25-.59,0-1.12.91-2.23,1.83-3.39,2.68A2.19,2.19,0,0,0,62.08,19c0,.23,0,.29.24.28Z"/><path class="cls-2" d="M19.57,19.68H11.33c-.41,0-.41,0-.31-.4q2.06-7.65,4.1-15.3a.41.41,0,0,1,.47-.37H31.37A1.59,1.59,0,0,1,33.1,5.27a9.1,9.1,0,0,1-1.51,5.41,3.07,3.07,0,0,1-.69.79.44.44,0,0,0-.15.49,8.47,8.47,0,0,1-1.47,6.87,1.9,1.9,0,0,1-1.67.86C24.93,19.67,22.25,19.68,19.57,19.68Zm1.72-4.29h4.19c.67,0,1.07-.3,1.06-.8s-.39-.8-1.06-.8H19.05c-.6,0-1.2,0-1.81,0a.33.33,0,0,0-.38.3c-.07.32-.15.64-.25.95s0,.36.28.36ZM22.86,9.5h4.36a.8.8,0,1,0,0-1.58H18.85c-.25,0-.37.08-.42.33s-.15.62-.25.92,0,.35.28.35Z"/><path class="cls-2" d="M43.83,3.62h7.72A1.64,1.64,0,0,1,53.42,5.4a8.51,8.51,0,0,1-3,6.83c-.2.18-.24.3-.12.54a5.85,5.85,0,0,1,.41,4.15c-.22.83-.44,1.65-.65,2.48a.32.32,0,0,1-.36.28H45.9c-.3,0-.35-.09-.28-.36.32-1.2.62-2.41.93-3.62a1.52,1.52,0,0,0-1.24-1.87,3,3,0,0,0-.52,0h-7a.51.51,0,0,0-.6.46c-.43,1.69-.9,3.36-1.33,5.05a.44.44,0,0,1-.52.39c-1.21,0-2.43,0-3.64,0-.4,0-.4,0-.29-.42q1.55-5.82,3.11-11.63c.32-1.19.66-2.38,1-3.58.08-.33.23-.42.56-.42ZM43.18,9.5h0c1.48,0,3,0,4.46,0a.76.76,0,0,0,.8-.78.77.77,0,0,0-.79-.79H39.09a.27.27,0,0,0-.31.25c-.08.32-.17.63-.26.95s-.09.38.3.38Z"/><path class="cls-2" d="M111.76,3.62h8.89c.5,0,.51,0,.37.49-.3,1.16-.62,2.3-.91,3.46-.07.28-.2.36-.48.35-2.12,0-4.24,0-6.36,0a.46.46,0,0,0-.53.41q-1.45,5.49-2.92,11a.44.44,0,0,1-.51.4c-1.21,0-2.43,0-3.64,0-.41,0-.42,0-.31-.4l2.91-10.83c.14-.53.14-.53-.41-.53h-6.21c-.39,0-.39,0-.29-.38.32-1.18.65-2.36,1-3.55a.42.42,0,0,1,.49-.38Z"/><path class="cls-1" d="M127,27.34s.06,0,0,.05-.06,0-.08,0Z"/></svg>