<svg id="Capa_1" data-name="Capa 1" xmlns="http://www.w3.org/2000/svg" viewBox="0 0 131.5 31"><title>cocinex</title><path d="M16,2.87A14,14,0,0,1,17.43,3c.55.06,1.1.13,1.66.22s1.12.18,1.66.29l1.42.26c.13,0,.19.08.19.18V9.35c0,.12-.06.18-.19.18H20.78a.2.2,0,0,1-.14,0,.1.1,0,0,1-.05-.1l-.72-4c0-.07-.05-.13-.14-.18L18.92,5l-1-.24c-.35-.07-.7-.14-1.07-.18a8,8,0,0,0-1.07-.07,11.38,11.38,0,0,0-4.27.74A8.56,8.56,0,0,0,8.34,7.32,9,9,0,0,0,6.4,10.56a12.21,12.21,0,0,0-.67,4.15,14.23,14.23,0,0,0,.7,4.5,12.09,12.09,0,0,0,2,3.74,9.54,9.54,0,0,0,3.14,2.54,8.85,8.85,0,0,0,4.06.93l.95,0c.38,0,.75-.06,1.12-.11s.73-.1,1.09-.17a3.24,3.24,0,0,0,.94-.32c.09-.06.14-.12.14-.19l.72-4.06a.14.14,0,0,1,.05-.09.2.2,0,0,1,.14-.05h1.39c.13,0,.19.06.19.18V27c0,.07-.06.13-.19.18-.4.11-.84.21-1.32.32s-1,.2-1.57.29S18.1,28,17.44,28a20.63,20.63,0,0,1-2.18.1,15.55,15.55,0,0,1-3.69-.43,12.62,12.62,0,0,1-3.19-1.25A11.67,11.67,0,0,1,3.88,22a13.26,13.26,0,0,1-1.63-6.42,13.48,13.48,0,0,1,.5-3.74,11.7,11.7,0,0,1,3.6-5.65A13.26,13.26,0,0,1,9.12,4.36a14.07,14.07,0,0,1,3.26-1.11A16.9,16.9,0,0,1,16,2.87Z"/><path d="M33.39,11.5a7.65,7.65,0,0,1,5.87,2.21,8.46,8.46,0,0,1,2,6,8.53,8.53,0,0,1-2.18,6,7.67,7.67,0,0,1-5.89,2.41,7.57,7.57,0,0,1-5.84-2.25,8.33,8.33,0,0,1-2.06-5.95,8.52,8.52,0,0,1,2.16-6A7.72,7.72,0,0,1,33.39,11.5Zm-.46,1.56a3.71,3.71,0,0,0-3.46,2,8.21,8.21,0,0,0-.89,4.07q0,5,2.7,6.83a4.17,4.17,0,0,0,2.37.65c2.9,0,4.34-2,4.34-6.09a10.56,10.56,0,0,0-1-4.94A4.27,4.27,0,0,0,32.93,13.06Z"/><path d="M51.81,11.5a13.12,13.12,0,0,1,4.71.84c.12.05.18.1.18.17v4.17q0,.15-.18.15H55.4q-.18,0-.18-.15L54.64,14a.29.29,0,0,0-.14-.22A6.7,6.7,0,0,0,51.69,13,4.35,4.35,0,0,0,48,14.92,6.85,6.85,0,0,0,46.77,19a8.39,8.39,0,0,0,1.32,4.9,5,5,0,0,0,4.39,2.18,7.17,7.17,0,0,0,4.08-1.3c.07,0,.11-.06.14,0l.07.11.51.88c0,.08,0,.16-.11.24a10.56,10.56,0,0,1-6,2.13A7.27,7.27,0,0,1,45.61,26a7.85,7.85,0,0,1-2-5.64,9,9,0,0,1,2.25-6.22A7.67,7.67,0,0,1,51.81,11.5Z"/><path d="M59.61,27.62c-.13,0-.19-.06-.19-.18v-.89c0-.13.06-.2.19-.2l2.51-.24a.16.16,0,0,0,.18-.18V14.06a.16.16,0,0,0-.18-.18l-2.59-.29a.16.16,0,0,1-.18-.18v-.83c0-.11,0-.17.14-.17l4.32-.72.21,0h1a.16.16,0,0,1,.18.18v14.1c0,.12,0,.18.17.18l2.34.24c.13,0,.19.07.19.2v.89c0,.12-.06.18-.19.18Zm4-24.4A1.88,1.88,0,0,1,65,3.76a1.84,1.84,0,0,1,.55,1.38A1.84,1.84,0,0,1,65,6.52a1.91,1.91,0,0,1-1.39.53,1.94,1.94,0,0,1-1.39-.53,1.84,1.84,0,0,1-.55-1.38,1.84,1.84,0,0,1,.55-1.38A1.91,1.91,0,0,1,63.56,3.22Z"/><path d="M74.14,11.69l.23,0h1c.11,0,.17.06.17.18v1.54a9.6,9.6,0,0,1,4-1.79,7.78,7.78,0,0,1,1.58-.15c3.09,0,4.64,1.73,4.64,5.21v9.29a.16.16,0,0,0,.18.18l2.33.24c.12,0,.18.07.18.2v.89a.16.16,0,0,1-.18.18H80.37c-.13,0-.19-.06-.19-.18v-.89c0-.13.06-.2.19-.2l2.27-.24c.12,0,.17-.06.17-.18V17.7a4.75,4.75,0,0,0-.68-2.85,3.16,3.16,0,0,0-2.67-1,8.11,8.11,0,0,0-3.74.83.47.47,0,0,0-.18.14V25.93a.16.16,0,0,0,.18.18l2.26.24a.18.18,0,0,1,.2.2v.89c0,.12-.07.18-.2.18h-8c-.13,0-.19-.06-.19-.18v-.89c0-.13.06-.2.19-.2l2.51-.24a.16.16,0,0,0,.18-.18V14.06a.16.16,0,0,0-.18-.18l-2.58-.29c-.13,0-.19-.06-.19-.18v-.83c0-.11,0-.17.14-.17Z"/><path d="M93.46,19.45a7.87,7.87,0,0,0,1.37,4.67,5,5,0,0,0,4.3,2,7.79,7.79,0,0,0,4.21-1.23c0-.05.09-.06.13,0a.76.76,0,0,0,.08.11l.51.88a.2.2,0,0,1-.1.24,11.1,11.1,0,0,1-6.22,2.06A7.17,7.17,0,0,1,92.21,26a7.89,7.89,0,0,1-2-5.64,9.58,9.58,0,0,1,1.93-6.09,6.72,6.72,0,0,1,5.62-2.72,6.07,6.07,0,0,1,4.72,1.77,7,7,0,0,1,1.56,4.85,9.36,9.36,0,0,1-.07,1.16.15.15,0,0,1-.17.17Zm4-6.36c-1.87,0-3.08,1.05-3.63,3.13a10,10,0,0,0-.32,1.83h7.34Q101,13.09,97.44,13.09Z"/><path d="M115.83,3.42c.12,0,.18.05.18.17v.93a.16.16,0,0,1-.18.18l-2.6.23a.13.13,0,0,0-.14.1.28.28,0,0,0,0,.18l4.81,7.85,5.48-7.85a.12.12,0,0,0,0-.09c0-.13-.06-.19-.18-.19l-2.49-.23a.16.16,0,0,1-.18-.18V3.59c0-.12.06-.17.18-.17h7.66c.13,0,.19.05.19.17v.93c0,.12-.06.18-.19.18L125.72,5a.26.26,0,0,0-.14.07l-6.69,9.61,7,11.33A.23.23,0,0,0,126,26l3.06.28a.17.17,0,0,1,.19.19v.93c0,.12-.06.18-.19.18h-9.72c-.11,0-.17-.06-.17-.18v-.93a.17.17,0,0,1,.17-.19l2.6-.21a.13.13,0,0,0,.14-.09.21.21,0,0,0,0-.19l-5.28-8.54-5.9,8.54a.15.15,0,0,0,0,.19s0,0,0,0a.21.21,0,0,0,.13.05l2.49.21a.18.18,0,0,1,.18.19v.93a.16.16,0,0,1-.18.18h-7.67a.16.16,0,0,1-.18-.18v-.93c0-.13.06-.19.18-.19l2.7-.25a.21.21,0,0,0,.14-.07l7.13-10.29L109.32,5.07a.21.21,0,0,0-.15-.07l-3-.3c-.13,0-.19-.06-.19-.18V3.59c0-.12.06-.17.19-.17Z"/></svg>