<svg id="Capa_1" data-name="Capa 1" xmlns="http://www.w3.org/2000/svg" viewBox="0 0 109 31"><defs><style>.cls-1{fill:#031bff;}</style></defs><title>codini</title><path class="cls-1" d="M64.39,11.45c0,2.62,0,5.24,0,7.85a10.26,10.26,0,1,1-12-10.07,13.28,13.28,0,0,1,2.89,0,1.43,1.43,0,0,1,1.28,1.45q0,.82,0,1.65a1.48,1.48,0,0,1-1.7,1.6,5.93,5.93,0,0,0-3.8.95,5.47,5.47,0,1,0,8.46,5.57,7.32,7.32,0,0,0,.09-1.48q0-7.78,0-15.56c0-1.67.41-2.09,2.07-2.09,2.52,0,2.73.2,2.73,2.7Z"/><path class="cls-1" d="M20.66,19.25a10.25,10.25,0,1,1,9.62,10.34A10.2,10.2,0,0,1,20.66,19.25ZM31,13.88a5.48,5.48,0,1,0,0,11,5.6,5.6,0,0,0,5.5-5.5A5.56,5.56,0,0,0,31,13.88Z"/><path class="cls-1" d="M92.38,22.79c0,1.75,0,3.51,0,5.26,0,1.2-.53,1.72-1.71,1.73-.53,0-1,0-1.57,0a1.39,1.39,0,0,1-1.49-1.39c0-.94,0-1.88,0-2.82-.06-2.66,0-5.34-.27-8A3.84,3.84,0,0,0,83.11,14a4.12,4.12,0,0,0-3.78,4.16c-.09,3.27-.11,6.54-.15,9.81,0,1.26-.5,1.76-1.75,1.77-.52,0-1,0-1.57,0a1.32,1.32,0,0,1-1.41-1.28,108.67,108.67,0,0,1,.11-11.84c.49-4.79,4.78-7.79,9.46-7.48A8.78,8.78,0,0,1,92.31,17a46.72,46.72,0,0,1,0,5.8Z"/><path class="cls-1" d="M2.17,19.31A10.28,10.28,0,0,1,10.69,9.23a10.06,10.06,0,0,1,7.09,1.37,1.61,1.61,0,0,1,.35,2.74l-.5.5c-1.19,1.2-1.39,1.21-2.93.54a5.26,5.26,0,0,0-5.86.87,5.14,5.14,0,0,0-1.58,5.84,5.2,5.2,0,0,0,4.55,3.68,5.12,5.12,0,0,0,3.1-.56,1.72,1.72,0,0,1,2.39.33c.3.3.6.59.89.9a1.59,1.59,0,0,1-.35,2.64,10.08,10.08,0,0,1-8.22,1.13A10.2,10.2,0,0,1,2.17,19.31Z"/><path class="cls-1" d="M95.24,15.93c0-1.67,0-3.35,0-5,0-1.29.54-1.81,1.81-1.83C99.8,9,100,9.2,100,12s0,5.28.08,7.92c0,1.69.39,3.28,2,4.26a4.86,4.86,0,0,0,2.79.6c1.43-.05,2,.46,2,1.87,0,.44,0,.89,0,1.33a1.6,1.6,0,0,1-1.55,1.64c-5.41.36-9.81-3.08-10-8.63C95.18,19.29,95.24,17.61,95.24,15.93Z"/><path class="cls-1" d="M67,19.62q0-4.22,0-8.41c0-1.4.49-1.83,1.89-1.88,2.69-.11,2.9.36,2.88,2.88,0,5.16,0,10.32,0,15.47,0,1.69-.41,2.11-2.07,2.11-2.56,0-2.69-.14-2.7-2.71Z"/><path class="cls-1" d="M97.79,6.52a2.6,2.6,0,0,1-2.58-2.69,2.67,2.67,0,0,1,5.33.09A2.62,2.62,0,0,1,97.79,6.52Z"/><path class="cls-1" d="M69.57,1.48a2.63,2.63,0,0,1,2.68,2.66,2.68,2.68,0,0,1-2.67,2.63,2.65,2.65,0,0,1-2.66-2.69A2.6,2.6,0,0,1,69.57,1.48Z"/></svg>