<svg id="Capa_1" data-name="Capa 1" xmlns="http://www.w3.org/2000/svg" viewBox="0 0 194.33 35.67"><defs><style>.cls-1{fill:#024182;}.cls-2{fill:#fcfdfd;}</style></defs><title>columbia</title><path class="cls-1" d="M192.67,29.8a4.43,4.43,0,0,0-1.74.58,9.69,9.69,0,0,1-7.31.16,1,1,0,0,0-.71-.05,11.78,11.78,0,0,1-10.54-1.37c-.09-.06-.18-.1-.39-.21.24,1.09-.6,1.05-1.19,1.31a12.05,12.05,0,0,1-10-.3c-.24-.1-.38-.23-.36-.5,0-.42-.11-.46-.45-.24a12.17,12.17,0,0,1-7.23,2,10.22,10.22,0,0,1-3.09-.61,1.13,1.13,0,0,0-.83,0,9.57,9.57,0,0,1-6.73.07.94.94,0,0,0-.66,0,10.58,10.58,0,0,1-7.69-.27,2.76,2.76,0,0,0-2.3,0,10.22,10.22,0,0,1-8.42-.08,2.17,2.17,0,0,0-1.88,0,10.36,10.36,0,0,1-5,.93,9.48,9.48,0,0,1-2.54-.52,1.43,1.43,0,0,0-1,0,10.16,10.16,0,0,1-6.69-.05,1.27,1.27,0,0,0-.84,0,9.82,9.82,0,0,1-8.2-.66.82.82,0,0,0-.76,0,19.27,19.27,0,0,1-3.72,1.14,11,11,0,0,1-5.07-.42c-.59-.19-1.17-.44-1.76-.6a.69.69,0,0,1-.59-.85c0-.14,0-.29,0-.43,0-.4-.1-.5-.45-.25a12.54,12.54,0,0,1-4.8,2.08c-4.8,1-9.28.41-13.26-2.68a7.73,7.73,0,0,1-1.4-1.4c-.21-.27-.32-.21-.52,0C62,29.26,58.63,30.39,55,30.81a19.38,19.38,0,0,1-9.64-1c-4.28-1.71-7.45-4.57-8.42-9.26s.71-8.52,4.35-11.53A15.63,15.63,0,0,1,50.56,5.6a22.37,22.37,0,0,1,8.67,1.08,11.5,11.5,0,0,1,7.49,6.89c.14.38.28.34.57.15a15.25,15.25,0,0,1,10.09-2.44,14.27,14.27,0,0,1,7.24,2.46c.49.35.37-.13.37-.33,0-2.22,0-4.43,0-6.64a1,1,0,0,1,.85-1.23A15.8,15.8,0,0,1,91,4.47,15.62,15.62,0,0,1,96.27,5.8c.32.11.26.38.26.62,0,1.51,0,3,0,4.52,0,.41.13.57.55.5a9.75,9.75,0,0,1,5.55.89,2.62,2.62,0,0,0,2.24,0,10.41,10.41,0,0,1,8-.35.83.83,0,0,0,.6,0,10.33,10.33,0,0,1,7,0,1.57,1.57,0,0,0,1,0,12.59,12.59,0,0,1,8.43.49.88.88,0,0,0,.71-.06,12.35,12.35,0,0,1,8.07-.47l.12,0c.37.1.83.53,1.06.33s.11-.81.11-1.23q0-2.26,0-4.53a.74.74,0,0,1,.54-.83,14.37,14.37,0,0,1,5.33-1.24,15.28,15.28,0,0,1,5.12,1.35c.33.12.27.38.27.61,0,1.53,0,3.06,0,4.59,0,.5.16.58.61.52a11.28,11.28,0,0,1,8.16,1.78c.41.3.62.3.59-.28a.06.06,0,0,1,0-.06c.67-.53.13-1,0-1.53A5.3,5.3,0,0,1,164,4.85a6.32,6.32,0,0,1,7.64,2.55,5.06,5.06,0,0,1,.19,4.65c-.12.28-.31.5.07.77.15.11.1.49.14.75.25,0,.39-.15.55-.26a11.38,11.38,0,0,1,8-1.81A10.12,10.12,0,0,1,183,12a.74.74,0,0,0,.53,0,10,10,0,0,1,7.84.33c.43.19.88.33,1.33.49ZM51.89,28.08a20.57,20.57,0,0,0,6.48-1,8.61,8.61,0,0,0,5.87-5.88c.15-.52,0-.68-.48-.79a14.66,14.66,0,0,0-6.75,0,1.22,1.22,0,0,0-.89.73c-1.58,3.11-5.22,3.82-7.58,1.44A6,6,0,0,1,47,16.92a5.36,5.36,0,0,1,4.32-4.33,4.84,4.84,0,0,1,4.95,3.08.82.82,0,0,0,.66.46,15.16,15.16,0,0,0,6.93,0c.47-.11.57-.28.44-.75a8.36,8.36,0,0,0-5-5.58,18.65,18.65,0,0,0-8.55-1.29,13.27,13.27,0,0,0-6.81,2.16c-5.79,3.84-5.8,11.3,0,15.15A14.37,14.37,0,0,0,51.89,28.08Zm67.79-12.23c0-1.09,0-1.08-1.1-1.35a7.37,7.37,0,0,0-4,.17.5.5,0,0,0-.42.56q0,6,0,12.09a.51.51,0,0,0,.43.56,7.43,7.43,0,0,0,4.57,0,.56.56,0,0,0,.46-.66c0-1.65,0-3.31,0-5a10.83,10.83,0,0,1,.28-2.89A1.84,1.84,0,0,1,121,18c1.84-.6,3.61-.4,3.64,2.17,0,.17,0,.34,0,.5,0,2.15,0,4.3,0,6.45a.71.71,0,0,0,.61.81,7.72,7.72,0,0,0,4.34,0,.63.63,0,0,0,.55-.73c0-1.78,0-3.56,0-5.33a8.91,8.91,0,0,1,.28-2.52,2,2,0,0,1,1.39-1.45c2-.64,3.29.23,3.35,2.36v6.94c0,.3,0,.54.37.66a7.75,7.75,0,0,0,4.81,0,.47.47,0,0,0,.39-.52c0-2.88,0-5.75,0-8.62a3.86,3.86,0,0,0-3.08-4,8.66,8.66,0,0,0-7.7,1.43C128.1,14,123.47,13.8,119.68,15.85Zm28.48,0a1.94,1.94,0,0,1,0-.24c0-2.4,0-4.79.06-7.19a.61.61,0,0,0-.51-.69,7.14,7.14,0,0,0-4.5,0,.47.47,0,0,0-.39.52q0,9.52,0,19a.47.47,0,0,0,.38.53,6.66,6.66,0,0,0,3.59.24c1.22-.27,1.22-.27,1.25-1.48,0-.08,0-.15,0-.3.12.08.18.11.24.16A8.66,8.66,0,0,0,160.18,25a6.6,6.6,0,0,0-2.68-9.71C154.34,13.7,151.22,14.06,148.16,15.86Zm36.17,0c-.17.05-.24,0-.32-.1-2.22-1.74-7.09-2-9.88,0-3.45,2.5-4.1,7.15-1.19,10a8.52,8.52,0,0,0,8.54,2.09,7.69,7.69,0,0,0,3-1.6,6.36,6.36,0,0,1,0,.89c-.06.46.14.64.57.77a6.88,6.88,0,0,0,4.14,0,.59.59,0,0,0,.49-.65q0-6,0-12a.58.58,0,0,0-.48-.65,7.06,7.06,0,0,0-3.73-.19C184.34,14.72,184.34,14.72,184.33,15.85ZM75.91,28.09a11.76,11.76,0,0,0,7.57-2.44,5.89,5.89,0,0,0,2.28-3.57c.44-2.43-.63-4.24-2.48-5.68a11.92,11.92,0,0,0-8.13-2.22,11,11,0,0,0-7,2.57,5.55,5.55,0,0,0,.06,8.77A11.64,11.64,0,0,0,75.91,28.09Zm30.67-1.6c0,.4,0,.64,0,.89a.39.39,0,0,0,.31.45,7.71,7.71,0,0,0,4.75.06.55.55,0,0,0,.43-.62c0-4,0-8,0-12,0-.38-.16-.49-.46-.59a7.43,7.43,0,0,0-4.57,0,.55.55,0,0,0-.46.64c0,2.11,0,4.22,0,6.32a6.3,6.3,0,0,1-.13,1.3,2.08,2.08,0,0,1-1,1.48A2.83,2.83,0,0,1,101,21.89c0-2.19,0-4.37,0-6.56,0-.36-.09-.55-.45-.66a7.1,7.1,0,0,0-4.44,0,.57.57,0,0,0-.48.64c0,2.34,0,4.67,0,7a6,6,0,0,0,.52,2.65,5.9,5.9,0,0,0,6.44,3.2A8.65,8.65,0,0,0,106.58,26.49Zm-13-8.64c0-3.12,0-6.24,0-9.36A.67.67,0,0,0,93,7.72a8,8,0,0,0-4.51,0,.67.67,0,0,0-.57.78c0,3.65,0,7.31,0,11,0,2.56,0,5.12,0,7.68a.66.66,0,0,0,.58.77,8.34,8.34,0,0,0,4.46,0,.69.69,0,0,0,.61-.8C93.56,24,93.57,20.94,93.57,17.85Zm75.5,3.38c0-2,0-4,0-6a.53.53,0,0,0-.43-.61,7.75,7.75,0,0,0-4.81,0c-.34.1-.42.28-.42.62,0,4,0,8,0,12,0,.39.13.53.49.64a8.2,8.2,0,0,0,4.63,0,.61.61,0,0,0,.54-.72C169.06,25.19,169.07,23.21,169.07,21.23Zm-2.87-8.79a3.59,3.59,0,0,0,1.45-.27c1.84-.76,2.27-2.84.84-4a3.74,3.74,0,0,0-4.39-.09,2.2,2.2,0,0,0-.16,3.53A3.31,3.31,0,0,0,166.2,12.44Z"/><path class="cls-1" d="M20.39,1.52c0,.18.09.21.21.24a22.18,22.18,0,0,1,3.77,1.56A3.83,3.83,0,0,1,26,4.69a2.38,2.38,0,0,0,1.12.91c1.07.49,2.15,1,3.17,1.54a7.46,7.46,0,0,1,4,6.93c0,2.48,0,5,0,7.44a7.67,7.67,0,0,1-4.62,7.36c-.54.27-1.08.52-1.63.76a4.46,4.46,0,0,0-2.35,1.7,2.41,2.41,0,0,1-1.1.88,21.7,21.7,0,0,1-4.11,1.7c-.13,0-.25.06-.22.23H16.8c-.32-.44-.87-.34-1.3-.53-3.18-1.39-6.32-2.86-9.44-4.37a7.54,7.54,0,0,1-4-4.77c0-.19,0-.49-.34-.5V11.69c.38-.07.32-.43.39-.67A7.5,7.5,0,0,1,5.55,6.7a52.45,52.45,0,0,1,5-2.37,40.55,40.55,0,0,1,6.06-2.61.15.15,0,0,0,.1-.2Zm3.57,10c.94.44,1.8.84,2.64,1.26a1.09,1.09,0,0,1,.62,1.06c0,.69,0,1.37,0,2.05a.47.47,0,0,0,.32.52A4.31,4.31,0,0,0,31,16.5a.56.56,0,0,0,.4-.61c0-.7,0-1.4,0-2.11a4.43,4.43,0,0,0-2.35-4C27.54,8.91,26,8.31,24.43,7.58c-.21-.1-.49-.15-.52-.47a1.51,1.51,0,0,0-1.1-1.28c-.55-.23-1.09-.5-1.63-.76a5.77,5.77,0,0,0-5-.14q-4.43,2-8.8,4.09a4.8,4.8,0,0,0-2.79,4.72c0,2.69,0,5.38,0,8.06a5,5,0,0,0,3.08,5l8.19,3.81a5.83,5.83,0,0,0,4,.44,16.2,16.2,0,0,0,3.45-1.49,1,1,0,0,0,.57-.85c0-.35.24-.48.51-.61,1.3-.59,2.59-1.18,3.87-1.79a4.75,4.75,0,0,0,3.07-4.15c.05-.8,0-1.61,0-2.42a.52.52,0,0,0-.37-.56,4.26,4.26,0,0,0-3.48.06c-.27.11-.3.29-.3.53,0,.66,0,1.32,0,2a1.05,1.05,0,0,1-.53,1c-.88.45-1.77.86-2.73,1.32V20.47c0-1.23-.15-1.4-1.39-1.59a4.13,4.13,0,0,0-.49-.07,3.53,3.53,0,0,0-2.14.5c-.41.27,0,.85-.23,1.3-1-.46-2-.9-3-1.38a.78.78,0,0,1-.47-.74c0-.46,0-.91,0-1.36a.71.71,0,0,1,.39-.66c1-.5,2-1,3.1-1.48a3.78,3.78,0,0,1,0,.59c-.13.6.19.85.7,1a4.39,4.39,0,0,0,3-.1.66.66,0,0,0,.47-.74C24,14.4,24,13,24,11.55Z"/><path class="cls-2" d="M51.89,28.08a14.37,14.37,0,0,1-8-2.23c-5.8-3.85-5.79-11.31,0-15.15a13.27,13.27,0,0,1,6.81-2.16,18.65,18.65,0,0,1,8.55,1.29,8.36,8.36,0,0,1,5,5.58c.13.47,0,.64-.44.75a15.16,15.16,0,0,1-6.93,0,.82.82,0,0,1-.66-.46,4.84,4.84,0,0,0-4.95-3.08A5.36,5.36,0,0,0,47,16.92a6,6,0,0,0,1.59,5.65c2.36,2.38,6,1.67,7.58-1.44A1.22,1.22,0,0,1,57,20.4a14.66,14.66,0,0,1,6.75,0c.49.11.63.27.48.79a8.61,8.61,0,0,1-5.87,5.88A20.57,20.57,0,0,1,51.89,28.08Z"/><path class="cls-2" d="M119.68,15.85c3.79-2,8.42-1.87,10.23.32a8.66,8.66,0,0,1,7.7-1.43,3.86,3.86,0,0,1,3.08,4c.05,2.87,0,5.74,0,8.62a.47.47,0,0,1-.39.52,7.75,7.75,0,0,1-4.81,0c-.38-.12-.37-.36-.37-.66V20.25c-.06-2.13-1.31-3-3.35-2.36a2,2,0,0,0-1.39,1.45,8.91,8.91,0,0,0-.28,2.52c0,1.77,0,3.55,0,5.33a.63.63,0,0,1-.55.73,7.72,7.72,0,0,1-4.34,0,.71.71,0,0,1-.61-.81c0-2.15,0-4.3,0-6.45,0-.16,0-.33,0-.5,0-2.57-1.8-2.77-3.64-2.17a1.84,1.84,0,0,0-1.14,1.37,10.83,10.83,0,0,0-.28,2.89c0,1.65,0,3.31,0,5a.56.56,0,0,1-.46.66,7.43,7.43,0,0,1-4.57,0,.51.51,0,0,1-.43-.56q0-6,0-12.09a.5.5,0,0,1,.42-.56,7.37,7.37,0,0,1,4-.17C119.64,14.77,119.64,14.76,119.68,15.85Z"/><path class="cls-2" d="M148.16,15.86c3.06-1.8,6.18-2.16,9.34-.55A6.6,6.6,0,0,1,160.18,25a8.66,8.66,0,0,1-11.91,1.46c-.06-.05-.12-.08-.24-.16,0,.15,0,.22,0,.3,0,1.21,0,1.21-1.25,1.48a6.66,6.66,0,0,1-3.59-.24.47.47,0,0,1-.38-.53q0-9.51,0-19a.47.47,0,0,1,.39-.52,7.14,7.14,0,0,1,4.5,0,.61.61,0,0,1,.51.69c0,2.4,0,4.79-.06,7.19A1.94,1.94,0,0,0,148.16,15.86Zm-.39,5.27a3.69,3.69,0,0,0,3.65,3.69,3.69,3.69,0,1,0,0-7.38A3.68,3.68,0,0,0,147.77,21.13Z"/><path class="cls-2" d="M184.33,15.85c0-1.13,0-1.13,1.13-1.39a7.06,7.06,0,0,1,3.73.19.58.58,0,0,1,.48.65q0,6,0,12a.59.59,0,0,1-.49.65,6.88,6.88,0,0,1-4.14,0c-.43-.13-.63-.31-.57-.77a6.36,6.36,0,0,0,0-.89,7.69,7.69,0,0,1-3,1.6,8.52,8.52,0,0,1-8.54-2.09c-2.91-2.86-2.26-7.51,1.19-10,2.79-2,7.66-1.76,9.88,0C184.09,15.81,184.16,15.9,184.33,15.85ZM181,17.44a3.69,3.69,0,1,0,3.68,3.73A3.72,3.72,0,0,0,181,17.44Z"/><path class="cls-2" d="M75.91,28.09a11.64,11.64,0,0,1-7.7-2.57,5.55,5.55,0,0,1-.06-8.77,11,11,0,0,1,7-2.57,11.92,11.92,0,0,1,8.13,2.22c1.85,1.44,2.92,3.25,2.48,5.68a5.89,5.89,0,0,1-2.28,3.57A11.76,11.76,0,0,1,75.91,28.09Zm3.72-7a3.69,3.69,0,1,0-3.72,3.69A3.72,3.72,0,0,0,79.63,21.13Z"/><path class="cls-2" d="M106.58,26.49a8.65,8.65,0,0,1-4,1.65,5.9,5.9,0,0,1-6.44-3.2,6,6,0,0,1-.52-2.65c0-2.33,0-4.66,0-7a.57.57,0,0,1,.48-.64,7.1,7.1,0,0,1,4.44,0c.36.11.45.3.45.66,0,2.19,0,4.37,0,6.56a2.83,2.83,0,0,0,4.43,2.51,2.08,2.08,0,0,0,1-1.48,6.3,6.3,0,0,0,.13-1.3c0-2.1,0-4.21,0-6.32a.55.55,0,0,1,.46-.64,7.43,7.43,0,0,1,4.57,0c.3.1.46.21.46.59,0,4,0,8,0,12a.55.55,0,0,1-.43.62,7.71,7.71,0,0,1-4.75-.06.39.39,0,0,1-.31-.45C106.59,27.13,106.58,26.89,106.58,26.49Z"/><path class="cls-2" d="M93.57,17.85c0,3.09,0,6.19,0,9.29a.69.69,0,0,1-.61.8,8.34,8.34,0,0,1-4.46,0,.66.66,0,0,1-.58-.77c0-2.56,0-5.12,0-7.68,0-3.65,0-7.31,0-11a.67.67,0,0,1,.57-.78,8,8,0,0,1,4.51,0,.67.67,0,0,1,.57.77C93.56,11.61,93.57,14.73,93.57,17.85Z"/><path class="cls-2" d="M169.07,21.23c0,2,0,4,0,5.95a.61.61,0,0,1-.54.72,8.2,8.2,0,0,1-4.63,0c-.36-.11-.49-.25-.49-.64,0-4,0-8,0-12,0-.34.08-.52.42-.62a7.75,7.75,0,0,1,4.81,0,.53.53,0,0,1,.43.61C169.06,17.27,169.07,19.25,169.07,21.23Z"/><path class="cls-2" d="M166.2,12.44a3.31,3.31,0,0,1-2.26-.85,2.2,2.2,0,0,1,.16-3.53,3.74,3.74,0,0,1,4.39.09c1.43,1.18,1,3.26-.84,4A3.59,3.59,0,0,1,166.2,12.44Z"/><path class="cls-2" d="M24,11.55c0,1.49,0,2.85,0,4.21a.66.66,0,0,1-.47.74,4.39,4.39,0,0,1-3,.1c-.51-.17-.83-.42-.7-1a3.78,3.78,0,0,0,0-.59c-1.07.51-2.09,1-3.1,1.48a.71.71,0,0,0-.39.66c0,.45,0,.9,0,1.36a.78.78,0,0,0,.47.74c1,.48,2,.92,3,1.38.19-.45-.18-1,.23-1.3a3.53,3.53,0,0,1,2.14-.5,4.13,4.13,0,0,1,.49.07c1.24.19,1.39.36,1.39,1.59V24.1c1-.46,1.85-.87,2.73-1.32a1.05,1.05,0,0,0,.53-1c0-.67,0-1.33,0-2,0-.24,0-.42.3-.53A4.26,4.26,0,0,1,31,19.16a.52.52,0,0,1,.37.56c0,.81,0,1.62,0,2.42a4.75,4.75,0,0,1-3.07,4.15c-1.28.61-2.57,1.2-3.87,1.79-.27.13-.49.26-.51.61a1,1,0,0,1-.57.85A16.2,16.2,0,0,1,19.87,31a5.83,5.83,0,0,1-4-.44L7.7,26.78a5,5,0,0,1-3.08-5c0-2.68,0-5.37,0-8.06A4.8,4.8,0,0,1,7.41,9q4.37-2.1,8.8-4.09a5.77,5.77,0,0,1,5,.14c.54.26,1.08.53,1.63.76a1.51,1.51,0,0,1,1.1,1.28c0,.32.31.37.52.47C26,8.31,27.54,8.91,29,9.77a4.43,4.43,0,0,1,2.35,4c0,.71,0,1.41,0,2.11a.56.56,0,0,1-.4.61,4.31,4.31,0,0,1-3.43-.06.47.47,0,0,1-.32-.52c0-.68,0-1.36,0-2.05a1.09,1.09,0,0,0-.62-1.06C25.76,12.39,24.9,12,24,11.55ZM19.77,28.22c0-1,0-1.83,0-2.7a.77.77,0,0,0-.56-.86c-1.94-.87-3.85-1.79-5.78-2.67a2.13,2.13,0,0,1-1.39-2.18c0-1.26.06-2.52,0-3.78a2.34,2.34,0,0,1,1.61-2.48c1.9-.84,3.78-1.74,5.66-2.62.19-.09.46-.1.46-.42,0-1,0-2,0-3l-.25.06c-2.77,1.28-5.54,2.53-8.3,3.83a3.92,3.92,0,0,0-2.4,3.91c0,1.73,0,3.47,0,5.2A3.73,3.73,0,0,0,10.89,24c.68.38,1.4.7,2.1,1Z"/><path class="cls-1" d="M147.77,21.13a3.68,3.68,0,0,1,3.65-3.69,3.69,3.69,0,1,1,0,7.38A3.69,3.69,0,0,1,147.77,21.13Z"/><path class="cls-1" d="M181,17.44a3.69,3.69,0,1,1-3.7,3.65A3.73,3.73,0,0,1,181,17.44Z"/><path class="cls-1" d="M79.63,21.13a3.69,3.69,0,1,1-3.71-3.69A3.73,3.73,0,0,1,79.63,21.13Z"/><path class="cls-1" d="M19.77,28.22,13,25.06c-.7-.34-1.42-.66-2.1-1a3.73,3.73,0,0,1-2.06-3.48c0-1.73,0-3.47,0-5.2a3.92,3.92,0,0,1,2.4-3.91c2.76-1.3,5.53-2.55,8.3-3.83l.25-.06c0,1,0,2,0,3,0,.32-.27.33-.46.42-1.88.88-3.76,1.78-5.66,2.62A2.34,2.34,0,0,0,12.05,16c.07,1.26,0,2.52,0,3.78A2.13,2.13,0,0,0,13.45,22c1.93.88,3.84,1.8,5.78,2.67a.77.77,0,0,1,.56.86C19.74,26.39,19.77,27.26,19.77,28.22Z"/></svg>