<svg id="Capa_1" data-name="Capa 1" xmlns="http://www.w3.org/2000/svg" viewBox="0 0 170.33 35.67"><defs><style>.cls-1{fill:#baa383;}</style></defs><title>conometal</title><path class="cls-1" d="M11.57,35.67c-5.25,0-9.93-3.43-9.93-10.73C1.64,15.18,9.74.11,20.58,0c5.14,0,7.53,2.91,7.53,7,0,4.91-3.59,11.92-6.73,14a3.32,3.32,0,0,1-1.88.51c-1.88,0-4.28-1.14-4.45-2.4a.54.54,0,0,1,.57-.57C18.76,18.32,25,9.13,25,5A1.77,1.77,0,0,0,23,3a8,8,0,0,0-1.26.18C14.42,4.74,7.46,19.35,7.46,27.73c0,3.37,1.25,5.2,4.51,5.25,6.39,0,13.12-7.41,16.37-12.27a.68.68,0,0,1,.51-.28c.35.06.58.17.58.57l-.06.23c-3,7.24-9.19,14.44-17.69,14.44Z"/><path class="cls-1" d="M27.26,26.31c0-5.88,3.94-13.58,9.25-13.58a6,6,0,0,1,1.42.17c2.74.68,3.54,3.25,3.54,5.93a17.13,17.13,0,0,1-.74,4.74,5.54,5.54,0,0,0,4.91-2.86.47.47,0,0,1,.45-.28,1,1,0,0,1,.35.11.39.39,0,0,1,.23.4.72.72,0,0,1-.06.35,6.68,6.68,0,0,1-5.82,3.42h-.46c-1.25,3.59-4,8.16-8,8.16C28.75,32.87,27.26,30,27.26,26.31ZM37.82,23.8a3.29,3.29,0,0,1-1.26-2.69c0-1.65,1-3.31,2.12-3.59-.17-.74-.52-1.31-1.26-1.31h-.28c-2.74.45-5.77,8.21-5.77,12.32,0,1.43.35,2.46,1.2,2.57h.17C35,31.1,37.19,25.57,37.82,23.8Z"/><path class="cls-1" d="M53.8,29.62c.12-4.17,3.31-13.41,3.37-14.1,0-.17-.06-.28-.17-.28a1,1,0,0,0-.57.34c-2.74,2.45-6.62,8.84-7.65,10.61a35.87,35.87,0,0,0-1.31,6.11c0,.51-.29.57-.74.57h-.29c-1.37,0-3.19-.29-3.25-1.6,0-2.91,3.37-14.15,4.79-17.86.17-.46.74-.68,1.43-.68,1.37,0,3.25.79,3.25,1.71l-.06.22c-.45,1.09-2.34,6.74-2.51,7.2.86-1.26,1.83-2.69,2.86-4,1.71-2.23,4.11-5.13,6.5-5.13a2.4,2.4,0,0,1,2.63,2.39l-.06.69c-.8,3.93-3.54,11.58-3.54,14.89,0,.69.06,1,.34,1,1.43-.12,2.46-2,6.45-11a.54.54,0,0,1,.46-.34.59.59,0,0,1,.63.57.42.42,0,0,1-.06.23c-4,9.07-5.25,11.52-7.42,11.64l-1.6.06C55.23,32.93,53.8,32.47,53.8,29.62Z"/><path class="cls-1" d="M64.14,26.31c0-5.88,3.93-13.58,9.24-13.58a6.18,6.18,0,0,1,1.43.17c2.73.68,3.53,3.25,3.53,5.93a17.13,17.13,0,0,1-.74,4.74,5.54,5.54,0,0,0,4.91-2.86.47.47,0,0,1,.46-.28,1,1,0,0,1,.34.11.39.39,0,0,1,.23.4.72.72,0,0,1-.06.35,6.68,6.68,0,0,1-5.82,3.42H77.2c-1.25,3.59-4,8.16-8,8.16C65.62,32.87,64.14,30,64.14,26.31ZM74.69,23.8a3.28,3.28,0,0,1-1.25-2.69c0-1.65,1-3.31,2.11-3.59-.17-.74-.52-1.31-1.26-1.31H74c-2.74.45-5.77,8.21-5.77,12.32,0,1.43.35,2.46,1.2,2.57h.17C71.84,31.1,74.06,25.57,74.69,23.8Z"/><path class="cls-1" d="M101.06,29.62V29.1c.17-3.82,3.37-12.84,3.42-13.47,0-.28,0-.39-.22-.39s-.41.22-.58.39a21.29,21.29,0,0,0-2.56,2.92A68.73,68.73,0,0,0,96,26.25a39.69,39.69,0,0,0-1.31,5.88v.11a.55.55,0,0,1-.63.63h-.63c-2.17,0-3.08-1-3.08-2.85l.06-.8c.39-3.88,3-11.19,3.59-13.36l.06-.4c0-.17-.06-.22-.17-.22a1.29,1.29,0,0,0-.63.34,30,30,0,0,0-2.68,3,70.81,70.81,0,0,0-5,7.7,30.39,30.39,0,0,0-1.31,6,.55.55,0,0,1-.63.57h-.39c-1.37,0-3.2-.29-3.26-1.6v-.05c0-3.43,3.82-15.3,4.79-17.81.18-.46.69-.68,1.43-.68,1.37,0,3.26.79,3.26,1.71l-.06.22c-1,2.4-1.71,4.8-2.51,7.25.85-1.31,1.82-2.68,2.85-4.05a22.32,22.32,0,0,1,4.39-4.51,3.84,3.84,0,0,1,2.12-.62,2.39,2.39,0,0,1,2.62,2.39l-.06.69c-.23,1.2-1,4-1.71,6.45.92-1.37,1.94-2.91,3.08-4.4a23.79,23.79,0,0,1,4.4-4.51,3.79,3.79,0,0,1,2.11-.62,2.39,2.39,0,0,1,2.62,2.39l0,.69c-.8,3.93-3.54,11.58-3.54,14.89,0,.69.06,1,.34,1,.74-.06,1.31-.51,2.17-2a87.3,87.3,0,0,0,4.28-9,.53.53,0,0,1,.46-.34.58.58,0,0,1,.62.57.49.49,0,0,1,0,.23,93.27,93.27,0,0,1-4.34,9.13c-1.14,1.83-2,2.45-3.08,2.51l-1.6.06C102.54,32.93,101.06,32.41,101.06,29.62Z"/><path class="cls-1" d="M118,32.87c-4.84-.17-6.62-3-6.62-6.62a16,16,0,0,1,1.09-5.48c1.37-3.65,4.39-8,8.56-8h.23c2.17,0,3.93,1.14,3.93,3.31v.11c-.11,4.05-4.28,9-7.36,9a2.4,2.4,0,0,1-1.59-.56,12.54,12.54,0,0,0-.23,2.16c0,2.17.63,4.4,2.51,4.8l.63.05a5.15,5.15,0,0,0,1.25-.17c2-.74,4.85-3.19,8.45-10.67a.52.52,0,0,1,.45-.34,1,1,0,0,1,.35.11.46.46,0,0,1,.28.46.57.57,0,0,1-.06.23c-3.82,8-7,10.55-9.24,11.35a6.7,6.7,0,0,1-2,.29Zm5.25-16.55a.68.68,0,0,0-.28-.63.7.7,0,0,0-.46-.11c-1.31,0-3.13,2.4-3.71,3.19a19.41,19.41,0,0,0-2,4.17,1.32,1.32,0,0,0,.8.23C120,23.17,123.2,18.15,123.2,16.32Z"/><path class="cls-1" d="M131,32.87c-1.37,0-2.68-.17-3.19-1.37a6.39,6.39,0,0,1-.46-2.57c0-4.45,2.34-11.87,4.45-17.57-1.14-.06-2.23-.06-3.14-.06a.66.66,0,0,1-.57-.57.57.57,0,0,1,.57-.57l3.54.05c.74-1.94,1.42-3.59,2-4.85.17-.51.74-.68,1.42-.68,1.49,0,3.54.91,3.54,1.77l-.06.17c-.51,1.14-1,2.4-1.54,3.76l2.86.06A.58.58,0,0,1,141,11a.59.59,0,0,1-.63.57c-1-.05-2.06-.05-3.25-.05-1.77,5.25-3.71,11.13-4.85,16a20.17,20.17,0,0,0-.63,3.72c0,.39.05.51.23.51.62,0,1.71-1.37,2.11-1.88a62.9,62.9,0,0,0,5-9.08.49.49,0,0,1,.52-.34A.53.53,0,0,1,140,21a.67.67,0,0,1,0,.23,54.17,54.17,0,0,1-5.25,9.53c-.69.8-1.77,2.05-2.85,2.11Z"/><path class="cls-1" d="M150.83,32.87c-1.43,0-2.91-.17-3.54-1.37a4.89,4.89,0,0,1-.46-2.4c0-.57.06-1.14.12-1.82-1.31,2.28-3.14,4.5-5.36,4.5h-.12c-2.74-.05-3.88-2.34-3.88-5.3,0-5.65,4.11-13.7,9.76-13.7h.06a3.74,3.74,0,0,1,3.36,1.6l.4-1a1.62,1.62,0,0,1,1.49-.62c1.31,0,3.08.79,3.08,1.71l-.06.22c-.74,1.83-4.45,11.65-4.57,15.76,0,.8.06,1.31.35,1.31,1.88-.06,5.48-7.36,7.13-11a.49.49,0,0,1,.52-.34l.28.06a.43.43,0,0,1,.28.45.7.7,0,0,1,0,.29c-1.88,4.05-5.42,11.52-8.1,11.64Zm-2.45-11.76a11.3,11.3,0,0,0,.8-3.53c0-.8-.23-1.43-.86-1.6l-.34-.06c-2.57,0-5.82,7.76-5.82,11.13,0,1,.28,1.54.85,1.54C144.72,28.53,147.8,22.54,148.38,21.11Z"/><path class="cls-1" d="M157.45,31.56a6.08,6.08,0,0,1-.4-2.46c0-6.9,5.88-21.51,6.79-23.62a1.68,1.68,0,0,1,1.55-.69c1.48,0,3.31,1,3.31,1.72v.17C168,8.56,162,24.25,161.39,30.13l-.06,1.09c0,.39,0,.56.12.62s.23.29.23.57-.06.57-.35.57C159.74,33,158.08,32.93,157.45,31.56Z"/></svg>