<svg id="Capa_1" data-name="Capa 1" xmlns="http://www.w3.org/2000/svg" viewBox="0 0 272.67 45.33"><defs><style>.cls-1{fill:#0c469b;}.cls-2{fill:#0c469a;}</style></defs><title>daewoo</title><path class="cls-1" d="M6.33,20.83c.27,0,.18-.24.21-.39a17.58,17.58,0,0,1,.88-3.33c.13-.33.29-.38.61-.31A23.27,23.27,0,0,1,26.36,36.28a24.6,24.6,0,0,1,.24,5.42c0,.28,0,.47-.43.39a28.28,28.28,0,0,1-14.44-7.38,17.19,17.19,0,0,1-5.2-9.83c0-.12,0-.3-.2-.29Z"/><path class="cls-2" d="M35.91,2.54c.36.29.25.67.22,1Q35.49,10.85,35,18.12c-.41,5.84-.76,11.69-.88,17.55-.05,2.22-.06,4.44,0,6.65,0,.35-.07.49-.44.48s-.52,0-.52-.47c.05-4-.11-8-.31-12s-.46-7.84-.77-11.76-.69-8.09-1.15-12.13c-.11-.94-.22-1.89-.34-2.82a5.3,5.3,0,0,1-.07-1Z"/><path class="cls-1" d="M172.42,25.26c.26-.57.49-1.05.71-1.55q1.92-4.46,3.85-8.9a1,1,0,0,0,0-.91c-.64-1.43-1.24-2.86-1.88-4.28-.19-.41-.1-.53.34-.52l10.21.05c.42,0,.54.1.37.52-.59,1.5-1.16,3-1.75,4.5a.86.86,0,0,0,0,.72c1.4,3.23,2.71,6.5,4.19,9.7a1.13,1.13,0,0,0,.35.55,1.27,1.27,0,0,0,.29-.58q2.81-7.35,5.59-14.71a.79.79,0,0,1,.9-.62c2.1,0,4.2,0,6.3,0,.43,0,.58.07.4.53q-4.68,12.41-9.32,24.81a.6.6,0,0,1-.67.46c-1.93,0-3.86,0-5.79.05a.69.69,0,0,1-.76-.49c-1.58-3.68-3.19-7.36-4.79-11-.1-.23-.22-.45-.34-.7-.24.13-.28.36-.36.55q-2.41,5.46-4.8,10.92a.77.77,0,0,1-.82.56c-1.82,0-3.63,0-5.44.07a.91.91,0,0,1-1-.72c-1.6-4.39-3.23-8.76-4.85-13.15-.71-1.9-1.42-3.8-2.1-5.72a.6.6,0,0,0-.66-.45c-5.5,0-11,0-16.51,0-.45,0-.58.12-.57.57,0,1,0,2.06,0,3.1,0,.72,0,.72.7.72h12.71c.7,0,.7,0,.7.68v4.32c0,.7,0,.7-.68.7H144c-.7,0-.7,0-.7.68,0,1.1,0,2.2,0,3.3,0,.46.14.57.58.57,5,0,10,0,15,0,.66,0,.66,0,.66.67v4.06c0,.67,0,.67-.65.67H137.64c-.88,0-1.77,0-2.64,0-.45,0-.58-.12-.58-.57,0-3,0-6,0-8.94V9.91c0-.66,0-.66.66-.66q15.27,0,30.54,0a.72.72,0,0,1,.8.56c1.84,4.87,3.71,9.74,5.57,14.61A2.61,2.61,0,0,0,172.42,25.26Z"/><path class="cls-1" d="M232.76,18.32a14,14,0,0,1,1.58-3.72,16.05,16.05,0,0,1,9.39-6.93,18.26,18.26,0,0,1,16.86,2.88,13.45,13.45,0,0,1,5.47,8.35,13.19,13.19,0,0,1-4.36,12.75,17.62,17.62,0,0,1-13.77,4.57,17.15,17.15,0,0,1-12.76-6.53,12.57,12.57,0,0,1-2.09-3.86l-.32-.9c-.2,0-.18.16-.21.26-1.52,4.68-4.75,7.73-9.17,9.67a18.68,18.68,0,0,1-9.2,1.34,16.88,16.88,0,0,1-12-6.11,13.16,13.16,0,0,1,1.23-18.37,18.87,18.87,0,0,1,22.95-1.83,15,15,0,0,1,6.13,8A.61.61,0,0,0,232.76,18.32Zm24.44,3.52a10.88,10.88,0,0,0-2.64-7.46A6.71,6.71,0,0,0,248.1,12a7.31,7.31,0,0,0-5,3.85,11.35,11.35,0,0,0-1.05,9,9.23,9.23,0,0,0,3.29,5,6.56,6.56,0,0,0,8.24-.12A10.22,10.22,0,0,0,257.2,21.84Zm-48.93-.3a10.09,10.09,0,0,0,2.11,6.7c2.91,3.77,7.72,4,10.84.52a10,10,0,0,0,2.57-6.16,10.46,10.46,0,0,0-3.1-8.74,6.41,6.41,0,0,0-8.91-.35A9.94,9.94,0,0,0,208.27,21.54Z"/><path class="cls-1" d="M70.49,22.7c0-4,0-8.06,0-12.09,0-.49.11-.66.64-.66,6.3.05,12.6,0,18.9.07,4.37.06,7.46,2.17,9.62,5.76a13.81,13.81,0,0,1-1.93,16.53,10.8,10.8,0,0,1-7.54,3.27c-6.4.16-12.79,0-19.19-.08-.5,0-.49-.26-.49-.61Zm8.3.06v7c0,.29,0,.53.4.52,2.24,0,4.47,0,6.71-.05a6.17,6.17,0,0,0,3.29-.68,7.55,7.55,0,0,0,3.75-7.13,7.38,7.38,0,0,0-4.34-6.72,4,4,0,0,0-1.8-.42c-2.47,0-4.94,0-7.42-.07-.44,0-.61.1-.6.58C78.8,18.12,78.79,20.44,78.79,22.76Z"/><path class="cls-1" d="M116,14.73a4.93,4.93,0,0,0-.57,1.06c-2.88,6.06-5.58,12.19-8.32,18.31a1.13,1.13,0,0,1-1.23.8c-2.32,0-4.64.07-7,0-.63,0-.63,0-.39-.58Q103.86,22,109.24,9.71a.67.67,0,0,1,.76-.47c3.9,0,7.79.06,11.69.08a.58.58,0,0,1,.64.41Q127.75,22,133.17,34.26c.26.58.26.59-.38.6-6.3.16-12.6,0-18.9,0a.59.59,0,0,1-.63-.38q-1-2.18-2-4.33c-.21-.44-.07-.55.36-.56l7.62-.11c.93,0,1.87,0,2.8,0,.62,0,.62,0,.37-.56q-2.06-4.64-4.12-9.28c-.65-1.47-1.32-2.93-2-4.4A.93.93,0,0,0,116,14.73Z"/><path class="cls-1" d="M40.47,40.38a28.2,28.2,0,0,1,2.9-12.1,21.26,21.26,0,0,1,14.17-11.2l.89-.22c.68-.15.69-.15.92.52a15.44,15.44,0,0,1-2.43,15,24.7,24.7,0,0,1-11.13,8.13A34,34,0,0,1,40.94,42c-.38.08-.49,0-.47-.38S40.47,40.8,40.47,40.38Z"/><path class="cls-2" d="M31.74,37.64c0,1.89,0,3.3,0,4.7,0,.33-.11.49-.45.41s-.68.12-.65-.45A54.39,54.39,0,0,0,28.45,25,65.46,65.46,0,0,0,20,5.75c-.19-.29-.21-.43.16-.58a37.49,37.49,0,0,1,4.52-1.52c.41-.11.59,0,.75.37a69.72,69.72,0,0,1,3.07,9.88,129.19,129.19,0,0,1,2.92,18.65C31.57,34.4,31.65,36.26,31.74,37.64Z"/><path class="cls-2" d="M35.52,36.58A134.65,134.65,0,0,1,37,20.86,86,86,0,0,1,40.07,7.31c.37-1.13.78-2.24,1.22-3.34.13-.32.26-.44.63-.34a37.35,37.35,0,0,1,4.62,1.54c.31.13.38.24.18.54a65.19,65.19,0,0,0-9.56,26.12,45.67,45.67,0,0,0-.54,10.38c0,.54-.27.5-.61.55s-.49-.15-.49-.49C35.53,40.61,35.52,39,35.52,36.58Z"/><path class="cls-2" d="M29.19,39.75c0,.76,0,1.52,0,2.28,0,.24,0,.58-.37.48S28,42.67,28,42a37.59,37.59,0,0,0-.08-4.11C27.14,27.3,22.44,19.11,13.41,13.5c-.79-.49-1.61-.94-2.43-1.39-.31-.17-.33-.29-.09-.55a25.31,25.31,0,0,1,3.66-3.28.47.47,0,0,1,.73.05,42,42,0,0,1,6.89,8.37,45.58,45.58,0,0,1,6.36,15.78c.18.93.32,1.87.45,2.81A26.56,26.56,0,0,1,29.19,39.75Z"/><path class="cls-2" d="M37.74,39.53A44.53,44.53,0,0,1,51.25,8.46c.41-.41.67-.36,1.08,0a27.13,27.13,0,0,1,3.43,3.09c.29.32.24.45-.13.64a32.16,32.16,0,0,0-9.15,7,28.4,28.4,0,0,0-6.7,13.81,41.27,41.27,0,0,0-.71,8.74.75.75,0,0,1-1,.75c-.2-.06-.17-.24-.17-.38,0-.82,0-1.65,0-2.48Z"/></svg>