<svg id="Capa_1" data-name="Capa 1" xmlns="http://www.w3.org/2000/svg" viewBox="0 0 178.5 44.44"><defs><style>.cls-1{fill:#104490;}</style></defs><title>drean</title><path class="cls-1" d="M16.85,10.83,15.49,12a4.54,4.54,0,0,0-1.86,4.24A5.58,5.58,0,0,0,15,19a19.37,19.37,0,0,0,6.28,4.82A92.81,92.81,0,0,0,41.6,31.45c3.72.94,7.42,2,11.16,2.83,6.83,1.54,13.75,2.62,20.69,3.59,4.3.61,8.61.94,12.93,1.25s8.51.65,12.77,1c1.27.1,2.54.17,3.81.31a11.49,11.49,0,0,1,1.67.45l0,.31c-.93.09-1.85.24-2.78.28-3.44.13-6.88.34-10.32.3-4.82-.06-9.64-.26-14.45-.5-3.33-.17-6.65-.45-10-.8a207.16,207.16,0,0,1-21.46-3.2C39.87,36,34.14,34.71,28.54,32.93A109.88,109.88,0,0,1,13,26.58a18.71,18.71,0,0,1-5.79-4.43,6.31,6.31,0,0,1-1.7-5.52,4.51,4.51,0,0,1,1.42-2.51,12.1,12.1,0,0,1,8-3.43,2.9,2.9,0,0,1,.51,0C15.81,10.72,16.23,10.77,16.85,10.83Z"/><path class="cls-1" d="M42.29,26.43C42.9,25.23,43.46,24.1,44,23c1.34-2.58,2.71-5.15,4-7.74a6.85,6.85,0,0,1,5.75-3.89c1.71-.17,3.46,0,5.29,0L52.75,23.55c.44.06.8.09,1.16.15a21.89,21.89,0,0,0,9.82-.83,9.85,9.85,0,0,0,6.88-7.33c.79-3.16-.35-5.6-3.45-6.84a40.85,40.85,0,0,0-9.93-2.43A90.42,90.42,0,0,0,44.7,5.78l-7.65.09a4.44,4.44,0,0,1-2.64-.7c1.24-.24,2.32-.5,3.42-.64C42.42,3.94,47,3.24,51.61,2.87A51.43,51.43,0,0,1,69.16,4.4a16.42,16.42,0,0,1,7.6,4.22,7.12,7.12,0,0,1,1.89,7.77,12.4,12.4,0,0,1-7.47,7.7,27.19,27.19,0,0,1-9.25,2.18c-3.94.21-7.9.19-11.85.24-2,0-4,0-6,0C43.53,26.51,43,26.46,42.29,26.43Z"/><path class="cls-1" d="M136.05,22.64l-.63.33c-1.94,1-3.83,2-5.82,2.86a8.9,8.9,0,0,1-4.74.62,3.53,3.53,0,0,1-3-4.73,12.69,12.69,0,0,1,4.54-6.24,21.5,21.5,0,0,1,14.45-4.73c2.51.11,5,.19,7.51.29a8.22,8.22,0,0,1,1.1.19l-.95,1.87c-1.64,3.18-3.25,6.39-4.93,9.56A6.23,6.23,0,0,1,138,26c-1.11.05-2.24,0-3.47,0l1.73-3.23Zm5.18-9a8.66,8.66,0,0,0-3.5-.08,14.72,14.72,0,0,0-7,3.68,9.57,9.57,0,0,0-2.57,3.38,1.36,1.36,0,0,0,1.42,2.06,8.58,8.58,0,0,0,2.42-.47,18.18,18.18,0,0,0,8-6.18A22.27,22.27,0,0,0,141.23,13.68Z"/><path class="cls-1" d="M160.79,26.13c1-2,1.94-3.82,2.89-5.67.62-1.23,1.27-2.44,1.88-3.68.49-1,.27-1.35-.8-1.49a4.6,4.6,0,0,0-2.88.61,12.64,12.64,0,0,0-4.16,3.6,39.66,39.66,0,0,0-2.32,3.43,5.69,5.69,0,0,1-5.72,3.15c-.84-.06-1.69,0-2.65,0,.11-.27.18-.48.27-.67,1.74-3.43,3.46-6.86,5.24-10.27a7.38,7.38,0,0,1,6-3.82,20.3,20.3,0,0,1,2.71,0L160,14.37l.14.13a4.43,4.43,0,0,0,.62-.3c1.11-.71,2.17-1.51,3.31-2.15a9.11,9.11,0,0,1,5.51-1.17c2.55.28,4.12,2.33,3.34,4.79a43.08,43.08,0,0,1-2.39,5.4,13.73,13.73,0,0,1-1.41,2.4,7,7,0,0,1-5.62,2.66C162.63,26.16,161.78,26.13,160.79,26.13Z"/><path class="cls-1" d="M105.41,21.48a1.39,1.39,0,0,0,.81,1.62,7.64,7.64,0,0,0,2.29.67,14.1,14.1,0,0,0,5.82-.83c.94-.29,1.91-.51,3-.79a3.6,3.6,0,0,1-1.57,2.24,10.51,10.51,0,0,1-5.71,2,60.4,60.4,0,0,1-6.86-.09,7.73,7.73,0,0,1-3.85-1.58A4.05,4.05,0,0,1,98,20.55a9.34,9.34,0,0,1,3.9-5.56,25.8,25.8,0,0,1,16.8-4.09,4.44,4.44,0,0,1,2.65,1.27,1.88,1.88,0,0,1,.54,2.09,7.53,7.53,0,0,1-3.29,4,17.84,17.84,0,0,1-6.44,2.27c-1.78.31-3.58.43-5.37.66A13.69,13.69,0,0,0,105.41,21.48Zm11-6.72a1.61,1.61,0,0,0-1.58-.72c-.63.08-1.27.07-1.9.14a9.28,9.28,0,0,0-6.37,3.59.84.84,0,0,0-.14.69c0,.11.4.18.61.16a20.87,20.87,0,0,0,7.25-2A5,5,0,0,0,116.46,14.76Z"/><path class="cls-1" d="M92.32,11.45l-1.51,2.91.15.15c.25-.12.51-.22.74-.35A25.14,25.14,0,0,1,98,11.38c1.17-.28,2.37-.42,3.55-.61l.12.2a9.13,9.13,0,0,0-.71,1.15,4.38,4.38,0,0,1-3.9,2.63,11,11,0,0,0-8.22,5.1C88.19,20.93,87.43,22,86.71,23A6.13,6.13,0,0,1,81.83,26c-1.43.08-2.87.22-4.4.35.14-.31.24-.54.35-.76,1.68-3.31,3.4-6.6,5-9.93,2-4.1,6.3-4.87,9.34-4.29C92.2,11.33,92.23,11.37,92.32,11.45Z"/></svg>