<svg id="Capa_1" data-name="Capa 1" xmlns="http://www.w3.org/2000/svg" viewBox="0 0 178.5 29.67"><defs><style>.cls-1{fill:#f58128;}.cls-2{fill:#08090b;}</style></defs><title>electra</title><path class="cls-1" d="M29.87,16.53a13.08,13.08,0,0,1-9.61,11.09A13.23,13.23,0,0,1,8.35,4.68,12.93,12.93,0,0,1,22.55,3c-.68.29-1.3.56-1.93.81-1.17.49-2.34,1-3.52,1.44a.58.58,0,0,0-.44.64c0,.8,0,1.6,0,2.4,0,.53.16.54.58.37q4.85-2,9.7-4c.51-.21,1-.43,1.55-.61A1.09,1.09,0,0,1,30,5.1c.11,1.32.11,1.33-1.12,1.83q-5.78,2.36-11.57,4.69a.9.9,0,0,0-.69,1c.06.67,0,1.34,0,2s0,.75.67.47c1.94-.78,3.87-1.58,5.81-2.37l5.07-2.06c1.2-.49,1.73-.09,1.83,1.2a1.26,1.26,0,0,1-1,1.5c-3.93,1.54-7.83,3.17-11.75,4.74-.52.21-.73.46-.68,1s0,1.33,0,2,0,.74.71.45l10.19-4.15Z"/><path class="cls-2" d="M166,9.89c2.76,0,5.52,0,8.28,0,.49,0,.63.12.63.63,0,3.13,0,6.27,0,9.41,0,.83-.29,1.12-1.12,1.13s-2,0-2.94,0c-.79,0-1.09-.31-1.1-1.1,0-1.51,0-3,0-4.54,0-.89-.28-1.15-1.16-1.15h-5.21c-.83,0-1.13.28-1.13,1.11,0,1.52,0,3,0,4.54,0,.83-.3,1.13-1.12,1.14h-2.94c-.82,0-1.13-.31-1.13-1.13,0-3.16,0-6.32,0-9.48,0-.46.14-.55.57-.55,2.8,0,5.6,0,8.41,0Z"/><path class="cls-2" d="M145.55,3.14c2.58,0,5.16,0,7.74,0,.93,0,1.18.25,1.18,1.19q0,1.06,0,2.13c0,.88-.26,1.16-1.15,1.16-3.58,0-7.17,0-10.75,0-.63,0-.83.12-.82.79,0,3.78,0,7.57,0,11.35,0,1-.27,1.3-1.3,1.3h-2.74c-.78,0-1.12-.32-1.12-1.09q0-7.89,0-15.77c0-.78.32-1.05,1.13-1.06h7.82Z"/><path class="cls-2" d="M63.8,21H56.12c-.92,0-1.21-.28-1.21-1.19,0-5.21,0-10.42,0-15.63,0-.77.3-1.08,1.09-1.08,1,0,1.92,0,2.87,0S60,3.43,60,4.27c0,3.87,0,7.75,0,11.62,0,.53.13.66.65.66,3.83,0,7.66,0,11.49,0,.56,0,.72.15.69.7,0,.8,0,1.61,0,2.41,0,1.21-.21,1.41-1.45,1.41Z"/><path class="cls-2" d="M104.62,21.05H97c-1,0-1.27-.27-1.27-1.26V11c0-.9.26-1.17,1.14-1.18,1.18,0,2.36,0,3.54,0,.44,0,.5.16.5.55,0,1.84,0,3.69,0,5.54,0,.53.09.72.67.71,3.54,0,7.08,0,10.62,0,1.17,0,1.41.23,1.41,1.39v1.94c0,.86-.3,1.15-1.17,1.16Z"/><path class="cls-2" d="M150,14.37c1.46,1.9,2.91,3.78,4.35,5.67.18.24.53.46.34.8s-.56.21-.86.21c-1.54,0-3.07,0-4.61,0a.82.82,0,0,1-.77-.39c-1.42-2.08-2.86-4.14-4.3-6.2a1.17,1.17,0,0,1-.22-.68c0-1.13,0-2.27,0-3.4,0-.44.15-.51.54-.51h9c.84,0,1.14.29,1.15,1.11s0,1.42,0,2.14-.33,1.09-1.1,1.1c-1.11,0-2.23,0-3.34,0Z"/><path class="cls-2" d="M43.2,16.53h7.87c1,0,1.27.29,1.27,1.27,0,.74,0,1.47,0,2.2s-.32,1.05-1,1.06H35.46c-.69,0-1-.33-1-1,0-1,0-2,0-2.93,0-.45.13-.56.56-.56C37.73,16.54,40.46,16.53,43.2,16.53Z"/><path class="cls-2" d="M84,16.53H92c1,0,1.27.27,1.28,1.26,0,.74,0,1.47,0,2.2s-.33,1.07-1.06,1.07H76.41c-.76,0-1.07-.32-1.08-1,0-1,0-2,0-2.93,0-.44.12-.56.56-.56C78.58,16.54,81.3,16.53,84,16.53Z"/><path class="cls-2" d="M166,7.57c-2.78,0-5.56,0-8.34,0-.55,0-.67-.17-.64-.68,0-.86,0-1.73,0-2.6s.28-1.17,1.15-1.17q7.8,0,15.61,0c.8,0,1.1.29,1.1,1.07,0,1,0,1.92,0,2.87,0,.45-.17.5-.54.5Z"/><path class="cls-2" d="M43.14,7.61c-2.69,0-5.39,0-8.08,0-.5,0-.64-.13-.62-.63,0-.91,0-1.82,0-2.74,0-.75.3-1.07,1-1.07q7.92,0,15.83,0c.74,0,1,.31,1.06,1.06s0,1.47,0,2.21S52.1,7.6,51.22,7.6Z"/><path class="cls-2" d="M84,7.56c-2.67,0-5.34,0-8,0-.57,0-.71-.16-.68-.71,0-.89,0-1.78,0-2.67s.28-1.08,1.09-1.08H92.11c.8,0,1.08.29,1.09,1.1s0,1.51,0,2.27-.33,1.07-1.12,1.07C89.39,7.57,86.69,7.56,84,7.56Z"/><path class="cls-2" d="M125.05,7.57h-7.68c-.91,0-1.2-.27-1.21-1.18,0-.73,0-1.47,0-2.2s.31-1.05,1.06-1.05q7.89,0,15.76,0c.71,0,1,.31,1,1s0,1.56,0,2.34-.3,1.08-1.09,1.08Z"/><path class="cls-2" d="M104.4,7.56c-2.69,0-5.39,0-8.08,0-.46,0-.61-.12-.59-.59,0-.91,0-1.82,0-2.74S96,3.12,96.87,3.12h15.62c.84,0,1.12.29,1.13,1.12s0,1.47,0,2.21-.3,1.11-1.14,1.11C109.78,7.57,107.09,7.56,104.4,7.56Z"/><path class="cls-2" d="M41.14,14.24c-2,0-4.1,0-6.14,0-.42,0-.58-.08-.57-.54,0-1.11,0-2.23,0-3.34,0-.38.07-.54.51-.54,4.13,0,8.27,0,12.41,0,.78,0,1.08.3,1.09,1.1s0,1.47,0,2.2-.3,1.09-1.09,1.09Z"/><path class="cls-2" d="M82.1,9.84h6c.94,0,1.22.29,1.23,1.25,0,.71,0,1.42,0,2.13s-.34,1-1,1H75.8c-.38,0-.49-.11-.48-.48,0-1.14,0-2.27,0-3.41,0-.47.18-.53.58-.53C78,9.85,80,9.84,82.1,9.84Z"/><path class="cls-2" d="M127.69,15.47c0,1.69,0,3.38,0,5.07,0,.41-.12.53-.53.52-1.2,0-2.4,0-3.6,0-.74,0-1.07-.32-1.07-1.05,0-3,0-6,0-9.07,0-.75.31-1.07,1-1.07,1.22,0,2.44,0,3.66,0,.4,0,.49.14.48.5C127.68,12,127.69,13.76,127.69,15.47Z"/></svg>