<svg id="Capa_1" data-name="Capa 1" xmlns="http://www.w3.org/2000/svg" viewBox="0 0 178.5 43.33"><defs><style>.cls-1{fill:#002964;}.cls-2{fill:#002963;}</style></defs><title>electrolux</title><path class="cls-1" d="M23.26,41.23H3.87a.27.27,0,0,1-.28-.29c0-.14,0-.28,0-.41V2.82c0-.71,0-.71.7-.71H42.42c.47,0,.51.05.52.53V40.28c0,.21,0,.43,0,.64a.27.27,0,0,1-.28.29H23.26Zm5.53-19.59v16c0,.53.06.56.56.38a17.21,17.21,0,0,0,6.45-4.2,16.93,16.93,0,0,0,4.77-15,17.3,17.3,0,0,0-11-13.49c-.81-.31-.81-.31-.81.56Zm-20,.95c-1,0-1.78,0-2.58,0-.42,0-.49.08-.45.48s.09,1,.18,1.53a16.7,16.7,0,0,0,5.67,10.08,17.29,17.29,0,0,0,14.55,4.21c.87-.14.85,0,.79-1a13.52,13.52,0,0,0-1.53-5.56A18.12,18.12,0,0,0,14.59,23.4,17,17,0,0,0,8.77,22.59Zm-.26-1.84a20.56,20.56,0,0,0,2.94-.13A18.37,18.37,0,0,0,19.6,17.5a17.08,17.08,0,0,0,6.2-7.36A13.39,13.39,0,0,0,26.94,5c0-.43,0-.46-.44-.54a17.17,17.17,0,0,0-6.23,0,17.37,17.37,0,0,0-11.83,8,17,17,0,0,0-2.68,7.77c0,.48,0,.52.48.53Z"/><path class="cls-2" d="M52.76,19.08v-6.9c0-.33.09-.39.42-.4h11c.59,0,.61,0,.61.62v2.09c0,.37-.06.41-.42.44H56.82c-.7,0-.7,0-.71.7v3.27c0,.57,0,.6.59.6h6.91c.7,0,.71,0,.71.7V22.1c0,.51,0,.55-.55.55H56.91c-.8,0-.8-.06-.8.79,0,.53,0,1.06,0,1.59a2.66,2.66,0,0,0,3,3c1.76,0,3.51,0,5.27,0,.7,0,.71,0,.71.7s0,1.3,0,1.95c0,.41,0,.46-.44.46-2.13,0-4.27,0-6.4,0a6,6,0,0,1-2.71-.67,4.59,4.59,0,0,1-2.19-2.34,8.07,8.07,0,0,1-.57-3.15C52.75,23,52.76,21,52.76,19.08Z"/><path class="cls-2" d="M81.86,25H77c-.6,0-.63,0-.52.63a3.35,3.35,0,0,0,2,2.56,5.15,5.15,0,0,0,5-.24,4.21,4.21,0,0,0,.82-.64c.17-.16.32-.2.5,0,.53.52,1.06,1,1.6,1.55.19.19.07.32-.07.45a7.34,7.34,0,0,1-2.94,1.83,8.7,8.7,0,0,1-5.87-.13,6.51,6.51,0,0,1-4.3-5.5,8.23,8.23,0,0,1,.24-3.69,6.72,6.72,0,0,1,5.34-4.88,7.36,7.36,0,0,1,4.63.39,6.62,6.62,0,0,1,4,5.42,7.4,7.4,0,0,1,.06,1.76c0,.48-.06.51-.54.51ZM80.2,22.6h0c1.1,0,2.21,0,3.31,0,.45,0,.51-.09.41-.52a3,3,0,0,0-1.51-2,4.33,4.33,0,0,0-5.27.9,2.82,2.82,0,0,0-.64,1.28c0,.22,0,.33.25.34H80.2Z"/><path class="cls-2" d="M130.75,16.71a7.58,7.58,0,0,1,6.1,3.12,7.28,7.28,0,0,1-.79,9.53,8,8,0,0,1-11.5-.53,7.37,7.37,0,0,1,3-11.54A8.82,8.82,0,0,1,130.75,16.71Zm-.21,3a4.39,4.39,0,0,0,0,8.78,4.39,4.39,0,0,0,0-8.78Z"/><path class="cls-2" d="M146.23,21.87V17.69c0-.51.05-.55.54-.56h2.41c.35,0,.42.08.44.43,0,.15,0,.3,0,.45v6.9a6,6,0,0,0,.1,1.4,2.59,2.59,0,0,0,2.08,2,4.35,4.35,0,0,0,1.76,0,2.67,2.67,0,0,0,2.17-2.58c0-.29,0-.57,0-.86V18c0-.14,0-.28,0-.41,0-.39.07-.46.45-.46.83,0,1.66,0,2.5,0,.35,0,.41.07.44.42v8a6.72,6.72,0,0,1-.25,1.89A5.11,5.11,0,0,1,156,30.8a7.94,7.94,0,0,1-6.32.15,5.17,5.17,0,0,1-3.38-4.41,10,10,0,0,1-.07-1.22Z"/><path class="cls-2" d="M163.08,17.13c.41,0,.82,0,1.22,0a.83.83,0,0,1,.8.39c.79,1.11,1.6,2.2,2.41,3.3.37.51.37.51.73,0,.81-1.11,1.61-2.2,2.4-3.31a.81.81,0,0,1,.76-.39c.87,0,1.75,0,2.63,0,.13,0,.3-.05.38.08s-.08.28-.16.39l-4,5.41c-.6.81-.59.62,0,1.41q2.22,3.1,4.45,6.19c.09.14.28.27.21.43s-.32.11-.49.11h-2.5a.79.79,0,0,1-.72-.37c-1-1.37-2-2.72-2.95-4.08-.36-.5-.38-.49-.74,0-1,1.35-2,2.69-2.92,4.05a.78.78,0,0,1-.71.38c-.88,0-1.76,0-2.64,0h-.18c-.23,0-.27-.1-.15-.29s.17-.25.26-.37l4.44-6.15c.07-.09.13-.2.21-.29a.4.4,0,0,0,0-.6c-.25-.31-.47-.63-.7-.95l-3.58-4.86c-.09-.13-.29-.26-.2-.42s.31-.08.47-.09Z"/><path class="cls-2" d="M96.9,16.63a7.49,7.49,0,0,1,5.17,2l.19.19c.21.23.21.28,0,.5-.52.55-1,1.1-1.57,1.64-.24.24-.27.24-.52,0A4.79,4.79,0,0,0,98,19.8a4.58,4.58,0,0,0-3.3.46,4.09,4.09,0,0,0-2,2.72,4.57,4.57,0,0,0,.14,2.69,4.1,4.1,0,0,0,3.64,2.8,4.62,4.62,0,0,0,3.65-1.16l.18-.15c.15-.15.28-.12.42,0,.54.56,1.08,1.11,1.61,1.67.22.24.22.29,0,.53a7,7,0,0,1-3.53,2,7.91,7.91,0,0,1-7.13-1.74,7,7,0,0,1-2.42-5.16,7.16,7.16,0,0,1,1.53-4.92A7.47,7.47,0,0,1,96,16.68C96.32,16.65,96.61,16.64,96.9,16.63Z"/><path class="cls-2" d="M104.61,18.89V12.45c0-.68,0-.68.68-.68h2c.61,0,.62,0,.62.64v3.91c0,.13,0,.27,0,.4,0,.34.06.39.41.4h2.27a.32.32,0,0,1,.35.33c0,.79,0,1.57,0,2.36,0,.27-.1.34-.43.35h-2.26a.3.3,0,0,0-.34.33v.05c0,1.63,0,3.27,0,4.9A2.49,2.49,0,0,0,110.47,28l.27,0c.2,0,.31.09.31.3,0,.84,0,1.69,0,2.54,0,.23-.1.29-.42.28a8.42,8.42,0,0,1-2.06-.25,5,5,0,0,1-3.87-4.56,13.27,13.27,0,0,1-.1-1.54C104.61,22.82,104.61,20.86,104.61,18.89Z"/><path class="cls-2" d="M67.46,21.48v-9c0-.72,0-.72.72-.72h2.14c.44,0,.48.05.49.5s0,.7,0,1.05V30.38c0,.77,0,.78-.77.78H68c-.5,0-.54,0-.54-.55Z"/><path class="cls-2" d="M140.3,21.48v-9c0-.72,0-.72.74-.72h2.13c.45,0,.48.05.5.5v18c0,.19,0,.37,0,.55s-.12.33-.34.33c-.89,0-1.78,0-2.68,0-.22,0-.33-.11-.33-.34s0-.33,0-.5Z"/><path class="cls-1" d="M117.27,19a4.05,4.05,0,0,1,1.35-1.38,5.21,5.21,0,0,1,3.27-.7c.4,0,.45.11.45.53q0,1.11,0,2.22c0,.46,0,.5-.5.45a6,6,0,0,0-1.85,0A3.33,3.33,0,0,0,117.23,23a5.55,5.55,0,0,0-.08,1v6.44c0,.71,0,.71-.7.71h-2.13c-.42,0-.46-.06-.48-.48V18c0-.86,0-.82.82-.82h2c.45,0,.48.05.49.51s0,.86,0,1.3Z"/></svg>