<svg id="Capa_1" data-name="Capa 1" xmlns="http://www.w3.org/2000/svg" viewBox="0 0 178.5 37.67"><defs><style>.cls-1{fill:#444242;}</style></defs><title>enova</title><path class="cls-1" d="M109.21,19c0,11.8-4.52,16.32-16.37,16.43-1,0-1.92,0-2.88,0C80.28,35,76.11,30.87,75.44,21.17,74.5,7.53,79.8,2,93.42,2.37,104.92,2.7,109.22,7.24,109.21,19ZM102,18.75c0-6.33-1.85-9.91-6.08-10.48-8-1.07-13.2-.14-13.35,10.46A22.11,22.11,0,0,0,83,23c.83,4.57,3.24,6.62,7.89,6.82C99.23,30.19,102,27.4,102,18.75Z"/><path class="cls-1" d="M11.22,21.24c.23,6.88,1.71,8.39,7.67,8.43,4.67,0,9.35,0,14.31,0v5.08c-7,0-14.1.27-21.13-.11-3.7-.21-6.34-2.62-7.3-6.49A33.43,33.43,0,0,1,5,10a11,11,0,0,1,.45-1.37C8,3.13,17.15.69,26.16,3.16c6,1.63,9.18,6.73,8.38,13.28-.4,3.27-2.13,4.87-5.52,4.82C23.16,21.17,17.3,21.24,11.22,21.24Zm.08-5.36c4.28,0,8.33.09,12.37-.05,1.15,0,3.08-.57,3.23-1.22a5.69,5.69,0,0,0-.85-3.95C24.4,8.09,19.2,7.06,15.43,8.34,12.09,9.47,11,12,11.3,15.88Z"/><path class="cls-1" d="M167.61,15.08c.38-5.52-.67-6.74-5.39-6.81-3.6,0-7.19,0-11.05,0V3c5.6,0,11.11-.24,16.6.07a7.62,7.62,0,0,1,7.06,7.78c.12,6.49,0,13,0,19.48,0,3.18-1.87,4.72-4.7,4.8-5.88.18-11.78.22-17.66,0-3.78-.17-6.21-2.71-6.63-6.42a30,30,0,0,1,0-6.83c.48-4.13,3.35-6.64,7.56-6.73C158.1,15,162.78,15.08,167.61,15.08Zm.27,5.43c-4.25,0-8.09-.16-11.9,0-2.91.17-3.16,2.59-3.11,4.83s.6,4.22,3.31,4.31a81.51,81.51,0,0,0,9.38-.05,3.21,3.21,0,0,0,2.22-2.07A54.52,54.52,0,0,0,167.88,20.51Z"/><path class="cls-1" d="M47.54,35H40.36V30.35c0-7.23,0-14.45,0-21.67,0-4.14,1.6-5.77,5.63-5.83,4.45-.08,8.91-.16,13.36.09,6.73.38,10,4,10.05,10.66,0,7,0,13.94,0,21.2H62.48c0-5.31,0-10.67,0-16a46.28,46.28,0,0,0-.28-5.4c-.37-2.83-2.1-4.46-4.9-5-8.44-1.69-9.75-.63-9.75,7.91Z"/><path class="cls-1" d="M111.62,3.18c7.19-.89,7.17-.88,9.37,5.11,2.38,6.48,4.82,12.93,7.58,20.32.85-1.91,1.35-2.92,1.75-4,2.05-5.38,4.15-10.75,6.09-16.17,2.23-6.23,2.17-6.25,9.2-5.32-2.16,5.38-4.28,10.7-6.44,16-1.81,4.45-3.48,9-5.65,13.23a6.09,6.09,0,0,1-4.32,2.89c-1.68.06-4.39-1-5-2.31C119.83,23.26,115.86,13.36,111.62,3.18Z"/></svg>