<svg id="Capa_1" data-name="Capa 1" xmlns="http://www.w3.org/2000/svg" viewBox="0 0 111.5 37.67"><defs><style>.cls-1{fill:#007fca;}</style></defs><title>escorial</title><path class="cls-1" d="M13.94,23.7H10.7a1.92,1.92,0,0,0-2.11,2.13,24.66,24.66,0,0,0,.26,3.34,2.63,2.63,0,0,0,3.46,2.28,2.06,2.06,0,0,0,1.13-.79,5.48,5.48,0,0,0,.86-1.89,2.24,2.24,0,0,1,2.33-1.89c.86.05,1.72,0,2.58,0,.34,0,.48.11.42.46a13.21,13.21,0,0,1-2.2,5.89,6.9,6.9,0,0,1-6.92,2.88A7.6,7.6,0,0,1,4.72,32a16.9,16.9,0,0,1-2-8.77,25.88,25.88,0,0,1,.88-6.62A10.74,10.74,0,0,1,7,10.88a6.34,6.34,0,0,1,3.19-1.39,7.31,7.31,0,0,1,5.39,1.07,7.58,7.58,0,0,1,2.55,3.11,15.44,15.44,0,0,1,1.56,6,8.42,8.42,0,0,1,0,2.13,2.44,2.44,0,0,1-2.47,1.86C16.07,23.71,15,23.71,13.94,23.7Zm-2.72-3.29h0c.66,0,1.32,0,2,0a1.28,1.28,0,0,0,1.33-1.54c0-.26-.07-.51-.08-.77a7.78,7.78,0,0,0-.9-3.57c-.52-1-1.91-1.9-3.11-1a3.57,3.57,0,0,0-1,1.3,13.51,13.51,0,0,0-.86,5c0,.41.17.52.54.52Z"/><path class="cls-1" d="M100.42,34.23c-2.19-.37-4.49-.27-5.27-3.07-.32.27-.54.45-.75.65a5.34,5.34,0,0,1-6.06.8,3.64,3.64,0,0,1-1.7-2.24,8.59,8.59,0,0,1,0-4.61A5.51,5.51,0,0,1,90,22.24c1.13-.53,2.32-1,3.44-1.52.89-.44,1.67-1,1.59-2.23-.06-1-.51-1.68-1.36-1.74a1.7,1.7,0,0,0-2.09,1.48c-.21,1.27-.21,1.27-1.48,1.27-.56,0-1.12,0-1.68,0A1.37,1.37,0,0,1,87,17.65a5.44,5.44,0,0,1,4.94-4.33,14.22,14.22,0,0,1,4.12,0,4.26,4.26,0,0,1,3.66,4.42c0,3,0,6.09.05,9.13,0,1.7.12,3.4.24,5.09A21.61,21.61,0,0,0,100.42,34.23Zm-5.3-9.13-.15,0v-1c0-.41-.19-.56-.56-.42-.54.21-1.08.43-1.6.68A3.1,3.1,0,0,0,91.07,28a1.84,1.84,0,0,0,1.42,1.36c1.18.1,1.76-.12,2-1A31.14,31.14,0,0,0,95.12,25.1Z"/><path class="cls-1" d="M33.09,19.51H31.94c-.74,0-1-.24-1.22-1-.06-.27-.11-.55-.18-.82a1.44,1.44,0,0,0-1.36-1.22,1.62,1.62,0,0,0-1.86.87,1.81,1.81,0,0,0,.26,2.07,6.38,6.38,0,0,0,1.36,1.06c1.32.78,2.72,1.44,4,2.27A4.35,4.35,0,0,1,35,26c.23,2,.14,3.88-1.34,5.38a7.32,7.32,0,0,1-2.18,1.52,8.29,8.29,0,0,1-4.72.51,4.47,4.47,0,0,1-4-4.21c-.09-.59-.11-1.19-.15-1.78,0-.34.08-.53.46-.52.82,0,1.65,0,2.47,0a1.39,1.39,0,0,1,1.32,1c.09.26.14.54.22.81A1.63,1.63,0,0,0,28.48,30a1.89,1.89,0,0,0,2.06-.92,1.84,1.84,0,0,0-.12-2.19A4.94,4.94,0,0,0,29.11,26c-1.32-.75-2.71-1.39-3.95-2.24a5.76,5.76,0,0,1-2.39-5.55,5.17,5.17,0,0,1,2.1-3.94,4.29,4.29,0,0,1,2.72-.95A16.57,16.57,0,0,1,31,13.6a4.83,4.83,0,0,1,3.81,4.47c.16,1.5.12,1.5-1.4,1.45h-.3Z"/><path class="cls-1" d="M64.4,22.15a18.33,18.33,0,0,1-.61,5.46,4.36,4.36,0,0,1-4,3.3,11.75,11.75,0,0,1-3.08-.08A4.38,4.38,0,0,1,53,27.25a22,22,0,0,1-.51-6.77,16.5,16.5,0,0,1,.66-3.88,4.56,4.56,0,0,1,4.34-3.26,16.06,16.06,0,0,1,2.69.1,4.42,4.42,0,0,1,3.6,3.27A17.56,17.56,0,0,1,64.4,22.15Zm-4.23.13c-.1-1.51-.17-2.85-.3-4.18-.06-.61-.18-1.25-.91-1.48A1.44,1.44,0,0,0,57,18.05c-.07.91-.13,1.83-.12,2.75,0,1.82.06,3.63.13,5.45a1.45,1.45,0,0,0,1.26,1.51,1.31,1.31,0,0,0,1.49-1.3C60,25,60.06,23.56,60.17,22.28Z"/><path class="cls-1" d="M108.75,36.37c-1.67-.19-3.54-.12-4.6-1.79a6,6,0,0,1-.94-3c-.09-5.94,0-11.89-.07-17.83,0-2.14,0-4.28-.1-6.42,0-.49.13-.68.63-.66,1.08.06,2.17,0,3.24.12s1.47.69,1.47,1.82c0,7.86,0,15.73,0,23.6C108.39,33.59,108.62,34.93,108.75,36.37Z"/><path class="cls-1" d="M49.84,25.12c-.06,2.31-.48,4.37-2.54,5.6a7.55,7.55,0,0,1-7,.19,4.92,4.92,0,0,1-2.15-3.46,25.16,25.16,0,0,1-.38-6.93,12.34,12.34,0,0,1,.83-4.39,4.41,4.41,0,0,1,3.72-2.8,7.86,7.86,0,0,1,4.74.6,4.41,4.41,0,0,1,2.26,2.6,7.51,7.51,0,0,1,.49,3c-1.21,0-2.37.05-3.52,0-.48,0-.76-.44-.83-1a3.82,3.82,0,0,0-.31-1.26,1.38,1.38,0,0,0-1.62-.61,1.23,1.23,0,0,0-1,1.13,25.72,25.72,0,0,0-.24,7.17c.06.63.13,1.27.21,1.9A1.53,1.53,0,0,0,44,28.34a1.63,1.63,0,0,0,1.49-1.54c0-.15,0-.32,0-.48a1.33,1.33,0,0,1,1.45-1.2Z"/><path class="cls-1" d="M71.52,16.15c.22-.38.42-.76.65-1.12a3.91,3.91,0,0,1,3.33-1.81c.45,0,.71.14.7.66q0,1.59,0,3.18c0,.42-.16.57-.57.55a3.42,3.42,0,0,0-3.56,3.3c-.14,1.54-.17,3.1-.2,4.65,0,1.82,0,3.65,0,5.47,0,.44-.1.66-.6.62-.81-.06-1.64,0-2.45-.11-1-.1-1.37-.6-1.37-1.6q0-7.39,0-14.77c0-1.59,0-1.59,1.6-1.59h.78A1.51,1.51,0,0,1,71.33,15c0,.36,0,.71,0,1.07Z"/><path class="cls-1" d="M83.25,22.06c0,2.73,0,5.45,0,8.17,0,1.21-.46,1.68-1.67,1.66a22.59,22.59,0,0,1-2.33-.15c-.14,0-.33-.23-.38-.39a2,2,0,0,1,0-.65V15.45c0-1.75.25-2.34,2.2-2.24a13.52,13.52,0,0,0,1.56,0c.5,0,.66.14.66.64,0,2.74,0,5.48,0,8.22Z"/><path class="cls-1" d="M81.14,1.3a5.11,5.11,0,0,1,5,5.24,5,5,0,1,1-10-.73A5.12,5.12,0,0,1,81.14,1.3Zm2.21,6a3.28,3.28,0,0,0-.13-.94C82.64,5.17,82,4,81.41,2.81c-.21-.4-.44-.24-.61.06-.54.93-1.12,1.84-1.58,2.81a3.86,3.86,0,0,0,1.53,5,.83.83,0,0,0,.72,0A4.49,4.49,0,0,0,83.35,7.3Z"/></svg>