<svg id="Capa_1" data-name="Capa 1" xmlns="http://www.w3.org/2000/svg" viewBox="0 0 132.67 25.67"><title>eurosound</title><path d="M3.83,22.87V2.8H62.17V22.87Zm16.45-16c-2.92,0-5.75-.05-8.58,0a2.89,2.89,0,0,0-2.76,3c0,1.67,0,3.34,0,5a3,3,0,0,0,3.18,3.25c2.53,0,5.06,0,7.59,0a4.17,4.17,0,0,0,.54-.07V16.12h-.89c-2.38,0-4.75,0-7.13,0-.72,0-1.22-.27-1.3-1a21,21,0,0,1,0-2.25h7.23v-2H11c-.27-1.28-.07-2.18,1.66-2.11,2.27.09,4.55,0,6.83,0h.79ZM36.91,18.11V12.93c.63,0,1.16,0,1.69,0a2.22,2.22,0,0,1,2.33,1.44c.53,1.11,1.11,2.21,1.69,3.29a.93.93,0,0,0,.57.47,17.08,17.08,0,0,0,1.92,0L42.5,13c.14-.06.2-.1.27-.12a3.06,3.06,0,0,0-1-6H35V18.11Zm9.5-5.69A5.64,5.64,0,0,0,52,18.14,5.67,5.67,0,1,0,52.1,6.8,5.61,5.61,0,0,0,46.41,12.42ZM31.34,6.83c-.05.12-.08.14-.08.16,0,1.87,0,3.74,0,5.61a3.64,3.64,0,0,1-7.28,0c0-1.66,0-3.33,0-5V6.85H22c0,2.24-.15,4.44,0,6.62.24,2.76,3,4.8,6,4.64a5.57,5.57,0,0,0,5.22-5.22c0-1.37,0-2.73,0-4.1v-2Z"/><path d="M77.64,9.88h-2c-.15-.86-.72-1.08-1.53-1.06-1.31,0-2.63,0-3.94,0-.78,0-1.3.46-1.27,1.09a1.11,1.11,0,0,0,1.25,1c1.29,0,2.58,0,3.87,0a3.62,3.62,0,0,1,3.64,3.58,3.53,3.53,0,0,1-3.48,3.58c-1.37,0-2.73.05-4.09,0A3.39,3.39,0,0,1,67,14.62h1.92c.26,1.26,1.13,1.58,2.31,1.51.91-.05,1.82,0,2.73,0a1.54,1.54,0,0,0,1.67-1.56A1.51,1.51,0,0,0,74,13c-1.31,0-2.63,0-3.94,0a3,3,0,0,1-3-2,3.12,3.12,0,0,1,3-4.25c1.42,0,2.84,0,4.25,0A3.06,3.06,0,0,1,77.64,9.88Z"/><path d="M117.52,6.85a2.36,2.36,0,0,1,.44-.07c1.92,0,3.85,0,5.76.08a5.53,5.53,0,0,1,5.11,5.55,5.57,5.57,0,0,1-5.07,5.68c-1.94.1-3.89,0-5.83.05a2.25,2.25,0,0,1-.41-.06Zm2.06,9.27c1.24,0,2.45,0,3.65,0a3.69,3.69,0,0,0,3.59-3.25,3.5,3.5,0,0,0-2.47-3.79,32.86,32.86,0,0,0-4.77-.33Z"/><path d="M106.52,11v7.14h-2V6.88L113.78,14V6.84h2.06V18.15Z"/><path d="M78.9,12.47a5.62,5.62,0,0,1,5.64-5.69,5.68,5.68,0,1,1,0,11.36A5.63,5.63,0,0,1,78.9,12.47Zm9.27,0a3.56,3.56,0,0,0-3.64-3.63,3.65,3.65,0,1,0,0,7.29A3.59,3.59,0,0,0,88.17,12.46Z"/><path d="M91.49,6.81h2V9c0,1.24-.08,2.48,0,3.71a3.66,3.66,0,0,0,7.32-.34c0-1.54,0-3.08,0-4.62V6.83h2c0,1.87,0,3.73,0,5.59a6.22,6.22,0,0,1-.27,1.7,5.61,5.61,0,0,1-6.33,4,5.69,5.69,0,0,1-4.77-5.6Z"/><path d="M36.92,10.94V8.83H42c.65,0,1.06.3,1.1,1a1,1,0,0,1-1,1.12c-.91,0-1.82,0-2.72,0Z"/><path d="M55.69,12.5A3.62,3.62,0,0,1,52,16.12a3.65,3.65,0,1,1,.06-7.3A3.59,3.59,0,0,1,55.69,12.5Z"/></svg>