<svg id="Capa_1" data-name="Capa 1" xmlns="http://www.w3.org/2000/svg" viewBox="0 0 164 37.67"><title>extreme</title><path d="M71.31,11.85c2.45,0,4.73,0,7,0a2.35,2.35,0,0,0,1.55-.48,2,2,0,0,0,.42-1.6C80.15,9.29,79.5,9,79,8.64c-.11-.08-.33,0-.49,0H62.07l-.7.06v14.8H57.31V8.61H53.52c-2,0-4.22-.39-6.08.19s-3.36,2.15-5,3.28l-2.34,1.64L61.33,30.16l-2.42,3.22-6.26-4.77q-7.9-6-15.79-12.1a.92.92,0,0,0-1.36,0Q31.44,19.8,27.3,23a2.11,2.11,0,0,1-1.13.53c-6.93,0-13.86,0-20.87,0V19.36H6.51c6,0,11.93,0,17.89,0a3.35,3.35,0,0,0,1.8-.61c2.05-1.52,4-3.11,6-4.68.2-.16.39-.35.68-.61-2.12-1.59-4.16-3.15-6.24-4.65a2.16,2.16,0,0,0-1.16-.16H5.28V4.48c.35,0,.67-.05,1-.05,6.86,0,13.73,0,20.59,0A2.88,2.88,0,0,1,28.4,5C31.17,7,33.9,9.15,36.73,11.3l4.45-3.19c1.69-1.21,3.22-2.88,5.1-3.5s4.11-.18,6.18-.18q13.17,0,26.33,0A5.79,5.79,0,0,1,84.4,8.65a5.55,5.55,0,0,1-2.54,6.41,13.62,13.62,0,0,1-3.42,1,2.93,2.93,0,0,0-1,.25c1.33,1,2.65,2,4,3a1.21,1.21,0,0,0,.67.12H112.6a3.39,3.39,0,0,0,.5-.07V4.45c1.7,0,3.29,0,4.89,0,.28,0,.57.3.83.51,1.69,1.32,3.36,2.65,5.09,4,1.68-1.27,3.35-2.5,5-3.78a3.27,3.27,0,0,1,2.37-.81c1.09.08,2.2,0,3.41,0v14.9h24v4.14H130.53V9.67l-6.48,5-6.66-5V23.49c-.46,0-.78.06-1.1.06q-17.08,0-34.16,0A3,3,0,0,1,80.51,23Q76.19,19.78,72,16.47a1.84,1.84,0,0,1-.61-1.21C71.26,14.17,71.31,13.06,71.31,11.85Z"/><path d="M88.68,8.53v-4h20v4Z"/><path d="M138.74,8.53v-4h20v4Z"/><path d="M138.75,16.05v-4h20v4Z"/><path d="M5.28,16.07V12h20v4Z"/><path d="M88.69,16.05V12h20v4Z"/></svg>