<svg id="Capa_1" data-name="Capa 1" xmlns="http://www.w3.org/2000/svg" viewBox="0 0 116.67 37.67"><defs><style>.cls-1{fill:#e30204;}.cls-2{fill:#16191a;}.cls-3{fill:#fdfdfd;}</style></defs><title>fagor</title><path class="cls-1" d="M96.85,16.78a12.45,12.45,0,0,1-2.59.17c-4.72,0-9.43,0-14.15,0-.57,0-.77-.14-.64-.7.19-.82.09-1.84.63-2.4s1.59-.19,2.4-.19q7.56,0,15.12,0a5.84,5.84,0,0,0,4.45-1.86c1.1-1.16,2.23-2.29,3.34-3.43H82.86c3.8-5.55,12-8.71,19.72-6a17.4,17.4,0,1,1-22.9,19.87c3,0,5.92,0,8.87,0a6.48,6.48,0,0,0,5.12-2.09C94.73,19.08,95.86,18,97,16.9l.17-.2C97,16.62,96.92,16.66,96.85,16.78Z"/><path class="cls-2" d="M50.06,7.86a8,8,0,0,1,5.59,2.67,7.55,7.55,0,0,1,.38,9c-2.51,3.9-8.9,4.18-12,1-2.63-2.7-3.19-7.8.31-10.77A8.77,8.77,0,0,1,50.06,7.86Zm-.44,3.55a3.62,3.62,0,0,0-3.86,3.69,3.9,3.9,0,0,0,4,4.08A4,4,0,0,0,53.54,15,3.8,3.8,0,0,0,49.62,11.41Z"/><path class="cls-2" d="M37,14.44h3.13c.2,0,.46-.11.47.27,0,2.56-.58,4.89-2.66,6.52a7.36,7.36,0,0,1-7.78.79A6.49,6.49,0,0,1,26.09,16a7.13,7.13,0,0,1,3-6.83,7.74,7.74,0,0,1,9.56.81c1.47,1.58,1.43,1.77-.52,2.56l-.2.1a4,4,0,0,1-1.36.53c-.52,0-.51-.7-.83-1a3.2,3.2,0,0,0-5.14.49,5,5,0,0,0,1,6.64c1.31,1,4.12.73,4.65-1.34.11-.44.09-.58-.39-.56-.65,0-1.29,0-1.94,0-.48,0-.58-.15-.55-.59a15.27,15.27,0,0,0,0-1.79c0-.38.09-.51.49-.5,1.05,0,2.09,0,3.13,0Z"/><path class="cls-2" d="M67.22,16.62l3.6,5.62H66.71c-.25,0-.32-.2-.41-.37-.71-1.28-1.42-2.57-2.12-3.86-.18-.34-.51-.58-.61-1,0-.15-.39-.27-.66-.2s-.29.34-.29.59c0,1.44,0,2.88,0,4.32,0,.41-.1.55-.53.53-.84,0-1.69,0-2.53,0-.39,0-.56-.06-.56-.51,0-4.32,0-8.63,0-12.95,0-.23-.08-.5.34-.48,2.35.07,4.71-.15,7.06.11C69,8.7,70,10.14,70.19,11.9,70.43,13.86,69.93,15.77,67.22,16.62Zm-4.6-3.88c0,.56,0,1,0,1.45,0,.22,0,.38.3.37a8.37,8.37,0,0,0,2.5-.17A1.42,1.42,0,0,0,66.51,13a1.5,1.5,0,0,0-1.32-1.74,4.32,4.32,0,0,0-2.47,0C62.39,11.37,62.68,12.3,62.62,12.74Z"/><path class="cls-2" d="M11.79,22.24c1.69-4.37,3.37-8.65,5-13,.3-.79.67-1.11,1.48-1a5,5,0,0,0,.67,0c.74,0,1.65-.28,2.17.12s.58,1.27.83,1.94c1.41,3.77,2.81,7.54,4.25,11.31.17.46.17.59-.36.57-.95,0-1.89,0-2.83,0a.57.57,0,0,1-.65-.42c-.27-.68-.27-1.63-.88-1.95a5.29,5.29,0,0,0-2.12-.08c-.72,0-1.44,0-2.16,0-.44,0-.59.16-.74.52-.26.64-.3,1.54-.84,1.84s-1.35.08-2,.09Zm7.33-9.59L17.6,17h3Z"/><path class="cls-2" d="M2.51,15.18c0-2.11,0-4.22,0-6.33,0-.4.08-.55.52-.55q4.58,0,9.16,0c.37,0,.53.06.51.48q0,1.08,0,2.16c0,.4-.13.49-.51.49-1.59,0-3.17,0-4.76,0-.41,0-.53.1-.54.52,0,1.74,0,1.74,1.7,1.74.94,0,1.89,0,2.83,0,.48,0,.59.14.56.58a16.84,16.84,0,0,0,0,2c0,.49-.15.57-.59.56-1.31,0-2.63,0-3.94,0-.47,0-.58.12-.57.57,0,1.42,0,2.83,0,4.25,0,.54-.17.65-.67.63-1,0-2.08,0-3.12,0-.47,0-.63-.08-.62-.6C2.53,19.49,2.51,17.34,2.51,15.18Z"/><path class="cls-3" d="M96.85,16.78c.07-.12.15-.16.28-.08l-.17.2Z"/></svg>