<svg id="Capa_1" data-name="Capa 1" xmlns="http://www.w3.org/2000/svg" viewBox="0 0 219.5 37.67"><defs><style>.cls-1{fill:#009bdb;}</style></defs><title>fedders</title><path class="cls-1" d="M35.83,4.84a4.72,4.72,0,0,1-1.43,4.1,17.35,17.35,0,0,1,2.47,5A16.92,16.92,0,1,1,17.54,2.22,16.69,16.69,0,0,1,30,4.7a1.31,1.31,0,0,0,.65.17c1.58,0,3.15,0,4.73,0ZM33.52,17.69H33c-4.4,0-8.79,0-13.19,0A8.81,8.81,0,0,0,15,19.19a4.32,4.32,0,0,0-2.15,3.53c-.08,1.69-.05,3.38,0,5.07a3.81,3.81,0,0,0,.4,1.51,6.53,6.53,0,0,0,4.57,3.43c.39.1.81.13,1.23.2V25a8.13,8.13,0,0,0-4.93,1.37.6.6,0,0,1,.06-.25,4.78,4.78,0,0,1,4-2.55c1.59-.16,3.21-.15,4.81-.2a37.4,37.4,0,0,0,4.37-.12A7.84,7.84,0,0,0,33,19.52,3.06,3.06,0,0,0,33.52,17.69Zm-20.76,1c3.28-.28,6.5-3,6.35-5.33a7.06,7.06,0,0,0-5.22,1.55,1.32,1.32,0,0,1,.4-1.28,8.09,8.09,0,0,1,1.41-1,9.21,9.21,0,0,1,4-.88c1.91-.07,3.83-.08,5.74-.11a11.19,11.19,0,0,0,5.41-1.23A9.2,9.2,0,0,0,34.4,7.43a3,3,0,0,0,.51-1.67H31.65a87.59,87.59,0,0,0-12.12.42,13.44,13.44,0,0,0-4.48,1.26,3.82,3.82,0,0,0-2.3,3.75c0,2.32,0,4.65,0,7Z"/><path class="cls-1" d="M144.3,17.91V20.2h10.92a1.12,1.12,0,0,1,1.16.85,1.28,1.28,0,0,1-.63,1.41,1.24,1.24,0,0,1-.51.08H144.31v2.31h12.8a1.09,1.09,0,0,1,1.16.84,1.29,1.29,0,0,1-.64,1.41,1,1,0,0,1-.42.07h-13.8a1.25,1.25,0,0,1-1.26-1.25q0-4.58,0-9.15a1.22,1.22,0,0,1,1.25-1.21h13.76a1.07,1.07,0,0,1,1.15,1.15,1.13,1.13,0,0,1-1.17,1.19H144.3Z"/><path class="cls-1" d="M75.36,17.91V20.2h.53c3.48,0,7,0,10.43,0a1.24,1.24,0,0,1,1.18,1.15,1.31,1.31,0,0,1-1.18,1.22c-3.47,0-6.95,0-10.42,0h-.54v2.31h.58c4.09,0,8.18,0,12.27,0A1.22,1.22,0,0,1,89.37,26a1.17,1.17,0,0,1-1.17,1.2H74.62a1.28,1.28,0,0,1-1.4-1.41V16.92a1.24,1.24,0,0,1,1.32-1.35H88.2a1.08,1.08,0,0,1,1.13.79,1.19,1.19,0,0,1-.53,1.4,1.31,1.31,0,0,1-.62.14H75.36Z"/><path class="cls-1" d="M195.27,27.18h-5.88a1.09,1.09,0,0,1-1.15-.8,1.25,1.25,0,0,1,.56-1.44,1.28,1.28,0,0,1,.55-.09c3.89,0,7.77,0,11.66,0a1.06,1.06,0,0,0,1.11-.8,1.19,1.19,0,0,0-.52-1.37,1.64,1.64,0,0,0-.67-.14c-3.14,0-6.28,0-9.42,0a3.27,3.27,0,0,1-3.25-2.68,3.57,3.57,0,0,1,1.76-4,3.12,3.12,0,0,1,1.26-.31c3.93,0,7.86,0,11.79,0a1.06,1.06,0,0,1,1.09.64,1.15,1.15,0,0,1-.22,1.34,1.31,1.31,0,0,1-.84.34c-3.9,0-7.8,0-11.7,0a1,1,0,0,0-1.08.77,1.12,1.12,0,0,0,.43,1.35,1.58,1.58,0,0,0,.71.17c3.12,0,6.25.05,9.38,0a3.36,3.36,0,0,1,3.3,2.7,3.46,3.46,0,0,1-1.6,3.89,3.51,3.51,0,0,1-1.49.39c-1.93.05-3.86,0-5.78,0Z"/><path class="cls-1" d="M167.27,22.54V26a1.12,1.12,0,0,1-.83,1.09,1.07,1.07,0,0,1-1.29-1.06V16.82a1.19,1.19,0,0,1,1.24-1.25h11.83a3.31,3.31,0,0,1,3.06,3.74,3.3,3.3,0,0,1-2.36,3.11,5.41,5.41,0,0,1-.9.12,3.76,3.76,0,0,0-.87.08c.12.09.24.19.37.27l3.2,2.07a1.13,1.13,0,0,1,.41,1.59,1,1,0,0,1-1.5.37q-3.12-2.07-6.25-4.13a1.54,1.54,0,0,0-.81-.24c-1.57,0-3.15,0-4.73,0Zm0-2.34h11a.72.72,0,0,0,.49-.24,1.41,1.41,0,0,0,.19-1.52c-.18-.48-.6-.53-1-.53H167.71l-.42,0Z"/><path class="cls-1" d="M102.85,27.12H97.5a1.23,1.23,0,0,1-1.3-1.28v-9a1.25,1.25,0,0,1,1.3-1.29h10.78a3,3,0,0,1,.52,0,5,5,0,0,1,3.89,4.46,7.69,7.69,0,0,1-.73,4.3,5.74,5.74,0,0,1-2.08,2.21,3.36,3.36,0,0,1-1.95.53h-5.08Zm-4.48-2.34.32,0c3.11,0,6.22,0,9.33,0a2,2,0,0,0,1.59-.8,4.13,4.13,0,0,0,.3-4.94,2.19,2.19,0,0,0-2-1.16H98.37Z"/><path class="cls-1" d="M125.94,27.12h-5.35a1.21,1.21,0,0,1-1.26-1.26q0-4.51,0-9a1.23,1.23,0,0,1,1.24-1.26c3.65,0,7.3,0,11,0a3.16,3.16,0,0,1,1.33.37,5.2,5.2,0,0,1,2.55,2.43,3.28,3.28,0,0,1,.34,1,8,8,0,0,1-.72,5.06A5.18,5.18,0,0,1,132.1,27a2.51,2.51,0,0,1-.82.13c-1.78,0-3.56,0-5.34,0Zm-4.47-2.34.26,0c3.15,0,6.3,0,9.46,0a2,2,0,0,0,1.54-.8,4.13,4.13,0,0,0,.27-5,2.13,2.13,0,0,0-2-1.12H122l-.48,0Z"/><path class="cls-1" d="M52.38,17.91v2.26l.47,0H63.28a1.12,1.12,0,0,1,1.17.77,1.24,1.24,0,0,1-.55,1.44,1.14,1.14,0,0,1-.58.12c-3.46,0-6.92,0-10.38,0h-.57c0,1.17,0,2.29,0,3.41a1.56,1.56,0,0,1-.25.75.92.92,0,0,1-1.12.37,1.11,1.11,0,0,1-.74-1V16.73a1.2,1.2,0,0,1,1.23-1.16H65.2a1.13,1.13,0,0,1,1.17,1.49,1.1,1.1,0,0,1-1.12.85H52.38Z"/><path class="cls-1" d="M213.13,18.94l1.32-3a.79.79,0,0,1,.92-.27.34.34,0,0,1,.09.19c.1,1.31.19,2.62.29,4h-.65c-.08-1.11-.15-2.24-.23-3.49-.45,1-.83,1.93-1.25,2.82-.12.26-.08.69-.55.67s-.4-.44-.52-.7c-.38-.86-.72-1.74-1.13-2.74-.08,1.22-.16,2.32-.25,3.45h-.63l.35-4.15c.82-.1.83-.1,1.11.57Z"/><path class="cls-1" d="M206.39,15.65h3.71v.44h-1.53v3.72h-.66V16.09c-.44,0-.83,0-1.21,0S206.27,16,206.39,15.65Z"/></svg>