<svg id="Capa_1" data-name="Capa 1" xmlns="http://www.w3.org/2000/svg" viewBox="0 0 219.5 130.5"><defs><style>.cls-1{fill:#c8071d;}</style></defs><title>gama</title><path d="M214.75,126.91c-3.38,0-6.76,0-10.13,0a.62.62,0,0,1-.68-.45q-2.22-5.37-4.46-10.74a2.53,2.53,0,0,1-.21-.44c-.15-.93-.72-1.07-1.58-1.06-4.26,0-8.51,0-12.77,0a4.38,4.38,0,0,0-4.08,2.51,40.35,40.35,0,0,0-1.92,4.68,45.42,45.42,0,0,1-1.8,4.39,2.93,2.93,0,0,1-3.82,1.57,2.6,2.6,0,0,1-1.93-1.69,2.24,2.24,0,0,1,.2-1.58c1.09-2.61,2.22-5.21,3.33-7.82,1.25-2.92,2.48-5.85,3.73-8.77,1.15-2.69,2.32-5.37,3.47-8.06,1.42-3.36,2.82-6.72,4.25-10.07a10.3,10.3,0,0,1,2.28-3.54A7.53,7.53,0,0,1,192.42,84a19.71,19.71,0,0,1,3.91-.23.46.46,0,0,1,.5.31l1.68,4c.64,1.54,1.27,3.09,1.92,4.63.84,2,1.71,4,2.56,6,.67,1.58,1.33,3.17,2,4.76q2,4.89,4.09,9.79c1.26,3,2.54,6,3.81,9,.57,1.34,1.11,2.69,1.68,4,0,.08,0,.23.18.24Zm-31-16.91h1.76c3,0,6.09.06,9.13,0,1.39,0,2.12-.19,1.44-2s-1.33-3.33-2-5l-2.81-7-.9-2.16Z"/><path d="M139.55,114.25l2.36-6.61c.69-2,1.37-3.9,2.07-5.84,1.32-3.66,2.66-7.31,4-11,.72-2,1.44-4,2.13-6,.08-.22.16-.27.37-.27H163.9c.27,0,.39.07.35.34a1.31,1.31,0,0,0,0,.28q0,20.61,0,41.21c0,.49-.1.64-.62.64-2.88,0-5.75,0-8.63,0-.49,0-.63-.09-.63-.62q0-15.81,0-31.63V94c-.64,1.55-1.22,3-1.79,4.37q-1.23,3-2.45,6.09c-.91,2.26-1.8,4.54-2.71,6.8-1,2.46-2,4.91-3,7.37-.83,2.05-1.64,4.09-2.46,6.14a4.22,4.22,0,0,1-3.35,2.7,5.42,5.42,0,0,1-3.5-.44,4.12,4.12,0,0,1-2-2.24c-.8-1.93-1.58-3.89-2.36-5.83q-1.84-4.59-3.7-9.19c-1-2.36-1.94-4.71-2.91-7.07-.9-2.2-1.79-4.42-2.68-6.63a16.15,16.15,0,0,0-.79-1.69v30.55a2.28,2.28,0,0,1-1.81,2.43,3.43,3.43,0,0,1-3.76-.83,1.9,1.9,0,0,1-.59-1.41q0-17.64,0-35.27a4.81,4.81,0,0,0-1.4-3.72,4.43,4.43,0,0,0-2.65-1.08,5.66,5.66,0,0,0-1.42-.14c-.11,0-.22,0-.23-.16s.1-.17.22-.17H128a.62.62,0,0,1,.72.51c1.33,3.66,2.71,7.29,4.06,10.94.81,2.19,1.59,4.39,2.4,6.57,1.06,2.86,2.15,5.71,3.21,8.57q.48,1.29.93,2.58A1.23,1.23,0,0,0,139.55,114.25Z"/><path class="cls-1" d="M132.94,2.89c-1.57.5-3.17,1-4.73,1.52-2.29.83-4.58,1.68-6.8,2.69-1.82.82-3.64,1.62-5.41,2.56-2.51,1.34-5,2.75-7.39,4.27s-4.79,3.24-7.08,5C100,20.15,98.42,21.43,97,22.8c-1.28,1.18-2.61,2.32-3.79,3.6-1.38,1.48-2.74,3-4,4.54a51.56,51.56,0,0,0-4.89,7A25.12,25.12,0,0,0,81,46.19a10.35,10.35,0,0,0,.84,6.48,9.79,9.79,0,0,0,3.89,4.15,18.07,18.07,0,0,0,6.42,2.24c1.28.22,2.57.34,3.87.46a41.65,41.65,0,0,0,5.24.06c1.6-.06,3.22-.18,4.83-.39,1-.14,2.07-.24,3.1-.37,1.23-.16,2.46-.35,3.68-.57,1.48-.27,3-.59,4.43-.88,2.21-.43,4.39-1,6.57-1.51,4.43-1.12,8.81-2.4,13.23-3.89a1,1,0,0,1-.64.44c-1.55.66-3.11,1.29-4.66,1.94-2.4,1-4.82,1.95-7.26,2.85-2.29.84-4.59,1.66-6.91,2.41-3.62,1.17-7.26,2.23-11,3.1-2.33.54-4.68,1-7.05,1.39-1.84.28-3.67.59-5.53.78-1.33.15-2.67.24-4,.35a56.43,56.43,0,0,1-6.63.06,26.52,26.52,0,0,1-9.31-1.89c-3.23-1.38-5.75-3.5-6.84-7a13.78,13.78,0,0,1-.56-3.56,19.39,19.39,0,0,1,1.14-7.28,30.75,30.75,0,0,1,3.32-6.7,51.18,51.18,0,0,1,4.94-6.42,65.61,65.61,0,0,1,4.76-4.82A89.69,89.69,0,0,1,91.6,19.27c2.36-1.56,4.77-3.05,7.22-4.45q3.08-1.77,6.27-3.29c3-1.42,6.06-2.74,9.19-3.9a99.79,99.79,0,0,1,10.55-3.28c1.86-.48,3.75-.86,5.65-1.18A10.67,10.67,0,0,1,132.94,2.89Z"/><path d="M39.31,109.55c2.35,0,4.7,0,7.06,0,.48,0,.64.08.64.62q0,7.08,0,14.16c0,.41,0,.62-.54.75-2.05.56-4.11,1.07-6.2,1.48-1.55.31-3.11.53-4.69.71a42.59,42.59,0,0,1-6.58.31,33.8,33.8,0,0,1-5.48-.69,34.68,34.68,0,0,1-5.46-1.65,23.55,23.55,0,0,1-5.64-3.17,18.71,18.71,0,0,1-5-5.57,20.29,20.29,0,0,1-2.21-5.83,26.64,26.64,0,0,1-.41-6.78,19.5,19.5,0,0,1,6.21-13,24.18,24.18,0,0,1,6.07-4.07,29.51,29.51,0,0,1,7.41-2.42,38.72,38.72,0,0,1,3.86-.47,20.66,20.66,0,0,1,2.83-.07,54.57,54.57,0,0,1,6.5.63,52.88,52.88,0,0,1,5.15,1.24c.22.07.25.14.25.32q0,4,0,8c0,.11.08.28-.12.31a.27.27,0,0,1-.32-.24,5.39,5.39,0,0,0-3.05-3.85,15.69,15.69,0,0,0-5.83-1.86,22.39,22.39,0,0,0-3.83-.3,13.57,13.57,0,0,0-8.54,3,15.54,15.54,0,0,0-4.74,6.8A23,23,0,0,0,15.38,104a24.51,24.51,0,0,0,.06,3.93A18.38,18.38,0,0,0,17,114.07a14.24,14.24,0,0,0,2.81,4.17,14.72,14.72,0,0,0,7.23,4,22,22,0,0,0,3.35.48,17.34,17.34,0,0,0,2.88.06,11.31,11.31,0,0,0,3.55-.52,2.68,2.68,0,0,0,1.78-2.31c.24-1.74.06-3.49.13-5.24,0-.35-.1-.42-.44-.42-2.38,0-4.77,0-7.16,0a2.64,2.64,0,0,1-2.19-1.09,2,2,0,0,1,.75-3.06,4.66,4.66,0,0,1,2.52-.53C34.57,109.52,36.94,109.55,39.31,109.55Z"/><path d="M97.34,126.91H87.67c-1.16,0-1.14,0-1.58-1.07-1-2.47-2-4.94-3.06-7.41l-1.56-3.78a.56.56,0,0,0-.62-.4c-4.57,0-9.15,0-13.72,0a4.06,4.06,0,0,0-3.46,1.9,23.39,23.39,0,0,0-2.11,4.71c-.64,1.62-1.16,3.28-1.93,4.85a3.22,3.22,0,0,1-5.31.83,1.87,1.87,0,0,1-.41-2.14c1.09-2.6,2.2-5.19,3.3-7.79,1.43-3.37,2.85-6.74,4.29-10.11,1.25-2.94,2.52-5.87,3.77-8.81s2.38-5.7,3.61-8.53a8.93,8.93,0,0,1,2.84-3.87,8.43,8.43,0,0,1,3.64-1.41,23.82,23.82,0,0,1,3.38-.12c.29,0,.41.07.54.38,1,2.54,2.15,5.06,3.21,7.59,1.14,2.7,2.25,5.4,3.38,8.1.88,2.08,1.79,4.15,2.67,6.24.95,2.24,1.87,4.5,2.82,6.75s1.94,4.56,2.91,6.84,1.86,4.47,2.79,6.71C97.13,126.54,97.21,126.68,97.34,126.91ZM66.15,110c3.69,0,7.33,0,11,0a3.49,3.49,0,0,0,1.1-.23.66.66,0,0,0,.48-.6,2,2,0,0,0-.13-1c-.74-1.85-1.49-3.69-2.24-5.54-.85-2.1-1.7-4.22-2.57-6.32a21.55,21.55,0,0,0-1-2.38Z"/><path class="cls-1" d="M96.77,44.78c1.71-.74,3.32-1.36,4.93-2,3-1.19,6.11-2.25,9.2-3.25s6-1.8,9-2.52c2.24-.54,4.51-1,6.79-1.34,1.4-.23,2.83-.38,4.25-.5a41.36,41.36,0,0,1,5.33-.19,21,21,0,0,1,9.18,2.12A10,10,0,0,1,150.78,44a9.67,9.67,0,0,1-.79,5.89,22.37,22.37,0,0,1-4.33,6.28,51.06,51.06,0,0,1-7.56,6.44,80.32,80.32,0,0,1-7.92,5,100.21,100.21,0,0,1-9.43,4.61c-2.54,1.09-5.12,2.08-7.74,3a70.45,70.45,0,0,1-9.12,2.43,18.89,18.89,0,0,1-3.38.33c.57-.21,1.13-.44,1.71-.64,2.53-.89,5-1.91,7.46-3s5.17-2.28,7.69-3.57a92.42,92.42,0,0,0,10.75-6.38A42.9,42.9,0,0,0,132,61.31c.81-.72,1.66-1.41,2.41-2.21a23.16,23.16,0,0,0,4.37-6.18,11.74,11.74,0,0,0,1-6.12,7.16,7.16,0,0,0-1.6-4A7.07,7.07,0,0,0,136,41.16a15.59,15.59,0,0,0-4.78-1.36,37,37,0,0,0-4.82-.25,50.16,50.16,0,0,0-6.25.37c-2.13.25-4.25.59-6.37,1-3.69.64-7.33,1.46-11,2.38-1.86.48-3.7,1-5.54,1.53A1,1,0,0,1,96.77,44.78Z"/><path d="M104.88,127.13a2.77,2.77,0,0,1-3-3.07,3.13,3.13,0,0,1,6.23.23A2.84,2.84,0,0,1,104.88,127.13Z"/></svg>