<svg id="Capa_1" data-name="Capa 1" xmlns="http://www.w3.org/2000/svg" viewBox="0 0 219.5 130.5"><title>gravity</title><path d="M47.23,49.77V16.21c0-2.73.24-3,2.9-3,3.54,0,7.07,0,10.61,0A13.29,13.29,0,0,1,74.18,26.6c.08,8.22,0,16.44,0,24.65a12.71,12.71,0,0,1-5.11,10.37,2.89,2.89,0,0,0-1.19,3.64c1.88,6.1,3.61,12.26,5.37,18.39.61,2.12.13,2.74-2,2.75-1.2,0-2.41-.07-3.6,0-1.39.09-2-.54-2.41-1.85-1.76-6.14-3.76-12.22-5.28-18.42-.63-2.54-.33-5.32-.27-8,0-.47.86-1.16,1.45-1.32,3.83-1.1,4.8-2.31,4.8-6.34,0-7.65,0-15.29,0-22.94,0-4.81-1.71-6.49-6.5-6.49-3.86,0-3.86,0-3.86,3.89q0,29.28,0,58.56c0,2.65-.21,2.86-2.79,2.88-1,0-2.05,0-3.08,0-2.06,0-2.42-.33-2.42-2.38q0-10.44,0-20.88Z"/><path d="M11.77,49.6q0-12,0-24c0-6.85,4.57-12.49,10.83-13.43,7.14-1.08,13.24,2.58,15.17,9.46a25.88,25.88,0,0,1,.45,7.11c0,.49-1,1.3-1.56,1.38a33.1,33.1,0,0,1-4.78.07c-1.26,0-1.84-.73-1.82-2,0-1.08,0-2.16,0-3.25-.09-3.07-2.16-5.28-4.92-5.28a5.07,5.07,0,0,0-5.07,5.34c0,7.36,0,14.72,0,22.08,0,9,0,18,0,27a7.74,7.74,0,0,0,.6,3.14,4.92,4.92,0,0,0,5.45,2.61,5.14,5.14,0,0,0,3.92-5c.05-4.68,0-9.36,0-14,0-2.57,0-5.13,0-7.7,0-2-.46-2.42-2.4-2.48-2.28-.08-2.5-.31-2.52-2.62,0-1.14,0-2.28,0-3.42a1.57,1.57,0,0,1,1.72-1.71c3.25,0,6.5,0,9.75,0,1.35,0,1.71.9,1.71,2.07v6.85c0,7.47,0,14.95,0,22.42a13.14,13.14,0,0,1-10.07,13A13.3,13.3,0,0,1,13.49,81a13.52,13.52,0,0,1-1.74-7c0-8.1,0-16.21,0-24.31Z"/><path d="M187.65,74.08c-.37-5.22-.29-10.53-1.24-15.64-1.22-6.6-3.27-13-5-19.56q-3-11.51-6-23c-.5-2,0-2.6,2.1-2.62,1.14,0,2.29.08,3.42,0,1.61-.14,2.37.55,2.75,2.09,2.16,8.74,4.38,17.47,6.58,26.21a2.63,2.63,0,0,0,.24.81,14.53,14.53,0,0,0,1,1.19c.32-.42.8-.79.92-1.26,1.43-5.45,2.79-10.93,4.18-16.39.93-3.65,1.92-7.28,2.81-10.94a1.89,1.89,0,0,1,2.15-1.7c1.37,0,2.74,0,4.11,0,1.84,0,2.32.67,1.85,2.5-2.56,9.93-5.16,19.86-7.71,29.8C198.56,50.69,197,55.8,196.18,61c-.66,4.07-.44,8.29-.53,12.45-.07,3.54,0,7.08,0,10.62,0,1.64-.62,2.44-2.33,2.34a36.47,36.47,0,0,0-3.77,0c-1.6.08-2.28-.6-2.25-2.22.05-3.37,0-6.74,0-10.1Z"/><path d="M154.92,53.51q0-14.88,0-29.78c0-2.41-.25-2.64-2.63-2.66-1.14,0-2.29,0-3.43,0a1.73,1.73,0,0,1-2-1.86q0-2.06,0-4.11c0-1.27.7-1.83,2-1.83h20.53c1.2,0,1.81.56,1.82,1.75,0,1.43,0,2.85,0,4.28,0,1.23-.71,1.74-1.84,1.76-1.31,0-2.63.06-3.94,0-1.52,0-2.17.67-2.16,2.17,0,4.05,0,8.1,0,12.15V83.31c0,3-.14,3.16-3.21,3.13-.75,0-1.49,0-2.23,0-2.63,0-2.91-.25-2.91-3q0-15,0-29.95Z"/><path d="M134.86,49.6V15.87c0-2.43.2-2.61,2.67-2.62,1.32,0,2.63,0,3.94,0s1.76.64,1.83,1.78c0,.4,0,.8,0,1.2q0,33.55,0,67.11c0,2.85-.2,3-3,3h-3.08c-2.07,0-2.41-.3-2.41-2.36q0-16,0-32Z"/><path d="M127.69,45.24c-3.49,0-7,0-10.45,0a1.69,1.69,0,0,0-1.9,1.91c0,1.14,0,2.28,0,3.42,0,2,.32,2.36,2.37,2.46s2.47.48,2.12,2.64c-.43,2.7-.92,5.39-1.38,8.09-1.42,8.32-2.82,16.64-4.28,25a6.17,6.17,0,0,1-.91,1.66,6.43,6.43,0,0,1-.94-1.74q-2.67-15.24-5.26-30.5-2.39-13.92-4.75-27.83c-.85-4.95-1.74-9.88-2.55-14.83-.26-1.56-1-2.31-2.65-2.22a31.45,31.45,0,0,1-3.76,0c-1.67-.09-2.47.59-2.74,2.29-.93,5.8-2,11.58-3,17.37q-3.12,18.3-6.23,36.59c-.83,4.84-1.7,9.67-2.49,14.51-.32,1.89.16,2.4,2,2.44,1.66,0,3.31,0,5,0h2.4c5.3,0,4.74.27,4.75-4.85,0-2.59-.2-2.85-2.79-2.92-1.47,0-2.09-.63-1.83-2.13q2.88-16.86,5.76-33.72c.09-.52.61-1,.93-1.43A5,5,0,0,1,96,42.83c.59,3.14,1.08,6.3,1.62,9.44q3.81,22.26,7.65,44.52c1.12,6.51,2.28,13,3.38,19.55a2.17,2.17,0,0,0,2.53,2.13c1.36-.06,2.74,0,4.1,0a2.1,2.1,0,0,0,2.43-2c.52-3.26,1.13-6.51,1.68-9.77q4.1-23.94,8.18-47.88.94-5.56,1.87-11.14C129.7,46.25,129.36,45.24,127.69,45.24Z"/></svg>