<svg id="Capa_1" data-name="Capa 1" xmlns="http://www.w3.org/2000/svg" viewBox="0 0 219.5 32.67"><title>head</title><path d="M59.46,3.45h47.06V9.29H71v4.06h35.56V19.2H71v4.12h35.61v4.51l.23.12c.76-1,1.53-2.05,2.28-3.08Q116.69,14.45,124.3,4a1.61,1.61,0,0,1,1.15-.58q9.11-.06,18.2,0a1.89,1.89,0,0,1,1.35.7q8.38,11.42,16.68,22.9c.22.3.48.58.89,1.09V3.42h1.35q18.81,0,37.61,0c7.66,0,11.41,4.85,11.87,12A16.29,16.29,0,0,1,212,23c-2,4.48-5.7,6.17-10.29,6.19-16.85.05-33.69,0-50.54,0a1.65,1.65,0,0,1-1.56-.82c-.78-1.15-1.45-2.63-2.56-3.22s-2.65-.18-4-.18c-6.73,0-13.46,0-20.19,0a1.9,1.9,0,0,0-1.26.62,15.42,15.42,0,0,0-1.83,2.5,2,2,0,0,1-2,1.06q-28.08,0-56.17,0H59.46ZM174.23,21.16h2.51q10.86,0,21.72,0c2.31,0,3.22-.68,3.83-2.81a5.81,5.81,0,0,0,.29-1.88c-.2-3.25-1.07-5.06-4.7-5-7.42.13-14.85,0-22.27,0h-1.38Zm-47.92-2h16.55c-2.18-3-4.27-5.9-6.38-8.77-.44-.59-3.23-.69-3.66-.1C130.66,13.17,128.55,16.09,126.31,19.15Z"/><path d="M41.9,12V3.46c.37,0,.65,0,.92,0H53.39V4.76c0,7.71,0,15.42,0,23.12,0,1.14-.35,1.4-1.42,1.38-3.31-.06-6.62,0-10.07,0V19.08H17.55V29.15H6.07V3.47H17.46V12Z"/></svg>