<svg id="Capa_1" data-name="Capa 1" xmlns="http://www.w3.org/2000/svg" viewBox="0 0 181.67 32.67"><defs><style>.cls-1{fill:#fc0102;}.cls-2{fill:#c02828;}</style></defs><title>hitachi</title><path class="cls-1" d="M80.48,25l-.11,0c-.2,0-.22.15-.28.27-.39.89-.81,1.78-1.15,2.7-.07.19-.2.35-.27.54-.21.56-.47,1.09-.64,1.66a.6.6,0,0,1-.65.43c-1.23,0-2.47,0-3.71,0H70.36c-.3,0-.34-.07-.23-.35a.69.69,0,0,1,.07-.15,9.06,9.06,0,0,0,.86-1.87L72.48,25c.45-1,.89-2,1.38-3,.06-.14.18-.28.08-.46h0c.13,0,.12-.1.17-.16a4,4,0,0,0,.46-.95c.22-.47.44-.93.65-1.39.32-.71.62-1.43.94-2.14s.78-1.68,1.15-2.52c.3-.67.6-1.32.89-2,.37-.87.81-1.71,1.2-2.57s.73-1.74,1.15-2.57c.32-.63.6-1.27.89-1.9.47-1,.91-2,1.39-3.06.12-.26.17-.64.6-.64h7.84a.33.33,0,0,1,.34.19c.36.83.71,1.66,1.07,2.5s.72,1.77,1.14,2.64c.34.68.63,1.39.94,2.09s.78,1.68,1.12,2.54c.43,1.08.94,2.13,1.41,3.19l1.63,3.69L100,21.09q1,2.27,2.06,4.54c.29.65.54,1.34.85,2,.43.86.75,1.77,1.17,2.64.1.21,0,.32-.21.32q-3.65,0-7.29,0a.3.3,0,0,1-.31-.19c-.14-.37-.39-.7-.54-1.06-.25-.62-.53-1.23-.81-1.84s-.61-1.42-.93-2.12c-.07-.16-.11-.37-.34-.39h0c-.05-.19-.21-.12-.33-.12H80.88C80.74,24.84,80.56,24.75,80.48,25ZM87.17,8a1.17,1.17,0,0,1-.09.14c-.48,1.13-1,2.26-1.45,3.4q-.94,2.22-1.87,4.45L82.4,19.13c-.08.21,0,.3.2.28h8.72c.41,0,.42,0,.28-.38-.42-1.14-.88-2.26-1.34-3.38-.84-2.07-1.66-4.15-2.49-6.22C87.58,9,87.39,8.48,87.17,8Z"/><path class="cls-1" d="M125.37,8.63s0,0,0,0c0-.23-.09-.35-.32-.36,0,0,0,0,0,0,0-.2,0-.32-.27-.26h0c0-.17-.08-.16-.19-.14h0s0-.07-.08-.06h0c0-.26-.24-.43-.58-.46h0a1.06,1.06,0,0,0-1-.52h0c0-.14-.08-.16-.16-.19A9,9,0,0,0,119.9,6a9.57,9.57,0,0,0-3.27.52,6.84,6.84,0,0,0-1.94,1c-.07,0-.19.09-.11.23h0a.21.21,0,0,0-.27,0,8.28,8.28,0,0,0-2.1,2.39,8.85,8.85,0,0,0-.76,1.58c-.21.64-.42,1.29-.59,1.94a9.77,9.77,0,0,0-.21,1.89,16.8,16.8,0,0,0,.12,2.65,11.08,11.08,0,0,0,.6,2.48A11.87,11.87,0,0,0,112.55,23a8.68,8.68,0,0,0,1.55,1.81,9.41,9.41,0,0,0,2.08,1.35,8.2,8.2,0,0,0,5,.73,6.51,6.51,0,0,0,3.13-1.46,6.21,6.21,0,0,0,1.85-2.57,11.49,11.49,0,0,0,.65-2.29c.1-.5,0-.59.66-.59h6.12c.25,0,.39.08.37.36a11,11,0,0,1-.25,1.71,12.07,12.07,0,0,1-1,2.62,13,13,0,0,1-1.27,2.19c-.37.48-.77.94-1.16,1.41a6,6,0,0,1-1.48,1.26,5.21,5.21,0,0,1-.78.51,8.9,8.9,0,0,1-2.6.89.84.84,0,0,0-.43.19.73.73,0,0,1-.47.18c-.85.05-1.7.11-2.56.13-1.81.05-3.62,0-5.42-.06a2.44,2.44,0,0,1-1.64-.37.34.34,0,0,0-.24-.07,3.54,3.54,0,0,1-1.33-.35,11.86,11.86,0,0,1-2-.81,19.33,19.33,0,0,1-2-1.21c-.41-.28-.75-.66-1.14-1s-.5-.58-.78-.8a9.8,9.8,0,0,1-1.57-1.9,7.61,7.61,0,0,1-.78-1.36,10.18,10.18,0,0,1-.81-1.86,23.48,23.48,0,0,1-.6-2.37,13.6,13.6,0,0,1-.33-2.76,23.73,23.73,0,0,1,.21-3c.12-.79.4-1.54.53-2.33a10.86,10.86,0,0,1,.74-1.82,4.38,4.38,0,0,1,.38-.71c.29-.43.57-.86.87-1.27a12.7,12.7,0,0,1,1.72-1.94c.2-.18.51-.3.54-.63h0a.31.31,0,0,0,.28,0,9,9,0,0,1,1.23-.89,14.35,14.35,0,0,1,1.84-1,19.62,19.62,0,0,1,3.36-1.16,17.41,17.41,0,0,1,3.44-.5,18.53,18.53,0,0,1,3.24.09,24.71,24.71,0,0,1,3.52.73c.21.06.4.2.62.25a8.12,8.12,0,0,1,2.23,1,20.68,20.68,0,0,1,2.09,1.41c.24.19.48.4.72.6a11.83,11.83,0,0,1,1.61,2.05,7.8,7.8,0,0,1,1.1,2.52,14.64,14.64,0,0,1,.37,2.2c0,.38-.09.52-.5.52h-6.24c-.24,0-.47,0-.47-.36a5.46,5.46,0,0,0-.11-1,6.55,6.55,0,0,0-1-2.41C125.6,8.72,125.53,8.61,125.37,8.63Z"/><path class="cls-1" d="M173.1,16.15q0-7.08,0-14.16c0-.3.07-.4.39-.4,2,0,4,0,6,0,.29,0,.33.1.33.36V23c0,2.45,0,4.9,0,7.35,0,.28-.05.39-.36.38h-6c-.29,0-.36-.08-.36-.36Q173.11,23.24,173.1,16.15Z"/><path class="cls-2" d="M137.59,16.15c0-4.73,0-9.46,0-14.19,0-.3.07-.38.37-.38,2.45,0,4.91,0,7.36,0,.3,0,.35.1.35.37q0,5.1,0,10.22c0,.43,0,.44.43.44h13.08c.28,0,.35-.11.35-.37,0-3.41,0-6.83,0-10.25,0-.32.08-.42.41-.41q3.66,0,7.32,0c.32,0,.42.07.42.41q0,14.12,0,28.25c0,.47,0,.46-.47.46h-7.32c-.27,0-.34-.07-.34-.34,0-3.81,0-7.62,0-11.43,0-.49,0-.49-.49-.49H146.13c-.47,0-.47,0-.47.46,0,1.09,0,2.17,0,3.26.09,1.66,0,3.31.07,5,0,1.07,0,2.14,0,3.22,0,.25,0,.35-.33.35q-3.78,0-7.55,0c-.28,0-.32-.1-.32-.34q0-7.11,0-14.22Zm.19,0V29.68c0,.11,0,.22,0,.33,0,.45.07.49.52.49h6.87c.33,0,.42-.09.43-.42,0-1.37-.07-2.73-.08-4.1,0-1.13,0-2.27,0-3.41s0-2.6,0-3.9c0-.29.12-.42.43-.42h13.28c.5,0,.54,0,.54.53V30c0,.48,0,.51.5.51h6.73c.44,0,.48,0,.52-.46a1.76,1.76,0,0,0,0-.23V2.44c0-.11,0-.22,0-.32s-.12-.34-.4-.34h-6.89c-.45,0-.45,0-.45.46v10c0,.52-.06.58-.57.58H146.06c-.54,0-.6-.06-.6-.59q0-5,0-10c0-.32-.09-.43-.42-.43H138.5c-.72,0-.72,0-.72.75Z"/><path class="cls-2" d="M30.71,16.18q0,7.08,0,14.16c0,.3-.09.38-.38.37q-3.07,0-6.15,0c-.32,0-.37-.1-.37-.39q0-5.68,0-11.39a.56.56,0,0,1,0-.13c0-.28-.1-.36-.38-.36H9.16c-.31,0-.38.12-.38.4,0,3.79,0,7.59,0,11.39,0,.58,0,.47-.49.47H2.18c-.27,0-.34-.07-.34-.34q0-14.19,0-28.38c0-.31.07-.42.41-.41q3.09,0,6.18,0c.31,0,.37.1.37.38q0,5.21,0,10.39c0,.68,0,.58.58.58H23.42c.35,0,.41-.12.41-.43,0-3.48,0-7,0-10.44,0-.54-.08-.48.45-.48h6.09c.27,0,.34.07.34.34,0,4.76,0,9.51,0,14.26ZM2,16.11V30c0,.45,0,.46.45.46H8.16c.46,0,.46,0,.46-.47V19.23c0-.15,0-.29,0-.43,0-.41.07-.54.48-.54H23.49c.45,0,.56.11.56.55,0,2.47,0,4.95,0,7.42,0,1.31,0,2.63,0,3.94,0,.19,0,.33.27.33,2,0,3.93,0,5.89,0,.23,0,.27-.11.31-.32a7,7,0,0,0,0-1.45V4.92A14.11,14.11,0,0,1,30.55,3a4.07,4.07,0,0,0,0-.78c0-.29-.15-.42-.48-.41-1.86,0-3.73,0-5.6,0-.42,0-.42,0-.42.42V12.52c0,.5-.1.6-.59.6H9.17c-.46,0-.55-.1-.55-.55V2.45a1.82,1.82,0,0,0,0-.33.34.34,0,0,0-.39-.34c-1.92,0-3.84,0-5.76,0-.48,0-.48,0-.48.49Z"/><path class="cls-2" d="M61.2,1.59H75.45c.34,0,.41.1.41.42,0,1.65,0,3.3,0,5,0,.27-.07.34-.35.34H65.42c-.47,0-.47,0-.47.46Q65,19,65,30.3c0,.34-.09.41-.41.41-2.24,0-4.47,0-6.71,0-.22,0-.29-.06-.29-.29,0-3,0-6.05,0-9.08.1-4.57,0-9.13,0-13.7,0-.26-.07-.37-.35-.35-1.49.09-3,0-4.48.08-.81,0-1.63,0-2.44,0-1.16,0-2.31.1-3.47.08-.3,0-.36-.1-.36-.37,0-1.74,0-3.48,0-5.21,0-.29.12-.34.37-.34H61.2Zm-.19.2H47.21c-.45,0-.45,0-.45.45V6.86c0,.45,0,.44.46.47.92.07,1.83-.14,2.75-.13h5.5a1,1,0,0,0,.42-.06A3.48,3.48,0,0,1,57.36,7c.35,0,.47.15.47.47,0,4.68.06,9.37,0,14.05-.07,2.87,0,5.75,0,8.63,0,.27.1.34.36.35.87,0,1.72-.08,2.59,0,1.17.08,2.35,0,3.52,0,.4,0,.46-.05.51-.46a2.25,2.25,0,0,0,0-.26V8.07a1.74,1.74,0,0,0,0-.32c0-.51.07-.68.59-.74h9.92c.31,0,.38-.1.38-.39,0-1.15,0-2.3,0-3.45,0-.31,0-.63,0-.94,0-.15,0-.35-.22-.37a4.91,4.91,0,0,0-.67-.08Z"/><path class="cls-2" d="M44.34,16.16q0,7.08,0,14.15c0,.32-.08.4-.4.4q-3.71,0-7.42,0c-.28,0-.31-.11-.31-.34,0-1.24,0-2.48,0-3.71V3.45c0-.5,0-1,0-1.49,0-.24.07-.32.32-.31,2,0,4.06,0,6.08,0,.46,0,.91,0,1.36-.06s.38.09.38.39q0,4.71,0,9.44Zm-.43.41q0-6.52,0-13A7.37,7.37,0,0,1,44,2.19c.06-.31,0-.35-.29-.35a8.15,8.15,0,0,1-1,.15,17.74,17.74,0,0,0-1.79-.07c-1.34,0-2.67,0-4,.05-.45,0-.46,0-.46.47q0,13.1,0,26.2c0,.42-.1.84-.07,1.26s.09.48.48.48H44c.12,0,.16-.12.07-.18s-.14-.31-.14-.47Z"/><path class="cls-2" d="M108.34,4.84c0,.33-.34.45-.54.63a12.7,12.7,0,0,0-1.72,1.94c-.3.41-.58.84-.87,1.27a4.38,4.38,0,0,0-.38.71,10.86,10.86,0,0,0-.74,1.82c-.13.79-.41,1.54-.53,2.33a23.73,23.73,0,0,0-.21,3,13.6,13.6,0,0,0,.33,2.76,23.48,23.48,0,0,0,.6,2.37,10.18,10.18,0,0,0,.81,1.86,7.61,7.61,0,0,0,.78,1.36,9.8,9.8,0,0,0,1.57,1.9c.28.22.49.56.78.8s.73.7,1.14,1a19.33,19.33,0,0,0,2,1.21,11.86,11.86,0,0,0,2,.81,3.54,3.54,0,0,0,1.33.35.34.34,0,0,1,.24.07,2.44,2.44,0,0,0,1.64.37c1.8,0,3.61.11,5.42.06.86,0,1.71-.08,2.56-.13a.73.73,0,0,0,.47-.18.84.84,0,0,1,.43-.19,8.9,8.9,0,0,0,2.6-.89,5.21,5.21,0,0,0,.78-.51,6,6,0,0,0,1.48-1.26c.39-.47.79-.93,1.16-1.41a13,13,0,0,0,1.27-2.19,12.07,12.07,0,0,0,1-2.62,11,11,0,0,0,.25-1.71c0-.28-.12-.36-.37-.36h-6.12c-.7,0-.56.09-.66.59a11.49,11.49,0,0,1-.65,2.29,6.21,6.21,0,0,1-1.85,2.57,6.51,6.51,0,0,1-3.13,1.46,8.2,8.2,0,0,1-5-.73,9.41,9.41,0,0,1-2.08-1.35A8.68,8.68,0,0,1,112.55,23a11.87,11.87,0,0,1-1.19-2.36,11.08,11.08,0,0,1-.6-2.48,16.8,16.8,0,0,1-.12-2.65,9.77,9.77,0,0,1,.21-1.89c.17-.65.38-1.3.59-1.94a8.85,8.85,0,0,1,.76-1.58,8.28,8.28,0,0,1,2.1-2.39.21.21,0,0,1,.27,0c-.31.29-.64.55-.93.85A9.51,9.51,0,0,0,111,13.93a12.78,12.78,0,0,0-.19,2.55A11.74,11.74,0,0,0,112.76,23a8.67,8.67,0,0,0,5.89,3.79A6.69,6.69,0,0,0,123.2,26a6.84,6.84,0,0,0,3.17-4.3,6.93,6.93,0,0,0,.25-1.42c0-.36.17-.4.46-.4h6.42c.6,0,.61,0,.6.6a10.33,10.33,0,0,1-.82,3.55,14.63,14.63,0,0,1-2.14,3.74,9.13,9.13,0,0,1-3.44,2.74,13.34,13.34,0,0,1-4,1.11,2.55,2.55,0,0,1-.39,0c-2.28,0-4.55,0-6.83,0a9.14,9.14,0,0,1-2.19-.43,16.67,16.67,0,0,1-2.91-1.08,14.08,14.08,0,0,1-3.32-2.25,14.29,14.29,0,0,1-3.35-4.54,18,18,0,0,1-1.4-4.67,13.93,13.93,0,0,1-.17-3.53A14.71,14.71,0,0,1,105.45,8a13.71,13.71,0,0,1,2.64-3A2,2,0,0,1,108.34,4.84Z"/><path class="cls-2" d="M93.68,25c.23,0,.27.23.34.39.32.7.61,1.42.93,2.12s.56,1.22.81,1.84c.15.36.4.69.54,1.06a.3.3,0,0,0,.31.19q3.65,0,7.29,0c.25,0,.31-.11.21-.32-.42-.87-.74-1.78-1.17-2.64-.31-.64-.56-1.33-.85-2q-1-2.28-2.06-4.54l-1.11-2.52-1.63-3.69c-.47-1.06-1-2.11-1.41-3.19-.34-.86-.75-1.69-1.12-2.54s-.6-1.41-.94-2.09c-.42-.87-.76-1.76-1.14-2.64S92,2.75,91.61,1.92a.33.33,0,0,0-.34-.19H83.43c-.43,0-.48.38-.6.64-.48,1-.92,2-1.39,3.06-.29.63-.57,1.27-.89,1.9-.42.83-.76,1.72-1.15,2.57s-.83,1.7-1.2,2.57c-.29.67-.59,1.32-.89,2-.37.84-.77,1.68-1.15,2.52s-.62,1.43-.94,2.14c-.21.46-.43.92-.65,1.39a4,4,0,0,1-.46.95c0,.06,0,.18-.17.16a3.58,3.58,0,0,1,.43-1.05c.49-1.12,1-2.22,1.53-3.33l2-4.5c.65-1.43,1.31-2.85,2-4.28l1.74-3.87c.43-.95.87-1.89,1.29-2.84.08-.17.21-.16.35-.16h2.15c2,0,3.93,0,5.89,0a.44.44,0,0,1,.47.33c.58,1.34,1.18,2.67,1.76,4l1.2,2.74c.42.95.85,1.89,1.27,2.84l3.28,7.42,2.61,5.93,2.46,5.58c.1.23,0,.29-.19.29q-3.86,0-7.71,0a.33.33,0,0,1-.34-.22C95.32,28.64,94.5,26.81,93.68,25Z"/><path class="cls-2" d="M125.37,8.63c.16,0,.23.09.31.2a6.55,6.55,0,0,1,1,2.41,5.46,5.46,0,0,1,.11,1c0,.32.23.36.47.36h6.24c.41,0,.55-.14.5-.52a14.64,14.64,0,0,0-.37-2.2,7.8,7.8,0,0,0-1.1-2.52,11.83,11.83,0,0,0-1.61-2c-.24-.2-.48-.41-.72-.6a20.68,20.68,0,0,0-2.09-1.41,8.12,8.12,0,0,0-2.23-1c-.22,0-.41-.19-.62-.25a24.71,24.71,0,0,0-3.52-.73,18.53,18.53,0,0,0-3.24-.09,17.41,17.41,0,0,0-3.44.5,19.62,19.62,0,0,0-3.36,1.16,14.35,14.35,0,0,0-1.84,1,9,9,0,0,0-1.23.89.31.31,0,0,1-.28,0c.11-.24.36-.33.55-.48a16.33,16.33,0,0,1,4.94-2.46,18.59,18.59,0,0,1,4-.78,23.21,23.21,0,0,1,3.12,0,17.67,17.67,0,0,1,4.06.73,15.67,15.67,0,0,1,4.25,2,10.53,10.53,0,0,1,4.4,5.87,9.78,9.78,0,0,1,.4,2.75c0,.24-.09.3-.31.3q-3.39,0-6.8,0c-.22,0-.36-.07-.36-.31a6.14,6.14,0,0,0-1.25-3.71S125.38,8.65,125.37,8.63Z"/><path class="cls-2" d="M73.94,21.62c.1.18,0,.32-.08.46-.49,1-.93,2-1.38,3l-1.42,3.15a9.06,9.06,0,0,1-.86,1.87.69.69,0,0,0-.07.15c-.11.28-.07.35.23.35h3.31c1.24,0,2.48,0,3.71,0a.6.6,0,0,0,.65-.43c.17-.57.43-1.1.64-1.66.07-.19.2-.35.27-.54.34-.92.76-1.81,1.15-2.7.06-.12.08-.29.28-.27l-1.62,3.85c-.23.54-.46,1.08-.67,1.62a.36.36,0,0,1-.38.27q-3.83,0-7.65,0c-.26,0-.28-.07-.17-.3l2.82-6.2c.34-.75.68-1.49,1-2.24C73.79,21.85,73.81,21.7,73.94,21.62Z"/><path class="cls-2" d="M80.48,25c.08-.2.26-.11.4-.11H93.32c.12,0,.28-.07.33.12h-13Z"/><path class="cls-2" d="M114.58,7.69c-.08-.14,0-.18.11-.23a6.84,6.84,0,0,1,1.94-1A9.57,9.57,0,0,1,119.9,6a9,9,0,0,1,2.86.61c.08,0,.19.05.16.19a18.89,18.89,0,0,0-1.86-.52,8.29,8.29,0,0,0-3.14,0,8.4,8.4,0,0,0-3.14,1.33A.46.46,0,0,1,114.58,7.69Z"/><path class="cls-2" d="M122.92,6.75a1.06,1.06,0,0,1,1,.52A5.42,5.42,0,0,1,122.92,6.75Z"/><path class="cls-2" d="M123.9,7.27c.34,0,.56.2.58.46A1.85,1.85,0,0,1,123.9,7.27Z"/><path class="cls-2" d="M125,8.23c.23,0,.35.13.32.36A.66.66,0,0,1,125,8.23Z"/><path class="cls-2" d="M124.74,7.93c.23-.06.3.06.27.26A.62.62,0,0,1,124.74,7.93Z"/><path class="cls-2" d="M124.55,7.79c.11,0,.22,0,.19.14A.18.18,0,0,1,124.55,7.79Z"/><path class="cls-2" d="M124.48,7.73s.07,0,.08.06S124.48,7.78,124.48,7.73Z"/><path class="cls-1" d="M137.78,16.11V2.54c0-.75,0-.75.72-.75h6.55c.33,0,.42.11.42.43q0,5,0,10c0,.53.06.59.6.59h13.08c.51,0,.57-.06.57-.58v-10c0-.46,0-.46.45-.46h6.89c.28,0,.37.11.4.34s0,.21,0,.32V29.81a1.76,1.76,0,0,1,0,.23c0,.43-.08.46-.52.46h-6.73c-.47,0-.5,0-.5-.51V18.8c0-.49,0-.53-.54-.53H145.89c-.31,0-.43.13-.43.42,0,1.3-.05,2.61,0,3.9s0,2.28,0,3.41c0,1.37.11,2.73.08,4.1,0,.33-.1.42-.43.42H138.3c-.45,0-.49,0-.52-.49,0-.11,0-.22,0-.33Z"/><path class="cls-1" d="M2,16.11V2.28c0-.49,0-.49.48-.49,1.92,0,3.84,0,5.76,0a.34.34,0,0,1,.39.34,1.82,1.82,0,0,1,0,.33V12.57c0,.45.09.55.55.55H23.46c.49,0,.58-.1.59-.6V2.21c0-.42,0-.42.42-.42,1.87,0,3.74,0,5.6,0,.33,0,.46.12.48.41a4.07,4.07,0,0,1,0,.78,14.11,14.11,0,0,0-.05,1.95V28.74a7,7,0,0,1,0,1.45c0,.21-.08.32-.31.32-2,0-3.93,0-5.89,0-.26,0-.27-.14-.27-.33,0-1.31,0-2.63,0-3.94,0-2.47,0-4.95,0-7.42,0-.44-.11-.55-.56-.55H9.1c-.41,0-.51.13-.48.54,0,.14,0,.28,0,.43V30c0,.47,0,.47-.46.47H2.43C2,30.5,2,30.49,2,30Z"/><path class="cls-1" d="M61,1.79H74.72a4.91,4.91,0,0,1,.67.08c.23,0,.21.22.22.37,0,.31,0,.63,0,.94,0,1.15,0,2.3,0,3.45,0,.29-.07.39-.38.39H65.32c-.52.06-.64.23-.59.74a1.74,1.74,0,0,1,0,.32V29.78a2.25,2.25,0,0,1,0,.26c0,.41-.11.46-.51.46-1.17,0-2.35.06-3.52,0-.87-.05-1.72.07-2.59,0-.26,0-.36-.08-.36-.35,0-2.88,0-5.76,0-8.63.11-4.68,0-9.37,0-14,0-.32-.12-.46-.47-.47a3.48,3.48,0,0,0-1.47.13,1,1,0,0,1-.42.06H50c-.92,0-1.83.2-2.75.13-.44,0-.46,0-.46-.47V2.24c0-.45,0-.45.45-.45Z"/><path class="cls-1" d="M43.91,16.57V29.72c0,.16,0,.34.14.47s.05.16-.07.18H36.89c-.39,0-.45-.07-.48-.48s.07-.84.07-1.26q0-13.11,0-26.2c0-.46,0-.44.46-.47,1.33-.08,2.66-.05,4-.05A17.74,17.74,0,0,1,42.72,2a8.15,8.15,0,0,0,1-.15c.27,0,.35,0,.29.35a7.37,7.37,0,0,0-.08,1.33Q43.9,10,43.91,16.57Z"/></svg>