<svg id="Capa_1" data-name="Capa 1" xmlns="http://www.w3.org/2000/svg" viewBox="0 0 76.5 76.5"><defs><style>.cls-1{fill:#014d95;}</style></defs><title>hp</title><path class="cls-1" d="M24.52,5A7.91,7.91,0,0,0,26,4.38l2.23-.67c.34-.11.69-.2,1-.3s.49-.2.76-.09L29.47,5a1,1,0,0,0-.21.6,3.39,3.39,0,0,0-.42,1.19,5.34,5.34,0,0,0-.51,1.38,7.6,7.6,0,0,0-.55,1.58.86.86,0,0,0-.18.43l-.47,1.36a5.21,5.21,0,0,0-.43,1.2,12.3,12.3,0,0,0-.63,1.76.08.08,0,0,0-.06.12,13.68,13.68,0,0,0-.57,1.67L25,17.57c-.41,1.16-.88,2.29-1.21,3.48a3.51,3.51,0,0,0-.42,1.2,30,30,0,0,0-1.27,3.55,7.05,7.05,0,0,0-.49,1.28c-.4,1.12-.85,2.22-1.17,3.37a7.39,7.39,0,0,0-.52,1.38c-.4,1.15-.88,2.27-1.21,3.44h0c-.1,0-.08.15-.09.24a3.57,3.57,0,0,0-.4,1.06.7.7,0,0,0-.11.42,3.61,3.61,0,0,0-.42,1.06A16.22,16.22,0,0,0,17,40a4.27,4.27,0,0,0-.44,1.19l-.07.2A16,16,0,0,0,15.88,43L15.3,44.7l-1.09,3a10.55,10.55,0,0,0-.58,1.72c-.34.61-.48,1.3-.76,1.94-.18.4,0,.5.37.5,2.28,0,4.57,0,6.86,0,.14,0,.32.08.43-.09l.32-.95a5,5,0,0,0,.48-1.28l.13-.41A7.63,7.63,0,0,0,22,47.77l.54-1.58A33.38,33.38,0,0,0,23.66,43l.61-1.69c.4-1,.76-2,1.08-3.07a9,9,0,0,0,.56-1.58l.29-.74.24-.71A9.17,9.17,0,0,0,27,33.68a9.08,9.08,0,0,0,.61-1.75.84.84,0,0,0,.19-.43l.46-1.36.48-1.28c.07-.52.41-.61.87-.59,1.09,0,2.17,0,3.26,0l-.08.29c-.39,1.12-.87,2.21-1.18,3.37a6.72,6.72,0,0,0-.51,1.38c-.42,1.11-.86,2.22-1.19,3.37a4.61,4.61,0,0,0-.44,1.19l-.27.74a7.57,7.57,0,0,0-.43,1.24,8,8,0,0,0-.55,1.58A9.81,9.81,0,0,0,27.6,43l-.05.2a4.35,4.35,0,0,0-.42,1.21,9.87,9.87,0,0,0-.63,1.75c-.43,1-.78,2-1.12,3.07l-.55,1.58c-.15.14-.11.36-.2.52-.25.41-.14.55.35.55,2.1,0,4.19,0,6.28,0,.95,0,.95,0,1.23-.91h0l0-.14.08-.2.45-1.28a10.71,10.71,0,0,0,.57-1.68,28.18,28.18,0,0,0,1.12-3.07A10.16,10.16,0,0,0,35.29,43a27.93,27.93,0,0,0,1.15-3.17A9.85,9.85,0,0,0,37,38.27a2.29,2.29,0,0,0,.29-.75l.28-.8h0c.09-.05.08-.15.1-.23a5.29,5.29,0,0,0,.43-1.21l.63-1.75a.77.77,0,0,0,.17-.43l.46-1.36a5.9,5.9,0,0,0,.49-1.39,5.44,5.44,0,0,0,.32-2.74l-.06-.21a3.76,3.76,0,0,0-3-3.13,1.91,1.91,0,0,0-.75-.13c-1.93-.06-3.87-.05-5.8,0a.05.05,0,0,0-.08,0l1.17-3.47a6.84,6.84,0,0,0,.48-1.28c.41-1.16.87-2.29,1.21-3.48a5.73,5.73,0,0,0,.48-1.27c.39-1.13.86-2.22,1.18-3.38a6.86,6.86,0,0,0,.51-1.37c.4-1.13.87-2.22,1.18-3.38a6.67,6.67,0,0,0,.52-1.37l.11-.42a3,3,0,0,0,.41-1.07,1.67,1.67,0,0,0,.12-.23c.43-1.25.43-1.25,1.73-1.08a2.17,2.17,0,0,0,.26,0,1,1,0,0,0,.54,0l2,.17a0,0,0,0,0,.07,0l.12,0,1,.13L45.2,3l1.5.33L50,4.22l1.49.56,3.16,1.41a2.81,2.81,0,0,0,.81.41,3.61,3.61,0,0,0,.77.47L57.68,8l.51.35.93.62,1.22.93a1.36,1.36,0,0,0,.44.35,36.68,36.68,0,0,1,3.76,3.51c.75.82,1.47,1.68,2.2,2.52a.65.65,0,0,0,.29.4,7.24,7.24,0,0,0,.88,1.18,6.51,6.51,0,0,0,.86,1.34l.18.28L69.82,21,70.35,22a.43.43,0,0,0,.2.32A15,15,0,0,0,71.31,24a8,8,0,0,0,.62,1.48c0,.1,0,.21.08.28a10.21,10.21,0,0,0,.55,1.52A10.77,10.77,0,0,0,73,28.86l.68,3.08L74,33.72l.13,1.38c0,.26,0,.52.07.79A32.34,32.34,0,0,1,74.21,40l-.15,1.69-.19,1.69-.12.86c-.07.32-.12.65-.19,1-.19.9-.39,1.8-.58,2.7a6.22,6.22,0,0,0-.4,1.17,1.82,1.82,0,0,1-.07.25c-.41,1.11-.82,2.22-1.22,3.33a9.24,9.24,0,0,0-.71,1.49l-.26.51a3,3,0,0,0-.41.82,15.7,15.7,0,0,0-1.06,1.82l-1.06,1.59-.62.85a3.25,3.25,0,0,0-.55.73c-.65.75-1.29,1.5-2,2.23a41.83,41.83,0,0,1-3.73,3.56,2.37,2.37,0,0,0-.76.65v0s-.06,0-.07,0a1.14,1.14,0,0,0-.53.41l-.14.1v0a.14.14,0,0,0-.12.13v0a6.54,6.54,0,0,0-1.27.88c-.07,0-.15,0-.18.09l-.13.12h0l-3.23,1.83L53.13,71a4.6,4.6,0,0,0-1,.46v0l-.18.07-.32.12-1.9.71-3.08.88-1.88.4a1.65,1.65,0,0,0-.76.13l-2.31.29-.32,0a28.35,28.35,0,0,1-4.42.12c-.3,0-.41-.07-.26-.4a5.33,5.33,0,0,0,.29-.88h0c.1-.05.08-.15.09-.24a.67.67,0,0,0,.18-.43c.06-.25.25-.45.24-.73A8.13,8.13,0,0,0,38,70.15l.67-1.89.16-.43a5.76,5.76,0,0,0,.36-1.06v0c.11-.06.09-.18.12-.27l.46-1.25.57-1.61a.18.18,0,0,0,.09-.22A10.42,10.42,0,0,0,40.89,62a8.9,8.9,0,0,0,.61-1.58c.36-1.06.81-2.08,1.09-3.16a8.6,8.6,0,0,0,.58-1.56c.29-.82.62-1.62.88-2.45.11-.36.28-.43.63-.43,2.68,0,5.35,0,8,0l.22,0c.32-.11.69,0,1-.26v0l.18-.07a1.18,1.18,0,0,0,.67-.28A3.23,3.23,0,0,0,56.12,51c.08-.06.17-.11.17-.23a4.41,4.41,0,0,0,.57-1.36,6.32,6.32,0,0,0,.42-1.2c.47-1.13.86-2.29,1.24-3.45l.63-1.7c.37-1,.75-2.1,1.13-3.15l.55-1.6L62,35.1l.52-1.56a.63.63,0,0,0,.15-.46,3.8,3.8,0,0,0,.4-1l.56-1.68a5.26,5.26,0,0,0,.46-1.54h0l0-.14A4,4,0,0,0,64,27a2.19,2.19,0,0,0-.49-1.07l-.12-.13h0a.13.13,0,0,0-.13-.12l0,0a2,2,0,0,0-.78-.75,3.93,3.93,0,0,0-1.49-.7,3.33,3.33,0,0,0-.45-.13A22.52,22.52,0,0,0,56.93,24h-9.8c-.2,0-.5-.13-.53.25l-.41,1.15a15.61,15.61,0,0,0-.69,2A8.2,8.2,0,0,0,45,28.66l-.08.19a7.38,7.38,0,0,0-.38,1.21,11.92,11.92,0,0,0-.75,2.07c-.41.9-.69,1.84-1,2.76a20.29,20.29,0,0,0-.68,2,27.58,27.58,0,0,0-1,2.76l-.66,1.9a.2.2,0,0,0-.09.21l-.06.19h0a3.59,3.59,0,0,0-.43,1.17,6.08,6.08,0,0,0-.48,1.29c-.24.65-.47,1.3-.7,2-.18.5-.37,1-.55,1.51l-.45,1.28c-.42,1.11-.84,2.23-1.17,3.37A5.6,5.6,0,0,0,36,53.9l-1.19,3.38a7.46,7.46,0,0,0-.49,1.37c-.43,1.11-.85,2.23-1.19,3.37a5.86,5.86,0,0,0-.5,1.38c-.43,1.12-.86,2.23-1.19,3.37a5.78,5.78,0,0,0-.5,1.39,1.54,1.54,0,0,0-.23.63l-.4,1.06-.58,1.67c-.16.41-.34.82-.47,1.25A.3.3,0,0,1,29,73l-1.26-.35-1.49-.5-1.88-.69h0a7.05,7.05,0,0,0-1.4-.63,11.31,11.31,0,0,0-1.59-.81l-.42-.22a6,6,0,0,0-1.15-.65l-3.17-2.13a.26.26,0,0,0-.22-.18.08.08,0,0,0-.07,0v0a.11.11,0,0,0-.12-.12h0a8.26,8.26,0,0,0-1.18-1,2.12,2.12,0,0,0-.72-.61,7.83,7.83,0,0,0-1.15-1.08L13.05,64l-.1-.11-.11-.1-.11-.11-.1-.1a3,3,0,0,0-.67-.7,2.82,2.82,0,0,0-.6-.64l-.13-.13h0a.13.13,0,0,0-.12-.12h0a6.35,6.35,0,0,0-.88-1.06,1.36,1.36,0,0,0-.39-.5L8.7,58.84,7.54,57.1a.93.93,0,0,0-.33-.57,4.55,4.55,0,0,0-.63-1.09,4.8,4.8,0,0,0-.64-1.23,2.47,2.47,0,0,0-.42-.88,1.52,1.52,0,0,0-.31-.71,15.07,15.07,0,0,0-.67-1.68l-.48-1.39L3.91,49l-.38-1.17-.47-2L2.83,44.7l-.4-3L2.28,40a31.76,31.76,0,0,1,0-3.38l0-.31,0-1.1a.28.28,0,0,0,.05-.28l.12-1.17.3-1.89.3-1.57.34-1.39L4,27.22a13.06,13.06,0,0,0,.59-1.73A8.29,8.29,0,0,0,5.18,24L6.7,20.89h0a.12.12,0,0,0,.1-.14l.3-.53s0,0,0-.07h0a2.94,2.94,0,0,0,.53-.86l.95-1.42.18-.28a8.46,8.46,0,0,0,1-1.34,2,2,0,0,0,.53-.64,6.52,6.52,0,0,0,.83-1l.73-.78.74-.81a8.19,8.19,0,0,0,1-1c.26-.09.38-.35.59-.49l1-.89a3.34,3.34,0,0,0,.88-.75,3,3,0,0,0,.74-.53l3-2a6.89,6.89,0,0,0,1.29-.75c.08,0,.15,0,.18-.09L23,5.63l1.24-.53Z"/><path class="cls-1" d="M54.61,28.22H56.2c.24.07.73-.17.52.43a10.22,10.22,0,0,0-.61,1.59l0,.21a5.79,5.79,0,0,0-.5,1.27L55,33.5a21.6,21.6,0,0,0-1,2.9,18,18,0,0,0-.79,2.07L53,38.9l-.06.18h0a2.14,2.14,0,0,0-.33.86,7.84,7.84,0,0,0-.48,1.28,19.2,19.2,0,0,0-.67,2c-.13.06-.06.21-.13.3A5.62,5.62,0,0,0,51,44.6,8.46,8.46,0,0,0,50.51,46l-.69,2h0c-.14.64-.52.84-1.18.77s-1.29,0-1.93,0c-1,0-1,0-.76-.89v-.06a3.59,3.59,0,0,0,.43-1.2,3.81,3.81,0,0,0,.4-1.13,2.18,2.18,0,0,0,.3-.74L47.67,43l.59-1.6.19-.51.34-1,.68-2A6.59,6.59,0,0,0,50,36.68a.18.18,0,0,0,0-.1,8.82,8.82,0,0,0,.51-1.38,12.78,12.78,0,0,0,.57-1.68c.44-1,.78-2,1.12-3.07a11.08,11.08,0,0,0,.57-1.68l.29-.54Z"/></svg>