<svg id="Capa_1" data-name="Capa 1" xmlns="http://www.w3.org/2000/svg" viewBox="0 0 124 76.5"><defs><style>.cls-1{fill:#0a2c74;}.cls-2{fill:#fefefe;}</style></defs><title>hyundai</title><path class="cls-1" d="M4.87,57.92l0-2.4c0-.62.23-.87.87-.82a17.33,17.33,0,0,0,2.39,0c.62,0,.88.18.8.8v4.86c-.16.57.06.79.63.71.32,0,.64,0,1-.06h2.59a9.58,9.58,0,0,0,2.27,0c.57.17.61-.15.61-.6,0-1.91,0-3.82,0-5.73,1.1,0,2.2.07,3.3,0,.5,0,.68.15.64.63l0,.16v2.43l0,.17v2.1l0,.16v2.44l0,.16v2.11l0,.16v2.43l0,.17v2.1l0,.16v1.13c-.7.3-1.44,0-2.16.17a7.23,7.23,0,0,0-1,0c-.65.08-.82-.16-.81-.8.05-1.72,0-3.44,0-5.17,0-.5-.1-.71-.66-.7-2,0-3.93,0-5.9,0-.17,0-.45-.15-.52.2l0,2.76V70.1c-.15.52.32,1.44-.84,1.3H5.6c-1.1.08-.61-.81-.78-1.29a15.55,15.55,0,0,0,0-2.46c0-.8,0-1.6,0-2.41a15.4,15.4,0,0,0,0-2.45c0-.81,0-1.61,0-2.41A15.55,15.55,0,0,0,4.87,57.92Z"/><path class="cls-1" d="M119.1,54.7l.09.81v2.43a12.43,12.43,0,0,0,0,2.44V62.8a12.43,12.43,0,0,0,0,2.44v2.43a12.43,12.43,0,0,0,0,2.44c-.07,1.17-.07,1.17-1.71,1.29h-2.23l-.09-.32v-.8l0-.32V67.83l0-.32v-2.1l0-.33V63l0-.32v-2.1l0-.32V58.1l0-.32.1-3.05Z"/><path class="cls-1" d="M22.84,57.12a10,10,0,0,0-1-1.61c0-.3-.41-.46-.33-.81H26l.38.49.92,1.46a4.37,4.37,0,0,0,.76,1.14c.57,1.22,1.42,2.25,2.06,3.42.08-.05.15-.06.17-.1.18-.29.35-.59.53-.89l1.23-2,.49-.76a7.67,7.67,0,0,0,1-1.63c.47-.33.46-1.16,1.29-1.13,1.35,0,2.7,0,4.14,0l-.3.63-1.5,2.41-.12.18a18.45,18.45,0,0,0-1.35,2.15q-1.6,2.58-3.23,5.16h0l-.12.17c-.15.06-.17.17-.13.31v5.34l-.08.3-2.23,0H28.33a24.39,24.39,0,0,1-.08-3,15.29,15.29,0,0,0-.11-2.87,20.36,20.36,0,0,0-1.73-2.77,15.63,15.63,0,0,0-1.34-2.11h0l-.17-.19,0,0a17.39,17.39,0,0,0-1.62-2.6A1.79,1.79,0,0,0,22.84,57.12Z"/><path class="cls-2" d="M32.57,57.47l-.49.76c-.12-.32-.4-.28-.66-.29h-1.5V55.51h2.44C32.47,56.16,32.11,56.86,32.57,57.47Z"/><path class="cls-1" d="M111.37,71.35l-1.18.05h-2.44c-.67-.28-.15-.89-.35-1.3V66.53c0-.29-.16-.27-.34-.27h-1.74l-.49,0h-1.78l-.16,0-2.42,0c-.22,0-.15.13-.14.24v1l0,.16V70.1l0,.17v.64l-.08.46L98,71.4c-1.59-.14-1.59-.14-1.65-1.3V57.79a3.9,3.9,0,0,1,.86-2.11l.81-.61,1.28-.37,10.3,0c1.83,0,1.83,0,1.83,1.84q0,6.91,0,13.82C111.44,70.71,111.39,71,111.37,71.35Zm-8.58-8.8.26.06h2.11l.16,0,1,0c1.15.12,1.15.12,1.15-1,0-.4,0-.8,0-1.2s0-.86,0-1.29-.1-.7-.66-.68c-1.5,0-3,0-4.51,0-1.93,0-1.93,0-1.92,2l0,.16,0,1.94c0,.18.14.17.27.11l2,0h.07l0,0Z"/><path class="cls-1" d="M47,71.4c-1.92,0-3.83,0-5.75,0-.52,0-.65-.11-.65-.67,0-3.23.09-6.46,0-9.69-.06-2.1.07-4.19,0-6.29l.06,0,3.87,0,0,.6v9.89c0,.62,0,1.25,0,1.87s.16.62.64.61c1.78,0,3.57,0,5.35,0,.91,0,1.1-.19,1.1-1.09,0-2,0-3.89,0-5.84s-.08-4.05.06-6.07h3.88l0,.31V68.31A4.59,4.59,0,0,1,55,70.08L54,71a8.65,8.65,0,0,1-2.15.37H49.38A14.09,14.09,0,0,0,47,71.4Z"/><path class="cls-1" d="M92.16,70.38,91,71.12a11.54,11.54,0,0,1-2.74.28,14.2,14.2,0,0,0-2.44,0H78.57c-.52,0-.8-.17-.69-.75a2.56,2.56,0,0,0,0-.55l0-.32V68.32l0-.64V65.23l0-.31V63.46l0-.65V60.37l0-.32V58.59l0-.64V55.5c-.06-.65.23-.81.87-.8,3.73,0,7.46,0,11.19,0a1.51,1.51,0,0,0,.81.16l1.15.65a4.37,4.37,0,0,1,1,1.8c.14,2.69,0,5.39,0,8.08,0,.94,0,1.88,0,2.82a4.37,4.37,0,0,1-.64,2v0ZM88.92,63V60.22c0-.57.28-1.22-.35-1.67,0,0-.09-.09-.13-.09l-6.28-.05c-.34,0-.3.21-.3.43v8.33c0,.35,0,.55.47.55,1.91,0,3.83,0,5.74,0a.79.79,0,0,0,.88-.92c0-.56,0-1.13,0-1.7Z"/><path class="cls-1" d="M100.3,18.38l.21.33.27.33h0c.43.81.86,1.62,1.3,2.43l.55,1.65.26,1.27a.69.69,0,0,0,0,.49l0,1.62,0,.48a14.71,14.71,0,0,1-1.44,4.53A23.54,23.54,0,0,1,98,35.79a42.4,42.4,0,0,1-4.82,3.62l-2.51,1.35-2.5,1.15a15,15,0,0,0-2.44,1l-1.47.47-.82.24-2.57.77-2.52.56-4.62.88a11.19,11.19,0,0,0-2.43.33,19.88,19.88,0,0,0-2.43.19l-2.44.17h-.48l-.27.06c-2.18,0-4.36.09-6.53-.06l-2.77-.17-2.1-.16-2.06-.27h-.27l-.27-.08L46.79,45a7.71,7.71,0,0,0-1.95-.47l-2.55-.69L37.23,42,34.87,41l-2.31-1.21A39.32,39.32,0,0,1,27.5,36.2l-.17-.15-1.78-1.78,0-.06-.05,0c0-.1-.06-.16-.17-.15v0a.89.89,0,0,0-.39-.55L24,32.12l-.17-.23v0c0-.11,0-.2-.15-.23l0,0-.22-.35a.06.06,0,0,0,0-.1l-.67-1.61a1.36,1.36,0,0,0-.27-.67l-.38-2.58.18-2.44a14.77,14.77,0,0,1,2-4.82h0l.13-.2a1.65,1.65,0,0,0,.49-.65.11.11,0,0,0,.07-.1h0l.17-.21,0,0a5.69,5.69,0,0,0,1.14-1.31l.16-.17.16-.16.16-.16.2-.12.17-.16.16-.17.16-.16A11.53,11.53,0,0,0,29.18,14v0a.12.12,0,0,0,.1-.08,1.26,1.26,0,0,0,.64-.45c1.59-1,3.19-2,4.87-2.81l4.71-2a24.47,24.47,0,0,0,2.9-.93l4.07-1,2.91-.59,2.69-.41,2.17-.27,2.13-.22,4.54-.21.63,0,7,.24L71,5.54,74,6l1.78.27,2.75.57.84.19,1.92.46L83.12,8A29.58,29.58,0,0,0,86,8.93l4.7,2a51.3,51.3,0,0,1,4.89,2.92c.12.12.21.29.41.3l2,1.66a2.93,2.93,0,0,0,.76.77ZM42,21h0a10.37,10.37,0,0,0,1.11-1.8l3.12-4.78a5,5,0,0,0,.93-1.21l1-1.24c.32-.39.64-.78,1-1.16s.39-.52.22-.8a.75.75,0,0,0-.8-.24c-.53.1-1.05.22-1.58.33a13,13,0,0,0-2.6.63,29.33,29.33,0,0,0-4.69,1.47,12.28,12.28,0,0,0-2.29.91,12,12,0,0,0-2.12,1l-.47.25a20.16,20.16,0,0,0-4.88,3.3,3.94,3.94,0,0,0-1.15,1.08,6.23,6.23,0,0,0-1.42,1.73,2.25,2.25,0,0,0-.62,1,6.12,6.12,0,0,0-.91,2.17,3.45,3.45,0,0,0-.23,1.24,7.31,7.31,0,0,0,.48,3.87,6.65,6.65,0,0,0,1.28,2.44l.12.18A14.89,14.89,0,0,0,32,35.61l1,.65c.56.38,1.1.61,1.5-.2A3.39,3.39,0,0,0,35,34.93a3.16,3.16,0,0,0,.58-1.31,14,14,0,0,0,1-2.23c.83-1.67,1.67-3.34,2.5-5l2.72-5.06.1-.17A.12.12,0,0,0,42,21ZM61.54,8.52a5,5,0,0,0-2.29.74l-.3.2a6.56,6.56,0,0,0-2.22,2.43c-.1.09-.21.17-.2.33A7.58,7.58,0,0,0,55.68,14a18.34,18.34,0,0,0-1.09,2.64c-.53,1.54-1,3.08-.34,4.7a.33.33,0,0,0,.15.33,2.84,2.84,0,0,0,2.28,1.45,5.44,5.44,0,0,0,2.44.13,9.6,9.6,0,0,0,2.42-.47A12.92,12.92,0,0,0,64,22.09l1.61-.49.51-.19a21.78,21.78,0,0,0,3.05-1.11,30,30,0,0,0,4.4-1.78,32.93,32.93,0,0,0,5-2.52,20.58,20.58,0,0,0,5-3.46c.58-.6.13-.94-.37-1.13a10.15,10.15,0,0,0-2.38-.68,8,8,0,0,0-1.94-.48,19.69,19.69,0,0,0-3.25-.65,6.41,6.41,0,0,0-1.94-.32l-.46-.11a70.63,70.63,0,0,0-7.1-.63,22.71,22.71,0,0,0-4.44,0ZM76,40.83c-.26.19-.45.44-.31.75s.49.27.78.26a4.62,4.62,0,0,0,.63-.11,3.19,3.19,0,0,0,1.46-.3,6.08,6.08,0,0,0,1.88-.5c.15.09.27,0,.4-.06a15.33,15.33,0,0,0,2.74-.79l2.53-.88,1.68-.73.51-.21A11.25,11.25,0,0,0,90.73,37,4.12,4.12,0,0,0,92,36.26a3.71,3.71,0,0,0,1.31-.87,8.65,8.65,0,0,0,2-1.5l.55-.55a7.73,7.73,0,0,0,1.85-2.14,2.58,2.58,0,0,0,.69-1.14A2.82,2.82,0,0,0,99,28.77,7,7,0,0,0,99.56,26v-.08a3.55,3.55,0,0,0-.1-1.17l0-.34a10.12,10.12,0,0,0-.25-1.09c-1.29-3.75-4.14-6.08-7.36-8-.57-.36-1.09-.18-1.3.54a1.54,1.54,0,0,0-.42.83l-1,2.26c-.77,1.5-1.49,3-2.15,4.58l-2.71,5.15-2.79,4.76a2.13,2.13,0,0,0-.61.92,7.29,7.29,0,0,0-1,1.51l-3.82,5ZM47,41.55a14.33,14.33,0,0,0,2.43.49A15.09,15.09,0,0,0,52,42.4a7.64,7.64,0,0,0,2.28.3,8.72,8.72,0,0,0,2.16.23.21.21,0,0,0,.27,0H57a5.43,5.43,0,0,0,1.61.06,1.25,1.25,0,0,0,.87.06.2.2,0,0,0,.27,0h.81l.16,0h.65a8.79,8.79,0,0,0,2,0,4.74,4.74,0,0,0,3.2-1.22,2.62,2.62,0,0,0,1-.94,14,14,0,0,0,2.58-4.89,6.71,6.71,0,0,0,.8-2.26,5,5,0,0,0,.14-2.92,2.56,2.56,0,0,0-1.94-2.13,1.5,1.5,0,0,0-.88-.22,9,9,0,0,0-4.32.27,22.32,22.32,0,0,0-2.91.79,10.15,10.15,0,0,0-2,.65,13.77,13.77,0,0,0-2.5.89,16.85,16.85,0,0,0-2.36.9,31.51,31.51,0,0,0-5,2.25,26.27,26.27,0,0,0-4.74,2.66,8,8,0,0,0-1.94,1.37,1.46,1.46,0,0,0-.63.47c-.8.7-.75,1.08.19,1.48a10,10,0,0,0,2.4.69.31.31,0,0,0,.36.11Z"/><path class="cls-1" d="M61.54,71.4l-2.36-.07q0-8.27,0-16.52a.14.14,0,0,0,.1-.11c1.56,0,3.12,0,4.68,0,2.52,0,5-.17,7.56.1a2.87,2.87,0,0,1,2.72,3.06c0,4.34,0,8.69,0,13,0,.25,0,.44-.29.44a18.86,18.86,0,0,1-3.68-.12l0-.16V60.38c0-.66.34-1.43-.46-1.91l-6.19-.07c-.35,0-.45.13-.45.47q0,6.1,0,12.2c0,.29-.24.29-.46.29C62.34,71.36,61.94,71.39,61.54,71.4Z"/></svg>