<svg id="Capa_1" data-name="Capa 1" xmlns="http://www.w3.org/2000/svg" viewBox="0 0 124 27.67"><title>iphone</title><path d="M21.49,9.4A22.67,22.67,0,0,0,19.31,13a4.94,4.94,0,0,0,2.3,5.78c.65.41.77.79.41,1.37a43,43,0,0,1-2.64,4.2,3,3,0,0,1-4,1,5.5,5.5,0,0,0-4.89,0,3.18,3.18,0,0,1-4.08-.93A14.49,14.49,0,0,1,2.58,13.14,6,6,0,0,1,6.86,7.67a5.54,5.54,0,0,1,3.44,0,5.94,5.94,0,0,0,4.48,0A5.49,5.49,0,0,1,21.49,9.4Z"/><path d="M39.37,3.09a25.68,25.68,0,0,1,9.69,0A6.27,6.27,0,0,1,54,8.37,7.23,7.23,0,0,1,50.33,16a11.27,11.27,0,0,1-5.45,1.12H43v8.56H39.37ZM43,5.58c0,2.86,0,5.34,0,7.82a.86.86,0,0,0,.55.59A7.27,7.27,0,0,0,48,13.43a4.25,4.25,0,0,0,2.17-4.25A3.38,3.38,0,0,0,47.34,6,35,35,0,0,0,43,5.58Z"/><path d="M70,25.69H66.3v-3c0-2.21,0-4.41,0-6.61,0-2.55-1.2-4.09-3.17-4.14s-3.62,1.49-3.72,4c-.11,2.85,0,5.7,0,8.56v1.21H55.73V1.76h3.61V11.1a6.77,6.77,0,0,1,4.08-2.19c3.59-.46,6.1,1.57,6.52,5.31A15.91,15.91,0,0,1,70,16.05C70,19.23,70,22.4,70,25.69Z"/><path d="M88.24,17.37c0,6.25-4.79,10-10.69,8.39-3.15-.86-5.14-3.48-5.52-7.25-.44-4.43,2-8.46,5.77-9.41C82.91,7.82,88.29,10.51,88.24,17.37Zm-3.89-.69a14.53,14.53,0,0,0-.72-2.57,3.73,3.73,0,0,0-6.56-.87,7.9,7.9,0,0,0,0,8.48,3.54,3.54,0,0,0,5.89,0A8.34,8.34,0,0,0,84.35,16.68Z"/><path d="M121.31,18.37H110.67a3.76,3.76,0,0,0,3.07,4.52,27.17,27.17,0,0,0,5.24-.21,4.72,4.72,0,0,0,.88-.23c.08.09.12.11.13.14.75,2.75,1.13,2.64-1.85,3.15a15.76,15.76,0,0,1-4.94.13c-4.27-.64-6.7-4-6.47-8.59a13.24,13.24,0,0,1,.55-3.19,7.23,7.23,0,0,1,12.79-2.55A9.17,9.17,0,0,1,121.31,18.37Zm-3.41-2.7c-.11-1.62-.49-3-1.9-3.75a3.35,3.35,0,0,0-3.68.24,4.15,4.15,0,0,0-1.8,3.51Z"/><path d="M94.06,25.69H90.34V9.23h3.17l.23,2.3a6.12,6.12,0,0,1,4.81-2.65c3.26-.17,5.75,1.65,6,4.94.27,3.91.06,7.85.06,11.85H101c0-.35,0-.73,0-1.1,0-2.71,0-5.42,0-8.13a8.84,8.84,0,0,0-.18-1.93A2.94,2.94,0,0,0,98.2,12a3.09,3.09,0,0,0-3.31,1.57,7,7,0,0,0-.8,3C94,19.52,94.06,22.56,94.06,25.69Z"/><path d="M35.9,25.71H32.35V9.21H35.9Z"/><path d="M17.22,1.54A5,5,0,0,1,12.5,7.13C11.76,4.62,14.36,1.54,17.22,1.54Z"/><path d="M34.13,2.13a2.15,2.15,0,0,1,2.29,2.21A2.25,2.25,0,0,1,34,6.62a2.2,2.2,0,0,1-2.21-2.3A2.15,2.15,0,0,1,34.13,2.13Z"/></svg>