<svg id="Capa_1" data-name="Capa 1" xmlns="http://www.w3.org/2000/svg" viewBox="0 0 96.33 37.67"><defs><style>.cls-1{fill:#bf0811;}</style></defs><title>kanji</title><path class="cls-1" d="M46.46,18c0,2.16,0,4.32,0,6.48,0,.72-.17,1.11-1,1.19a53.35,53.35,0,0,1-12.5.26A13.58,13.58,0,0,1,29.64,25,5.74,5.74,0,0,1,25.88,19C26,15.9,27.24,14,30,13c3.15-1.14,6.41-.88,9.67-.75.64,0,1.29-.06,1.94-.09a10.92,10.92,0,0,0-.3-2.16,3.94,3.94,0,0,0-3.14-2.57,12.49,12.49,0,0,0-8.41.72c-.85.43-1.2.13-1.56-.56a2.33,2.33,0,0,1,1.43-3.42,16.28,16.28,0,0,1,4.88-.79,26.29,26.29,0,0,1,6.38.85,7.35,7.35,0,0,1,5.5,7.14c.1,2.2,0,4.4,0,6.59Zm-4.7,1.2h0c0-.78,0-1.56,0-2.34s-.3-1.16-1-1.18c-2.29-.05-4.59-.18-6.87,0a3.24,3.24,0,0,0-3,2.18,3.34,3.34,0,0,0,3,4.72c2.31.22,4.66.05,7,0,.6,0,.89-.33.88-.95C41.75,20.78,41.76,20,41.76,19.15Z"/><path class="cls-1" d="M7.52,12l4.63-3.35C14.08,7.26,16,5.82,18,4.53a3.85,3.85,0,0,1,5.34,1.09l-11,8.05A58.53,58.53,0,0,1,24,25.49c-2,0-3.81.05-5.59,0-.33,0-.68-.46-.95-.78a58.89,58.89,0,0,0-8.87-8.2,5.93,5.93,0,0,0-.62-.4c-.08,0-.2,0-.44-.06a11.08,11.08,0,0,0-.1,1.12c0,2.41,0,4.82,0,7.22,0,1-.33,1.25-1.23,1.19a18.06,18.06,0,0,0-2.44,0c-.83.05-1.12-.24-1.1-1.09,0-2.44,0-4.88,0-7.33V5.44c0-.94,0-2.07,1-2.32a10.45,10.45,0,0,1,3.3,0c.16,0,.37.7.38,1.07,0,2.06,0,4.11,0,6.16C7.43,10.8,7.47,11.21,7.52,12Z"/><path class="cls-1" d="M51.82,18.18c0-1.88,0-3.76,0-5.63A8.88,8.88,0,0,1,60,3.49c3.23-.4,6.37-.18,9.19,1.68a7.61,7.61,0,0,1,3.56,5.77c.19,2,.15,4.1.18,6.15,0,2.44,0,4.89,0,7.33,0,.81-.21,1.18-1.07,1.12a18.08,18.08,0,0,0-2.55,0c-.87.06-1.18-.24-1.16-1.14,0-3.29,0-6.58,0-9.88,0-.32,0-.64,0-.95C68.08,8.65,63.88,6,59.42,8.12c-2.06,1-2.8,2.85-2.84,5-.07,3.68-.06,7.36,0,11,0,1-.23,1.51-1.35,1.4a16.55,16.55,0,0,0-2.44,0c-.74,0-1-.26-1-1,0-2.12,0-4.25,0-6.37Z"/><path class="cls-1" d="M70,33.66l1.12-3.1a31.42,31.42,0,0,0,3.51.33c2.39,0,3.69-1.3,3.73-3.69,0-2.76,0-5.53,0-8.29,0-4,0-8.08,0-12.12,0-2.47,2.06-3.73,4.24-2.54a1.49,1.49,0,0,1,.45,1.14q0,8.94,0,17.86a44.17,44.17,0,0,1-.21,5.4,6.54,6.54,0,0,1-6.31,6A13.41,13.41,0,0,1,70,33.66Z"/><path class="cls-1" d="M93.64,15c0,3.11,0,6.23,0,9.35,0,1-.34,1.31-1.29,1.24s-1.7,0-2.55,0c-.62,0-.88-.2-.88-.86C89,18.43,89,12.2,89,6c0-1.19.49-1.7,1.69-1.93a5,5,0,0,1,1.16-.09c1.72.13,1.83.26,1.83,2v9Z"/></svg>