<svg id="Capa_1" data-name="Capa 1" xmlns="http://www.w3.org/2000/svg" viewBox="0 0 132.67 25.67"><defs><style>.cls-1{fill:#464646;}</style></defs><title>kanjihome</title><path class="cls-1" d="M31.14,12.29c0,1.55,0,2.86,0,4.17,0,.41-.07.67-.58.51s-.72.19-1.12.23c-1.28.11-2.56.07-3.84.1a9.77,9.77,0,0,1-4.72-.68,3.79,3.79,0,0,1-2.08-4.28c.39-2.28,2-2.88,3.66-3.27a17.81,17.81,0,0,1,3.79-.24A11,11,0,0,0,27.59,9c.42,0,.64,0,.55-.63a2.46,2.46,0,0,0-1.46-2A6.11,6.11,0,0,0,23.36,6a7.79,7.79,0,0,0-2.53.8c-.33.19-.87-.39-.89-.92-.05-1.05.59-1.65,1.64-1.95a11.92,11.92,0,0,1,3.75-.26A6.34,6.34,0,0,1,30,5.55a4.57,4.57,0,0,1,1,2.19A32.7,32.7,0,0,1,31.14,12.29Zm-2.92.09c.09-.12-.07-.34-.07-.58s.14-.63-.25-.68a11.35,11.35,0,0,0-4.27,0c-1.41.33-1.92.88-1.94,2.31a2.3,2.3,0,0,0,.9,1.42,9.73,9.73,0,0,0,5.24.24c.28-.06.39-.17.39-.44C28.21,13.9,28.22,13.2,28.22,12.38Z"/><path class="cls-1" d="M7.84,6.41c0,.7,0,1.41,0,2.12,0,.37.19.37.43.2,1-.75,2-1.52,3.07-2.26a34.35,34.35,0,0,1,2.9-2,2.85,2.85,0,0,1,2.66.25c.3.25.42.47,0,.79-1.27,1-2.55,2-3.9,2.94-.68.48-1.34,1-2,1.45-.19.13-.23.16,0,.37.81.66,1.63,1.32,2.4,2S15.12,14,16,14.92c.59.61,1.09,1.3,1.63,2,.16.19.14.3-.12.3-1,0-2,0-3,0-.52,0-.89-.52-1.12-.9a9.27,9.27,0,0,0-1.71-1.82c-1-.95-2.12-1.79-3.19-2.67l-.13-.09c-.32-.24-.49-.22-.48.23s0,1.14,0,1.71c0,1,0,2,0,3,0,.3,0,.49-.47.53-.75,0-1.49-.08-2.23,0-.25,0-.26,0-.26-.18,0-1.94,0-3.88,0-5.82S5,7.34,4.84,5.43A1.6,1.6,0,0,1,7,3.61c.89.2.89.2.89,1.12,0,.28,0,.56,0,.84s0,.56.05.83Z"/><path class="cls-1" d="M44,14.49c-.13-1.15,0-2.46,0-3.76,0-.42,0-.87,0-1.29,0-1.2-.85-3-2.64-3-.53,0-1.07-.09-1.6,0A2.69,2.69,0,0,0,37.48,8a4.27,4.27,0,0,0-.31,2.23,16.15,16.15,0,0,1,0,2.2c0,.83,0,1.65,0,2.48,0,.62-.06,1.23-.07,1.85,0,.2-.11.26-.29.26a21.68,21.68,0,0,0-2.28,0c-.17,0-.35,0-.33-.37a35.21,35.21,0,0,0,0-3.56c0-1.1-.1-2.2,0-3.3a10,10,0,0,1,.23-2.18A4.59,4.59,0,0,1,36,5.23,5.7,5.7,0,0,1,38.16,4a8.81,8.81,0,0,1,3.32-.31,12.06,12.06,0,0,1,2,.5,4.69,4.69,0,0,1,2.86,2.54,8.43,8.43,0,0,1,.55,3.74c0,1.51,0,3,0,4.55,0,.53,0,1,0,1.58,0,.32-.13.43-.43.42H44.43c-.34,0-.47-.14-.46-.47C44,15.94,44,15.29,44,14.49Z"/><path class="cls-1" d="M53,6C53,7.49,53,9,53,10.4c.05,2,0,4,0,6.08a8.64,8.64,0,0,1-.29,3,4.18,4.18,0,0,1-3.3,3,8.08,8.08,0,0,1-3.69-.28c-.66-.17-.71-.33-.43-1,0,0,0,0,0-.05.24-.41.2-1.1.63-1.23s.86.15,1.3.22c1.55.26,2.8-.42,2.82-2.17,0-1,0-2,0-3a20.75,20.75,0,0,1,0-2.73c.09-.76-.11-1.52,0-2.28.11-1.31-.11-2.61,0-3.91,0-.25,0-.5,0-.75,0-.7.4-1.17,1.09-1.17C53,4.13,53,3.86,53,5.8Z"/><path class="cls-1" d="M95.75,10.68c0,1.84,0,3.68,0,5.52,0,.31,0,.57-.42.53s-.72.09-.69-.5c.1-1.72,0-3.45,0-5.18,0-1.1,0-2.22,0-3.33a4.74,4.74,0,0,1,.72-2.16,3.48,3.48,0,0,1,2-1.62,4.69,4.69,0,0,1,2.75-.19,9.81,9.81,0,0,1,1.08.21A4.08,4.08,0,0,1,103.49,6c.1.17.22.37.36.37s.25-.23.33-.39A4.94,4.94,0,0,1,111,4.37a4.46,4.46,0,0,1,1.8,3.27c.08,1.19,0,2.39,0,3.59s0,2.49.07,3.73a13.3,13.3,0,0,0,0,1.41.21.21,0,0,1,0,.16c-.27.22-.55-.08-.86,0s-.23-.23-.23-.42V13.26c0-1.23-.09-2.46,0-3.69A6.35,6.35,0,0,0,111,6.06a2.69,2.69,0,0,0-1.1-.88A4,4,0,0,0,108,4.73a3.37,3.37,0,0,0-3.33,2.44,6.83,6.83,0,0,0-.25,2.75,19.73,19.73,0,0,1,0,2.55c-.06,1.22-.06,2.44,0,3.66,0,.17.26.57-.21.51s-1,.3-1-.46c0-.61,0-1.22,0-1.83V11a18,18,0,0,0-.12-3.2,4.3,4.3,0,0,0-1.34-2.4,3.24,3.24,0,0,0-1.8-.64,3.62,3.62,0,0,0-3,.91,3.21,3.21,0,0,0-.79,1.25A9.82,9.82,0,0,0,95.75,10.68Z"/><path class="cls-1" d="M85.5,3.52a8.22,8.22,0,0,1,4,.94,6.28,6.28,0,0,1,3.35,4.3A7,7,0,0,1,93,11a5.26,5.26,0,0,1-2,4c-.17.13-.12.3-.27.43A7.1,7.1,0,0,1,87,17.12,7.48,7.48,0,0,1,84,17a7.14,7.14,0,0,1-2.79-1.17,8,8,0,0,1-2.18-2.35,6.35,6.35,0,0,1-.6-4.94A6.21,6.21,0,0,1,80.2,5.68a6.23,6.23,0,0,1,1.9-1.37A11.08,11.08,0,0,1,85.5,3.52Zm6.08,6.89c-.21-3.48-2-6-6.71-5.87A5.12,5.12,0,0,0,81.3,6.18a5.76,5.76,0,0,0-1.6,4.14,5.69,5.69,0,0,0,2,4.46,5.92,5.92,0,0,0,4.72,1.35A5.65,5.65,0,0,0,91.58,10.41Z"/><path class="cls-1" d="M65.47,10.15c-.37.79-.08,1.51-.14,2.22-.11,1.38.11,2.77,0,4.16,0,.1,0,.2-.1.24a2,2,0,0,1-1,0c-.27,0-.25-.39-.24-.57.05-1.4,0-2.81,0-4.21,0-1.86,0-3.72,0-5.58,0-.8,0-1.61,0-2.42a1,1,0,0,1,.23-.55.62.62,0,0,1,.75-.2.51.51,0,0,1,.38.59c0,1.37,0,2.75,0,4.12A1.87,1.87,0,0,0,66,9.22a4.53,4.53,0,0,0,1.44,1.17,5.57,5.57,0,0,0,4.16.55,7,7,0,0,0,2.51-1.52,2.69,2.69,0,0,0,1-2.62c-.09-1.07,0-2.15,0-3.23a.61.61,0,0,1,.8-.4c.27.17.63.3.6.8-.09,1.4,0,2.81,0,4.21,0,2,.07,4,0,5.93,0,.79-.07,1.59,0,2.38,0,.13,0,.21-.17.23a7.66,7.66,0,0,0-1.07,0c-.15,0-.11-.1-.12-.22,0-1.1,0-2.21,0-3.31a7.23,7.23,0,0,1,.06-2.54.4.4,0,0,0-.17-.44c-.16-.09-.25.11-.36.2a6.71,6.71,0,0,1-4.88,1.81,7,7,0,0,1-2.14-.57A4.44,4.44,0,0,1,65.47,10.15Z"/><path class="cls-1" d="M115.21,11a8.24,8.24,0,0,1,.34-3,7.28,7.28,0,0,1,1.61-2.47,6,6,0,0,1,2-1.28,5.85,5.85,0,0,1,2.18-.51c.5,0,1-.19,1.53-.17a6,6,0,0,1,3.91,1.33,3.52,3.52,0,0,1,.78,3.64,7.68,7.68,0,0,1-1,1.39c-.17.2-.46.13-.67.22a10.07,10.07,0,0,1-1,.47,10.47,10.47,0,0,1-2.77.49c-.54,0-1.07.15-1.62.13a18.56,18.56,0,0,1-2.69-.09c-.26,0-.5.07-.76,0s-.26.13-.23.29a5.14,5.14,0,0,0,.81,2.27,5.45,5.45,0,0,0,3.66,2,10.24,10.24,0,0,0,3.66-.12,2,2,0,0,0,.71-.41,1.2,1.2,0,0,1,.81-.15c.25,0,.42.3.53.51s-.18.25-.29.34a4.62,4.62,0,0,1-1.77.62,7.25,7.25,0,0,1-3.26.31,9.65,9.65,0,0,1-3.22-.88,5.89,5.89,0,0,1-2.28-2A5.73,5.73,0,0,1,115.21,11Zm11.26-3.57c-.1-1.37-.57-2.15-1.65-2.49-2-.63-4-.75-5.88.64a5.9,5.9,0,0,0-.68.5,6.74,6.74,0,0,0-1.52,3c-.15.55.08,1.29.45,1.23a7.37,7.37,0,0,1,1.41,0,12.29,12.29,0,0,1,2.57.05,1.49,1.49,0,0,0,.81,0,11.47,11.47,0,0,1,2.16-.5A2.92,2.92,0,0,0,126.47,7.38Z"/><path class="cls-1" d="M59.21,5.52c.1,1.43,0,2.88,0,4.33,0,1.11,0,2.23,0,3.35a21.82,21.82,0,0,0,0,3.13c.07.53-.13.73-.81.71a9.84,9.84,0,0,0-1.63,0c-.64.08-.4-.59-.41-.86-.06-1.05,0-2.1,0-3.16,0-1.95-.11-3.9,0-5.86a19.44,19.44,0,0,0,0-2,1.08,1.08,0,0,1,1.22-1c.33,0,.66,0,1,0s.63.09.57.55C59.13,4.92,59.31,5.2,59.21,5.52Z"/></svg>