<svg id="Capa_1" data-name="Capa 1" xmlns="http://www.w3.org/2000/svg" viewBox="0 0 124 14.25"><defs><style>.cls-1{fill:#30126d;}</style></defs><title>kenbrown</title><path class="cls-1" d="M14.5,7.09c0,1.67,0,3.35,0,5,0,1.09-.4,1.49-1.48,1.49H3.06c-1.12,0-1.55-.43-1.56-1.53V2.21C1.51,1.11,2,.66,3.06.65q5,0,10,0c1.06,0,1.48.44,1.48,1.51C14.5,3.8,14.5,5.45,14.5,7.09Zm-9.56-.3a9.68,9.68,0,0,1,1.32,0,2.29,2.29,0,0,0,2.16-.88c.76-.85,1.63-1.6,2.44-2.41.17-.16.53-.29.38-.6s-.44-.25-.71-.25h-4A1.24,1.24,0,0,0,5.61,3L2.51,6c-.13.13-.4.23-.29.48a.61.61,0,0,0,.61.27Zm6.22,5.41c.7,0,1.41,0,2.11,0,.24,0,.51,0,.63-.24s-.17-.4-.31-.55l-3-2.87c-.19-.18-.38-.42-.65-.43-1.56,0-3.11,0-4.67,0-.48,0-.58.3-.18.68a15.7,15.7,0,0,1,1.71,1.65C8,11.86,9.29,12.67,11.16,12.2Z"/><path class="cls-1" d="M102.39,5c-.54,1.72-1,3.22-1.49,4.72-.26.84-.54,1.68-.78,2.52-.11.41-.31.65-.73.54s-1.21.4-1.51-.45Q96.1,7.21,94.27,2.07c-.16-.44-.07-.54.39-.56,2.16-.09,2.16-.11,2.85,1.92C98,4.87,98.5,6.3,99.07,8c.61-2,1.19-3.71,1.68-5.49a1.09,1.09,0,0,1,1.33-1c1.65.07,1.65,0,2.14,1.62s1,3.07,1.49,4.83c.7-2,1.36-3.84,2-5.67.18-.55.4-.79,1-.78,2,0,2,0,1.35,2-1,2.91-2.08,5.8-3,8.73-.3.92-.93.55-1.48.65s-.75-.2-.9-.69C103.92,9.85,103.19,7.56,102.39,5Z"/><path class="cls-1" d="M119.93,8.71c0-2.32,0-4.4,0-6.48,0-.59.18-.72.74-.72,1.84,0,1.84,0,1.84,1.83,0,2.9,0,5.81,0,8.72,0,.62-.2.72-.79.79a2.77,2.77,0,0,1-2.89-1.42,47.82,47.82,0,0,0-4.26-5.33V9.47c0,.94,0,1.88,0,2.82,0,.35-.07.56-.48.54a14.06,14.06,0,0,0-1.59,0c-.4,0-.49-.16-.49-.53,0-3.43,0-6.87,0-10.31,0-.16,0-.34.17-.45a3.28,3.28,0,0,1,2.71.62l4.54,6Z"/><path class="cls-1" d="M44.53,5.81c0,2.27,0,4.26,0,6.25,0,.62-.17.79-.79.78-1.77,0-1.77,0-1.77-1.79,0-2.94,0-5.87,0-8.81,0-.58.17-.69.73-.74a2.6,2.6,0,0,1,2.68,1.29c1.36,2,2.89,3.84,4.34,5.75.33-.13.17-.37.17-.54,0-1.93,0-3.87,0-5.81,0-.55.15-.68.69-.68,1.85,0,1.85,0,1.85,1.79,0,2.94,0,5.87,0,8.81,0,.58-.19.69-.74.74a2.81,2.81,0,0,1-2.91-1.38C47.54,9.57,46.07,7.82,44.53,5.81Z"/><path class="cls-1" d="M66.49,6.94a2.92,2.92,0,0,1-.31,5.7c-2.06.41-4.16.1-6.24.18-.4,0-.4-.25-.4-.53,0-3.4,0-6.81,0-10.22,0-.42.14-.56.56-.55,1.55,0,3.11,0,4.67.05,2.17.12,3.31,1.36,3.2,3.27A2.57,2.57,0,0,1,66.49,6.94Zm-3,1.11v0a8.61,8.61,0,0,1-.88,0c-.38,0-.58.13-.49.51.15.68-.47,1.72.34,2a4.56,4.56,0,0,0,2.68-.08A1.1,1.1,0,0,0,66,9.34a1.06,1.06,0,0,0-.94-1.1C64.53,8.15,64,8.11,63.48,8.05ZM62.1,4.81c0,.24,0,.48,0,.71,0,.39.07.61.52.58A11.38,11.38,0,0,0,64.46,6a1,1,0,0,0,.88-1.12,1,1,0,0,0-.93-1.08,7.3,7.3,0,0,0-1.13-.1C61.85,3.68,62.13,3.54,62.1,4.81Z"/><path class="cls-1" d="M93.61,7.08a6,6,0,1,1-6-5.84A5.83,5.83,0,0,1,93.61,7.08Zm-9.29,0A3.35,3.35,0,1,0,91,7.15a3.36,3.36,0,1,0-6.69-.05Z"/><path class="cls-1" d="M77.83,8.86l2.79,4H77.71c-.33,0-.42-.28-.57-.49A22.49,22.49,0,0,1,75.5,9.94c-.48-.92-1.25-.69-2-.69-.35,0-.28.31-.28.53,0,.82,0,1.64,0,2.46,0,.48-.16.58-.61.59-1.93.06-1.93.07-1.93-1.89,0-2.88,0-5.75,0-8.63,0-.58.1-.83.75-.8a51.44,51.44,0,0,1,5.27.14c1.91.28,2.79,1.06,3.1,2.63a3.78,3.78,0,0,1-1.77,4.38C78,8.71,77.92,8.78,77.83,8.86ZM73.25,5.31c0,.41,0,.82,0,1.23s.1.48.45.47c.73,0,1.47,0,2.19,0a1.43,1.43,0,0,0,1.41-1.67c0-1-.35-1.38-1.41-1.53a7.75,7.75,0,0,0-1-.07C73.25,3.67,73.25,3.67,73.25,5.31Z"/><path class="cls-1" d="M29.7,12.78l-.24,0a3.44,3.44,0,0,1-4.08-2,18.21,18.21,0,0,0-1.76-2.4,2.37,2.37,0,0,0-1.18,2.41,13.08,13.08,0,0,1,0,1.4c0,.41-.11.55-.54.57-2,.11-2,.13-2-1.83,0-2.9,0-5.81,0-8.72,0-.61.15-.78.77-.77,1.77,0,1.77,0,1.77,1.79V6.12C23.73,4.74,24.89,3.55,26,2.3a1.93,1.93,0,0,1,1.81-.79c.62.06,1.26,0,2.09,0-1.43,1.59-2.7,3-4,4.43-.39.41-.45.68-.09,1.16,1.2,1.6,2.34,3.24,3.49,4.86A1.63,1.63,0,0,1,29.7,12.78Z"/><path class="cls-1" d="M31.4,7.16c0-1.65,0-3.29,0-4.94,0-.5.07-.72.66-.71q3.44,0,6.87,0c.57,0,.67.18.67.7,0,1.59,0,1.59-1.54,1.59-1.18,0-2.35,0-3.53,0-.46,0-.59.14-.6.61,0,1.69-.06,1.69,1.62,1.69.91,0,1.82,0,2.73,0,.55,0,.77.09.76.71,0,1.47,0,1.47-1.48,1.47-1,0-1.94,0-2.91,0-.5,0-.72.08-.72.67,0,1.65,0,1.65,1.65,1.65,1.12,0,2.23,0,3.35,0,.62,0,.88.1.86.8-.05,1.46,0,1.46-1.5,1.46-2.06,0-4.12,0-6.17,0-.6,0-.74-.19-.72-.75C31.42,10.45,31.4,8.8,31.4,7.16Z"/></svg>