<?xml version="1.0" encoding="utf-8"?>
<!-- Generator: Adobe Illustrator 22.1.0, SVG Export Plug-In . SVG Version: 6.00 Build 0)  -->
<svg version="1.1" id="Capa_1" xmlns="http://www.w3.org/2000/svg" xmlns:xlink="http://www.w3.org/1999/xlink" x="0px" y="0px"
	 viewBox="0 0 124 14.3" style="enable-background:new 0 0 124 14.3;" xml:space="preserve">
<style type="text/css">
	.st0{fill:#C33E42;}
</style>
<g>
	<path class="st0" d="M7.5,12.9c-2,0-3.7,0-5.6,0c0-4,0-7.9,0-12c1.8,0,3.6,0,5.6,0c0,1.5,0,3,0,4.5c0.1,0.1,0.2,0.1,0.3,0.2
		c0.4-0.3,0.9-0.5,1.1-0.9c0.8-1.1,1.6-2.2,2.3-3.3c0.3-0.5,0.7-0.7,1.3-0.7c1.1,0,2.2,0,3.5,0c-1.1,1.6-2.1,3-3.2,4.6
		c1.5,0.5,1.9,1.8,2.4,3c0.6,1.4,1.2,2.9,1.9,4.5c-1.9,0-3.6,0-5.4,0c-0.2,0-0.5-0.3-0.6-0.6c-0.4-0.9-0.7-1.8-1.2-2.6
		c-0.2-0.4-0.6-0.8-1-1C8,8.2,7.5,8.6,7.5,9.6C7.5,10.7,7.5,11.8,7.5,12.9z"/>
	<path class="st0" d="M101.9,13c-1.7,0-3.4,0-5.1,0c-0.3,0-0.7-0.5-0.8-0.9c-0.3-1.1-0.9-1.4-2-1.3c-0.3,0-0.6,0-0.9,0
		c-1.4-0.2-2.5,0-2.9,1.7c0,0.2-0.4,0.4-0.6,0.4c-0.8,0.1-1.5,0-2.4,0c0.1-0.3,0.2-0.6,0.3-0.8c1.1-2.7,2.3-5.3,3.4-8
		c0.4-1,1.2-2,0.1-3.3c2,0,3.7,0,5.5,0c0.2,0,0.4,0.2,0.5,0.4c1.6,3.8,3.3,7.5,4.9,11.3C101.9,12.7,101.9,12.8,101.9,13z M93.1,5.7
		c-0.4,0.9-0.7,1.7-1,2.4c0.8,0,1.3,0,2,0C93.8,7.3,93.5,6.6,93.1,5.7z"/>
	<path class="st0" d="M117.2,12.4c-1.6,0.7-3.1,0.8-4.7,0.3c-1.7-0.5-2.6-1.8-2.6-3.5c-0.1-1.8,0.8-3.1,2.4-3.7
		c1.4-0.5,2.8-0.6,4.3-0.1c0.2,0.1,0.5,0.2,0.8,0.3c0-1.4,0-2.6,0-4c1.6,0,3.2,0,4.8,0c0,3.7,0,7.4,0,11.1
		C120.5,13.2,117.7,13,117.2,12.4z M117.4,9c0-1-0.4-1.4-1.3-1.4c-0.8,0-1.4,0.6-1.4,1.4c0,0.8,0.5,1.4,1.4,1.4
		C117,10.4,117.4,10,117.4,9z"/>
	<path class="st0" d="M52.1,5.9c1.3-0.2,2.5-0.5,3.6-0.4c1.8,0.1,3.2,1.7,3.2,3.6c0,1.3,0,2.5,0,3.9c-1.4,0-2.7,0-4,0
		c-0.2,0-0.4-0.4-0.4-0.6c0-0.9,0-1.9,0-2.8c0-0.9-0.4-1.4-1.2-1.3c-0.7,0-1.1,0.5-1.1,1.4c0,1.1,0,2.2,0,3.4
		c-0.3,0-0.5,0.1-0.7,0.1c-1.3,0-2.6,0-4,0c0-3.8,0-7.5,0-11.3c1.6,0,3.1,0,4.7,0C52.1,3.1,52.1,4.6,52.1,5.9z"/>
	<path class="st0" d="M85.7,12.9c-1.5,0-2.9,0-4.4,0c0-1.1,0-2.2,0-3.2c0-1-0.4-1.5-1.2-1.5c-0.8,0-1.2,0.5-1.2,1.5c0,1,0,2.1,0,3.2
		c-1.6,0-3.2,0-4.8,0c0-1.2,0-2.4,0-3.6c0-1.2,0-2.4,0-3.8c1.7,0.3,3.4-0.4,4.9,0.4c1.2-0.2,2.3-0.5,3.5-0.4
		c1.9,0.1,3.3,1.8,3.3,3.6C85.7,10.3,85.7,11.6,85.7,12.9z"/>
	<path class="st0" d="M72.1,9.9c-2.2,0-4.4,0-6.6,0c-0.1,1.1,0.4,1.6,1.5,1.6c1.3,0,2.6-0.2,3.9-0.3c0.4,0,0.8-0.2,1.2-0.2
		c0.2,1.4,0.2,1.6-1.1,1.9c-2.5,0.7-5,0.8-7.5,0.1c-1.9-0.5-2.8-1.7-2.9-3.5c-0.1-1.7,0.8-3.1,2.5-3.8c2.3-0.9,4.7-0.9,6.9,0.1
		C71.7,6.5,72.3,7.8,72.1,9.9z M67.7,8.1c0-0.9-0.4-1.4-1.1-1.4c-0.7,0-1.1,0.5-1.1,1.4C66.3,8.1,67,8.1,67.7,8.1z"/>
	<path class="st0" d="M26.4,7.7c-0.5,0-1-0.1-1.4-0.1c0-0.6,0-1.3,0-1.9c0,0,0.1-0.1,0.1-0.1c1.3-0.1,1.3-0.1,1.3-1.5
		c0-0.4,0-0.9,0-1.4c1.6,0,3.2,0,4.9,0c0,0.9,0,1.8,0,2.8c0.8,0,1.6,0,2.4,0c0,0.7,0,1.3,0,2.1c-0.8,0-1.5,0-2.2,0
		c-0.6,2.9,0.1,4,2.2,3.6c0.3,1.4,0.2,1.6-1.1,1.8c-1.2,0.2-2.5,0.3-3.7,0.1c-1.6-0.3-2.3-1.3-2.3-3C26.4,9.4,26.4,8.5,26.4,7.7z"/>
	<path class="st0" d="M45,7.8c-1.2,0-2.3,0-3.4,0c-0.3,0-0.7,0.1-0.9,0.3c-0.3,0.3-0.8,0.7-0.8,1.1c0,0.4,0.4,1,0.7,1.1
		c1.1,0.2,2.3,0.2,3.4,0.3c0.3,0,0.6-0.1,1-0.2c0,0.5,0.1,1,0,1.4c-0.1,0.3-0.3,0.7-0.5,0.8c-2.5,1.1-5,1.1-7.4-0.1
		c-1.4-0.7-2.1-1.8-2-3.4c0-1.6,0.8-2.7,2.1-3.3c2.4-1.1,4.8-1.1,7.3-0.1C45.6,6.2,44.8,7.2,45,7.8z"/>
	<path class="st0" d="M23.2,12.9c-1.6,0-3.1,0-4.7,0c0-2.5,0-4.9,0-7.3c1.6,0,3.1,0,4.7,0C23.2,8,23.2,10.4,23.2,12.9z"/>
	<path class="st0" d="M103.5,12.9c0-2.5,0-4.9,0-7.3c1.6,0,3.1,0,4.7,0c0,2.4,0,4.8,0,7.3C106.6,12.9,105.1,12.9,103.5,12.9z"/>
	<path class="st0" d="M20.9,4.4c-1.3,0-2.4-0.8-2.4-1.7c0-1,1-1.8,2.3-1.8c1.3,0,2.5,0.8,2.5,1.7C23.3,3.6,22.2,4.4,20.9,4.4z"/>
	<path class="st0" d="M105.8,4.4c-1.3,0-2.4-0.8-2.4-1.8c0-0.9,1.1-1.8,2.4-1.8c1.3,0,2.4,0.8,2.4,1.8
		C108.2,3.6,107.2,4.4,105.8,4.4z"/>
</g>
</svg>
