<svg id="Capa_1" data-name="Capa 1" xmlns="http://www.w3.org/2000/svg" viewBox="0 0 45.33 46.35"><defs><style>.cls-1{fill:#c3084f;}.cls-2{fill:#fdfcfc;}</style></defs><title>lg</title><path class="cls-1" d="M45.33,21.33V25c-.19,0-.12.16-.12.26a20.41,20.41,0,0,1-.29,2.06A22.66,22.66,0,0,1,24.76,45.71c-.09,0-.24-.05-.25.13H20.82c0-.19-.16-.12-.26-.12A20.53,20.53,0,0,1,13.84,44C5.91,40.4,1.32,34.28.13,25.62c0-.09,0-.24-.13-.25V21c.19,0,.12-.17.13-.26,0-.27.06-.54.1-.81A22.37,22.37,0,0,1,8.54,5.45,21.93,21.93,0,0,1,20.21.64c.09,0,.25,0,.26-.13h4.39c0,.18.16.12.26.13a21.62,21.62,0,0,1,3.57.68A22.66,22.66,0,0,1,45.2,21.08C45.21,21.17,45.15,21.32,45.33,21.33Zm-10.51,1c-2.12,0-4.25,0-6.37,0-.34,0-.43.1-.4.41a4.31,4.31,0,0,1,0,.88c0,.36.07.47.45.47H39.44c.22,0,.39,0,.36.3a17.92,17.92,0,0,1-1,4.79,17.18,17.18,0,0,1-18.63,11A16.21,16.21,0,0,1,11,35.81c-4.73-4.52-6.57-10.06-5.1-16.42,1.56-6.8,5.94-11.08,12.67-12.93A15.3,15.3,0,0,1,23.22,6c.28,0,.37-.07.35-.35a10.09,10.09,0,0,1,0-1.1c0-.23-.05-.32-.31-.33A20,20,0,0,0,17.35,5a19,19,0,0,0,8.33,36.92A18.53,18.53,0,0,0,37.46,35,18.65,18.65,0,0,0,41.59,22.7c0-.31-.06-.42-.39-.41C39.07,22.3,37,22.29,34.82,22.29Zm-13.08.85v9.63c0,.18,0,.33.25.33,1.94,0,3.87,0,5.81,0,.21,0,.26-.08.25-.27,0-.4,0-.8,0-1.2s-.09-.33-.34-.33c-1.24,0-2.48,0-3.71,0-.37,0-.45-.1-.44-.45,0-5.7,0-11.4,0-17.1a1,1,0,0,1,0-.25c0-.24-.06-.34-.31-.32a10.84,10.84,0,0,1-1.14,0c-.31,0-.39.06-.39.38C21.74,16.77,21.74,20,21.74,23.14Zm-3.61-7.2a2.72,2.72,0,1,0-2.73,2.7A2.73,2.73,0,0,0,18.13,15.94Z"/><path class="cls-2" d="M34.82,22.29c2.13,0,4.25,0,6.38,0,.33,0,.39.1.39.41A18.65,18.65,0,0,1,37.46,35a18.53,18.53,0,0,1-11.78,6.9A19,19,0,0,1,17.35,5a20,20,0,0,1,5.91-.76c.26,0,.32.1.31.33a10.09,10.09,0,0,0,0,1.1c0,.28-.07.36-.35.35a15.3,15.3,0,0,0-4.63.48C11.86,8.31,7.48,12.59,5.92,19.39c-1.47,6.36.37,11.9,5.1,16.42a16.21,16.21,0,0,0,9.11,4.34,17.18,17.18,0,0,0,18.63-11,17.92,17.92,0,0,0,1-4.79c0-.32-.14-.3-.36-.3H28.5c-.38,0-.49-.11-.45-.47a4.31,4.31,0,0,0,0-.88c0-.31.06-.42.4-.41C30.57,22.3,32.7,22.29,34.82,22.29Z"/><path class="cls-2" d="M21.74,23.14c0-3.19,0-6.37,0-9.56,0-.32.08-.41.39-.38a10.84,10.84,0,0,0,1.14,0c.25,0,.34.08.31.32a1,1,0,0,0,0,.25c0,5.7,0,11.4,0,17.1,0,.35.07.46.44.45,1.23,0,2.47,0,3.71,0,.25,0,.36.05.34.33s0,.8,0,1.2c0,.19,0,.27-.25.27-1.94,0-3.87,0-5.81,0-.29,0-.25-.15-.25-.33Z"/><path class="cls-2" d="M18.13,15.94a2.72,2.72,0,0,1-5.44,0,2.72,2.72,0,1,1,5.44,0Z"/></svg>