<svg id="Capa_1" data-name="Capa 1" xmlns="http://www.w3.org/2000/svg" viewBox="0 0 123 29.1"><defs><style>.cls-1{fill:#c82b22;}.cls-2{fill:#2a186a;}.cls-3{fill:#fefefe;}</style></defs><title>magiclick</title><path class="cls-1" d="M21.94,7.5c-.57,1.59-1.43,2.87-1.65,4.42a6.47,6.47,0,0,1-.86,2.66c-.56.78-.45,1.62-.82,2.35C18.05,18,17.86,19.3,17,20.21c-.6.6-1.36.25-2,.24-.38,0-.67-.44-.84-.88a12.87,12.87,0,0,0-.95-2.52,15.88,15.88,0,0,1-.64-1.65c-.46-1.08-.48-2.32-1.16-3.29a2.55,2.55,0,0,1-.4-1.4c0-.9-.88-1.31-.83-2.14l-.23,0V9.84L9.91,21c0,1.11-.21,1.32-1.29,1.33-.47,0-.93,0-1.4,0-1,0-1-.1-1-1.1,0-5.77,0-11.54,0-17.32a8.31,8.31,0,0,1,.46-2.07c.06-.26.27-.19.44-.2,1.44-.15,2.89,0,4.34,0,.41,0,.28.34.41.51a10.3,10.3,0,0,1,1.29,3.12c.21.6.41,1.22.61,1.83a10.79,10.79,0,0,1,.75,2.11,10.68,10.68,0,0,0,.58,1.85c.21.7.74,1.27.77,2,0,.24.29.48.35.44a.92.92,0,0,0,.5-.49c.27-1,.86-1.93,1-3A4.08,4.08,0,0,1,18.24,9a7.76,7.76,0,0,0,.66-2c.08-.31,0-.66.48-.68.23,0,.11-.35.14-.54a8.88,8.88,0,0,1,1.15-3.14.61.61,0,0,1,.6-.35A.39.39,0,0,0,21.74,2a.43.43,0,0,1,.74-.11c.2.58.64.4,1,.41.62,0,1.25,0,1.87,0,.43,0,.58.14.57.58a40.53,40.53,0,0,0,0,4.27c.39,4.31.37,8.62.4,12.94,0,1.35-.48,1.78-1.78,1.84a4.1,4.1,0,0,1-1.87-.49.23.23,0,0,1-.18-.28,26.44,26.44,0,0,0-.18-5.69,45.24,45.24,0,0,1-.18-6.16A3.64,3.64,0,0,0,21.94,7.5ZM26.2,9.87l-.06-.1s-.05,0,0,.05,0,.07,0,.1Z"/><path class="cls-1" d="M48.36,28.73a26.77,26.77,0,0,1-3.42,0,7.92,7.92,0,0,1-3-1.23,2.94,2.94,0,0,1-1.4-2.23,2.79,2.79,0,0,1,1.86-2.4c.49-.06.72-.47,1.14-.63s.22-.69-.13-.89c-.63-.37-.58-1-.52-1.49a1.9,1.9,0,0,1,1-1.19c.45-.31.89-.52.36-1.15a5.62,5.62,0,0,1-.89-5.36A8,8,0,0,1,44.83,9a4,4,0,0,1,2.09-1.22,2,2,0,0,1,1.24.2l.58.17c1.26.35,1.58-.76,2.11-1.41,1-1.19,1.32-1.47,2.69-.91.87.35.89,1.23,0,1.87-.26.19-.42.46-.71.64A.77.77,0,0,0,53,9.67c1.18.57,1.47,1.65,1.86,2.75a6.44,6.44,0,0,1,0,3.51,4,4,0,0,1-1.09,1.75,2.82,2.82,0,0,1-1.82.93,11.67,11.67,0,0,1-3,0c-.58-.12-.73.4-1.07.62a.45.45,0,0,0,.39.73,20.34,20.34,0,0,1,2.89.61,3.46,3.46,0,0,1,1.95.62c.53.5,1.26.28,1.88.54s.83.9,1.15,1.35a2.76,2.76,0,0,1,.41,1.34,3.2,3.2,0,0,1-1.73,2.9A17.21,17.21,0,0,1,52,28.42C50.64,29,49.24,28.59,48.36,28.73Zm.23-11.81c.48,0,.43-.12,1.56-.58s1.26-1.4,1.63-2.23-.34-1.74-.5-2.62c0-.27-.43-1-.85-1-.77-.06-1.56-.35-2.34.34a4.38,4.38,0,0,0-1.55,4.41C46.87,16.84,47,16.92,48.59,16.92Zm-.64,9h0a20.51,20.51,0,0,0,2.48,0,4.13,4.13,0,0,0,2.47-.81c.29-.26.47-.71.21-.86-.5-.3-.89-.81-1.58-.79a4.52,4.52,0,0,1-1.88-.24,2.11,2.11,0,0,0-2.17,0c-.33.17-.54.53-.87.56a3.39,3.39,0,0,0-1.78,1c-.35.29-.25.6-.22.91s.38.3.62.31C46.13,25.91,47,25.9,48,25.9Z"/><path class="cls-2" d="M104.33,14c0-2.38.12-4.77,0-7.14-.12-1.73-.2-3.45-.24-5.18,0-.84.08-1.39,1.21-1.28.57,0,1.14,0,1.71,0,.79,0,1.08.25,1.08,1A9.6,9.6,0,0,1,108,4.08c-.71,2.6-.18,5.23-.31,7.84a9.5,9.5,0,0,0,.11,1.3c0,.25.11.4.36.42s.28-.05.44-.25a26.17,26.17,0,0,1,2.68-3.19,6.71,6.71,0,0,1,1.38-1.14A5.45,5.45,0,0,1,116,8.21c.32,0,.45.34.77.39.13,0,.14.41,0,.47-.79.37-1,1.45-2,1.53-.23,0-.26.3-.35.47a20.45,20.45,0,0,1-2.9,3.4.8.8,0,0,0,.07,1.2c.4.46.51,1.14,1.21,1.41.45.17.36.91.81,1.27A11.9,11.9,0,0,1,115.13,20a6.56,6.56,0,0,1,1.16,1.54c.19.42-.46.68-.72.73a3.41,3.41,0,0,1-2.86-.72,3.27,3.27,0,0,1-1.24-1.47c-.07-.21-.42,0-.62-.38-.36-.62-.53-1.44-1.36-1.75a1.74,1.74,0,0,0-1.2-.09c-.37.13-.19.53-.19.81,0,.9,0,1.81,0,2.72,0,.6-.24,1-.94,1s-1.25,0-1.86,0-1-.29-.94-1c0-2.46,0-4.92,0-7.38Z"/><path class="cls-1" d="M40.53,16.79c0,1.53,0,2.93,0,4.33,0,1.05-.17,1.22-1.19,1.24-.84,0-1.66.1-2.19-.83-.14-.23-.66-.19-1,0a4.28,4.28,0,0,1-3.13.75,13.32,13.32,0,0,1-2.26-.7A4.58,4.58,0,0,1,29,19.87a2.13,2.13,0,0,1-.27-2.29,5.09,5.09,0,0,1,.58-1.39,6,6,0,0,1,3.23-1.68,13.92,13.92,0,0,1,3.89-.4.73.73,0,0,0,.7-.52A4.79,4.79,0,0,0,37,11.11c-.47-1.09-1.22-1.15-2.19-1a1.23,1.23,0,0,0-.88.5,4.27,4.27,0,0,0-1.19,2.29c-.05.6-.85,1.17-1.43,1.28a3.6,3.6,0,0,1-2.13-.55c-.38-.16-.31-.95,0-1.31.4-.52.37-1.19.79-1.69s.48-1.36,1.36-1.46c.05,0,.12,0,.13-.07.32-1.06,1.22-.86,2-.87a18.36,18.36,0,0,1,3.4.09c.53.1,1.42-.09,1.63.84,0,.2.3.15.46.21a1.91,1.91,0,0,1,1.19,1.41C40.8,12.77,40.37,14.86,40.53,16.79ZM35.67,16a3,3,0,0,0-2.07.85,2.64,2.64,0,0,0-1.34,2.48c0,.37-.08.84.36,1a2.06,2.06,0,0,0,1.58,0,8,8,0,0,0,2.16-1.76,2.56,2.56,0,0,0,.37-2.39C36.65,15.7,36,16.08,35.67,16Z"/><path class="cls-2" d="M89.79,15.2a7.59,7.59,0,0,1,0-2.08A7,7,0,0,1,91,10.25c.42-.48.81-1.06,1.28-1.53a2,2,0,0,1,1.28-.5c1,0,2,0,3,0a3.28,3.28,0,0,1,1.68.36c.58.62,1.61.38,1.87.89s1.31.63,1.2,1.49c1,.85.87,2,.87,3.14,0,1.34-.64,1.77-1.92,1.36a1.71,1.71,0,0,1-1.42-1.89,3.56,3.56,0,0,0-.72-2.07c-.31-.41-.36-1-.9-1.28a2,2,0,0,0-2.2.52,9.45,9.45,0,0,0-1.48,6.42c.17,1.23.31,2.6,1.73,3.39a1,1,0,0,0,1.31,0c.87-.45,1.29-1.24,1.94-1.8a4.23,4.23,0,0,0,1.06-1.39.37.37,0,0,1,.31-.18c.88,0,1.82-.24,2.5.62.23.31.3.48,0,.82a3,3,0,0,0-.65,1,5.33,5.33,0,0,1-1.51,1.76,2.56,2.56,0,0,1-.53.49,6.85,6.85,0,0,1-5.28.64A9.8,9.8,0,0,1,91.8,21.4,5.06,5.06,0,0,1,90.69,20a9.82,9.82,0,0,1-.84-2.25,7.4,7.4,0,0,1-.06-2.54Z"/><path class="cls-2" d="M63.37,15.49a8.39,8.39,0,0,1,.49-3.66,5.19,5.19,0,0,1,1.39-2.42A3.1,3.1,0,0,1,68,8.2a10.87,10.87,0,0,0,1.4,0c.51,0,1.08-.15,1.45.4,0,0,0,0,.07,0a4,4,0,0,1,2.58.81A4.37,4.37,0,0,1,75.17,11c.73,1.25.41,2.62.46,4,0,.4-.15.49-.55.52A4.16,4.16,0,0,1,73,15c-.48-.23-.45-.8-.43-1.22a4,4,0,0,0-.8-2.28c-.26-.48-.37-.95-1-1.24a1.64,1.64,0,0,0-2,.37,6.53,6.53,0,0,0-1.42,3.57c-.12.82.09,1.62-.06,2.42a8,8,0,0,0,.11,2.18c.07.74.72,1.14,1.17,1.66a1.07,1.07,0,0,0,1.37.36,3.67,3.67,0,0,0,1-.76c.58-.75,1.59-1.15,2-2,.55-1.24,1.53-.81,2.39-.8.6,0,.89.86.61,1.41-.36.71-1.06,1.21-1.34,1.89-.35.87-1.2,1.09-1.75,1.66a3.4,3.4,0,0,1-1.88.59,5.67,5.67,0,0,1-2.67-.39.54.54,0,0,0-.3-.06,2.8,2.8,0,0,1-2.41-.87,3.19,3.19,0,0,1-1.37-2,5,5,0,0,0-.5-1.54A5.91,5.91,0,0,1,63.37,15.49Z"/><path class="cls-2" d="M78,11.23c0-3.31,0-6.62,0-9.94,0-.67.19-.93.86-.85a13.46,13.46,0,0,1,2.37.13c.44.12.53.29.53.68,0,1.35,0,2.69,0,4V20.71c0,.8-.33,1.17-1.12,1.19s-1.3,0-1.94,0-.7-.22-.69-.76c0-3.31,0-6.62,0-9.93Z"/><path class="cls-1" d="M57.44,15.29c0-1.76,0-3.52,0-5.27,0-1.3.17-1.49,1.46-1.5h.86c1.3,0,1.3,0,1.3,1.29,0,3.49,0,7,0,10.46a1.63,1.63,0,0,1-1.63,1.62h-.93c-.79,0-1-.21-1-1V15.29Z"/><path class="cls-2" d="M87.6,14.9c0,1.45,0,2.9,0,4.35a8.49,8.49,0,0,1-.32,2.25.48.48,0,0,1-.55.41c-.7,0-1.39,0-2.09,0s-.38-.48-.39-.74a41.76,41.76,0,0,0,0-4.88c-.21-1.6-.27-3.18-.33-4.77a6.2,6.2,0,0,0,0-1.49c-.16-.6.13-.91.78-.89.83,0,1.67,0,2.5,0,.4,0,.46.14.45.49C87.59,11.38,87.6,13.14,87.6,14.9Z"/><path class="cls-1" d="M58.92,6.82A2,2,0,0,1,57,4.47a2.14,2.14,0,0,1,2.19-2.15,2.32,2.32,0,0,1,2.27,2.21A2.43,2.43,0,0,1,58.92,6.82Z"/><path class="cls-1" d="M87.12,5c0,.62.09,1.25-.76,1.4-.22,0-.12.24-.2.36s-.18.21-.28.22-.13-.18-.15-.29,0-.37-.24-.31c-.59.18-.85-.41-1.3-.55-.26-.09-.85-.4-.36-1,.08-.09,0-.35,0-.52a3.08,3.08,0,0,1,.77-2.42c.32-.38.86-.09,1.23-.36h.33l.07.19v0c-.31,0-.42.14-.44.47s.18,1.08-.68.93c-.06,0-.22.16-.24.26,0,.35-.11,1,0,1,.49.15.65,1,1.4.62.24-.12.6,0,.91,0Z"/><path class="cls-1" d="M87.53,2.86c.74.28.59.93.49,1.45s-.32.82-.9.64h0c-.08-.16,0-.34-.27-.48s-.32-.63,0-.92c.1-.09.32-.05.27-.27s-.28-.19-.43-.18c-.47.05-.57-.2-.55-.59s0-.56,0-.84v0c.66-.28.9.29,1.25.63Z"/><path class="cls-2" d="M89.29,2.25c-.42.09-.46-.11-.44-.38s0-.37.23-.28.69.14.7.47S89.41,2.2,89.29,2.25Z"/><path class="cls-2" d="M86.12,1.51h-.33A1.58,1.58,0,0,1,85.93.33C86.3.71,86.16,1.12,86.12,1.51Z"/><path class="cls-2" d="M83,5.87c-.2-.07-.45.09-.47-.19s.28-.21.45-.22.39-.12.41.16S83.07,5.77,83,5.87Z"/><path class="cls-2" d="M87.53,2.86l-.09-.53H88.6C88.28,2.84,87.67,2.3,87.53,2.86Z"/><path class="cls-1" d="M85.53,8.47c-.19,0-.22-.12-.21-.26s-.06-.34.16-.37.19.14.18.26S85.75,8.42,85.53,8.47Z"/><path class="cls-3" d="M26.2,9.87l-.06.05s0-.06,0-.1,0,0,0-.05Z"/></svg>