<svg id="Capa_1" data-name="Capa 1" xmlns="http://www.w3.org/2000/svg" viewBox="0 0 77.88 15.35"><defs><style>.cls-1{fill:#00228a;}</style></defs><title>millenium</title><path class="cls-1" d="M12.26,4c-.21.89-.39,1.78-.63,2.67q-1,3.55-2,7.1a.72.72,0,0,1-.51.44c-.81,0-1.62,0-2.49,0L4.08,4.1l-.19,0V14.31H1.19c0-.24,0-.49,0-.74.12-3.9.25-7.79.36-11.69,0-.51.16-.68.68-.66,1,0,2,0,3,0,.45,0,.64.11.75.58.62,2.7,1.28,5.39,1.93,8.08a1.27,1.27,0,0,0,.29.61l1.35-5c.32-1.21.66-2.41,1-3.63.08-.31.2-.48.57-.48,1.14,0,2.29,0,3.43,0,.33,0,.53,0,.54.46,0,4.07.1,8.15.15,12.22a2.42,2.42,0,0,1-.06.28H12.51V4Z"/><path class="cls-1" d="M69.74,5.54A4.67,4.67,0,0,1,74.86,5a2.91,2.91,0,0,1,1.82,2.9c0,1.93,0,3.87,0,5.81,0,.48-.13.64-.63.64-1.62,0-1.62,0-1.62-1.63s0-3.08,0-4.62A1.37,1.37,0,0,0,73,6.63h-.19c-1.66,0-2.08.1-2,2s0,3.78,0,5.73H68.64c0-.23,0-.46,0-.69,0-1.87,0-3.74,0-5.62a1.21,1.21,0,0,0-1.33-1.37c-.39,0-.79,0-1.18,0-.79,0-.93.14-.94.92v6.77H63c0-.24,0-.45,0-.67q0-3.83,0-7.66c0-1,.39-1.38,1.4-1.39.8,0,1.59,0,2.38,0C67.85,4.56,69,4.54,69.74,5.54Z"/><path class="cls-1" d="M37.47,10.55H34.25c-1.14,0-2.29,0-3.43,0-.2,0-.51.07-.56.19a.77.77,0,0,0,.15.6,2.06,2.06,0,0,0,1.81.76c1.23,0,2.47,0,3.7,0,.66,0,.93.15.84.84a9.15,9.15,0,0,0,0,1.28c-.08.06-.12.12-.15.11-1.89-.07-3.79,0-5.66-.25S28.29,12.78,28,11a6.27,6.27,0,0,1,.42-3.87,4.85,4.85,0,0,1,1-1.36,6.29,6.29,0,0,1,6.66-.41,3,3,0,0,1,1.34,2.32C37.52,8.58,37.47,9.51,37.47,10.55ZM32.82,8.4h2c.59,0,.73-.2.45-.73A1.41,1.41,0,0,0,34.65,7a5.93,5.93,0,0,0-1.9-.37,3.09,3.09,0,0,0-2.26.92,2,2,0,0,0-.25.7,2.9,2.9,0,0,0,.61.16C31.51,8.42,32.16,8.4,32.82,8.4Z"/><path class="cls-1" d="M45.48,14.36V8.47c0-1.32-.37-1.73-1.7-1.82-.59-.05-1.19,0-1.78,0s-.81.27-.81.86c0,2,0,3.92,0,5.88,0,.93-.08,1-1,1h-.26c-.83,0-.94-.1-.95-.95,0-1.68,0-3.35,0-5,0-.82,0-1.63,0-2.45a1.2,1.2,0,0,1,1.24-1.32c1.54,0,3.08,0,4.62,0a3.09,3.09,0,0,1,2.85,2.82c.08,2.16,0,4.32,0,6.48a.59.59,0,0,1-.4.41A18,18,0,0,1,45.48,14.36Z"/><path class="cls-1" d="M55.36,4.65v6.13c0,.92.27,1.25,1.21,1.36a6,6,0,0,0,1.12,0c1.11-.06,1.42-.41,1.42-1.5V5.38c0-.23,0-.47,0-.74h2.17c0,.24,0,.47,0,.7,0,2.2,0,4.4,0,6.6a1.84,1.84,0,0,1-1.12,1.85,6.94,6.94,0,0,1-5.94,0,1.89,1.89,0,0,1-1.19-1.94c0-2.16,0-4.31,0-6.47V4.65Z"/><path class="cls-1" d="M20.7,1A1.4,1.4,0,0,1,21,.92C22.9.8,22.9.8,22.9,2.73c0,3.61,0,7.22,0,10.83,0,.63-.15.84-.8.82-1.45-.05-1.45,0-1.45-1.48V1.74C20.66,1.48,20.68,1.22,20.7,1Z"/><path class="cls-1" d="M26.73,14.29a2.14,2.14,0,0,1-.25.07c-2.4,0-1.93.42-1.95-1.82,0-3.61,0-7.22,0-10.83,0-.63.17-.83.81-.82,1.45,0,1.45,0,1.45,1.48V13.46C26.77,13.74,26.74,14,26.73,14.29Z"/><path class="cls-1" d="M49.34,4.64h2.15c0,.24,0,.45,0,.67,0,2.77,0,5.54,0,8.31,0,.63-.19.81-.78.75s-.92,0-1.42,0Z"/><path class="cls-1" d="M19,14.33H16.85V4.66H19Z"/><path class="cls-1" d="M16.83,1H19V3.1H16.83Z"/><path class="cls-1" d="M51.52,3.11H49.34V.91c.63,0,1.23,0,1.84,0a.51.51,0,0,1,.33.35C51.54,1.87,51.52,2.46,51.52,3.11Z"/></svg>