<svg id="Capa_1" data-name="Capa 1" xmlns="http://www.w3.org/2000/svg" viewBox="0 0 87.5 47.1"><defs><style>.cls-1{fill:#435991;}.cls-2{fill:#fff;}</style></defs><title>mor</title><path class="cls-1" d="M43.65,46.08c-4-.15-8.06-.22-12.08-.47a64,64,0,0,1-16.81-2.9,31.22,31.22,0,0,1-4.37-1.87A15.72,15.72,0,0,1,1.75,29,32.09,32.09,0,0,1,2,16.34c1.17-5.15,4.38-8.65,9.1-10.86A40.83,40.83,0,0,1,22.44,2.29,112.15,112.15,0,0,1,40.47,1c5.23,0,10.46.05,15.68.33A64.06,64.06,0,0,1,72.51,4.07a24.33,24.33,0,0,1,7.28,3.58A15.29,15.29,0,0,1,85.8,18a31.32,31.32,0,0,1-.27,12C84.3,35.3,81,38.89,76.19,41.22a42.51,42.51,0,0,1-11.88,3.44A142.79,142.79,0,0,1,43.65,46.08ZM26,23.44l.23.06v.73c0,2.38,0,4.75,0,7.12,0,.67.3,1,1,1,1.36,0,2.72,0,4.07,0,.74,0,1-.28,1-1q0-7,0-14.1a2.22,2.22,0,0,0-1.22-2A4.72,4.72,0,0,0,24.76,17c-.73,1.33-1.46,2.66-2.28,3.94-1,1.53-1.28,1.53-2.26,0s-1.76-3-2.67-4.43a3.26,3.26,0,0,0-1-1.12,5.14,5.14,0,0,0-5-.19,2,2,0,0,0-1.22,1.93q0,7.1,0,14.18c0,.76.28,1,1,1,1.13,0,2.26,0,3.39,0,1.51,0,1.62-.11,1.63-1.66V24.27c0-.24,0-.48,0-.72l.17-.05.49.86c.57,1,1.06,2,1.71,2.92,1.6,2.28,3.34,2.28,4.93,0,.61-.86,1.08-1.82,1.61-2.74ZM72,25l.23-.32.87-.38a4.45,4.45,0,0,0,1.52-7.11,6.85,6.85,0,0,0-3.52-1.93A21.7,21.7,0,0,0,61.87,15c-2.35.41-3.11,1.27-3.27,3.64-.11,1.65-.05,3.32-.05,5v7.54c0,1.21.22,1.43,1.4,1.43s2.4,0,3.6,0c.75,0,1-.3,1.07-1.05,0-.2,0-.41,0-.62V20.45c0-.4,0-.88.46-.95a7,7,0,0,1,3.55.09,1.44,1.44,0,0,1,0,2.77c-.39.15-.81.2-1.2.31-1.56.45-1.83,1.46-.75,2.65a18.46,18.46,0,0,1,1.5,1.81,13,13,0,0,1,1.92,4.55c.12.49.35.87.91.88H76.4c.56,0,.79-.37.68-.89a4.37,4.37,0,0,0-.39-1,17.86,17.86,0,0,0-4-5.33A2.86,2.86,0,0,0,72,25ZM56.79,21.82c0-.37,0-.74-.1-1.1A8.21,8.21,0,0,0,52.48,15a13.31,13.31,0,0,0-8.86-1.62,12.46,12.46,0,0,0-7.4,3.54A7.26,7.26,0,0,0,34,21.5c-.25,3.32,1.73,4.95,4.6,5.66a4.2,4.2,0,0,0,1.5,0c.48-.05.63-.31.28-.75a4.09,4.09,0,0,1,1-6.17A7.29,7.29,0,0,1,46,19.16,4.63,4.63,0,0,1,50,25.44c-.31.78-.05,1.25.83,1.15a13.37,13.37,0,0,0,3.27-.73A4,4,0,0,0,56.79,21.82Zm-11.58,12,.83,0,.75-.08a12.31,12.31,0,0,0,7.58-3.28,7.44,7.44,0,0,0,1.41-2A.83.83,0,0,0,55,27.1a7.22,7.22,0,0,0-2.32.08c-1.58.38-3.14.87-4.69,1.37-3.12,1-6.23,1.28-9.29-.11-1.21-.55-2.32-1.3-3.5-1.93a2.66,2.66,0,0,0-.82-.13,2.61,2.61,0,0,0-.05.78,6.91,6.91,0,0,0,2.13,3.48A13.47,13.47,0,0,0,45.21,33.8Z"/><path class="cls-2" d="M26,23.44l-.63,1.11c-.53.92-1,1.88-1.61,2.74-1.59,2.27-3.33,2.27-4.93,0-.65-.92-1.14-1.94-1.71-2.92l-.49-.86-.17.05c0,.24,0,.48,0,.72V30.7c0,1.55-.12,1.66-1.63,1.66-1.13,0-2.26,0-3.39,0-.77,0-1-.28-1-1q0-7.1,0-14.18A2,2,0,0,1,11.6,15.2a5.14,5.14,0,0,1,5,.19,3.26,3.26,0,0,1,1,1.12c.91,1.46,1.73,3,2.67,4.43s1.29,1.5,2.26,0C23.3,19.63,24,18.3,24.76,17A4.72,4.72,0,0,1,31,15.19a2.22,2.22,0,0,1,1.22,2q0,7.05,0,14.1c0,.75-.26,1-1,1-1.35,0-2.71,0-4.07,0-.65,0-1-.33-1-1,0-2.37,0-4.74,0-7.12V23.5Z"/><path class="cls-2" d="M72,25a2.86,2.86,0,0,1,.67.36,17.86,17.86,0,0,1,4,5.33,4.37,4.37,0,0,1,.39,1c.11.52-.12.88-.68.89H71c-.56,0-.79-.39-.91-.88a13,13,0,0,0-1.92-4.55,18.46,18.46,0,0,0-1.5-1.81c-1.08-1.19-.81-2.2.75-2.65.39-.11.81-.16,1.2-.31a1.44,1.44,0,0,0,0-2.77,7,7,0,0,0-3.55-.09c-.5.07-.46.55-.46.95V30.89c0,.21,0,.42,0,.62,0,.75-.32,1-1.07,1.05-1.2,0-2.4,0-3.6,0s-1.4-.22-1.4-1.43V23.6c0-1.65-.06-3.32.05-5,.16-2.37.92-3.23,3.27-3.64a21.7,21.7,0,0,1,9.25.23,6.85,6.85,0,0,1,3.52,1.93,4.45,4.45,0,0,1-1.52,7.11l-.87.38Z"/><path class="cls-2" d="M56.79,21.82a4,4,0,0,1-2.67,4,13.37,13.37,0,0,1-3.27.73c-.88.1-1.14-.37-.83-1.15A4.63,4.63,0,0,0,46,19.16a7.29,7.29,0,0,0-4.61,1.12,4.09,4.09,0,0,0-1,6.17c.35.44.2.7-.28.75a4.2,4.2,0,0,1-1.5,0c-2.87-.71-4.85-2.34-4.6-5.66a7.26,7.26,0,0,1,2.21-4.63,12.46,12.46,0,0,1,7.4-3.54A13.31,13.31,0,0,1,52.48,15a8.21,8.21,0,0,1,4.21,5.77C56.75,21.08,56.76,21.45,56.79,21.82Z"/><path class="cls-2" d="M45.21,33.8a13.47,13.47,0,0,1-8.71-3.16,6.91,6.91,0,0,1-2.13-3.48,2.61,2.61,0,0,1,.05-.78,2.66,2.66,0,0,1,.82.13c1.18.63,2.29,1.38,3.5,1.93,3.06,1.39,6.17,1.12,9.29.11,1.55-.5,3.11-1,4.69-1.37A7.22,7.22,0,0,1,55,27.1a.83.83,0,0,1,.74,1.29,7.44,7.44,0,0,1-1.41,2,12.31,12.31,0,0,1-7.58,3.28l-.75.08Z"/></svg>