<svg id="Capa_1" data-name="Capa 1" xmlns="http://www.w3.org/2000/svg" viewBox="0 0 90.33 90.43"><defs><style>.cls-1{fill:#005daa;}</style></defs><title>motorola</title><path class="cls-1" d="M43.58,1.78h3.14c.82.06,1.64.11,2.46.18a42.21,42.21,0,0,1,9.17,1.82A43.34,43.34,0,0,1,85,27.85,44.08,44.08,0,0,1,88.1,38.54a43.51,43.51,0,0,1-9.76,34.69,42.82,42.82,0,0,1-22,14,41.22,41.22,0,0,1-7,1.24A43.4,43.4,0,0,1,3.56,57.7,42.14,42.14,0,0,1,2,49.52c-.09-.87-.13-1.75-.2-2.62,0-.7,0-1.4,0-2.1,0-.43,0-.87,0-1.3s.07-1.07.11-1.61A43,43,0,0,1,6.62,25.16,43.54,43.54,0,0,1,33.79,3.28,41.08,41.08,0,0,1,41.25,2Zm1.58,57.69a1.62,1.62,0,0,0,.22-.41c.53-1.14,1-2.29,1.6-3.42a27.36,27.36,0,0,1,3.37-5.58,15.28,15.28,0,0,1,2.71-2.68,6.75,6.75,0,0,1,5.8-1.11,8.9,8.9,0,0,1,4.46,2.79,15.61,15.61,0,0,1,2.33,3.43,49.52,49.52,0,0,1,3.16,8c.48,1.56.9,3.13,1.28,4.71.1.4,0,.38.5.38H72.8c.11,0,.23,0,.31-.09L57.44,14.13c-.75,2.24-1.43,4.47-2.1,6.69s-1.35,4.5-2,6.74l-2,6.7c-.68,2.23-1.35,4.47-2,6.7s-1.35,4.49-2,6.74-1.33,4.45-2,6.67c-.19,0-.19-.15-.22-.25L44.68,53,33.07,14.5a1,1,0,0,0-.18-.4L17.18,65.62h2.75c.19,0,.23-.12.27-.26.12-.49.23-1,.36-1.48a62.19,62.19,0,0,1,3.31-9.75A21.57,21.57,0,0,1,26.2,50a10.59,10.59,0,0,1,3.22-2.92,7.42,7.42,0,0,1,5.35-.87,7,7,0,0,1,3.12,1.66,18.66,18.66,0,0,1,3.8,4.64,67.26,67.26,0,0,1,3.25,6.53A1.21,1.21,0,0,0,45.16,59.47Z"/></svg>