<svg id="Capa_1" data-name="Capa 1" xmlns="http://www.w3.org/2000/svg" viewBox="0 0 175 65.77"><defs><style>.cls-1{fill:#13022e;}</style></defs><title>mountainbike</title><path class="cls-1" d="M13.46,45.42c-1,1.6-2.05,3.19-3,4.81-.34.58-.52.5-.91.05C8.6,49.16,7.61,48.09,6.63,47c-.22.2-.11.45-.11.66,0,4.92,0,9.84,0,14.76,0,.61-.21.8-.75.91A27.23,27.23,0,0,0,3.09,64c-.59.17-.76.07-.76-.57,0-4.14,0-8.28.06-12.43,0-2.73,0-5.46,0-8.19,0-.57.18-.81.74-.91,1.06-.2,2.12-.44,3.16-.74a.87.87,0,0,1,1,.34c.77.89,1.58,1.74,2.34,2.64.33.39.48.33.73-.08.82-1.37,1.7-2.71,2.54-4.07a1.21,1.21,0,0,1,.81-.6c1.16-.26,2.33-.53,3.49-.82.37-.1.5,0,.49.37,0,1.18,0,2.35,0,3.53,0,5.76,0,11.53.06,17.29,0,.6-.18.82-.73.93-.88.16-1.74.39-2.61.59s-.81.2-.82-.67q0-7.34,0-14.68v-.42Z"/><path class="cls-1" d="M122.52,24.57c0-3.48,0-7,0-10.44,0-.47.16-.64.6-.74,2.22-.5,4.43-1.08,6.65-1.53A5,5,0,0,1,135.48,19a9.29,9.29,0,0,1-1.42,2.25c-.13.15-.33.26-.06.5,2.25,2,2.27,4.43,1.16,6.94a9.17,9.17,0,0,1-6.45,5.4c-1.89.48-3.79.91-5.68,1.38-.47.12-.6,0-.6-.48,0-3.48,0-7,0-10.44Zm4.07,3.33h0v1.69c0,1.13,0,1.1,1.12.87A4.83,4.83,0,0,0,131,28.68a2.86,2.86,0,0,0,.4-3.09c-.56-.89-1.53-1.17-2.94-.85l-.21,0c-1.53.36-1.53.36-1.56,1.92C126.65,27.1,126.62,27.5,126.59,27.9Zm.07-9.09c0,.68,0,1.36,0,2,0,.37.12.43.45.35.73-.19,1.46-.35,2.19-.54a3.35,3.35,0,0,0,2.21-1.81,2.13,2.13,0,0,0,0-2.39,2.07,2.07,0,0,0-2.28-.7c-.68.14-1.35.37-2,.48-.44.07-.5.29-.49.66C126.67,17.54,126.66,18.17,126.66,18.81Z"/><path class="cls-1" d="M105.63,28.42v8.35c0,.78,0,1.56,0,2.33a.54.54,0,0,1-.5.63c-1,.21-1.92.43-2.87.68-.51.13-.65,0-.65-.53q0-5,0-10c0-3.56,0-7.11-.06-10.66,0-.57.13-.86.73-1a15.64,15.64,0,0,0,2.13-.49c.43-.14.6,0,.79.36q2.56,5,5.15,9.94c.06.12.13.24.23.4,0-1.73,0-3.4,0-5.07q0-3.32-.06-6.63c0-.35.14-.48.47-.55.94-.21,1.88-.42,2.81-.69.55-.15.64.05.64.54q0,5,0,10c0,3.57,0,7.15,0,10.73,0,.5-.1.77-.66.85a12.42,12.42,0,0,0-2,.48.66.66,0,0,1-.89-.38c-1.7-3-3.43-6-5.15-9Z"/><path class="cls-1" d="M61,40.15c0-1.52,0-3,0-4.5q0-3.45-.09-6.91c0-.42.11-.64.55-.73.94-.2,1.88-.43,2.81-.67.45-.12.56,0,.56.47q0,10.48,0,21c0,.44-.17.57-.54.65a19.2,19.2,0,0,0-2.12.5c-.45.14-.61,0-.81-.38-1.68-3-3.38-5.9-5.08-8.85-.12-.22-.27-.43-.48-.77.08,3.63.13,7.09.25,10.55,0,.72-.19,1-.88,1.12a20.89,20.89,0,0,0-2.6.61c-.51.14-.57,0-.56-.46,0-.61,0-1.22,0-1.84q0-9.42-.06-18.84c0-.61.15-.91.79-1a10.21,10.21,0,0,0,1.3-.31c1.31-.32,1.31-.32,1.92.86q2.36,4.56,4.72,9.12C60.79,39.89,60.82,40.06,61,40.15Z"/><path class="cls-1" d="M20.21,48.36a52.83,52.83,0,0,1,.15-5.76c.58-3.88,5.14-7.41,8.82-6.89a4.72,4.72,0,0,1,4.41,4.89c.06,3.39.09,6.78,0,10.16-.09,4.23-4.24,8.11-8.48,8a4.87,4.87,0,0,1-4.92-5Zm9.25-1.83h-.05c0-1.67,0-3.34,0-5a1.81,1.81,0,0,0-2.32-1.84,3.31,3.31,0,0,0-2.71,3.44c0,2.18,0,4.37,0,6.56,0,1.15,0,2.3.06,3.45a1.84,1.84,0,0,0,2.27,1.63,3.43,3.43,0,0,0,2.74-3.09C29.5,50,29.46,48.25,29.46,46.53Z"/><path class="cls-1" d="M149.7,14.5l.76-1.22c1.4-2.31,2.8-4.61,4.19-6.93a1.29,1.29,0,0,1,.92-.66c1.19-.25,2.36-.55,3.68-.87l-2.46,4.24c-1.07,1.85-2.14,3.7-3.23,5.53a.9.9,0,0,0,0,1.08c2,3.42,4,6.86,5.94,10.3.43.74.43.74-.38.93-1,.25-2.1.48-3.14.77a.7.7,0,0,1-.94-.41c-1.4-2.55-2.83-5.08-4.32-7.73-.47.93-1.22,1.6-1.19,2.71.06,2.05,0,4.1,0,6.14,0,.57-.08.89-.74,1A18.19,18.19,0,0,0,146,30c-.62.19-.65-.05-.64-.54,0-1.32,0-2.64,0-4,0-5.55.06-11.1.06-16.65,0-.58.11-.87.75-1a24.27,24.27,0,0,0,2.8-.67c.49-.13.59,0,.59.47,0,2.14,0,4.28,0,6.42v.32Z"/><path class="cls-1" d="M49.3,40.38c-.07,1.76.24,4.56,0,7.35-.36,4.2-5.1,7.89-9.24,7.25A4.72,4.72,0,0,1,36,50.23c0-5.25,0-10.49.05-15.74,0-.37.16-.48.47-.55,1-.22,2-.43,3-.72.55-.15.65,0,.65.54q0,6.45,0,12.91c0,.78,0,1.55,0,2.33a1.92,1.92,0,0,0,2.67,1.94,3.32,3.32,0,0,0,2.36-3.23c0-5,0-10.07,0-15.1,0-.54.12-.79.67-.9,1-.18,1.93-.41,2.88-.67.49-.14.59,0,.59.47C49.29,34.12,49.3,36.73,49.3,40.38Z"/><path class="cls-1" d="M78.74,45.58c.56-3,1.11-6,1.67-9.07.78-4.23,1.59-8.44,2.34-12.67.12-.66.33-1,1-1.13,1.24-.22,2.47-.56,3.69-.87.48-.12.73-.13.85.5q1.89,9.91,3.87,19.82c.09.47,0,.66-.5.76-1,.2-2,.46-3,.71-.38.1-.61.07-.59-.38a.15.15,0,0,0,0-.07c-.18-.57,0-1.45-.44-1.67s-1.16.18-1.75.32-1.41.36-2.13.47a.73.73,0,0,0-.7.78A7,7,0,0,0,83,44c0,.9-.42,1.2-1.24,1.32a26.65,26.65,0,0,0-2.61.61C78.83,46,78.61,46,78.74,45.58Zm6.81-16.87C85,32.2,84.43,35.5,83.88,38.87c1-.23,1.84-.47,2.73-.64.4-.08.47-.25.41-.62-.21-1.2-.39-2.41-.59-3.61C86.15,32.29,85.87,30.59,85.55,28.71Z"/><path class="cls-1" d="M165.51,21.45l4.77-1.12c.64-.15,1.28-.3,1.92-.47.34-.1.46,0,.45.36,0,1,0,2,0,3,0,.29-.05.46-.39.54Q167,25,161.78,26.29c-.48.12-.43-.18-.43-.46,0-2.69,0-5.37,0-8,0-3.67,0-7.34.05-11,0-.82-.34-1.86.14-2.39s1.48-.45,2.26-.64c2.71-.65,5.43-1.28,8.15-1.94.53-.13.69-.05.66.52a22.9,22.9,0,0,0,0,2.62c0,.48-.16.64-.59.74-2,.45-4,1-6,1.39-.45.1-.57.26-.56.69,0,1.25,0,2.5,0,3.75,0,.45.05.6.56.47,2-.5,3.93-.94,5.89-1.42.47-.12.68-.1.65.47a20.37,20.37,0,0,0,0,2.47c.05.61-.17.84-.76,1-2,.43-3.88.92-5.83,1.36-.41.09-.58.22-.57.68C165.53,18.13,165.51,19.75,165.51,21.45Z"/><path class="cls-1" d="M71.07,38.72c0-2.82,0-5.64,0-8.46,0-.51-.09-.66-.62-.51-1.16.31-2.33.54-3.49.84-.41.11-.48,0-.47-.38,0-1,0-2,0-3a.45.45,0,0,1,.42-.52q6.17-1.45,12.33-2.94c.38-.09.55,0,.54.42,0,.94,0,1.88,0,2.82,0,.43-.15.57-.53.65-1.08.24-2.14.54-3.22.74-.65.13-.9.36-.9,1.08.06,5.53,0,11.06.09,16.58,0,.59-.14.83-.74.92a24.5,24.5,0,0,0-2.66.64c-.58.17-.79.11-.78-.59C71.1,44.28,71.07,41.5,71.07,38.72Z"/><path class="cls-1" d="M94.51,31.21c0-3.46,0-6.92,0-10.38,0-.47.1-.7.61-.8,1-.19,2-.45,3-.71.38-.1.49,0,.49.37,0,1.53,0,3,0,4.58,0,5.34,0,10.68,0,16,0,.73-.14,1.09-.92,1.2a19.64,19.64,0,0,0-2.6.62c-.51.14-.68.06-.68-.53,0-3.46,0-6.92,0-10.37Z"/><path class="cls-1" d="M142.43,19.82c0,3.46,0,6.92,0,10.38,0,.52-.14.74-.67.84a24.8,24.8,0,0,0-3,.7c-.54.16-.57,0-.57-.48q0-6.92,0-13.84c0-2.35,0-4.7,0-7.06,0-.44.14-.61.56-.7,1-.21,2-.45,2.95-.7.46-.12.65-.07.63.49,0,1.31,0,2.63,0,4v6.42Z"/></svg>