<svg id="Capa_1" data-name="Capa 1" xmlns="http://www.w3.org/2000/svg" viewBox="0 0 175 35.1"><defs><style>.cls-1{fill:#ed5e3e;}</style></defs><title>panoramic</title><path class="cls-1" d="M131.83,29.69h-.24a5.88,5.88,0,0,0-1.33-.07c-.3,0-.42-.12-.49-.42q-2-8.4-4-16.8c-.15-.61-.31-1.21-.46-1.82h-.07V29c0,.34-.06.46-.43.44-1.3-.06-2.6-.09-3.91-.12-.34,0-.49-.09-.49-.49q0-11,0-21.94c0-1,0-1,1-1,2.12-.06,4.24-.12,6.35-.21.34,0,.45.08.52.39q1.26,5.82,2.54,11.64c.35,1.61.7,3.23,1.06,4.86a.46.46,0,0,0,.16-.37c.42-1.88.82-3.75,1.23-5.63.31-1.45.61-2.91.92-4.36l0-.16a.56.56,0,0,0,.07-.18q.67-3.09,1.34-6.21c0-.24.13-.33.38-.33.46,0,.92,0,1.38,0l5.72-.28c.24,0,.33.07.32.31,0,.66,0,1.32,0,2,0,7.51,0,15,0,22.53,0,.39-.1.48-.48.45-1.29-.08-2.58-.14-3.87-.17-.39,0-.46-.15-.46-.52q0-8.1,0-16.2V10.21a1.53,1.53,0,0,0-.22.6L135.31,24,134,29.75h0C133.25,29.72,132.54,29.65,131.83,29.69Z"/><path class="cls-1" d="M51.89,29.37h-.16c-.42,0-.84,0-1.26,0-.27,0-.38-.09-.48-.34-1.89-4.88-3.78-9.76-5.62-14.66-.19-.53-.4-1.05-.6-1.57l-.09,0V25c0,1.41,0,2.82,0,4.22,0,.33-.12.42-.4.42l-.87,0-3.55.13h0V6.38c0-.28,0-.56,0-.83s.1-.31.33-.3c1.73.08,3.47.17,5.21.22a.64.64,0,0,1,.69.5q2.92,7.83,6,15.59l.13.24a1.26,1.26,0,0,0,.07-.49v-15a2.61,2.61,0,0,0,0-.28c0-.2.06-.26.28-.25.74,0,1.47,0,2.21,0H54a18.87,18.87,0,0,0,2.13.09h0a1.36,1.36,0,0,1,0,.2q0,11.4,0,22.8c0,.27-.1.33-.35.34-1,0-2,.05-3.08.09A2.06,2.06,0,0,0,51.89,29.37Z"/><path class="cls-1" d="M25.16,4.51l.48,0a1.06,1.06,0,0,0,.5.06c1.22.07,2.45.15,3.67.2.32,0,.44.15.52.45q2.13,7.93,4.29,15.88c.77,2.82,1.56,5.63,2.35,8.44.08.27.06.37-.25.39-1.57.06-3.13.14-4.7.23-.34,0-.45-.1-.52-.41-.32-1.49-.66-3-1-4.47-.07-.32-.18-.43-.52-.41l-6.12.21c-.28,0-.37.12-.43.38-.32,1.58-.68,3.16-1,4.75-.08.44-.27.54-.67.56-1.52.08-3.05.18-4.57.3-.33,0-.3-.11-.24-.35,1-4,2-8,3-11.95C21.23,14,22.49,9.23,23.74,4.46h0ZM27,9.25h-.08l-.09.34c-.41,1.88-.81,3.76-1.22,5.63s-.73,3.45-1.1,5.18c0,.18-.12.36.21.35,1.45,0,2.9,0,4.35-.05.33,0,.41-.1.33-.44q-.8-3.6-1.57-7.21C27.57,11.78,27.3,10.52,27,9.25Z"/><path class="cls-1" d="M155.94,16.39v-.47c.05-.88.1-1.76.16-2.64a16.7,16.7,0,0,1,1-5.13,7.56,7.56,0,0,1,4-4.32A11.62,11.62,0,0,1,166.61,3a5.73,5.73,0,0,1,5.27,3.66,16.16,16.16,0,0,1,.92,6c0,.24-.15.22-.32.23-1.47,0-2.95,0-4.42.11-.39,0-.52-.08-.51-.49a10.92,10.92,0,0,0-.48-3.55,2.25,2.25,0,0,0-1.14-1.45,2.74,2.74,0,0,0-3.66,1.15,11,11,0,0,0-.91,4.1c-.19,2.37-.2,4.74-.16,7.11a.59.59,0,0,0,.06.39v.39a15.55,15.55,0,0,0,.09,2.05,13.57,13.57,0,0,0,.62,3.29,2.7,2.7,0,0,0,2.82,2c1.27,0,2-.62,2.43-2.08a.76.76,0,0,1,0-.11,16.09,16.09,0,0,0,.52-4.26c0-.63,0-.63.63-.59h.12L172,21h.24l.79.1h0v.87c-.08,1-.16,1.95-.23,2.92l0,.16a16,16,0,0,1-.95,3.55h0c-.11.07-.13.2-.18.3a5.59,5.59,0,0,1-4.21,3.06,12.43,12.43,0,0,1-4.82-.24A7.34,7.34,0,0,1,157.14,27a17.47,17.47,0,0,1-1.06-5.68c0-.69-.09-1.39-.13-2.08V16.39Z"/><path class="cls-1" d="M8.09,3.33l.15,0a1.41,1.41,0,0,0,.54.07c1.05.09,2.09.15,3.14.27a7.27,7.27,0,0,1,3.71,1.67h0a.73.73,0,0,0,.09.13,7.4,7.4,0,0,1,2.13,3.76,13.19,13.19,0,0,1,.21,4.93l0,.16a.59.59,0,0,0-.06.14,6.89,6.89,0,0,1-5.69,5.65,22.1,22.1,0,0,1-4.6.29c-.51,0-.51,0-.51.52,0,3.41,0,6.83,0,10.24,0,.42,0,.71-.54.71l-.31,0a8.5,8.5,0,0,0-1.67.14l-.39,0a14.11,14.11,0,0,0-1.84.14c-.39,0-.49-.06-.49-.45Q2,17.61,2,3.48V3.12c0-.19.07-.26.26-.24.69.07,1.39.14,2.08.18C5.57,3.15,6.82,3.32,8.09,3.33Zm-.9,8.52h0c0,1.32,0,2.64,0,4,0,.29.09.39.38.39.65,0,1.29,0,1.94,0a3.18,3.18,0,0,0,3.32-2.68,7.37,7.37,0,0,0-.05-3.17A3.19,3.19,0,0,0,9.56,7.69c-.64,0-1.29-.06-1.93-.13-.35,0-.45.07-.45.42C7.2,9.27,7.19,10.56,7.19,11.85Z"/><path class="cls-1" d="M96.49,11.57v1.11c0,.15-.06.3-.08.46a4.69,4.69,0,0,1-3.18,4.22c-.31.11-.64.19-1,.3l1.41.36a5.19,5.19,0,0,1,1.28.61h0A4.92,4.92,0,0,1,96.19,22a16.63,16.63,0,0,0,.14,1.87V24a17.91,17.91,0,0,0,.22,3.35,1.79,1.79,0,0,0,.56,1c.11.12.4.18.34.33s-.34.11-.53.11l-4.86,0a.5.5,0,0,1-.48-.33,3.89,3.89,0,0,1-.41-1.83c-.06-1.51-.11-3-.16-4.54a2.56,2.56,0,0,0-2.59-2.76c-1-.07-2,0-3,0-.22,0-.27.09-.26.29v8.77c0,.21,0,.42-.3.41-1.56,0-3.11,0-4.66,0-.21,0-.29-.06-.28-.27,0-.4,0-.79,0-1.19,0-.1,0-.21,0-.31V6.86c0-.09,0-.18,0-.27,0-.26.16-.27.36-.27l9.68,0a11.65,11.65,0,0,1,1.45.12,7.79,7.79,0,0,1,3.06,1.08h0a5,5,0,0,1,1.72,2.34A13.66,13.66,0,0,1,96.49,11.57Zm-11.36,1.3h0c0,1,0,2,0,2.92,0,.26.07.36.33.35.94,0,1.88.05,2.81-.07,1.77-.24,2.83-1.05,3-2.9s-.71-3.17-2.7-3.43c-1-.13-2.08,0-3.12-.07-.24,0-.27.12-.27.32C85.14,11,85.13,11.91,85.13,12.87Z"/><path class="cls-1" d="M66,29.23l-.16,0L65,29.06a6.12,6.12,0,0,1-4.67-3.39,10.52,10.52,0,0,1-1-3.68,43.73,43.73,0,0,1-.07-8.09,15,15,0,0,1,.6-3.38,6.39,6.39,0,0,1,5.22-4.59,15.78,15.78,0,0,1,5.31,0,6.92,6.92,0,0,1,5.81,5.37,24.87,24.87,0,0,1,.55,5.09c0,1.4,0,2.79-.06,4.18l0,.32a.6.6,0,0,0-.07.34,14.27,14.27,0,0,1-.33,2.27,7.21,7.21,0,0,1-2.2,3.93,8.41,8.41,0,0,1-5,1.78A24.83,24.83,0,0,1,66,29.23ZM64.45,17.52c0,.71,0,1.42,0,2.13a22.56,22.56,0,0,0,.25,3.07,5.31,5.31,0,0,0,.67,2c.76,1.21,1.94,1.33,3.2,1.2a2.73,2.73,0,0,0,2.41-2,9.56,9.56,0,0,0,.45-2.36,53.29,53.29,0,0,0,.11-6.32A18.18,18.18,0,0,0,71.2,12,4.11,4.11,0,0,0,70.35,10a3.28,3.28,0,0,0-3-.88A2.56,2.56,0,0,0,65.05,11a8.8,8.8,0,0,0-.37,1.45A35.44,35.44,0,0,0,64.45,17.52Z"/><path class="cls-1" d="M101.82,17.1l0-.15c0-.12.11-.24.15-.37q1.51-5,3-10a.46.46,0,0,1,.52-.39c1.88,0,3.76,0,5.65-.09.35,0,.47.1.56.42.84,2.82,1.7,5.64,2.53,8.47q2,6.87,4.06,13.74c.13.46.1.47-.39.46-.91,0-1.81,0-2.72,0h-.16a11.92,11.92,0,0,0-2-.06L113,29c-.37-1.49-.75-3-1.09-4.49-.07-.31-.21-.39-.5-.4q-3.08,0-6.13-.06a.38.38,0,0,0-.46.34c-.32,1.35-.67,2.69-1,4-.08.31-.2.43-.53.42-1.52,0-3-.05-4.55-.07-.49,0-.5,0-.35-.49q1.13-3.64,2.23-7.29C101.05,19.72,101.43,18.41,101.82,17.1Zm6.58-7c-.07.2-.1.27-.12.34-.78,3.18-1.55,6.35-2.34,9.52-.08.33,0,.38.32.38,1.38,0,2.77,0,4.15,0,.5,0,.49,0,.38-.47-.48-2-1-3.92-1.43-5.87Z"/><path class="cls-1" d="M151.68,30.72l-.16,0a.45.45,0,0,0-.3-.05c-1.13-.07-2.26-.14-3.39-.18-.33,0-.44-.12-.44-.47q0-12.46,0-24.93c0-.32.12-.44.42-.45.82,0,1.65,0,2.47-.11a7.22,7.22,0,0,0,1.4-.13h.16l.16,0c.72,0,.63-.11.63.6V29.83c0,.86,0,.86-.87.87Z"/></svg>