<svg id="Capa_1" data-name="Capa 1" xmlns="http://www.w3.org/2000/svg" viewBox="0 0 175 35.1"><defs><style>.cls-1{fill:#1770b3;}</style></defs><title>peabody</title><path class="cls-1" d="M121.29,16.08a14.59,14.59,0,0,1-21,12.86c-3.65-2-5.27-5.26-5.37-9.36A13.87,13.87,0,0,1,105.13,5.4a14.52,14.52,0,0,1,10,.37c3.84,1.62,5.7,4.7,6.13,8.74A13.71,13.71,0,0,1,121.29,16.08ZM102,18.71c0,.45,0,.92.09,1.38.3,2.11,1.11,3.89,3.32,4.59a5.74,5.74,0,0,0,6.2-1.43,9.56,9.56,0,0,0,2.62-7.85,6,6,0,0,0-1.42-3.77,5.55,5.55,0,0,0-7.27-.32C103.05,13.16,102.12,15.74,102,18.71Z"/><path class="cls-1" d="M88.1,16.62a5.26,5.26,0,0,1,4.08,4.71,6.59,6.59,0,0,1-2.94,6.33,13.21,13.21,0,0,1-6.71,2.22A101.69,101.69,0,0,1,71.35,30c-.63,0-.82-.16-.68-.86.81-4.2,1.57-8.4,2.35-12.61.62-3.34,1.26-6.68,1.85-10,.11-.62.29-.93,1-1a40.45,40.45,0,0,1,10.54-.27A8.9,8.9,0,0,1,91,6.91a5.22,5.22,0,0,1-.77,8.83A9.73,9.73,0,0,1,88.1,16.62ZM79.86,25a7,7,0,0,0,4.27-1,2.33,2.33,0,0,0,1-2.38,2.06,2.06,0,0,0-1.47-1.77,12.39,12.39,0,0,0-4-.43c-.58,0-.78.23-.87.71-.18,1-.37,2-.53,3C78,25,78,25,79.86,25Zm1.8-10.33a7.43,7.43,0,0,0,3.23-.56,2,2,0,0,0,1.34-2.19,2,2,0,0,0-1.81-1.62,12.65,12.65,0,0,0-2.61-.09c-.8,0-1.22.24-1.21,1.14a7.83,7.83,0,0,1-.32,1.7C80,14.67,80,14.67,81.66,14.67Z"/><path class="cls-1" d="M129.87,30.11a50.36,50.36,0,0,1-6.72-.36c-.59-.07-.74-.26-.63-.82.56-2.86,1.1-5.71,1.64-8.57.39-2,.81-4.05,1.16-6.08.1-.53.25-.83.81-1a23.51,23.51,0,0,1,5.54-.6c.49,0,.68.13.58.66-.66,3.31-1.26,6.63-1.94,9.94-.3,1.51-.35,1.57,1.15,1.6,2.79,0,5.48-.35,7.66-2.32a9,9,0,0,0,2.1-9.19c-.87-2.16-2.69-2.84-4.78-3.11a35.46,35.46,0,0,0-9.76.24c-.61.08-.64-.07-.54-.56.26-1.31.5-2.62.74-3.94.06-.35.24-.47.58-.52a45.63,45.63,0,0,1,10.11-.4,16.17,16.17,0,0,1,5.85,1.31,9.11,9.11,0,0,1,5.49,8.28c.45,7.57-3.91,13.17-11.31,14.75A33.43,33.43,0,0,1,129.87,30.11Z"/><path class="cls-1" d="M44.07,29.92c-.53.14-.51-.09-.32-.46.83-1.67,1.63-3.35,2.47-5,3.1-6.19,6.22-12.38,9.31-18.58a1,1,0,0,1,1.12-.69c2.45,0,4.9,0,7.35,0,.47,0,.71.07.78.63.41,3.09.88,6.17,1.32,9.25.67,4.73,1.32,9.46,2,14.18.1.65-.09.74-.64.74-1.84,0-3.68,0-5.51,0-.66,0-.9-.2-.92-.9,0-1.54-.23-3.08-.31-4.62,0-.46-.19-.59-.63-.58-2,0-4.09,0-6.13,0a.78.78,0,0,0-.83.58c-.72,1.69-1.47,3.37-2.21,5a2.12,2.12,0,0,1-.23.35,1.59,1.59,0,0,0-.41-.12H44.61C44.41,29.72,44.2,29.71,44.07,29.92ZM55.39,18.86c1.56,0,3,0,4.41,0,.44,0,.52-.15.46-.58-.13-1-.19-2-.29-2.94-.18-1.75-.37-3.5-.56-5.24l-.15,0C58,13,56.73,15.83,55.39,18.86Z"/><path class="cls-1" d="M31.84,20.23a19.81,19.81,0,0,1-.57,3.43c-.13.66.05.79.67.78,3.12,0,6.24,0,9.36,0,.7,0,.91.14.75.87-.3,1.33-.54,2.68-.75,4-.08.54-.31.66-.8.66-5.39,0-10.79,0-16.18,0-.66,0-.8-.21-.68-.81.55-2.8,1.07-5.6,1.6-8.41.84-4.51,1.69-9,2.52-13.55.37-2,.35-2,2.44-2,4.7,0,9.39,0,14.09,0,.88,0,1,.29.82,1-.27,1.25-.49,2.51-.72,3.77a.79.79,0,0,1-.92.77c-2.91,0-5.83,0-8.75,0-.75,0-1.19.12-1.21,1a7.7,7.7,0,0,1-.37,2.06c-.21.7,0,.85.69.84,2.68,0,5.36,0,8.05,0,.74,0,1,.07.84.94-.33,1.32-.52,2.68-.77,4,0,.22,0,.48-.33.55-.06-.12-.12-.11-.18,0h-.17a1.11,1.11,0,0,0-.38-.16H32.37C32.14,19.92,31.89,19.91,31.84,20.23Z"/><path class="cls-1" d="M4.87,30A21.49,21.49,0,0,0,2.6,30c-.87.1-.94-.24-.79-1,.57-2.76,1.09-5.53,1.61-8.3Q4.58,14.56,5.71,8.43c0-.15.06-.29.09-.43.55-2.54.55-2.56,3.11-2.77a36.34,36.34,0,0,1,7.94,0c2.48.35,4.8,1.06,6.3,3.27,2.16,3.19,1.11,8.16-2.2,10.71a13.08,13.08,0,0,1-7.25,2.44,22.84,22.84,0,0,1-3.41-.05c-.5,0-.64.09-.72.57-.43,2.41-.92,4.8-1.34,7.2-.09.49-.27.63-.73.61C6.62,29.93,5.75,30,4.87,30Zm7.94-13.53a6.18,6.18,0,0,0,3.08-.71,3.13,3.13,0,0,0,1.7-3.25,2.41,2.41,0,0,0-2-2.13,10.15,10.15,0,0,0-3.39-.07.52.52,0,0,0-.51.48c-.23,1.26-.5,2.51-.7,3.77C10.68,16.41,10.7,16.42,12.81,16.43Z"/><path class="cls-1" d="M159.22,15.16l4-6.66c.55-.93,1.12-1.85,1.64-2.79a.88.88,0,0,1,.89-.53c2.36,0,4.72,0,7.08,0a3.37,3.37,0,0,1,.45.07l-3.78,4.67c-2.45,3-4.88,6-7.35,9a5.13,5.13,0,0,0-.73,2.47c-.55,2.59-1,5.2-1.47,7.8-.1.55-.28.79-.89.77-1.69-.05-3.39-.06-5.08,0-.68,0-.74-.2-.63-.78.56-2.88,1.07-5.78,1.65-8.66a2.69,2.69,0,0,0-.13-1.61c-1.7-4.26-3.39-8.54-5.08-12.81-.37-.92-.37-.92.61-.93,1.75,0,3.5,0,5.25,0,.67,0,.89.25,1,.84C157.47,9,158.32,11.93,159.22,15.16Z"/><path class="cls-1" d="M31.84,20.23c.05-.32.3-.31.53-.31h8.52a1.11,1.11,0,0,1,.38.16l-8.39,0A2.45,2.45,0,0,0,31.84,20.23Z"/><path class="cls-1" d="M44.07,29.92c.13-.21.34-.2.54-.2H50.3a1.59,1.59,0,0,1,.41.12,19.81,19.81,0,0,1-3.61.1C46.09,30,45.08,29.93,44.07,29.92Z"/><path class="cls-1" d="M41.44,20.1c.06-.12.12-.13.18,0Z"/></svg>