<svg id="Capa_1" data-name="Capa 1" xmlns="http://www.w3.org/2000/svg" viewBox="0 0 97 95.77"><defs><style>.cls-1{fill:#003790;}</style></defs><title>playstation</title><path class="cls-1" d="M2.17,74.67V21.1c.25-1,.31-2,.49-2.92L3,16.77a13,13,0,0,0,.49-1.61c.36-1,.79-2,1.25-3a27.57,27.57,0,0,1,1.9-3h0L6.7,9l.1-.11L7.94,7.62l.29-.28L9.51,6.19l.11-.09L9.74,6h0a27.62,27.62,0,0,1,3-1.89c1-.46,2-.89,3-1.26l1.52-.42,1.5-.38,1.52-.27a22.17,22.17,0,0,1,2.29-.22q25.91,0,51.8,0c.27,0,.53,0,.8.05,1.39.12,2.74.42,4.11.67a7.47,7.47,0,0,0,1.4.4c1.1.38,2.17.81,3.23,1.27l1.31.71s0,0,.07,0l1.27.82.88.67.63.53a27.08,27.08,0,0,1,2.26,2.41l.8,1.11.33.49.77,1.42.51,1h0s0,.06,0,.07a1.26,1.26,0,0,0,.22.5l.52,1.41.43,1.51a28,28,0,0,1,.88,6.94c0,15,0,30,0,45a41.91,41.91,0,0,1-.31,7.92v.11l0,.21c-.23,1.16-.52,2.3-.83,3.43l-.42,1.2c-.46,1.06-.94,2.11-1.49,3.13l-.55.89a1.15,1.15,0,0,0-.3.45,20.58,20.58,0,0,1-4.27,4.27,1.34,1.34,0,0,0-.45.29l-.89.56c-1,.55-2.07,1-3.13,1.49l-1.2.41c-1.13.32-2.27.6-3.42.83-.74.13-1.49.17-2.22.37H22.1l-2.21-.29-1.41-.28h-.11l-1.09-.29-1.52-.43-1.41-.51a1.26,1.26,0,0,0-.5-.22,0,0,0,0,0-.06,0v0l-1-.51A7.85,7.85,0,0,0,11.47,91l-.63-.43-1.1-.79h0l-.12-.09-.71-.59-.68-.64-.84-.87-.59-.7L6.12,86l-.8-1.25-.05-.09-.76-1.4c-.41-1-.86-2.08-1.2-3.15l-.42-1.4-.33-1.6A17.94,17.94,0,0,0,2.17,74.67Zm37.66-56.2v.46q0,25.31,0,50.6a.54.54,0,0,0,.46.61l7.48,2.36,3.74,1.18v-43a4.77,4.77,0,0,1,.41-2.2,1.5,1.5,0,0,1,1.66-.94,2.71,2.71,0,0,1,2,1.47,6.45,6.45,0,0,1,.54,3c0,5.62,0,11.24,0,16.86a.47.47,0,0,0,.34.51,13.8,13.8,0,0,0,3.78,1.1,7.08,7.08,0,0,0,7.62-4.13,14.66,14.66,0,0,0,1.25-5.68,24.67,24.67,0,0,0-.37-5.49A12.79,12.79,0,0,0,65.14,28a20.11,20.11,0,0,0-7.4-4.39A129.28,129.28,0,0,0,39.83,18.47ZM53.65,58.29c0,1,0,2.08,0,3.12,0,.37.1.45.42.3a1.27,1.27,0,0,1,.24-.07c3.62-1.28,7.24-2.52,10.84-3.84a14.38,14.38,0,0,1,6.92-.95,4.15,4.15,0,0,1,1.72.52.73.73,0,0,1,.1,1.28,3.1,3.1,0,0,1-1.07.62L62.18,63.09l-8,2.87c-.24.09-.49.13-.49.52,0,2,0,4,0,6,0,.39.14.35.41.24,1-.37,2-.73,2.95-1.08L71.5,66.5c2.74-1,5.49-2,8.21-3a10.55,10.55,0,0,0,4.08-2.58,2.59,2.59,0,0,0,.1-3.67,5.51,5.51,0,0,0-1.81-1.41,30,30,0,0,0-8.93-2.8,37,37,0,0,0-10.45-.27A45.89,45.89,0,0,0,54,54.68a.47.47,0,0,0-.38.54C53.66,56.24,53.65,57.27,53.65,58.29Zm-16-8.68-.41.12c-1.84.66-3.67,1.33-5.51,2-4.33,1.53-8.69,3-13,4.65a16.71,16.71,0,0,0-4.39,2.39,2.7,2.7,0,0,0-.45,4.13,6.24,6.24,0,0,0,2.33,1.71,33.5,33.5,0,0,0,7.65,2.21,36.64,36.64,0,0,0,7.9.53,52.18,52.18,0,0,0,5.44-.54c.31,0,.43-.16.43-.5,0-1.75,0-3.49,0-5.24,0-.4-.12-.43-.45-.31-1.09.41-2.2.79-3.28,1.22a15.93,15.93,0,0,1-7.45,1.4,5.35,5.35,0,0,1-2.07-.51c-.73-.38-.8-.9-.16-1.44a2.53,2.53,0,0,1,.77-.47l7.28-2.65c1.66-.6,3.33-1.18,5-1.77.2-.07.37-.12.36-.4C37.6,54,37.61,51.8,37.61,49.61Z"/></svg>