<svg id="Capa_1" data-name="Capa 1" xmlns="http://www.w3.org/2000/svg" viewBox="0 0 221 40"><defs><style>.cls-1{fill:#016ad5;}</style></defs><title>quantum</title><path class="cls-1" d="M27.85,36.85c-3.28,0-6.55,0-9.82,0A22.52,22.52,0,0,1,10,35.42,11.38,11.38,0,0,1,3.08,28a22.82,22.82,0,0,1-1-5.91,30.29,30.29,0,0,1,.76-9.44A11.62,11.62,0,0,1,8.49,5.09,17.41,17.41,0,0,1,15,3.17a35.23,35.23,0,0,1,7.26-.08,19.38,19.38,0,0,1,6.17,1.46,11.25,11.25,0,0,1,6.42,7.5,28.09,28.09,0,0,1,.93,8.66,25,25,0,0,1-.53,4.95,8.21,8.21,0,0,1-4.43,5.83c-.16.09-.48.13-.41.39s.37.1.55.1h7.72c.35,0,.46.09.45.44q0,2,0,4c0,.34-.08.42-.42.42H27.85ZM9.75,19.73a21.11,21.11,0,0,0,.66,5.81,8.29,8.29,0,0,0,3.48,5.06,9.44,9.44,0,0,0,4.9,1.27c4.71.11,7.65-2.11,8.78-6.68a24.51,24.51,0,0,0,.48-7.54,15.45,15.45,0,0,0-.76-3.93A7.64,7.64,0,0,0,22,8.38a11.54,11.54,0,0,0-4.38-.31,7.62,7.62,0,0,0-7,5.28A18.65,18.65,0,0,0,9.75,19.73Z"/><path class="cls-1" d="M179.48,25.62c0-3.56,0-7.12,0-10.67,0-.28,0-.43.34-.51a48.59,48.59,0,0,1,12.11-1.68,12.59,12.59,0,0,1,7.37,2,.42.42,0,0,0,.49,0,19.31,19.31,0,0,1,9.53-2,12.18,12.18,0,0,1,6.42,1.72,6.91,6.91,0,0,1,3.2,5.68c.1,1.82,0,3.64,0,5.45,0,3.56,0,7.12,0,10.67,0,.38-.09.48-.47.47q-2.79,0-5.58,0c-.39,0-.52-.07-.52-.5,0-4.84,0-9.67,0-14.51a6,6,0,0,0-.28-2,3.82,3.82,0,0,0-3.44-2.5A9.17,9.17,0,0,0,203,18.46a.68.68,0,0,0-.4.7c0,5.68,0,11.37,0,17.05,0,.42-.12.52-.52.51-1.9,0-3.81,0-5.71,0-.39,0-.5-.09-.5-.49,0-4.83,0-9.67,0-14.51a6.49,6.49,0,0,0-.2-1.81,3.78,3.78,0,0,0-3.51-2.71,12.22,12.22,0,0,0-5.74.74.51.51,0,0,0-.38.58c0,5.9,0,11.79,0,17.69,0,.4-.08.52-.5.51q-2.79,0-5.58,0c-.42,0-.55-.07-.55-.52C179.49,32.67,179.48,29.15,179.48,25.62Z"/><path class="cls-1" d="M73.48,18.93V14.09c0-.28.2-.25.36-.29a40.27,40.27,0,0,1,4.49-.7,44.1,44.1,0,0,1,7.44-.28,15.46,15.46,0,0,1,6.17,1.45,5.81,5.81,0,0,1,3.4,5.52q0,7.76,0,15.5c0,.39-.14.5-.48.57a53.19,53.19,0,0,1-8.14,1,47.38,47.38,0,0,1-6.74,0,11.93,11.93,0,0,1-6.11-2,6.36,6.36,0,0,1-2.67-5.9c.2-3.17,2.08-5.38,5.3-6.36a10.9,10.9,0,0,1,3.16-.48c2.87,0,5.74-.07,8.62-.09.36,0,.5-.08.47-.46a11.24,11.24,0,0,0-.06-1.42,3.5,3.5,0,0,0-3.18-3,17.92,17.92,0,0,0-4,0,25.5,25.5,0,0,0-7.33,1.6l-.62.25S73.53,18.94,73.48,18.93ZM88.75,29.21c0-.84,0-1.67,0-2.5,0-.26-.08-.33-.33-.33-2.14,0-4.29,0-6.43,0a7.29,7.29,0,0,0-3.08.62,2.67,2.67,0,0,0-.11,4.77,4.1,4.1,0,0,0,.87.36A17.07,17.07,0,0,0,88.54,32c.23-.06.21-.21.21-.37Z"/><path class="cls-1" d="M173.86,24.56c0,3.59,0,7.17,0,10.76,0,.4-.14.49-.48.55a75.63,75.63,0,0,1-11.53,1.19,19.9,19.9,0,0,1-7.42-1,6.21,6.21,0,0,1-4.1-4,7.7,7.7,0,0,1-.31-2.33c0-5.38,0-10.75,0-16.12,0-.32.09-.4.4-.4,2,0,4,0,5.94,0,.39,0,.49.09.49.49q0,6.72,0,13.44A17.12,17.12,0,0,0,157,29.8a3.13,3.13,0,0,0,2.72,2.73,15.26,15.26,0,0,0,7.1-.47c.17-.05.24-.13.22-.31s0-.21,0-.31q0-8.86,0-17.73c0-.4.09-.52.51-.51,2,0,3.93,0,5.89,0,.34,0,.42.09.41.42C173.85,17.27,173.86,20.91,173.86,24.56Z"/><path class="cls-1" d="M66.42,24.47c0,3.62,0,7.23,0,10.85,0,.32-.08.45-.41.51a87,87,0,0,1-9.12,1.11,33.36,33.36,0,0,1-6.32-.11,11.13,11.13,0,0,1-5.87-2.14,5.43,5.43,0,0,1-2.05-4c-.06-.82-.08-1.64-.08-2.46q0-7.28,0-14.55c0-.4.1-.52.51-.51,2,0,3.93,0,5.89,0,.37,0,.44.11.44.45q0,7.41,0,14.82a7.4,7.4,0,0,0,.2,1.55,3.18,3.18,0,0,0,2.93,2.57A15.38,15.38,0,0,0,59.41,32c.16,0,.23-.1.22-.26s0-.21,0-.32c0-5.92,0-11.84,0-17.76,0-.39.06-.53.49-.52,1.94,0,3.87,0,5.81,0,.39,0,.52.08.52.5C66.42,17.27,66.42,20.87,66.42,24.47Z"/><path class="cls-1" d="M101.14,25.38c0-3.57,0-7.14,0-10.71,0-.41.07-.59.52-.66a71,71,0,0,1,12.68-1.16,18.61,18.61,0,0,1,6,1,8,8,0,0,1,2.89,1.71,5.57,5.57,0,0,1,1.67,3.69c.11,1.37.08,2.74.08,4.11,0,4.3,0,8.6,0,12.9,0,.37-.09.48-.46.48q-3,0-5.94,0c-.36,0-.44-.11-.44-.46,0-4.76,0-9.52,0-14.28a8.89,8.89,0,0,0-.18-1.86,3.05,3.05,0,0,0-2.72-2.72,15,15,0,0,0-7,.46c-.27.07-.25.24-.25.43v4.6c0,4.44,0,8.87,0,13.31,0,.44-.12.52-.54.52-1.9,0-3.81,0-5.71,0-.43,0-.57-.07-.57-.55C101.16,32.56,101.14,29,101.14,25.38Z"/><path class="cls-1" d="M133,24.24c0-2,0-4,0-6,0-.34-.09-.42-.42-.41-1.27,0-2.53,0-3.8,0-.31,0-.4-.09-.39-.4,0-1.28,0-2.56,0-3.84,0-.36.13-.41.44-.4,1.26,0,2.53,0,3.79,0,.32,0,.39-.09.39-.4,0-1.34,0-2.68,0-4,0-.28,0-.42.37-.41h5.81c.27,0,.35.07.35.35,0,1.35,0,2.71,0,4.06,0,.33.06.43.41.43,1.65,0,3.3,0,5,0,.33,0,.44.07.43.41q0,1.92,0,3.84c0,.33-.1.39-.41.39-1.63,0-3.27,0-4.91,0-.41,0-.48.12-.48.5,0,3.28,0,6.55,0,9.82a11.13,11.13,0,0,0,.05,1.16,2.56,2.56,0,0,0,2.8,2.65,6.94,6.94,0,0,0,2.63-.38c.26-.08.33-.06.33.23,0,1.49,0,3,0,4.46,0,.15,0,.3-.2.34a18.46,18.46,0,0,1-7.44.15,5.78,5.78,0,0,1-4.53-5A15.93,15.93,0,0,1,133,29C133,27.39,133,25.81,133,24.24Z"/></svg>