<svg id="Capa_1" data-name="Capa 1" xmlns="http://www.w3.org/2000/svg" viewBox="0 0 205 62.67"><defs><style>.cls-1{fill:#bf0811;}</style></defs><title>rca</title><path class="cls-1" d="M72.33,58.85H45.19c-.23-.54-.47-1.09-.7-1.64Q40.29,47.1,36.08,37a2.13,2.13,0,0,1-.18-.9q0-11.32,0-22.65v-.66a64.7,64.7,0,0,0-6.71,0c-.06,1.17,0,2.35,0,3.53s0,2.37,0,3.56v39H3.83v-55l.51,0H50.27a19.32,19.32,0,0,1,6.35,1,10.65,10.65,0,0,1,6.85,6.92,20.19,20.19,0,0,1,1,6.44c0,2.49,0,5-.11,7.48A29.17,29.17,0,0,1,64,29.11a5.44,5.44,0,0,1-3.2,4.27c-.51.25-1,.47-1.57.73C63.59,42.36,68,50.58,72.33,58.85Z"/><path class="cls-1" d="M134.06,27.69h-26.6c0-1.36,0-2.69,0-4V11.56a67.56,67.56,0,0,0-7,0V51a66.93,66.93,0,0,0,7,0V34.64c.47-.12,26.16-.12,26.64,0,0,.4,0,.81,0,1.22-.09,2.18-.14,4.36-.32,6.54A29.16,29.16,0,0,1,132,50.75a12.08,12.08,0,0,1-4.56,5.91,16,16,0,0,1-5,2.11,36.71,36.71,0,0,1-5.8.94c-4.13.38-8.28.42-12.42.43q-4,0-8.1-.07a66.94,66.94,0,0,1-6.79-.47,28.92,28.92,0,0,1-6.23-1.38,11.72,11.72,0,0,1-7.49-7.62,30.16,30.16,0,0,1-1.37-6.44,126.21,126.21,0,0,1-.52-14.68c0-2.72.1-5.43.33-8.14a35.17,35.17,0,0,1,1.55-8.45,13.28,13.28,0,0,1,3.53-5.68,13.49,13.49,0,0,1,4.61-2.67,28.89,28.89,0,0,1,6.37-1.4,116.2,116.2,0,0,1,14.69-.6c2.66,0,5.33.08,8,.21a49.16,49.16,0,0,1,8.79,1.11,20.56,20.56,0,0,1,4.93,1.76,11.81,11.81,0,0,1,5.65,6.45,24.18,24.18,0,0,1,1.33,5.49,69.7,69.7,0,0,1,.51,9.68C134.08,27.38,134.07,27.51,134.06,27.69Z"/><path class="cls-1" d="M133.59,58.85c.19-.48.35-.89.53-1.3q4.31-10.21,8.6-20.42,6.94-16.47,13.86-32.93c.16-.39.39-.43.74-.43h43.75c.11.41.14,54.49,0,55.14l-24.59-.1c-.05-1.56,0-3.09,0-4.61s0-3.09,0-4.64V12.68h-6.75c0,.18,0,.38,0,.58V29.67c0,2,0,3.95,0,5.93a1.92,1.92,0,0,1-.14.75q-4.59,11-9.21,22.07l-.19.43Z"/></svg>