<svg id="Capa_1" data-name="Capa 1" xmlns="http://www.w3.org/2000/svg" viewBox="0 0 205 38.5"><defs><style>.cls-1{fill:#1037a8;}</style></defs><title>samsung</title><path class="cls-1" d="M5.64,29.68,5.5,26.25a1.91,1.91,0,0,0,0-.53c-.12-.79.19-1,1-1,2.25.05,4.5,0,6.74,0,.48.38.09.91.25,1.35a12.36,12.36,0,0,0,0,1.61,2.09,2.09,0,0,0,3.27,1.67A2.61,2.61,0,0,0,17.59,26a2.69,2.69,0,0,0-1-1.58,67.35,67.35,0,0,0-6.69-4c-.2-.36-.6-.49-.9-.73a12.78,12.78,0,0,1-2-2.36l-.37-.87a18.79,18.79,0,0,1-.49-3.24l0-3.24c.15-4.33,3-6,6.71-6.87l.42-.11,3.25-.2,2.9.36,1.41.36a.12.12,0,0,0,.15.08l0-.06,2,1.18a11,11,0,0,1,1.6,1.81,7.17,7.17,0,0,1,.65,3.2c0,1.17,0,2.34,0,3.52l-.06,0L23,13.38H19.79c-.67-.22-1.45.26-2.07-.31a8.59,8.59,0,0,0,0-2.63,1.34,1.34,0,0,0-.92-1.32c-1.41-.63-2.21-.45-2.9.67-.76,1.35-.47,2.6.85,3.72a4.17,4.17,0,0,0,1.54,1.09,16.37,16.37,0,0,0,3.22,1.73l.45.23L23,18.48h0l.41.3,0,0a.26.26,0,0,0,.25.25l0,0a.25.25,0,0,0,.26.24h-.06a.13.13,0,0,0,.1.13l.28.44A11.68,11.68,0,0,1,25.25,22c.87,2.36.45,4.79.48,7.2a9.15,9.15,0,0,1-1.65,3.58L22.63,34l-2.87,1.25A16,16,0,0,1,10,34.9,7.89,7.89,0,0,1,5.64,29.68Z"/><path class="cls-1" d="M198.53,6.59a10,10,0,0,1,.75,3.22,20.64,20.64,0,0,1-.09,3.43h-.06l0,0c-.1-.17-.21-.17-.31,0-.14,0-.28-.16-.42,0a11.58,11.58,0,0,0-3.22-.08c-.88,0-1.76,0-2.63,0-.61.05-.7-.15-.69-.71a6.14,6.14,0,0,0-.15-2.45c-.33-1.16-.95-1.62-2-1.49a1.86,1.86,0,0,0-1.84,2c0,4,0,7.91,0,11.87,0,1.62,0,3.24,0,4.86a2.05,2.05,0,1,0,4.09-.08c0-1.47,0-2.95,0-4.42,0-.36,0-.58-.5-.62-1.48-.11-1.48-.15-1.51-1.63a4.93,4.93,0,0,0-.05-.54c0-.17,0-.35,0-.53,0-1.75,0-1.75,1.79-1.86h6.48c1.23.09,1.23.09,1.34,2.19v6.49l-.15,2.88a9.19,9.19,0,0,1-1,3.23l-.15.17a8.09,8.09,0,0,1-3.59,2.26,14.53,14.53,0,0,1-9.37,0A12.28,12.28,0,0,1,182.16,33l-.58-.62a11.18,11.18,0,0,1-1.22-2.65l-.18-1.29-.06-5.2,0-.42c.11-2,0-4,0-6.06l0-.43,0-6.48a10.16,10.16,0,0,1,1-3.23,1.92,1.92,0,0,0,.57-.88.13.13,0,0,0,.1-.13h-.05a.26.26,0,0,0,.25-.25v0l2.35-1.75,0,0a.14.14,0,0,0,.13-.1c.17,0,.34,0,.44-.18l3.45-.71,3,0,3.12.75a.73.73,0,0,0,.63.14A10.73,10.73,0,0,1,198,5.71Z"/><path class="cls-1" d="M32.57,26a6.84,6.84,0,0,0,.35-2l1.16-7.55.56-3.26a25.2,25.2,0,0,0,.52-3.66A9.06,9.06,0,0,0,35.59,7a8.54,8.54,0,0,0,.4-2.3c0-.58.27-.8.88-.79C40.56,4,44.26,4,48,4c.35,0,.75-.08.82.44a10.69,10.69,0,0,0,.42,2.39,17.32,17.32,0,0,0,.45,3l.5,3,.56,3.66.52,3.25,1,6.48.48,3.05.57,3.44c0,.21,0,.42.07.64.23,1.34.23,1.31-1.11,1.32-2.11,0-4.23-.09-6.35.09-.73-.69-.24-1.7-.63-2.48A11.44,11.44,0,0,0,45,29.7c-.12-1.08-.25-2.15-.37-3.23L44.17,23a22,22,0,0,0-.43-3.44,8.06,8.06,0,0,0-.26-2.19l0-.26V17c-.21-1.84-.4-3.68-.63-5.51,0-.25,0-.64-.4-.64s-.36.35-.39.62c-.11.95-.21,1.91-.32,2.86-.09.73-.18,1.45-.28,2.17l-.37,3.22a12.67,12.67,0,0,0-.31,2.61,34.58,34.58,0,0,0-.55,4.53,12.68,12.68,0,0,0-.32,2.61l-.41,3.24a11,11,0,0,0-.2,1.26c0,.48-.17.71-.71.7-2.43-.07-4.87.11-7.3-.09a7.29,7.29,0,0,0,.23-1.86,15.79,15.79,0,0,0,.5-3Z"/><path class="cls-1" d="M173.3,3.74l.43.24c0,1.47,0,2.95,0,4.42q0,13.11,0,26.22l-.18.13-1.5,0a13.48,13.48,0,0,0-2.84,0h-3.44a1.19,1.19,0,0,1-1.27-.88,3.69,3.69,0,0,0-.65-1.44,13,13,0,0,0-1.29-3,15.54,15.54,0,0,0-1.31-3.22L157,15.89l-.31.09c0,2.35,0,4.69.21,7-.09,3.25.13,6.48.22,9.72a5.51,5.51,0,0,0,0,1.07c.14.75-.2,1-.88,1h-3.66c-.24,0-.49-.06-.74-.06-2,0-2,0-2.12-2,0-2.16,0-4.32,0-6.48q0-11,0-22l0-.24c.3-.3.68-.15,1-.15,2.35,0,4.71,0,7.06,0,.69,0,1.15.15,1.4.8l.79,2,1.41,3.46.75,2,.54,1.28c.4,1,.8,2,1.19,3,.85,2.11,1.7,4.21,2.54,6.32l.18-.1V19.77a10.69,10.69,0,0,0-.24-3c.18-4,0-7.91-.18-11.85,0-1,.31-1.12,1.11-1.11C169.28,3.79,171.29,3.76,173.3,3.74Z"/><path class="cls-1" d="M60.11,22.8l.06-3,0-3.24a3,3,0,0,0,0-1.29,24.41,24.41,0,0,0,.1-3.31,46.19,46.19,0,0,0,.11-5.13,18,18,0,0,0,0-1.94c-.05-.71.18-.91.9-.9C64.24,4,67.13,4,70,4c1,0,2.2-.4,2.82.17s.42,1.74.59,2.65A22.91,22.91,0,0,0,74,10.37c.18,2.36.61,4.68,1,7a8.15,8.15,0,0,0,.3,2.19c.09.43-.17,1.19.41,1.19s.27-.79.44-1.2a.76.76,0,0,0,0-.21l.35-2.59c.16-1.05.33-2.1.49-3.15s.35-2.39.52-3.58A27.22,27.22,0,0,0,78,6.33a8.7,8.7,0,0,0,.35-2.15c.13-.61.62-.35,1-.36,3.08,0,6.17,0,9.25,0,2.31,0,2.28,0,2.32,2.28.06,3.41.17,6.82.26,10.23v.21l0,2.38a4.26,4.26,0,0,0,.06,1.51l.15,5.84.07,2.83a29.84,29.84,0,0,0,.11,3.66,3.07,3.07,0,0,0,0,.85c.25,1-.2,1.17-1.11,1.14-2,0-4,0-6,0-.59-.59-.11-1.35-.32-2a4.31,4.31,0,0,0,0-1.52L84,23.66V23a17.53,17.53,0,0,0,0-3.24V13.28c0-.39,0-.78,0-1.17,0-.2.05-.48-.24-.51s-.35.21-.38.42c-.08.49-.14,1-.2,1.47l-.59,3.45-.32,2.18c-.25,1.43-.5,2.87-.76,4.31q-.48,3-1,6.07L80,32.72a4.17,4.17,0,0,0-.17.84c0,1-.46,1.24-1.4,1.19-1.47-.08-2.94,0-4.42,0a4.65,4.65,0,0,1-2.22-.18,5.55,5.55,0,0,0-.32-1.8,17.35,17.35,0,0,0-.49-3l-.59-3.44L69.84,23c-.41-2.44-.83-4.89-1.24-7.33l-.52-3c0-.14,0-.28,0-.42s0-.73-.41-.71-.24.49-.28.75a7.38,7.38,0,0,0,0,.94V23l0,3.24a19.59,19.59,0,0,0,0,3.25v3.24c-.16,2-.16,2-2.3,2q-2.19,0-4.38,0c-.57,0-.75-.18-.72-.74,0-.92,0-1.85,0-2.78V29.5l0-2.6Z"/><path class="cls-1" d="M135.24,3.76h7.35a.25.25,0,0,0,.2.06.17.17,0,0,0,.05.15q0,9.51,0,19c0,1.62,0,3.24,0,4.86a8,8,0,0,1-1.69,4.68L139.4,34a20.11,20.11,0,0,1-3.2,1.27,15.52,15.52,0,0,1-9.12-.59,8.51,8.51,0,0,1-4.4-5.16L122.45,28l0-1.72,0-.43a53.27,53.27,0,0,0,0-6.06l0-.42a53.45,53.45,0,0,0,0-6.07l0-.42c.17-2.67.08-5.34.08-8,0-.37-.15-.79.24-1.09h7.35l.37,0,.13.18,0,2.8a15.44,15.44,0,0,0,0,3c0,5.7,0,11.4,0,17.1a8,8,0,0,0,.16,1.06c.51,1.37,1.05,1.68,2.58,1.49,1.15-.34,1.56-1,1.56-2.44V3.94Z"/><path class="cls-1" d="M97.18,10.47c.26-1.36.21-2.78,1-4A7.23,7.23,0,0,1,103,3.32L104.17,3l.09,0,1.13-.11,2,0,3.22.37c.47.09.89.41,1.4.34l1.64.85a8.45,8.45,0,0,1,2.16,2.38,10.62,10.62,0,0,1,.61,4.18c0,2.32,0,2.32-2.26,2.37a3.16,3.16,0,0,0-.32,0h-3.19l-1.75-.11a16.35,16.35,0,0,0-.08-3,1.71,1.71,0,0,0-1.42-1.31,1.77,1.77,0,0,0-2.39.9,2.73,2.73,0,0,0,.81,3.7,4.41,4.41,0,0,0,1.57,1.06,16.6,16.6,0,0,0,3.44,1.87c.08.1.16.22.31.09a15.82,15.82,0,0,0,2.9,1.81l0-.05a.26.26,0,0,0,.26.25l0,0a.25.25,0,0,0,.25.25l0,0a.27.27,0,0,0,.26.25l0,0a.25.25,0,0,0,.25.24l0,0a.25.25,0,0,0,.25.25H115a.15.15,0,0,0,.1.13l.15.23a11,11,0,0,1,1.58,4.31c-.06,2.89.42,5.88-1.51,8.43L113.62,34,110.8,35.3l-3.22.5-.45,0h-1.52l-1.07-.07a19.48,19.48,0,0,1-3.66-1,7.33,7.33,0,0,1-4.2-5.49l0-3c.13-1.52.13-1.52,1.74-1.52h6.15l.1,2.15c-.13,1.92.75,2.88,2.51,2.74,1.58-.58,2.13-1.88,1.52-3.61a3.06,3.06,0,0,0-1.29-1.78c-2-1.35-4.14-2.48-6.25-3.65L100,19.71a.08.08,0,0,0-.09-.06h0a11.54,11.54,0,0,1-2.28-3l.06-.05a17.35,17.35,0,0,1-.55-3.35A13.2,13.2,0,0,0,97.18,10.47Z"/></svg>