<svg id="Capa_1" data-name="Capa 1" xmlns="http://www.w3.org/2000/svg" viewBox="0 0 208.73 36.5"><defs><style>.cls-1{fill:#ffd600;}</style></defs><title>stanley</title><path class="cls-1" d="M159,15.1h.7c3.84,0,7.68,0,11.52,0,.51,0,.67.15.66.66,0,1.6,0,3.21,0,4.82,0,.46-.15.59-.6.58H159v6h.65c4.44,0,8.87,0,13.3,0,.54,0,.7.15.69.68,0,1.59,0,3.18,0,4.77,0,.49-.15.62-.63.62q-10.95,0-21.89,0c-.53,0-.65-.18-.64-.67q0-14.3,0-28.59c0-.5.13-.67.65-.67,7.11,0,14.22,0,21.33,0,.2,0,.4,0,.68,0V4.86c0,1.27,0,2.55,0,3.82,0,.51-.16.61-.63.61-4.27,0-8.54,0-12.8,0H159Z"/><path class="cls-1" d="M84,33.22H82.51c-2.21,0-4.43,0-6.64,0a.65.65,0,0,1-.74-.54c-.53-1.67-1.11-3.32-1.66-5a.58.58,0,0,0-.66-.48q-5.2,0-10.41,0a.59.59,0,0,0-.66.49c-.57,1.67-1.16,3.34-1.74,5-.09.26-.16.5-.54.5-2.46,0-4.92,0-7.37,0l-.28,0c.07-.23.12-.43.19-.63q5.41-14.35,10.82-28.7a.69.69,0,0,1,.75-.54c2.82,0,5.65,0,8.47,0a.66.66,0,0,1,.73.49q5.51,14.43,11,28.86C83.86,32.8,83.9,33,84,33.22ZM63.82,21.5h7.64C70.22,17.61,69,13.77,67.77,9.93h-.11Z"/><path class="cls-1" d="M2.3,25.54c.86.34,1.68.71,2.52,1a18.35,18.35,0,0,0,9.26.85,5.54,5.54,0,0,0,1.41-.46,2.19,2.19,0,0,0,.41-3.87,9.6,9.6,0,0,0-2.5-1.25c-2-.72-4.09-1.27-6.07-2A12.82,12.82,0,0,1,4.18,18a7.08,7.08,0,0,1-2.75-6.44c.25-4.31,2.49-6.87,6.91-8a23.94,23.94,0,0,1,9.11-.56c1.94.23,3.84.68,5.76,1,.47.08.64.3.57.79-.24,1.87-.45,3.73-.68,5.6a1.27,1.27,0,0,1-.1.25l-1-.34a19.18,19.18,0,0,0-7.4-1.35,12,12,0,0,0-3.15.49A2,2,0,0,0,10,12.08a2.35,2.35,0,0,0,1,1.23,32.6,32.6,0,0,0,3.94,1.56,36.36,36.36,0,0,1,6,2.25,7.48,7.48,0,0,1,4.22,5.25c.77,4.29-.71,8.22-5.43,10.09A20.61,20.61,0,0,1,13,33.75,35.43,35.43,0,0,1,2.06,32.54c-.73-.2-.73-.2-.62-1,.26-1.92.53-3.84.79-5.75A2.38,2.38,0,0,1,2.3,25.54Z"/><path class="cls-1" d="M96.37,17.26V32.42c0,.8,0,.8-.82.8H89.17c-.79,0-.79,0-.79-.83V15.88c0-4,0-7.9,0-11.86,0-.54.13-.74.71-.73,1.84,0,3.69,0,5.54,0a1.11,1.11,0,0,1,.94.43Q105.69,15.88,115.84,28a2.13,2.13,0,0,1,.55,1.55c0,1,0,2,0,3.05,0,.46-.12.64-.63.63q-2.72,0-5.43,0a1.32,1.32,0,0,1-1.16-.54Q103.11,25.36,97,18.06Z"/><path class="cls-1" d="M176.53,3.35c.29,0,.48,0,.68,0,2.71,0,5.43,0,8.14,0a.92.92,0,0,1,1,.6c1.77,3.57,3.56,7.12,5.36,10.68l.3.58c.13-.25.24-.43.33-.61Q195,9.18,197.64,3.8c.15-.3.3-.5.69-.5,2.85,0,5.69,0,8.53,0,.13,0,.25,0,.48,0-.13.23-.22.42-.33.59q-5.3,8.76-10.59,17.53a2,2,0,0,0-.29,1c0,3.36,0,6.72,0,10.08,0,.51-.16.64-.66.64-2.34,0-4.69,0-7,0-.46,0-.6-.13-.59-.59,0-3.36,0-6.72,0-10.08a2.24,2.24,0,0,0-.32-1.13c-3.5-5.79-7-11.57-10.56-17.35C176.83,3.87,176.7,3.65,176.53,3.35Z"/><path class="cls-1" d="M36.24,33.22v-.8c0-7.43,0-14.85,0-22.27,0-.53-.13-.69-.67-.68-2.49,0-5,0-7.48,0-.52,0-.71-.14-.7-.68,0-1.59,0-3.18,0-4.77,0-.72,0-.73.73-.73H52.46c.25,0,.5,0,.81,0V6.6c0,.78,0,1.55,0,2.33,0,.46-.16.56-.58.56-2.49,0-5,0-7.48,0H44.5v23c0,.75,0,.75-.75.75H36.24Z"/><path class="cls-1" d="M132.18,27h.74c4,0,8,0,12,0,.49,0,.66.12.65.65,0,1.66,0,3.32,0,5v.6c-.24,0-.44,0-.64,0-6.86,0-13.73,0-20.6,0-.53,0-.65-.18-.65-.67q0-14.28,0-28.58c0-.49.11-.68.64-.68,2.42,0,4.83,0,7.25,0,.18,0,.36,0,.59,0Z"/><path class="cls-1" d="M116.32,18.52,103.76,3.37c.29,0,.48-.06.66-.06h11.35c.44,0,.62.11.62.58,0,4.67,0,9.34,0,14C116.38,18.05,116.35,18.2,116.32,18.52Z"/></svg>