<svg id="Capa_1" data-name="Capa 1" xmlns="http://www.w3.org/2000/svg" viewBox="0 0 114 139"><title>startrak</title><path d="M100.92,3.71C99,5.4,97.08,7.06,95.19,8.77A169.12,169.12,0,0,0,76.76,27.62,41.78,41.78,0,0,0,71.25,36a19.2,19.2,0,0,0-1,2.64A7.17,7.17,0,0,0,72.06,46a26.86,26.86,0,0,0,8,5.65c7.2,3.62,14.88,5.85,22.69,7.68a1.59,1.59,0,0,1,.64.25H10.14l-.05-.12L100.86,3.6Z"/><path d="M13.05,79.34h93.19Q60.7,107.43,15.42,135.4l-.08-.11,1.15-1a209.79,209.79,0,0,0,20.22-19.56,57.18,57.18,0,0,0,7.81-10.6,23.24,23.24,0,0,0,1.54-3.59A7.14,7.14,0,0,0,44.34,93a26.55,26.55,0,0,0-7.64-5.52,91.7,91.7,0,0,0-18.53-6.74c-1.71-.46-3.44-.86-5.16-1.29Z"/><path d="M50.63,70.51l3.52,4.16a18.57,18.57,0,0,0-2,0,2.51,2.51,0,0,1-2.71-1.24,18.74,18.74,0,0,0-2-2.39,1.46,1.46,0,0,0-.9-.42c-.72-.07-1.44,0-2.16,0-.53,0-.72.12-.7.67,0,1.1,0,2.2,0,3.35h-3V64.14c.26,0,.52,0,.78,0,2.78,0,5.55,0,8.32,0a6.42,6.42,0,0,1,2,.37,2.89,2.89,0,0,1,2,2.78,3.19,3.19,0,0,1-2,2.89C51.42,70.28,51.07,70.37,50.63,70.51Zm-6.92-1.68c1.59,0,3.09,0,4.59,0a2.21,2.21,0,0,0,1.06-.39,1.14,1.14,0,0,0-.06-2.1,4.07,4.07,0,0,0-1.54-.39c-.86-.06-1.71,0-2.57,0H43.71Z"/><path d="M81.33,70.51l3.53,4.18c-1.28,0-2.38,0-3.47,0-.18,0-.38-.22-.51-.38-.89-1.05-1.77-2.11-2.63-3.18a1.13,1.13,0,0,0-1-.48c-.89,0-1.79,0-2.77,0,0,1.17,0,2.27,0,3.37,0,.52-.13.73-.68.69-.78,0-1.57,0-2.39,0V64.11h2.11c2.26,0,4.52,0,6.77,0a7,7,0,0,1,1.93.28,3,3,0,0,1,2.26,2.93,3.27,3.27,0,0,1-2.35,3C81.89,70.39,81.67,70.43,81.33,70.51Zm-7-4.5c0,.87,0,1.68,0,2.49,0,.14.19.4.29.4,1.53,0,3.07,0,4.59-.12a1.48,1.48,0,0,0,1.44-1.37c0-.64-.55-1.16-1.46-1.37l-.13,0Z"/><path d="M15.2,64.15v1.77H7.76c-1,0-1.71.5-1.72,1.17s.71,1.28,1.69,1.29c1.65,0,3.3,0,4.94,0a3.2,3.2,0,0,1,3.17,1.89A3.23,3.23,0,0,1,13,74.64c-3.26.08-6.54,0-9.81,0,0,0-.08,0-.16-.07V72.79c.22,0,.46,0,.7,0,2.25,0,4.51,0,6.77-.05a1.85,1.85,0,0,0,1-.15c.34-.22.77-.6.79-.94a1.39,1.39,0,0,0-.65-1,3.05,3.05,0,0,0-1.42-.31c-1.46,0-2.93,0-4.4,0a3.71,3.71,0,0,1-3-1.49A2.42,2.42,0,0,1,3,65.3a3.93,3.93,0,0,1,2.74-1.18c3,0,6.09,0,9.13,0C15,64.11,15.07,64.14,15.2,64.15Z"/><path d="M111.85,64.31l-5.51,5,5.44,5.37c-1.37,0-2.58,0-3.79,0-.2,0-.42-.23-.58-.4l-4-4.42a1,1,0,0,0-.52-.38v5.09h-2.83V64.1h2.78v5.13a2.65,2.65,0,0,0,.44-.32c1.42-1.42,2.83-2.84,4.23-4.28a1.47,1.47,0,0,1,1.18-.51c1,0,2.06,0,3.09,0Z"/><path d="M99.2,74.69c-1.06,0-2,0-2.93,0a.57.57,0,0,1-.36-.24A1,1,0,0,1,95.7,74c-.31-1.52-1.27-2-2.73-1.75a17.19,17.19,0,0,1-2.78,0,.76.76,0,0,0-.78.49c-.31.64-.55,1.64-1,1.8a10.23,10.23,0,0,1-3.06.09c.13-.29.21-.53.33-.75,1.52-3.07,3.06-6.13,4.57-9.21a.87.87,0,0,1,1-.6,3.42,3.42,0,0,0,1,0c1.12-.2,1.7.27,2.2,1.3,1.39,2.86,2.92,5.65,4.4,8.46C98.92,74.09,99,74.33,99.2,74.69Zm-7-7.91-1.62,3.63h3.31C93.31,69.21,92.78,68.08,92.18,66.78Z"/><path d="M25.94,74.67c.19-.41.32-.69.46-1,1.48-3,3-5.92,4.42-8.9A1,1,0,0,1,32,64.1a4,4,0,0,0,1.14,0A1.54,1.54,0,0,1,35,65.16c1.45,2.9,3,5.76,4.5,8.63.13.25.25.51.43.88-1.06,0-2,0-2.93,0-.15,0-.34-.2-.42-.35-.27-.52-.46-1.09-.76-1.58a1,1,0,0,0-.69-.44q-2.13-.06-4.26,0a1,1,0,0,0-.66.39,8.21,8.21,0,0,0-.73,1.45.79.79,0,0,1-.92.56C27.7,74.65,26.89,74.67,25.94,74.67Zm5.29-4.3h3.32l-1.69-3.59Z"/><path d="M70.54,64.12c0,.1.07.12.07.14.18,1.66.18,1.66-1.48,1.66H65.87v8.64h-3V65.92H59.22c-1.17,0-1,.13-1.06-1v-.76Z"/><path d="M28.39,64.13c0,.07.06.09.06.11.2,1.68.2,1.68-1.46,1.68l-3,0a1,1,0,0,0-.25.09v8.53h-3V65.92H16.05V64.13Z"/></svg>