<svg id="Capa_1" data-name="Capa 1" xmlns="http://www.w3.org/2000/svg" viewBox="0 0 59 37.67"><defs><style>.cls-1{fill:#ec1c24;}</style></defs><title>tcl</title><path class="cls-1" d="M29.4,35.24H3.05c-1,0-1,0-1-1.05C2,26.39,2,18.6,2,10.8a8.48,8.48,0,0,1,8.41-8.36q22.83,0,45.65,0c.77,0,.93.26.93,1q0,15.46,0,30.92c0,.8-.25,1-1,1Q42.7,35.22,29.4,35.24Zm7.37-17.67A5,5,0,0,0,34,13.38a8.43,8.43,0,0,0-7.49.16,4.12,4.12,0,0,0-1,.71,6.15,6.15,0,0,0-1.8,5.25,5.22,5.22,0,0,0,3.31,4.87,8.87,8.87,0,0,0,4.55.64c2.91-.29,4.72-1.82,5.27-4.33.13-.56,0-.79-.6-.77-.77,0-1.55,0-2.31,0a1.07,1.07,0,0,0-.76.49,2.85,2.85,0,0,1-3.12,1.7,2.75,2.75,0,0,1-2.59-2.52,6,6,0,0,1,0-1.74A2.62,2.62,0,0,1,30,15.54,2.82,2.82,0,0,1,33.1,17c.11.21.33.5.51.5C34.65,17.59,35.68,17.57,36.77,17.57Zm-18.3-1.15c1.3,0,2.49,0,3.69,0,.49,0,.67-.18.66-.65,0-.7,0-1.4,0-2.08,0-.21-.34-.55-.53-.55-3.9,0-7.8,0-11.69,0-.46,0-.61.18-.6.62,0,.69,0,1.39,0,2.08,0,.45.17.61.61.6.94,0,1.87,0,2.8,0s1.07,0,1.07,1c0,2.11,0,4.22,0,6.33,0,.55.15.77.72.75.85,0,1.71,0,2.56,0,.62,0,.78-.24.77-.81,0-2.08,0-4.16,0-6.24Zm24.36,5V13.34H39a2.22,2.22,0,0,0-.06.36c0,3.39,0,6.78,0,10.16,0,.65.37.66.83.66h7c2.28,0,2.26,0,2.26-2.26,0-.64-.2-.82-.82-.8C46.47,21.48,44.74,21.46,42.83,21.46Z"/></svg>