<svg id="Capa_1" data-name="Capa 1" xmlns="http://www.w3.org/2000/svg" viewBox="0 0 117.33 36.5"><defs><style>.cls-1{fill:#228bcb;}.cls-2{fill:#13549f;}</style></defs><title>teora</title><path class="cls-1" d="M33.35,34.93H26.6c-4.19,0-8.85-4.59-8.59-9.19A51.64,51.64,0,0,0,18,20c-.2-3.75,1.74-6.24,4.71-8.12a8.35,8.35,0,0,1,4.91-1.33c3,.15,6-.2,9,.06a8,8,0,0,1,6.36,5.57,7.09,7.09,0,0,1-2.92,8,7.67,7.67,0,0,1-4.9,1.59c-3.23-.12-6.47-.05-9.7-.05-1.11,0-1.36.4-.81,1.33a3.31,3.31,0,0,0,3.06,1.87c4.12,0,8.23,0,12.35,0a2.85,2.85,0,0,1,2.46,1.16,2.93,2.93,0,0,1,.49,3.07A2.78,2.78,0,0,1,40.21,35c-1.83,0-3.66,0-5.49,0H33.35Zm-2.66-15.2c1.54,0,3.09.05,4.63,0a1.59,1.59,0,0,0,1.37-2.41c-.4-.69-1.1-.71-1.77-.72q-4.32,0-8.64,0c-1.22,0-1.92.62-1.92,1.62s.67,1.48,1.9,1.51C27.73,19.76,29.21,19.73,30.69,19.73Z"/><path class="cls-1" d="M58.12,10.61c2.34,0,4.71-.29,7,.67a9.51,9.51,0,0,1,5.53,5.61,4,4,0,0,1,.31,1.44c-.09,2.28.13,4.57.08,6.85-.13,6-3.06,9.13-9,9.73a33.41,33.41,0,0,1-7.48,0c-6-.75-8.12-4-8.6-9.53a54.17,54.17,0,0,1-.06-5.7,9.46,9.46,0,0,1,9.23-9Zm.27,18.33h0c1,0,2,0,3,0,2.27-.09,3.43-1.28,3.42-3.54,0-1.83,0-3.66-.06-5.48a3,3,0,0,0-3-3.27c-2.17-.08-4.36-.07-6.54,0a3.28,3.28,0,0,0-3,3.2c0,2,0,4,0,6a2.94,2.94,0,0,0,2.94,3.08C56.21,29,57.3,28.94,58.39,28.94Z"/><path class="cls-2" d="M108.1,25.71c0-2,0-4,0-6s-.8-2.85-2.78-3a53.61,53.61,0,0,0-7.17,0,2.78,2.78,0,0,0-2.54,2.46,28.78,28.78,0,0,0-.08,7.36,2.89,2.89,0,0,0,3,2.34,8.79,8.79,0,0,1,3.78.18,3,3,0,0,1-.49,6c-2.65.2-5.3.18-7.73-1.1a8.67,8.67,0,0,1-4.86-7.52,45.82,45.82,0,0,1,.07-7.59c.5-5.07,3.47-7.88,8.56-8.11,2.43-.11,4.85-.1,7.28,0a11.75,11.75,0,0,1,4.38,1.07c2.87,1.31,4,3.8,4.49,6.71.72,4.55.36,9.13.26,13.7,0,1.8-1.55,2.89-3.45,2.78a3,3,0,0,1-2.72-3.07c0-2.05,0-4.09,0-6.13Z"/><path class="cls-2" d="M94,7.36H77.09a3,3,0,0,1-3.27-2.94,2.94,2.94,0,0,1,3.2-3q17.12,0,34.21,0a3,3,0,0,1,3.09,3,2.75,2.75,0,0,1-3,2.91Z"/><path class="cls-1" d="M2.84,16.92c0-3.09,0-6.19,0-9.28a3.18,3.18,0,0,1,2.3-3.06A3.24,3.24,0,0,1,8.68,6.05,2.79,2.79,0,0,1,9,7.57C9,9.26,9,11,9,12.63c0,.73.17,1.12,1,1a16.44,16.44,0,0,1,2.53,0,2.83,2.83,0,0,1,2.71,2.94,2.87,2.87,0,0,1-2.63,3c-.94.07-1.9.06-2.85.07-.5,0-.77.16-.76.73,0,1.72,0,3.45.05,5.17a3.23,3.23,0,0,0,3.23,3.35c2.23.26,3.1,1.28,3,3.47a2.29,2.29,0,0,1-2.44,2.32C6.94,35.17,4,31.34,3,27.56a6,6,0,0,1-.18-1.46c0-3.06,0-6.12,0-9.18Z"/><path class="cls-2" d="M73.64,25c0-1.85,0-4.11.17-6.34.27-3.47,2.43-5.73,5.52-7.14a7.8,7.8,0,0,1,4.1-.73,3,3,0,0,1,2.76,2.58,3.12,3.12,0,0,1-2.13,3.26,6.24,6.24,0,0,1-1.35.22A2.64,2.64,0,0,0,80,19.41a26,26,0,0,0-.14,3.06c0,3.2,0,6.4,0,9.6a2.82,2.82,0,0,1-2.95,3,3.07,3.07,0,0,1-3.28-2.88C73.6,29.93,73.64,27.67,73.64,25Z"/></svg>