<svg id="Capa_1" data-name="Capa 1" xmlns="http://www.w3.org/2000/svg" viewBox="0 0 117.33 26"><defs><style>.cls-1{fill:#231d1c;}.cls-2{fill:#d52a22;}</style></defs><title>ultracomb</title><path class="cls-1" d="M115.67,15c-.22.14-.18.39-.23.6a4.3,4.3,0,0,1-4.6,3.43,3.39,3.39,0,0,1-2.26-1.25s-.07,0-.07.06c-.09.32.14.81-.13.93a3.28,3.28,0,0,1-1.26.06c-.39,0-.23-.32-.23-.5,0-3.24,0-6.49,0-9.74,0-1.07,0-2.15,0-3.22,0-.36.07-.48.45-.48,1.28,0,1.28,0,1.28,1.26V9.72c.06,0,.11,0,.13,0,1.54-1.94,5.2-1.51,6.36,1.18.25.58.33,1.2.57,1.77Zm-1.77-1.23a5.25,5.25,0,0,0-.27-2A2.57,2.57,0,0,0,111.71,10a2.65,2.65,0,0,0-3,2.13,6.66,6.66,0,0,0,0,3.57,2.49,2.49,0,0,0,4.65.61A4.71,4.71,0,0,0,113.9,13.78Z"/><path class="cls-1" d="M92.23,10c1.81-2.2,5.08-1.76,5.82.09l.86-.69a3.62,3.62,0,0,1,3.76-.59,2.41,2.41,0,0,1,1.61,2.28c.16,2.5,0,5,.07,7.51,0,.19,0,.28-.25.26h0c-1.41.11-1.41.11-1.41-1.28,0-1.89,0-3.79,0-5.68a1.77,1.77,0,0,0-2.46-1.78,2.29,2.29,0,0,0-1.74,2.19c-.06.73,0,1.48,0,2.22,0,1.3,0,2.6,0,3.9,0,.33-.07.44-.42.44-1.32,0-1.31,0-1.32-1.28,0-1.81,0-3.63,0-5.45,0-1.3-.46-1.94-1.39-2.09a2.35,2.35,0,0,0-2.63,1.57,5.14,5.14,0,0,0-.24,1.7c0,1.69,0,3.38,0,5.07,0,.39-.12.48-.5.48-1.24,0-1.24,0-1.24-1.23,0-2.76,0-5.53,0-8.29,0-.46.09-.6.56-.59,1,0,1,0,1,1C92.18,9.82,92.13,9.92,92.23,10Z"/><path class="cls-1" d="M68.11,18.84c-.88,0-1.65,0-2.43,0a.32.32,0,0,1-.34-.28c-.07-.25-.16-.49-.26-.78l-.58.44a4.25,4.25,0,0,1-4,.61,2.75,2.75,0,0,1-1.94-2.64,2.71,2.71,0,0,1,1.77-2.75,19.25,19.25,0,0,1,3-.77,5.64,5.64,0,0,0,.81-.2c.25-.11.69,0,.69-.48a1.22,1.22,0,0,0-.59-1.23,2.16,2.16,0,0,0-2.88.82.32.32,0,0,1-.39.19l-1.86-.33c-.29,0-.26-.17-.19-.38A3.33,3.33,0,0,1,61.52,8.7a8.31,8.31,0,0,1,3.81.05,2.55,2.55,0,0,1,2.12,2.51c.15,1.67,0,3.34,0,5A5.55,5.55,0,0,0,68.11,18.84ZM64.84,14c-.93.24-1.82.44-2.69.7a1.11,1.11,0,0,0-.87,1.15,1.38,1.38,0,0,0,.94,1.25,2.08,2.08,0,0,0,2.61-1.66A13.71,13.71,0,0,0,64.84,14Z"/><path class="cls-1" d="M34.5,17.37A4.18,4.18,0,0,1,31.83,19a3.16,3.16,0,0,1-4-3.22c-.1-2.24,0-4.49,0-6.73,0-.26.1-.31.33-.31.65,0,1.3,0,1.95,0,.37,0,.42.13.41.45,0,1.61,0,3.22,0,4.84a15.39,15.39,0,0,0,.09,1.66A1.43,1.43,0,0,0,32,17a2,2,0,0,0,2.26-1.94c.14-1.5.08-3,.09-4.5,0-.59-.2-1.4.1-1.72s1.15-.08,1.76-.11c.15,0,.3,0,.44,0s.39.07.39.38c0,3.11,0,6.23,0,9.34,0,.3-.09.39-.38.38-.57,0-1.15,0-1.72,0-.37,0-.44-.13-.42-.45S34.5,17.81,34.5,17.37Z"/><path class="cls-1" d="M48,5.19c0,1.08,0,2.08,0,3.07,0,.37.08.53.48.51s1.05-.21,1.28.07.07.85.07,1.3c0,.74,0,.74-.77.74C48,10.88,48,10.88,48,12c0,1.28,0,2.56,0,3.84,0,1,.38,1.23,1.3.95.39-.12.58-.12.56.36a5.71,5.71,0,0,0,.09.82c.09.81.09.82-.73,1a4.64,4.64,0,0,1-2.37,0,2,2,0,0,1-1.5-2c-.12-1.8-.06-3.6,0-5.39,0-.47-.08-.71-.59-.61s-.74-.14-.65-.66c0-.13,0-.26,0-.39,0-.33-.1-.73,0-1s.58-.08.89-.09.29-.1.28-.3,0-.15,0-.22A1.81,1.81,0,0,1,46.64,6,10.19,10.19,0,0,0,48,5.19Z"/><path class="cls-1" d="M88.59,13.72A6,6,0,0,1,88,16.8,4.72,4.72,0,0,1,83,19a4.33,4.33,0,0,1-3.69-3.45,7.85,7.85,0,0,1,0-3.7,4.71,4.71,0,0,1,9.1.32,5.52,5.52,0,0,1,.11.71C88.61,13.17,88.59,13.45,88.59,13.72Zm-1.73.08a5.46,5.46,0,0,0-.34-2.07,2.82,2.82,0,0,0-2.64-1.79,2.74,2.74,0,0,0-2.62,1.81,5.76,5.76,0,0,0,0,4.09,2.73,2.73,0,0,0,2.66,1.83,2.83,2.83,0,0,0,2.65-2A5.67,5.67,0,0,0,86.86,13.8Z"/><path class="cls-1" d="M39.77,11.86c0-2.13,0-4.26,0-6.39,0-.48.14-.61.59-.57a9.52,9.52,0,0,0,1.51,0c.47,0,.62.09.62.6,0,4.15,0,8.3,0,12.46,0,.88,0,.88-.86.88-.4,0-.82,0-1.22,0s-.63-.07-.62-.59C39.79,16.13,39.77,14,39.77,11.86Z"/><path class="cls-1" d="M69.51,13.79a7.22,7.22,0,0,1,.37-2.35,4.58,4.58,0,0,1,6.66-2.28,3.66,3.66,0,0,1,1.55,2.23c.06.24,0,.36-.23.38l-.28,0a2.44,2.44,0,0,1-1,.12c-.32-.09-.28-.55-.44-.83a2.49,2.49,0,0,0-4.26.05,5.41,5.41,0,0,0,0,5.33,2.36,2.36,0,0,0,2.63,1.15,2.29,2.29,0,0,0,2-2c.09-.44.23-.51.65-.45,1.32.18,1.33.17.8,1.41a4,4,0,0,1-4,2.45,4.22,4.22,0,0,1-4.1-2.77A6.92,6.92,0,0,1,69.51,13.79Z"/><path class="cls-1" d="M54.06,10.12c.22-.27.33-.43.46-.58a2.49,2.49,0,0,1,3.32-.67c.18.1.3.18.21.43-.23.58-.44,1.18-.64,1.77-.09.27-.2.22-.4.13-1.36-.61-2.22-.18-2.55,1.27a10.72,10.72,0,0,0-.18,2.33c0,1.2,0,2.41,0,3.61,0,.35-.09.45-.43.44-.63,0-1.26,0-1.9,0-.23,0-.37,0-.37-.32q0-4.73,0-9.46c0-.25.1-.31.33-.31.6,0,1.19,0,1.78,0,.35,0,.41.13.39.43S54.06,9.71,54.06,10.12Z"/><path class="cls-2" d="M5,20.71a1.64,1.64,0,0,1-1.6-.12,3.32,3.32,0,0,1-1.06-4.8,2.18,2.18,0,0,1,.61-.56c1.61-1,3.21-1.9,4.81-2.88.31-.19.46-.16.65.15.31.53.64,1,1,1.54.2.28.19.44-.13.63-1.47.9-2.93,1.82-4.38,2.73a1.82,1.82,0,0,0-.17,3.09Z"/><path class="cls-2" d="M12,4.05c1-.9,1.88-1.58,3.16-1.39A2.62,2.62,0,0,1,17.27,4.6a2.49,2.49,0,0,1,.08.77c0,1.89,0,3.78,0,5.67,0,.4-.09.57-.52.54a16.64,16.64,0,0,0-1.73,0c-.45,0-.6-.09-.59-.57,0-1.65,0-3.3,0-4.95S14,4,12.35,4.05Z"/><path class="cls-2" d="M12.39,2.09a2.93,2.93,0,0,0-1.69,2,2.91,2.91,0,0,0-.08.66c0,2.09,0,4.19,0,6.28,0,.55-.17.71-.7.66s-1,0-1.56,0c-.22,0-.34-.06-.33-.31,0-1.93-.22-3.86,0-5.78C8.3,3.05,9.42,2.08,12,2.09Z"/><path class="cls-2" d="M21.76,19.57a4,4,0,0,1,0,2.72,2.66,2.66,0,0,1-3.9,1.11c-1.48-1-2.94-2.06-4.42-3.07-.31-.21-.27-.35,0-.6.41-.47.82-.95,1.2-1.45.21-.29.38-.29.66-.09,1.15.81,2.31,1.6,3.47,2.4C20.05,21.51,21.15,21.17,21.76,19.57Z"/><path class="cls-2" d="M2.67,21.22a3.24,3.24,0,0,0,3.16.27,15.92,15.92,0,0,0,3.72-2.38c.48-.32.94-.66,1.39-1,.21-.16.33-.16.48.06.37.53.76,1.05,1.15,1.57.14.18.17.28-.05.44-1.39,1-2.74,2.08-4.17,3a3.64,3.64,0,0,1-5.57-1.57C2.75,21.53,2.73,21.44,2.67,21.22Z"/><path class="cls-2" d="M23,21.23V20a2.54,2.54,0,0,0-1.25-2.27c-1.75-1.15-3.48-2.33-5.22-3.48-.32-.2-.43-.36-.1-.64a3,3,0,0,0,.32-.39c.32-.36.54-1,.95-1s.77.44,1.15.69c1.35.91,2.67,1.87,4,2.73a2.76,2.76,0,0,1,1.35,2.51A4.3,4.3,0,0,1,23,21.23Z"/></svg>