<svg id="Capa_1" data-name="Capa 1" xmlns="http://www.w3.org/2000/svg" viewBox="0 0 221 36"><defs><style>.cls-1{fill:#ac0924;}</style></defs><title>universal</title><path class="cls-1" d="M4.5,6.07h7.82V20.35A12.85,12.85,0,0,0,12.43,22,3.27,3.27,0,0,0,13,23.43a2.69,2.69,0,0,0,1.12.95,4.56,4.56,0,0,0,1.93.35,4.24,4.24,0,0,0,1.75-.32,2.86,2.86,0,0,0,1.13-.89,3.41,3.41,0,0,0,.59-1.4,8.18,8.18,0,0,0,.17-1.77V6.07h7.82V19.56q0,5.73-2.77,8.36T16,30.56A19.11,19.11,0,0,1,11.08,30a8.48,8.48,0,0,1-3.6-1.87,8.3,8.3,0,0,1-2.22-3.41,15.29,15.29,0,0,1-.76-5.19Z"/><path class="cls-1" d="M47.9,19.09l-.3-5.43V6.07h7.49V29.93H47.77l-8.52-13,.3,5.43v7.56H32.06V6.07h7.33Z"/><path class="cls-1" d="M59.89,29.93V6.07h7.82V29.93Z"/><path class="cls-1" d="M71,6.07h7.89l4.17,15.87L87.39,6.07h7.89L87,29.93H79.14Z"/><path class="cls-1" d="M98.56,29.93V6.07H118v5.57H106.38v3.41h9.84v5.57h-9.84v3.74h12.09v5.57Z"/><path class="cls-1" d="M129.8,21.61v8.32H122V6.07h11.26a25.19,25.19,0,0,1,5,.42,9.18,9.18,0,0,1,3.26,1.24,4.59,4.59,0,0,1,1.77,2.12,7.78,7.78,0,0,1,.53,3,7.05,7.05,0,0,1-1,3.67,4.84,4.84,0,0,1-3,2.17c.62.24,1.19.48,1.69.71a3.38,3.38,0,0,1,1.28,1,4.53,4.53,0,0,1,.79,1.74,11.77,11.77,0,0,1,.29,2.88v2a11.15,11.15,0,0,0,.06,1.29,1.59,1.59,0,0,0,.23.71.61.61,0,0,0,.53.22v.73h-7.91a6.37,6.37,0,0,1-.29-1.49c-.07-.73-.11-1.63-.11-2.69a13.2,13.2,0,0,0-.13-1.95,2.49,2.49,0,0,0-.58-1.28,2.58,2.58,0,0,0-1.28-.69,8.63,8.63,0,0,0-2.19-.22Zm0-5.23h3.08a6.14,6.14,0,0,0,2.77-.5,1.81,1.81,0,0,0,.94-1.76,2.12,2.12,0,0,0-.88-1.87,3.85,3.85,0,0,0-2.27-.61H129.8Z"/><path class="cls-1" d="M160.48,13a2.17,2.17,0,0,0-.4-1,2.3,2.3,0,0,0-.73-.62,4.4,4.4,0,0,0-2-.43,3.93,3.93,0,0,0-1.89.35,1.1,1.1,0,0,0-.6,1,1.29,1.29,0,0,0,.6,1.09,6,6,0,0,0,1.56.77,22.26,22.26,0,0,0,2.19.61c.81.19,1.65.4,2.51.65a22,22,0,0,1,2.52.87,8.6,8.6,0,0,1,2.19,1.33A6.28,6.28,0,0,1,168,19.57a5.93,5.93,0,0,1,.6,2.77,7.6,7.6,0,0,1-.83,3.63,7.2,7.2,0,0,1-2.3,2.55A10.83,10.83,0,0,1,161.9,30a18.17,18.17,0,0,1-4.5.52,13.4,13.4,0,0,1-4.28-.65,10.6,10.6,0,0,1-3.29-1.74,8.22,8.22,0,0,1-2.16-2.53,6.92,6.92,0,0,1-.84-3.07h7.49a2.63,2.63,0,0,0,1.29,1.89,3.5,3.5,0,0,0,1.06.45,4.68,4.68,0,0,0,1.16.15,5.27,5.27,0,0,0,2.37-.45,1.41,1.41,0,0,0,.87-1.31,1.48,1.48,0,0,0-1-1.37,14.19,14.19,0,0,0-2.53-.87l-3.31-.82A14.21,14.21,0,0,1,150.9,19a7.5,7.5,0,0,1-2.53-2.22,6.08,6.08,0,0,1-1-3.68,6.88,6.88,0,0,1,.78-3.33,6.62,6.62,0,0,1,2.15-2.38,10.11,10.11,0,0,1,3.26-1.43,16.8,16.8,0,0,1,4.14-.48A13.8,13.8,0,0,1,162,6a9.41,9.41,0,0,1,3.07,1.62A7.56,7.56,0,0,1,167,10.07a8.69,8.69,0,0,1,.9,2.93Z"/><path class="cls-1" d="M170,29.93l8.55-23.86h8l8.55,23.86h-7.79l-.93-3.15h-7.78l-.9,3.15Zm12.46-16.67-2.42,8.55H185Z"/><path class="cls-1" d="M198,29.93V6.07h7.82V24.36H216.5v5.57Z"/></svg>