<svg id="Capa_1" data-name="Capa 1" xmlns="http://www.w3.org/2000/svg" viewBox="0 0 167 51.33"><defs><style>.cls-1{fill:#0a316a;}.cls-2{fill:#093069;}.cls-3{fill:#fefefe;}</style></defs><title>westinghouse</title><path class="cls-1" d="M27.58,47.77c-1.1,0-1.92,0-2.74,0a13.81,13.81,0,0,1-3.55-.65A21.94,21.94,0,0,1,6.89,34.48,21.21,21.21,0,0,1,5.15,24.29a21.55,21.55,0,0,1,5-12.59A21.45,21.45,0,0,1,23.05,4,21.55,21.55,0,0,1,40.73,8.14,21.06,21.06,0,0,1,49,21.34,21.62,21.62,0,0,1,42.2,42.12,21.16,21.16,0,0,1,30.46,47.7,26.64,26.64,0,0,1,27.58,47.77Zm-.66-1.62a20.41,20.41,0,1,0-20-20.56A20.45,20.45,0,0,0,26.92,46.15Z"/><path class="cls-1" d="M58.62,23.21c-.18.93-.35,1.85-.52,2.78l-1.56,8.44c0,.16-.08.22-.25.22H54c-.18,0-.23-.08-.25-.23-.38-2.23-.75-4.46-1.13-6.69-.51-3-1-6-1.52-8.95,0-.25-.08-.51-.13-.76s0-.18.15-.18c.79,0,1.59,0,2.38,0,.21,0,.2.13.22.26l.57,3.69c.33,2.15.67,4.3,1.05,6.46.11-.55.21-1.11.31-1.66l1.53-8.51c0-.19.1-.25.29-.24.8,0,1.61,0,2.41,0,.21,0,.25.09.29.27q.88,5,1.79,10l.07.17c.06-.42.12-.74.17-1.07q.64-4.17,1.28-8.33c0-.29.1-.57.13-.86,0-.13.06-.19.21-.19.78,0,1.56,0,2.35,0,.22,0,.19.11.17.25-.3,1.72-.59,3.43-.89,5.14-.5,2.95-1,5.91-1.51,8.86-.13.77-.27,1.54-.39,2.31,0,.18-.09.25-.29.25-.74,0-1.48,0-2.23,0-.15,0-.22,0-.26-.21q-.89-4.87-1.78-9.75l-.27-1.48Z"/><path class="cls-1" d="M89.78,34.65H87.29a.28.28,0,0,1-.26-.17,5,5,0,0,1-.81-2.65q0-3.85,0-7.73c0-.25,0-.35-.33-.34H80.61a3.43,3.43,0,0,0-.56,0A1.34,1.34,0,0,0,79.13,26a3,3,0,0,0,1.11,1c.83.43,1.66.86,2.48,1.32A3.59,3.59,0,0,1,84,33.36a3.52,3.52,0,0,1-2.43,1.44,4.43,4.43,0,0,1-4.27-1.26,4.36,4.36,0,0,1-1.14-3.12c0-.16.07-.2.22-.2.66,0,1.32,0,2,0,.18,0,.22.07.23.23a2.69,2.69,0,0,0,.39,1.38,1.81,1.81,0,0,0,2,.85,1.3,1.3,0,0,0,.84-1.91,2.19,2.19,0,0,0-.87-.81c-.74-.44-1.5-.86-2.24-1.31a4.32,4.32,0,0,1-1.9-1.93,3.5,3.5,0,0,1,2.68-5.06,7,7,0,0,1,1.44-.13c1.69,0,3.38,0,5.07,0,.25,0,.32-.06.31-.3,0-.6,0-1.2,0-1.8,0-.2.06-.25.26-.25.61,0,1.22,0,1.82,0,.21,0,.27.06.27.27,0,.58,0,1.17,0,1.76,0,.26.08.32.33.31.47,0,1,0,1.42,0,.17,0,.23,0,.23.22,0,.6,0,1.2,0,1.79,0,.18,0,.23-.23.23H88.85c-.17,0-.23,0-.23.22,0,2.56,0,5.12,0,7.67A5.1,5.1,0,0,0,89.78,34.65Z"/><path class="cls-1" d="M112.88,23.45a10.63,10.63,0,0,1,.31,3.55,6.6,6.6,0,0,1-.21,1.47,3.28,3.28,0,0,1-3.33,2.7,5.11,5.11,0,0,1-2-.27c-.19-.07-.25,0-.24.17,0,.42,0,.84,0,1.27,0,.2.06.26.26.25h3.68a5,5,0,0,1,1.49.19,2.57,2.57,0,0,1,1.88,2.32,4.34,4.34,0,0,1,0,1.14,2.62,2.62,0,0,1-2.54,2.29,35.53,35.53,0,0,1-4.84,0,2.51,2.51,0,0,1-.89-.24,1.54,1.54,0,0,1-.9-1.14,3.72,3.72,0,0,1,0-1.33,1.26,1.26,0,0,1,.61-.82,3,3,0,0,1,.94-.35,1.77,1.77,0,0,1-1.57-2.25,2,2,0,0,1,1.67-1.7c-.17-.12-.32-.22-.46-.34a3.25,3.25,0,0,1-1.09-2.05,13.08,13.08,0,0,1,0-4.37,2.84,2.84,0,0,1,2.43-2.42,5.73,5.73,0,0,1,2.7,0,3.06,3.06,0,0,1,1.71,1.18,4.17,4.17,0,0,1,.05-.44,1.31,1.31,0,0,1,1.16-1.08A1.39,1.39,0,0,1,115,22a1.23,1.23,0,0,1-.36,1.43,1.32,1.32,0,0,1-1.58.09c-.07,0-.11-.12-.21-.11V23.4l0,0Zm-2,2.76a6.3,6.3,0,0,0-.23-1.88,1.22,1.22,0,0,0-1-.89,1.34,1.34,0,0,0-1.64,1,7.1,7.1,0,0,0,0,3.69,1.35,1.35,0,0,0,.65.9,1.33,1.33,0,0,0,1.94-.72A6,6,0,0,0,110.89,26.21Zm-1.26,8.44h-1.91c-.21,0-.31,0-.29.28,0,.49,0,1,0,1.48,0,.21,0,.28.27.28h3.76a2.52,2.52,0,0,0,.73-.1.93.93,0,0,0,.11-1.76,2.05,2.05,0,0,0-.81-.16Z"/><path class="cls-1" d="M118.33,22.56a.47.47,0,0,0,.24-.22,2.67,2.67,0,0,1,2.77-1,2.76,2.76,0,0,1,2.29,1.92,3.47,3.47,0,0,1,.19,1.15c0,3.34,0,6.68,0,10,0,.21-.07.25-.26.25-.61,0-1.22,0-1.82,0-.27,0-.34,0-.34-.33,0-2.92,0-5.83,0-8.75a5.3,5.3,0,0,0,0-.8c-.13-.92-.62-1.36-1.44-1.31a1.54,1.54,0,0,0-1.6,1.5c0,.12,0,.23,0,.34q0,4.51,0,9c0,.26-.07.33-.32.32-.65,0-1.3,0-2,0-.21,0-.28,0-.28-.27q0-8.13,0-16.26c0-.24.07-.29.3-.28.65,0,1.31,0,2,0,.22,0,.28.06.28.27,0,1.38,0,2.76,0,4.14Z"/><path class="cls-1" d="M159.05,28.46h-2.56c-.2,0-.27,0-.26.25a13.58,13.58,0,0,0,.12,2.55,1.55,1.55,0,0,0,2.19,1.13c.6-.25.71-.79.78-1.34a6.69,6.69,0,0,0,0-.77c0-.18,0-.26.24-.26.7,0,1.4,0,2.1,0,.13,0,.21,0,.21.18a6.41,6.41,0,0,1-.26,2.22,3.5,3.5,0,0,1-3.21,2.45,6,6,0,0,1-1.69-.07,3.32,3.32,0,0,1-2.67-2.33,9.71,9.71,0,0,1-.48-3.07c0-1.28,0-2.57,0-3.86a5.46,5.46,0,0,1,.34-1.91,3.25,3.25,0,0,1,2.4-2.18,5.71,5.71,0,0,1,2.6-.09,3.49,3.49,0,0,1,2.81,2.89,6.62,6.62,0,0,1,.16,1.47c0,.81,0,1.63,0,2.44,0,.23,0,.3-.29.3C160.76,28.45,159.91,28.46,159.05,28.46Zm-1.32-2.2h1.39c.11,0,.23,0,.23-.15a5.46,5.46,0,0,0-.17-1.66,1.38,1.38,0,0,0-1.4-1.08,1.46,1.46,0,0,0-1.48,1.08,5.37,5.37,0,0,0-.19,1.65c0,.18.11.16.23.16Z"/><path class="cls-1" d="M72,28.46H69.47c-.19,0-.27,0-.26.24a18.87,18.87,0,0,0,.08,2.38c.19,1.22.93,1.53,2,1.38.54-.08.86-.49,1-1.14a4.64,4.64,0,0,0,.07-1.05c0-.18,0-.25.23-.25.7,0,1.41,0,2.11,0,.1,0,.2,0,.2.15a5.8,5.8,0,0,1-.34,2.51,3.52,3.52,0,0,1-3.15,2.2,6.1,6.1,0,0,1-1.9-.14,3.16,3.16,0,0,1-2.35-2.07,8.54,8.54,0,0,1-.54-2.87c0-1.45-.06-2.91,0-4.36a5.87,5.87,0,0,1,.36-1.9,3.28,3.28,0,0,1,2.23-2.06,5.57,5.57,0,0,1,2.75-.12,3.53,3.53,0,0,1,2.83,3,6,6,0,0,1,.13,1.26c0,.85,0,1.69,0,2.54,0,.23,0,.31-.3.31C73.73,28.45,72.88,28.46,72,28.46Zm-1.34-2.2h1.42c.1,0,.2,0,.2-.14a5.1,5.1,0,0,0-.2-1.74,1.35,1.35,0,0,0-1.38-1,1.45,1.45,0,0,0-1.45,1,4.85,4.85,0,0,0-.2,1.61c0,.19,0,.26.25.26C69.8,26.25,70.25,26.26,70.7,26.26Z"/><path class="cls-1" d="M98.46,22.61l.13-.15a2.82,2.82,0,0,1,3.12-1.1,3,3,0,0,1,2.21,2.36,4.76,4.76,0,0,1,.12,1.19c0,3.14,0,6.29,0,9.43,0,.23,0,.32-.3.31-.62,0-1.23,0-1.85,0-.25,0-.33,0-.33-.32,0-2.91,0-5.83,0-8.74a2.71,2.71,0,0,0-.24-1.23,1.37,1.37,0,0,0-2.4-.19,2.34,2.34,0,0,0-.39,1.41q0,4.35,0,8.72c0,.27-.06.36-.35.35-.6,0-1.21,0-1.82,0-.17,0-.25,0-.25-.23V21.74c0-.19.07-.21.23-.21.62,0,1.24,0,1.86,0,.22,0,.25.08.24.27S98.46,22.28,98.46,22.61Z"/><path class="cls-1" d="M140.41,33.55a3.41,3.41,0,0,1-1.91,1.28,2.61,2.61,0,0,1-3.34-2.06,7.87,7.87,0,0,1-.23-2.05c0-3,0-5.94,0-8.9,0-.23,0-.3.29-.29.61,0,1.23,0,1.85,0,.25,0,.28.08.28.29v8.69a4.18,4.18,0,0,0,.1,1.11,1.2,1.2,0,0,0,1,1,1.37,1.37,0,0,0,1.46-.51,2.41,2.41,0,0,0,.45-1.26c0-.34,0-.68,0-1q0-4,0-8c0-.24.06-.31.31-.3.6,0,1.21,0,1.82,0,.19,0,.24,0,.24.24V34.42c0,.19-.05.24-.24.24h-1.86c-.2,0-.24-.07-.23-.25S140.41,33.9,140.41,33.55Z"/><path class="cls-1" d="M125.5,28.28c0-1.13-.08-2.25,0-3.37A3.75,3.75,0,0,1,126.9,22a4.06,4.06,0,0,1,6,1.55,4.86,4.86,0,0,1,.33,1.72q0,3,0,6a3.48,3.48,0,0,1-1.1,2.69,4.66,4.66,0,0,1-5.73-.13,3.19,3.19,0,0,1-1-2.19C125.47,30.54,125.5,29.41,125.5,28.28Zm5.45-.22h0V25.58a3.39,3.39,0,0,0-.13-1,1.34,1.34,0,0,0-1.46-1,1.4,1.4,0,0,0-1.45,1.09,5.43,5.43,0,0,0-.12,1.2v4.7c0,.22,0,.45.06.67a1.49,1.49,0,0,0,1.5,1.33,1.45,1.45,0,0,0,1.53-1.27,2.85,2.85,0,0,0,.07-.71Z"/><path class="cls-1" d="M150.88,25.48c-.31,0-.62,0-.93,0s-.27,0-.29-.24a2.17,2.17,0,0,0-.4-1.12,1.42,1.42,0,0,0-2.35.11,1.05,1.05,0,0,0,0,1.12,2.34,2.34,0,0,0,.86.82c.84.52,1.69,1,2.52,1.55a3.86,3.86,0,0,1,1.92,2.57,3.73,3.73,0,0,1-1,3.69,3.88,3.88,0,0,1-2.26.89,4.07,4.07,0,0,1-3.6-1.15,5,5,0,0,1-1.26-3.43c0-.16.05-.21.21-.21q1,0,1.95,0c.19,0,.22.07.23.23a2.54,2.54,0,0,0,.55,1.54,1.91,1.91,0,0,0,1.48.73,1.32,1.32,0,0,0,1.21-1.74,2.27,2.27,0,0,0-1-1.14c-.82-.51-1.64-1-2.47-1.52a3.71,3.71,0,0,1,2.15-6.91A3.61,3.61,0,0,1,152,24.68c.12.8.11.8-.71.8Z"/><path class="cls-2" d="M92,28.12q0-3.12,0-6.24c0-.28.08-.34.34-.33.62,0,1.24,0,1.86,0,.18,0,.24.05.24.24q0,6.32,0,12.61c0,.22-.08.25-.26.25-.62,0-1.24,0-1.86,0-.25,0-.32,0-.32-.32Q92,31.23,92,28.12Z"/><path class="cls-1" d="M94.59,18.93a1.34,1.34,0,0,1-1.38,1.36,1.38,1.38,0,0,1-1.42-1.35,1.4,1.4,0,0,1,2.8,0Z"/><path class="cls-3" d="M112.88,23.45l0,0,0,0v.05Z"/><path class="cls-2" d="M27.33,44.66A18.87,18.87,0,1,1,46.18,25.84,18.88,18.88,0,0,1,27.33,44.66Zm4.74-14,.17-.31c1.47-3,3-5.92,4.43-8.88a.43.43,0,0,1,.46-.29,3.07,3.07,0,1,0-2.19-.88.4.4,0,0,1,.09.57c-.92,1.91-1.82,3.82-2.73,5.73,0,.1-.1.19-.16.31L32,26.62q-1.39-2.89-2.8-5.77a.32.32,0,0,1,.08-.46,2.94,2.94,0,0,0,1-2.88A3,3,0,0,0,27.71,15a3.06,3.06,0,0,0-2.39,5.37.27.27,0,0,1,.09.4c-.95,1.94-1.88,3.88-2.82,5.83,0,.08-.05.18-.15.23l-.13-.25-2.82-5.86a.32.32,0,0,1,.08-.46,3.07,3.07,0,1,0-2.15.84.4.4,0,0,1,.41.27q2.19,4.44,4.4,8.87l.19.35,4.86-9.5Zm-4.81,6.18h6.27a2.33,2.33,0,1,0-.08-4.65H24.58c-1.22,0-2.43,0-3.65,0a2.32,2.32,0,0,0-2.23,2.76,2.45,2.45,0,0,0,2.38,1.88Z"/></svg>