<svg id="Capa_1" data-name="Capa 1" xmlns="http://www.w3.org/2000/svg" viewBox="0 0 167 56"><defs><style>.cls-1{fill:#040404;}.cls-2{fill:#eeb70e;}</style></defs><title>whirlpool</title><path class="cls-1" d="M32.31,28.52c.82-3,1.63-6.08,2.45-9.12,1-3.58,2-7.17,2.88-10.76.17-.64.39-.87,1-.84,1.24,0,2.48,0,3.82,0-1.16,4.19-2.28,8.27-3.4,12.36C37.65,25.45,36.19,30.74,34.78,36c-.19.69-.42,1-1.19.94a13.67,13.67,0,0,0-1.81,0c-2,0-1.93,0-2.44-1.94q-2.4-9.09-4.82-18.18c-.06-.21-.15-.42-.31-.88l-1.86,6.82c-1.21,4.46-2.43,8.91-3.6,13.38-.17.64-.43.84-1.07.81-1.24-.07-2.72.35-3.64-.21s-.79-2.15-1.11-3.3C10.66,25.25,8.44,17,6.16,8.82c-.25-.93,0-1.09.83-1a13.69,13.69,0,0,0,2.48,0c.86-.09,1.14.29,1.34,1q2.46,9.3,5,18.6c.08.32.18.65.27,1,.4,0,.34-.36.4-.58q2.59-9.51,5.15-19c.19-.71.4-1.18,1.24-1a3.86,3.86,0,0,0,.68,0c3,0,3,0,3.75,2.91q2.4,8.91,4.82,17.82Z"/><path class="cls-2" d="M110,18.46a26.73,26.73,0,0,0,4.53-8.87A3.64,3.64,0,0,0,111,4.82a19.38,19.38,0,0,0-6.69,1.58,71,71,0,0,0-13.2,7.48c0-1.28,0-2.56,0-3.85,0,.15,0,.29,0,.44,0,.33-.12.77.2.94s.58-.2.85-.38a64.73,64.73,0,0,1,13.55-7.26,21.07,21.07,0,0,1,7.66-1.59c3.79.07,5.75,2.37,5.22,6.1a24.74,24.74,0,0,1-3.06,8c-1,1.79-2.3,3.32-3.38,5a9.51,9.51,0,0,0-.46.9,51.09,51.09,0,0,0-3.4,3.94,2.52,2.52,0,0,0-.88,1.37c-.32,0-.47.19-.65.37-1.71,1.76-3.41,3.52-5.12,5.27l-6.83,6.13c-1.36,1-2.72,2-4.07,3a75.42,75.42,0,0,1-16,9.44c-3.27,1.37-6.66,2.43-10.31,2a4.26,4.26,0,0,1-3.94-4.36C60.36,46,61.8,43,63.37,40.19A10.81,10.81,0,0,1,65.49,37l2.13,0a27.43,27.43,0,0,0-3.71,7.17,7.43,7.43,0,0,0-.2,3.65,3,3,0,0,0,2.72,2,16.15,16.15,0,0,0,7.94-1.64,73.22,73.22,0,0,0,15.54-9.46c1.7-1.31,3.34-2.69,5-4,1.21-1.06,2.42-2.12,3.62-3.2.38-.34.88-.6.94-1.2.38,0,.59-.22.83-.48.88-.91,1.81-1.77,2.66-2.71a44.69,44.69,0,0,0,4-4.52A22.84,22.84,0,0,0,110,18.46Z"/><path class="cls-1" d="M49.21,17.32a16.45,16.45,0,0,1,6.59-1.16A5.08,5.08,0,0,1,61,20.29a13.07,13.07,0,0,1,.43,3.46c0,4.07,0,8.14,0,12.2,0,.89-.28,1.09-1.09,1-1.12-.08-2.62.37-3.27-.2s-.22-2.19-.23-3.34c0-2.86,0-5.72,0-8.58a11.12,11.12,0,0,0-.17-1.91A2.94,2.94,0,0,0,54,20.31a8.4,8.4,0,0,0-1.12,0c-3.46,0-3.66.18-3.66,3.53,0,4.06,0,8.13,0,12.2,0,.79-.21,1-1,1a14,14,0,0,0-2.59,0c-.89.08-1.06-.26-1-1.08,0-5.83,0-11.67,0-17.51,0-3.23,0-6.47,0-9.71,0-.61.13-.87.79-.88a23.94,23.94,0,0,0,3-.24c.69-.09.8.19.79.8C49.2,11.29,49.21,14.23,49.21,17.32Z"/><path class="cls-1" d="M123.77,16.16c4.76,0,7.57,2,8.55,6.22a17.9,17.9,0,0,1,.41,5.93,20.09,20.09,0,0,1-.44,2.9c-1.11,4.32-4.5,6.53-9.33,6.13-5.12-.43-7.53-2.73-8.26-7.84a19.64,19.64,0,0,1,.1-6.17C115.63,18.52,118.62,16.16,123.77,16.16Zm-4.59,10.56a15.13,15.13,0,0,0,.43,3.91,4.16,4.16,0,0,0,8-.07,15.64,15.64,0,0,0,.09-7.48c-.51-2.24-1.7-3.25-3.67-3.31a4,4,0,0,0-4.44,3.16A14.29,14.29,0,0,0,119.18,26.72Z"/><path class="cls-1" d="M135.1,27a17.15,17.15,0,0,1,.61-5,7.5,7.5,0,0,1,6.95-5.8,17,17,0,0,1,3.49,0c3.76.47,6,2.6,6.8,6.34a19.4,19.4,0,0,1,0,8.17,7.57,7.57,0,0,1-7.17,6.5,13,13,0,0,1-4-.14c-3.68-.73-5.86-3.18-6.43-7.16A14.82,14.82,0,0,1,135.1,27Zm4.65-.26c.06.86.08,1.73.17,2.58a7.29,7.29,0,0,0,.38,1.53,4.14,4.14,0,0,0,7.88-.12,15.47,15.47,0,0,0,0-8.13,3.43,3.43,0,0,0-3.34-2.84c-2.22-.14-3.58.63-4.37,2.45A11.84,11.84,0,0,0,139.75,26.76Z"/><path class="cls-1" d="M91.11,10c0,1.29,0,2.57,0,3.85,0,.56,0,1.11,0,1.67,0,.11,0,.23,0,.34q0,9.52,0,19v0c0,.63,0,1.26,0,1.89v0A30.15,30.15,0,0,1,87,37c-.61,0-.53-.38-.53-.75V30c0-7,0-13.91,0-20.86,0-.94.12-1.45,1.23-1.38a10.76,10.76,0,0,0,2.46-.2c.75-.11,1,.14.93.89C91.06,9,91.11,9.51,91.11,10Z"/><path class="cls-1" d="M160.92,22.3c0,4.55,0,9.1,0,13.65,0,.75-.13,1.09-1,1-1.15-.09-2.71.39-3.38-.2s-.23-2.25-.24-3.44c0-8.12,0-16.25,0-24.37,0-.83.14-1.22,1.07-1.18a12.42,12.42,0,0,0,2.58-.2c.86-.15,1,.21,1,1C160.9,13.13,160.92,17.72,160.92,22.3Z"/><path class="cls-1" d="M73.89,26.6c0-3.08,0-6.17,0-9.26,0-.74.2-1,.95-.92a4.68,4.68,0,0,0,1.24,0,1,1,0,0,1,1.34.93c.15.71.45.83,1.07.36a8.43,8.43,0,0,1,5.31-1.56c.59,0,.8.15.78.76,0,1,0,2,0,3,0,.58-.09.79-.75.67a8.44,8.44,0,0,0-4.45.31,1.08,1.08,0,0,0-.84,1.21c0,4.55,0,9.11,0,13.67,0,.95-.25,1.25-1.19,1.16a13.7,13.7,0,0,0-2.48,0c-.79.07-1-.19-1-1C73.92,32.85,73.89,29.73,73.89,26.6Z"/><path class="cls-1" d="M107.44,27.49a2.52,2.52,0,0,1,.88-1.37,51.09,51.09,0,0,1,3.4-3.94,19.14,19.14,0,0,1,.17,7.5c-1,5.69-4.45,8.15-10.19,7.46-2.25-.27-2.25-.27-2.25,2,0,2.07,0,4.14,0,6.21,0,.68-.18.9-.87.92a20.43,20.43,0,0,0-2.91.34c-.67.12-.83-.06-.83-.72,0-2.21,0-4.43,0-6.65l6.83-6.13c.34,0,.68,0,1,0,2.45,0,3.74-1,4.37-3.35C107.25,29.06,107.31,28.27,107.44,27.49Z"/><path class="cls-1" d="M110,18.46a22.84,22.84,0,0,1-3.13,4.07,3,3,0,0,0-2.21-1.75A9.64,9.64,0,0,0,100,21c-.5.13-.58.45-.58.91,0,2.79,0,5.57,0,8.35-.06.6-.56.86-.94,1.2-1.2,1.08-2.41,2.14-3.62,3.2q0-8.79,0-17.59c0-.49.15-.66.64-.63a13.61,13.61,0,0,0,1.69,0c.71,0,1.35-.06,1.4.94,0,.62.43.4.79.23a13.21,13.21,0,0,1,5.51-1.43A6.26,6.26,0,0,1,110,18.46Z"/><path class="cls-1" d="M67.62,37l-2.13,0c0-.4,0-.81,0-1.21h0c0-6.06,0-12.13,0-18.19,0-.95.25-1.24,1.18-1.15a12.46,12.46,0,0,0,2.59,0c.9-.1.85.4.85,1,0,6.14,0,12.28,0,18.42,0,1-.29,1.26-1.2,1.14A7.35,7.35,0,0,0,67.62,37Z"/><path class="cls-1" d="M70.49,11c0,2.06-.86,3-2.71,3.07S65,13.16,65,11.19s.79-3,2.71-3S70.48,9,70.49,11Z"/><path class="cls-2" d="M91.11,15.89c0-.11,0-.23,0-.34A.22.22,0,0,1,91.11,15.89Z"/><polygon class="cls-2" points="91.09 34.97 91.1 34.93 91.14 34.96 91.09 34.97"/><path class="cls-2" d="M65.44,35.75h0Z"/><polygon class="cls-2" points="91.07 36.84 91.06 36.86 91.14 36.87 91.07 36.84"/></svg>