<svg id="Capa_1" data-name="Capa 1" xmlns="http://www.w3.org/2000/svg" viewBox="0 0 164.33 46.67"><defs><style>.cls-1{fill:#ff6201;}.cls-2{fill:#888889;}</style></defs><title>xiaomi</title><path class="cls-1" d="M26,44.69c-1.66,0-3.33,0-5-.11a27.23,27.23,0,0,1-6.54-1,12.91,12.91,0,0,1-8.62-8.25A18.27,18.27,0,0,1,5,31.61a54.37,54.37,0,0,1-.57-10.67,52.06,52.06,0,0,1,.62-6,22.86,22.86,0,0,1,.73-3.38,12.19,12.19,0,0,1,7-7.77,19.79,19.79,0,0,1,4.83-1.33,48.73,48.73,0,0,1,9-.51c1.92,0,3.84.12,5.76.28a18.84,18.84,0,0,1,7,1.85A12.53,12.53,0,0,1,45.93,12a28.92,28.92,0,0,1,1,5.62A76.74,76.74,0,0,1,47,27.34a28.05,28.05,0,0,1-.73,6.12,15.27,15.27,0,0,1-2.08,5A12.62,12.62,0,0,1,38,43.27a23.29,23.29,0,0,1-6.23,1.25C29.8,44.67,27.88,44.72,26,44.69ZM12.57,23.74v7c0,.35,0,.69,0,1s.06.5.51.5h3.17c.35,0,.43-.09.45-.44V19.4c0-.48,0-.52.51-.53h7.58a2.56,2.56,0,0,1,2,.92,2.65,2.65,0,0,1,.61,1.83V31.66c0,.52.05.57.56.57h3c.5,0,.57-.07.58-.57V20.13a4.59,4.59,0,0,0-.1-1,4.81,4.81,0,0,0-4.72-3.83H12.88a.29.29,0,0,0-.31.31c0,.13,0,.25,0,.37Zm22.23,0v8c0,.46.06.52.52.52h2.92c.67,0,.69,0,.69-.7V16a2.8,2.8,0,0,0,0-.29c0-.29-.1-.38-.41-.39H35.31c-.47,0-.51,0-.51.53v7.91ZM24.24,27V22.53c0-.12,0-.25,0-.37s-.09-.33-.37-.34H20.32c-.33,0-.4.08-.42.41v9.52c0,.39.08.46.46.46h3.42c.37,0,.44-.08.46-.46V27Z"/><path class="cls-2" d="M151,25v5.27c0,.63,0,.64-.64.64-.9,0-1.79,0-2.68,0-.43,0-.43,0-.43-.45,0-3,0-6,0-9a12.37,12.37,0,0,0-.17-1.72c-.09-.65-.55-.91-1.11-1.06a5.71,5.71,0,0,0-1.43-.17,7.82,7.82,0,0,0-1.8.15,1.21,1.21,0,0,0-1,1,5,5,0,0,0-.1.86c0,3.27,0,6.55,0,9.83,0,.69,0,.59-.57.6-.93,0-1.86,0-2.8,0-.4,0-.4,0-.41-.42,0-.62,0-1.24,0-1.85q0-4,0-8a5.12,5.12,0,0,0-.06-.78,1.33,1.33,0,0,0-1.14-1.23,7.79,7.79,0,0,0-3.19,0,1.42,1.42,0,0,0-1.15,1.2,8.47,8.47,0,0,0-.08,1.23c-.07,2.49,0,5,0,7.49,0,.67,0,1.34,0,2,0,.3,0,.32-.34.32h-2.18c-.31,0-.61,0-.91,0s-.3-.08-.31-.3c0-.65,0-1.29,0-1.94q0-4.1,0-8.19a10.37,10.37,0,0,1,.15-1.76,3.56,3.56,0,0,1,2.23-2.8,7.25,7.25,0,0,1,2-.49,19.06,19.06,0,0,1,3.29-.07,7.37,7.37,0,0,1,3.18.77,1.08,1.08,0,0,0,1.1,0,7.82,7.82,0,0,1,3.61-.81,13.56,13.56,0,0,1,3.65.25,5.15,5.15,0,0,1,2.15,1.08,3.62,3.62,0,0,1,1.22,2.65c.08,1,.1,1.95.09,2.92Z"/><path class="cls-2" d="M104.37,23.61a17.33,17.33,0,0,1-.14,2.79,6,6,0,0,1-1,2.52,4.77,4.77,0,0,1-2.84,1.83,16.18,16.18,0,0,1-4.33.39,14.85,14.85,0,0,1-2.66-.22,6.17,6.17,0,0,1-3.34-1.73,2.83,2.83,0,0,1-.67-1.13,6.34,6.34,0,0,1,.07-4.5,2.07,2.07,0,0,1,.56-.8,5.68,5.68,0,0,1,2.67-1.39,20.67,20.67,0,0,1,4.9-.46c.78,0,1.56.09,2.34.14.37,0,.37,0,.35-.35a5.35,5.35,0,0,0-.07-.7,1.68,1.68,0,0,0-1.37-1.41,9.05,9.05,0,0,0-3.55-.21,23.48,23.48,0,0,0-4,.91l-.43.11c-.33.07-.47,0-.47-.37,0-.63,0-1.26,0-1.89,0-.21,0-.41,0-.62a.48.48,0,0,1,.36-.52,10.09,10.09,0,0,1,2-.56,22.48,22.48,0,0,1,5.37-.3,7.24,7.24,0,0,1,3.35,1,5.59,5.59,0,0,1,2.41,3.17,12.71,12.71,0,0,1,.44,3.78Zm-7.1.35a19.52,19.52,0,0,0-2.42.13,4.87,4.87,0,0,0-1.35.34,1.43,1.43,0,0,0-.86,1,2.07,2.07,0,0,0,.2,1.52,1.6,1.6,0,0,0,.78.76,3.76,3.76,0,0,0,.94.27,15,15,0,0,0,3.85,0,2.57,2.57,0,0,0,1.29-.5,2,2,0,0,0,.62-1.26,17.5,17.5,0,0,0,.1-1.77c0-.19,0-.26-.24-.28A25.83,25.83,0,0,0,97.27,24Z"/><path class="cls-2" d="M116.27,31.16a15,15,0,0,1-2.89-.17,6.08,6.08,0,0,1-3.3-1.46,5.71,5.71,0,0,1-1.54-2.39,13.48,13.48,0,0,1-.42-5.82,8.22,8.22,0,0,1,.81-2.83,5.38,5.38,0,0,1,1.91-2.11,7.07,7.07,0,0,1,3.47-1,21.71,21.71,0,0,1,4,.05,7.42,7.42,0,0,1,3.13,1.06,5.45,5.45,0,0,1,1.91,2.16,7.78,7.78,0,0,1,.75,2.89,15.92,15.92,0,0,1,0,3.45,8.6,8.6,0,0,1-.62,2.59,5.44,5.44,0,0,1-3.83,3.25A11.7,11.7,0,0,1,116.27,31.16Zm4.08-7.69a15.15,15.15,0,0,0-.16-2.63,2.65,2.65,0,0,0-1.67-2,5.34,5.34,0,0,0-1.81-.35,7.62,7.62,0,0,0-2.77.22,2.66,2.66,0,0,0-1.08.56,3,3,0,0,0-.92,1.71,13.09,13.09,0,0,0,0,4.67,2.72,2.72,0,0,0,2.16,2.27,6.78,6.78,0,0,0,1.34.2,6.86,6.86,0,0,0,2.88-.3,2.77,2.77,0,0,0,1.87-2.11A13,13,0,0,0,120.35,23.47Z"/><path class="cls-2" d="M67.91,20.67a1.26,1.26,0,0,0,.41-.42c.58-.76,1.19-1.51,1.74-2.3s1.1-1.37,1.55-2.12a.64.64,0,0,1,.58-.32l3.79,0h0c.48,0,.57.17.31.57-.14.21-.32.38-.47.57-1.25,1.55-2.48,3.11-3.75,4.64A18,18,0,0,1,70.74,23c-.12.11-.08.22,0,.32l.93,1.21,2.52,3.24,1.59,2a6.23,6.23,0,0,0,.56.71.32.32,0,0,1,.06.38c0,.14-.18.1-.28.1h-4a.49.49,0,0,1-.44-.24c-1-1.42-2-2.82-3.08-4.22-.1-.13-.18-.27-.28-.41s-.2-.25-.38,0c-.38.47-.73,1-1.11,1.43-.83,1.08-1.67,2.14-2.5,3.22a.61.61,0,0,1-.52.25l-3.92,0c-.36,0-.43-.15-.22-.46a9,9,0,0,1,.59-.79c1.4-1.75,2.79-3.49,4.2-5.23.27-.33.54-.65.81-1a.26.26,0,0,0,0-.39Q64,21.53,62.81,20c-1-1.24-2-2.49-3-3.73a1.35,1.35,0,0,1-.27-.5c0-.14,0-.22.15-.23a4.18,4.18,0,0,1,.5,0c1.14,0,2.28,0,3.42,0a.88.88,0,0,1,.81.42C65.57,17.52,66.74,19.08,67.91,20.67Z"/><path class="cls-2" d="M159.94,23.3v7.2c0,.4,0,.41-.41.41h-3c-.34,0-.36,0-.37-.4,0-.89,0-1.78,0-2.67V18.89c0-1,0-1.92,0-2.88,0-.42,0-.45.44-.45,1,0,2,0,2.92,0,.42,0,.43,0,.43.46V23.3Z"/><path class="cls-2" d="M80.71,23.21V16c0-.49,0-.51.49-.51,1,0,1.93,0,2.89,0,.42,0,.42,0,.42.45,0,2.27,0,4.53,0,6.8,0,2.44,0,4.88,0,7.33,0,1,.06.77-.8.79s-1.7,0-2.55,0c-.47,0-.48,0-.48-.49Z"/><path class="cls-2" d="M12.57,23.74V16c0-.12,0-.24,0-.37a.29.29,0,0,1,.31-.31H26.76a4.81,4.81,0,0,1,4.72,3.83,4.59,4.59,0,0,1,.1,1V31.66c0,.5-.08.57-.58.57H28c-.51,0-.56,0-.56-.57v-10a2.65,2.65,0,0,0-.61-1.83,2.56,2.56,0,0,0-2-.92H17.21c-.47,0-.51.05-.51.53V31.79c0,.35-.1.43-.45.44H13.08c-.45,0-.51-.06-.51-.5s0-.68,0-1Z"/><path class="cls-2" d="M34.8,23.76V15.85c0-.48,0-.53.51-.53h3.21c.31,0,.39.1.41.39a2.8,2.8,0,0,1,0,.29V31.53c0,.68,0,.7-.69.7H35.32c-.46,0-.52-.06-.52-.52Z"/><path class="cls-2" d="M24.24,27v4.74c0,.38-.09.46-.46.46H20.36c-.38,0-.44-.07-.46-.46V22.24c0-.33.09-.41.42-.41h3.54c.28,0,.35.08.37.34s0,.25,0,.37Z"/></svg>