<svg id="Capa_1" data-name="Capa 1" xmlns="http://www.w3.org/2000/svg" viewBox="0 0 229.5 44.5"><defs><style>.cls-1{fill:#003f8f;}</style></defs><title>yelmo</title><path class="cls-1" d="M169.05,17.07c1.53-1.59,2.83-3,4.21-4.32a2.47,2.47,0,0,1,1.53-.66c4.23-.05,8.47,0,12.71,0,.72,0,1.08.12,1.08,1,0,7.8,0,15.59,0,23.39,0,.19,0,.38-.07.67H174.1v-8l-8.64,7.84-7.33-8-.35.09v8.23h-6.23V12.16c.47,0,.9-.06,1.33-.06,3.36,0,6.72,0,10.08,0a2.67,2.67,0,0,1,2.19.95C166.36,14.34,167.63,15.61,169.05,17.07Z"/><path class="cls-1" d="M209.57,37.93a19.61,19.61,0,0,1-12.12-4c-6.85-5.43-6.68-14.23.4-19.39A19.73,19.73,0,0,1,212.13,11a17.7,17.7,0,0,1,10.81,4.84c5.51,5.37,5.13,13-.83,17.85A19.68,19.68,0,0,1,209.57,37.93Zm-3.75-13.62c.48,1.84.79,3.48,1.35,5a2.49,2.49,0,0,0,4.89.08,11.3,11.3,0,0,0-.19-10.24c-1.14-2.19-3.32-2.26-4.4-.07A34.86,34.86,0,0,0,205.82,24.31Z"/><path class="cls-1" d="M117.53,31.4v5.84H94.36V12.37h23.17v5.78h-9.32c0,1.16,0,2.22.05,3.27,0,.23.6.55.93.56,2.19.05,4.39,0,6.59,0,.47,0,.94,0,1.48.06v6.14h-9V31.4Z"/><path class="cls-1" d="M55.37,12h2.38c4.63,0,9.27,0,13.91,0a3.55,3.55,0,0,1,3,1.24A13.28,13.28,0,0,0,76,14.43c.18-.09.31-.12.38-.21,1.56-2,3.62-2.41,6-2.22,2.26.18,4.54,0,7.07,0l-3,4.06c-1.87,2.49-3.78,5-5.6,7.49a3.59,3.59,0,0,0-.66,1.94c0,3.36,0,6.72,0,10.08V37.1h-16c0-.45-.09-.91-.1-1.37,0-3.44,0-6.88-.08-10.32a3.36,3.36,0,0,0-.56-1.74C60.9,19.86,58.22,16.08,55.37,12Z"/><path class="cls-1" d="M123,12.1h13.71V30.65h8.58c.54,0,1,0,1,.79,0,1.91,0,3.83,0,5.84H123Z"/><path class="cls-1" d="M25.57,42.1c0-.31-.06-.62-.06-.93,0-5.23,0-10.47,0-15.7A1.56,1.56,0,0,1,26,24.3c5-3.2,10-6.35,15-9.5a.54.54,0,0,1,.22-.05C46.33,26.54,38.49,40.37,25.57,42.1Z"/><path class="cls-1" d="M7.19,9.79A20,20,0,0,1,37.57,9c-1.42.88-2.83,1.76-4.24,2.62-3.47,2.12-7,4.22-10.41,6.37a1.59,1.59,0,0,1-1.94.07c-4.37-2.64-8.77-5.23-13.15-7.84C7.63,10.13,7.45,10,7.19,9.79Z"/><path class="cls-1" d="M18.41,41.74C6.93,39.81-.43,26.66,3.93,15.68l6.52,4c2.43,1.47,4.86,2.92,7.25,4.43a1.74,1.74,0,0,1,.79,1.16c0,5.39,0,10.78,0,16.17A2.05,2.05,0,0,1,18.41,41.74Z"/></svg>